<svg preserveAspectRatio="none" width="100%" height="100%" overflow="visible" style="display: block;" viewBox="0 0 642.804 677.369" fill="none" xmlns="http://www.w3.org/2000/svg">
<g id="Group 43896">
<path id="l" d="M20.7529 252.563C19.4294 257.136 17.469 261.559 15.2577 266.108C16.5344 261.458 18.4982 256.935 20.7529 252.563ZM20.7529 252.563C20.7751 252.486 20.7982 252.408 20.8201 252.331C20.82 252.331 20.8191 252.408 20.8036 252.44C20.807 252.442 20.8104 252.443 20.8138 252.444C20.7934 252.484 20.7732 252.523 20.7529 252.563ZM20.8349 252.375C20.8618 252.345 20.8889 252.312 20.9156 252.281C20.8883 252.338 20.861 252.395 20.8338 252.452C20.8342 252.426 20.8345 252.401 20.8349 252.375ZM85.132 512.494C84.1878 513.325 83.6962 514.442 83.4798 515.726C82.952 517.722 84.1409 520.261 84.5137 522.33C85.4159 527.242 86.8168 531.915 88.4432 536.523C90.11 541.251 92.7056 545.764 95.8653 549.658C96.4334 550.34 96.9716 550.771 95.4829 550.81C95.4722 550.808 95.4613 550.805 95.4507 550.802C95.4492 550.806 95.448 550.809 95.4466 550.812C95.4319 550.812 95.417 550.813 95.4019 550.814C95.4114 550.808 95.421 550.803 95.4305 550.797C95.4148 550.793 95.3991 550.789 95.3834 550.785C95.3931 550.779 95.4029 550.774 95.4126 550.768C91.8755 551.687 92.5748 548.214 91.5184 546.896C89.0933 543.866 88.6552 539.581 86.3375 536.603C83.8239 533.266 84.6522 528.929 80.7416 524.998C82.769 539.159 88.5205 552 97.8987 561.541C98.8211 560.866 97.3022 560.492 98.1103 559.518C105.523 570.934 116.134 582.645 130.532 584.493C126.61 581.473 121.113 581.52 117.721 577.497C119.93 578.224 122.33 578.453 124.294 579.411C130.304 582.364 136.787 583.792 143.115 585.784C145.37 586.485 147.539 584.712 149.738 585.514C150.412 585.757 151.535 585.422 151.837 585.886C153.13 587.823 154.739 588.453 156.447 588.545C159.821 588.661 163.367 588.016 166.77 588.24C168.879 588.381 170.983 588.453 173.082 588.479C181.435 588.585 189.726 587.967 198.072 588.074C207.953 588.186 217.85 588.029 227.726 588.205L186.23 618.667C187.004 616.382 187.78 614.032 188.559 611.673C190.508 605.821 192.894 599.478 193.79 593.446C194.817 586.487 196.12 579.491 197.065 572.445C198.37 562.848 197.332 552.82 200.842 543.239C198.719 535.91 200.346 528.217 199.987 520.629C199.185 502.858 198.501 484.848 195.786 466.8C192.473 444.741 187.499 422.651 181.252 400.821C177.096 386.348 171.903 372.116 166.264 358.024C166.035 357.475 165.976 356.84 165.806 356.138C167.094 356.555 166.968 358.79 168.038 359.376C167.716 357.521 167.096 355.068 166.021 354.484C164.252 353.529 163.73 351.465 163.019 349.775C159.855 342.126 156.446 334.54 152.934 326.979C151.67 324.255 150.344 321.544 148.969 318.845C144.37 309.809 139.298 300.981 134.157 292.192C128.395 282.356 122.459 272.578 116.002 263.125C109.079 252.991 101.632 243.146 93.7802 233.607C103.572 246.085 112.68 258.972 121.12 272.236C120.967 272.32 120.807 272.412 120.639 272.473C110.398 257.401 100.183 241.682 87.7315 228.335C87.6288 228.437 87.526 228.538 87.4233 228.64C92.3989 234.946 97.2314 241.373 101.829 247.918C103.237 249.918 104.937 251.805 105.913 253.999C104.58 253.678 103.636 251.358 102.451 250.192C102.481 250.789 103.835 251.787 103.625 252.407C103.47 252.289 103.278 252.202 103.151 252.023C98.8274 246.342 94.5098 240.604 90.4326 234.677C89.4825 233.303 88.6097 232.42 87.618 231.583C84.7037 229.126 80.9671 224.355 79.5594 221.36C78.8424 219.836 79.6927 219.864 80.7159 220.441C82.2989 221.31 82.6695 220.897 81.7879 219.05C81.2641 217.951 81.406 217.722 82.3131 218.186C84.7989 219.459 84.7708 219.26 81.2082 215.066C85.4667 218.892 84.8053 217.021 84.9312 215.306C85.1514 212.864 83.4132 208.334 89.1401 211.306C89.8745 211.693 91.1655 211.382 91.1232 209.99C91.0802 208.474 91.175 206.538 93.8677 207.357C94.2662 207.482 95.1202 208.008 95.6048 208.461C100.397 213.036 100.694 211.325 100.827 210.16C101.17 207.14 104.006 206.702 107.419 206.495C109.242 206.381 110.32 205.436 112.18 205.267C114.238 205.062 118.382 208.471 121.42 210.886C127.417 215.639 132.919 220.989 138.091 226.595C140.406 229.095 143.078 231.694 145.678 234.008C150.224 238.026 153.123 242.66 157.275 246.909C158.84 248.506 160.183 249.706 161.694 250.674C162.083 253.538 165.723 255.839 167.694 258.425C169.682 261.036 171.812 263.864 174.577 265.754C176.553 267.1 176.088 268.555 177.39 270.183C182.957 277.12 188.106 284.438 193.343 291.637C194.712 293.518 196.085 295.387 197.476 297.234C201.014 301.936 204.14 306.793 206.848 311.614C216.155 328.184 226.516 344.533 234.447 362.054C237.901 369.679 240.674 378.16 245.561 385.587C247.496 388.521 248.459 392.275 249.559 395.787C251.368 401.534 253.075 407.191 255.782 412.833C258.38 418.246 258.819 424.415 261.058 430.162C264.008 437.721 265.766 445.615 267.506 453.536C268.333 457.278 269.015 461.067 271.686 463.822C273.454 465.63 270.654 465.696 271.4 467.932C272.829 472.214 273.886 476.74 274.875 481.201C276.92 490.369 277.646 499.665 277.629 508.96C277.621 513.536 278.245 518.355 279.036 522.972C279.579 526.125 278.279 529.459 280.136 532.314C278.951 533.849 277.604 536.428 278.798 538.234C280.717 541.123 280.05 544.033 280.239 547.143C280.617 553.236 281.482 559.414 279.886 565.492C279.523 566.888 281.052 567.106 280.883 568.839C280.593 572.067 280.446 575.679 280.456 578.616C280.512 586.123 277.166 593.446 278.902 601.199C279.508 603.815 277.942 606.81 277.523 609.767C276.498 616.957 275.821 624.647 272.552 631.347C270.512 635.47 269.248 639.982 268.155 644.398L258.249 674.493L227.726 674.076C224.86 674.284 222.015 674.631 219.216 674.83C215.496 675.088 210.89 674.269 207.513 676.469C205.625 674.245 201.162 676.327 199.102 673.833C197.815 672.272 194.896 673.364 193.494 674.001C188.458 676.323 184.91 676.212 179.417 675.955C177.344 675.857 175.226 675.57 173.082 675.405C169.544 675.134 165.935 675.199 162.336 677.007C160.998 677.68 158.797 677.292 156.446 676.839C154.195 676.528 151.873 676.134 149.778 675.999C146.444 675.799 142.263 675.522 139.55 673.679C138.666 673.07 137.634 672.864 136.617 673.409C131.738 675.945 126.763 673.091 122.459 671.222C118.573 669.534 115.732 667.029 111.501 668.915C110.139 669.509 106.966 668.291 105.121 667.21C100.159 664.294 100.305 664.256 94.9383 663.31C94.1084 663.153 93.1321 662.704 92.3356 662.257C83.7239 657.55 74.365 653.887 67.0635 646.656C61.8578 641.568 54.7491 635.268 49.0608 631.896C42.2481 627.887 38.6784 621.776 33.9054 616.544C28.2284 610.33 23.2577 603.035 19.5825 595.449C11.4993 578.904 3.90346 561.642 2.44596 543.297C2.30705 541.515 2.32667 539.168 0.910113 538.208C0.0423759 537.63 -0.115259 535.369 0.0678695 534.643C1.67639 528.33 0.898199 522.082 0.604212 515.726C0.484061 513.819 0.377768 511.923 0.465437 510.062C1.32548 492.265 1.47899 474.44 2.3763 456.643C2.8822 446.372 2.82099 436.158 3.55724 425.915C4.35559 414.785 4.52849 403.712 5.17761 392.639C5.63346 384.857 6.28775 376.903 5.9483 369.12C5.81509 366.259 4.72595 362.397 7.30586 360.051C7.34405 360.022 6.57257 351.981 6.58012 351.81C6.55889 351.009 6.48205 350.207 6.58753 349.435C7.96466 337.761 7.76864 326.288 8.45723 314.758C8.67861 310.958 8.9331 307.156 9.20749 303.351C10.1124 287.369 13.8514 271.712 19.7583 257.217C22.1351 251.393 25.58 246.003 28.6886 239.983C25.4401 243.765 23.713 249.05 20.9156 252.281C25.1744 243.382 30.3989 234.801 36.631 227.759C42.2445 221.286 48.6491 213.761 55.1766 210.472C56.1349 209.974 56.9687 208.899 57.7067 208.155C58.4029 207.457 59.0469 206.911 59.6044 206.508C60.7957 205.699 61.5505 205.617 61.5278 206.17C61.487 207.868 63.1682 206.556 65.6185 204.475C66.4705 203.749 67.6246 202.676 68.2503 202.735C68.7612 202.761 67.9862 203.564 67.2572 204.291C65.9356 205.6 63.7925 207.503 65.2089 207.383C66.2149 207.296 68.0743 206.605 70.1121 204.314C70.211 204.21 70.5777 204.051 70.9151 203.863C70.8271 204.787 69.187 206.06 67.844 207.307C70.4853 206.388 72.5077 205.861 71.6191 208.331C71.4197 208.859 71.9415 208.774 70.7517 209.85C68.2847 212.077 68.5349 212.287 70.2333 211.921C72.3919 211.45 75.5334 210.099 73.8744 213.457C73.7513 213.699 73.8908 213.879 74.1349 213.799C76.5129 213.062 77.2752 213.541 76.4362 216.101C75.8779 217.768 79.4687 215.45 81.7588 213.775C86.8755 210.034 90.9182 208.812 92.2827 210.176C92.2828 210.176 92.2828 210.176 92.2829 210.176C92.7409 210.634 92.9059 211.386 92.7249 212.44C92.2812 214.909 90.8013 218.892 95.0838 216.539C91.3564 221.315 87.6538 226.092 83.9662 230.87C69.1054 250.742 63.0533 274.707 64.5285 296.869C64.6668 299.046 64.8732 301.206 65.1462 303.351C68.2757 334.184 70.0662 365.119 72.9413 395.958C73.3825 391.008 72.2298 386.001 72.6287 381.108C72.663 380.708 72.919 380.421 73.4041 379.306C73.9239 386.954 74.4259 394.603 74.9101 402.252C74.9554 402.968 75.0231 403.797 74.384 403.225C72.5238 401.595 73.7401 404.399 73.9086 404.542C75.6384 406.03 75.5289 408.49 75.2657 410.779C74.9331 413.783 75.7288 416.558 75.9851 419.448C77.167 432.638 78.1894 445.857 79.169 459.076C79.5491 464.226 79.375 469.462 80.437 474.755C81.0542 477.845 82.8807 475.385 83.1783 477.988C83.5135 480.963 80.7444 479.104 81.0202 482.165C81.3025 485.341 80.9341 488.547 81.4938 492.009C82.0735 491.265 82.5161 490.692 83.3971 489.548C81.5725 497.959 83.3956 504.969 85.132 512.494ZM92.6252 658.795C86.2192 654.444 79.0632 651.809 72.7583 647.459C78.472 652.652 85.7099 655.659 92.6252 658.795ZM49.2587 628.075C53.6079 634.753 60.4442 639.337 67.0474 643.744C60.9433 638.754 54.2807 634.211 49.2587 628.075ZM113.618 666.369C126.17 670.028 139.199 672.059 152.194 672.438C152.163 672.172 152.132 671.907 152.101 671.641C139.209 671.255 126.285 669.237 113.834 665.608C113.762 665.862 113.69 666.116 113.618 666.369ZM172.464 671.553C167.714 671.552 162.965 671.913 158.216 672.043C162.994 672.362 167.8 672.939 172.464 671.553ZM46.4847 265.814C52.59 253.559 57.1204 242.86 63.3342 233.011C55.0263 241.777 49.6878 253.062 46.4847 265.814ZM148.886 306.868C150.38 310.674 151.488 313.609 153.946 315.793C154.267 316.079 154.611 316.351 154.982 316.611C154.791 316.236 154.605 315.867 154.42 315.502C152.859 312.405 151.457 309.656 148.886 306.868ZM175.058 360.331C176.28 367.807 179.049 373.432 182.454 378.717C180.672 372.53 178.224 366.696 175.058 360.331ZM153.553 325.129C153.926 325.954 154.295 326.81 154.768 326.912C155.159 326.998 155.422 326.53 155.674 326.192C155.822 325.948 155.688 325.329 155.304 325.079C152.694 323.425 152.452 320.115 151.121 317.525C150.948 317.186 150.757 316.86 150.541 316.552C150.827 316.793 151.067 317.09 151.285 317.424C152.099 318.667 152.597 320.415 154.039 321.691C153.326 320.07 152.496 318.603 151.619 317.22C148.895 312.937 145.794 309.476 144.027 304.706C144.026 304.696 144.025 304.685 144.024 304.675C143.927 307.231 145.596 308.719 146.526 310.567C147.774 313.064 149.014 315.561 150.23 318.072C151.368 320.419 152.481 322.769 153.553 325.129ZM132.72 285.559C135.007 290.189 137.358 293.799 139.777 297.373C137.385 293.791 136.44 289.266 132.72 285.559ZM205.373 551.855C205.233 551.931 204.982 553.037 205.55 553.389C206.157 553.768 206.668 553.396 207.054 552.702C208.404 550.259 208.073 547.397 208.953 543.579C208.946 543.579 208.94 543.579 208.933 543.579C208.041 544.422 207.686 544.576 207.581 544.89C206.784 547.187 208.251 550.607 205.373 551.855ZM164.806 348.104C163.121 343.938 161.922 339.402 159.116 335.807C161.056 339.863 162.974 344 164.806 348.104ZM167.205 354.253C168.602 358.148 169.718 362.103 172.132 365.445C170.638 361.611 169.879 357.386 167.205 354.253ZM196.743 447.137C197.607 449.412 195.854 451.909 196.645 452.832C199.323 455.976 198.366 459.999 199.114 463.491C199.614 457.971 199.718 452.376 196.743 447.137ZM176.474 377.583C177.751 380.688 176.036 383.349 177.853 386.798C179.956 383.964 177.704 380.663 176.474 377.583ZM199.144 475.003C199.185 475.155 199.243 475.305 199.28 475.432C200.672 479.669 200.811 484.05 200.95 488.453C200.997 490.313 201.95 491.23 202.862 491.23C203.942 491.232 203.473 489.537 203.412 488.553C203.11 482.233 201.407 476.109 200.949 469.742C200.805 467.746 199.78 465.734 199.141 463.779C197.615 463.983 198.765 465.486 198.676 466.459C198.428 468.904 199.873 470.203 200.453 472.036C201.242 474.527 200.785 475.2 199.144 475.003ZM201.849 538.446C200.39 539.035 201.488 539.321 201.972 539.289C202.534 539.255 202.53 540.741 203.356 539.937C203.326 539.372 203.238 538.756 203.283 538.137C203.308 537.596 203.179 536.876 203.74 536.604C203.74 536.612 203.74 536.621 203.74 536.63C205.529 542.63 201.893 548.785 203.395 554.792C204.826 542.448 205.63 529.8 204.208 517.192C204.109 516.279 203.611 515.426 203.959 514.473C205.839 509.186 203.987 503.637 203.952 498.244C203.941 496.541 203.141 495.862 201.796 494.909C202.944 500.956 203.552 506.441 202.415 511.896C202.237 512.749 202.367 513.748 202.414 514.658C202.854 521.782 203.275 528.835 202.779 535.877C202.697 536.938 203.015 537.989 201.849 538.446ZM97.0112 219.194C95.9417 220.879 91.9386 226.297 86.5844 233.488C71.8608 251.151 68.1656 286.449 68.5858 288.508C67.998 273.579 72.2361 257.883 79.4645 243.325C81.2595 239.705 83.2835 236.082 85.7254 232.629C88.8987 228.349 92.2765 224.134 96.0303 220.075C96.318 219.756 96.6246 219.536 97.0112 219.194ZM200.426 566.185C199.682 574.744 198.532 583.163 197.025 591.389C196.622 593.543 195.969 595.684 197.143 597.548C197.144 597.541 197.146 597.534 197.147 597.527C198.251 596.868 198.235 595.556 198.457 594.437C200.346 585.318 201.72 575.946 202.74 566.452C202.858 565.22 203.344 563.717 202.12 563.463C200.663 563.171 200.549 564.711 200.426 566.185ZM138.136 301.56C133.394 293.808 128.718 285.92 124.281 277.834C129.557 285.319 134.081 293.314 138.136 301.56ZM172.464 592.723C168.658 591.724 164.824 593.074 160.99 592.471C164.853 594.522 168.658 593.315 172.464 592.723ZM218.758 591.691C220.904 593.191 223.279 593.555 226.198 592.974C226.701 592.875 227.211 592.794 227.726 592.732L190.548 620.023C190.91 617.744 191.78 615.474 192.997 613.349C193.298 612.816 194.216 612.465 193.351 611.813C192.484 611.162 192.039 611.86 191.77 612.791C191.091 615.148 190.376 617.473 189.634 619.736L227.726 591.774C224.736 591.744 221.747 591.717 218.758 591.691ZM192.292 609.656C194.857 606.142 196.528 602.154 197.119 597.72C193.065 600.727 194.488 605.938 192.292 609.656ZM197.22 597.666C197.222 597.658 197.223 597.65 197.225 597.642C197.22 597.646 197.215 597.649 197.21 597.652C197.214 597.657 197.217 597.662 197.22 597.666ZM151.335 328.451C151.514 328.346 151.692 328.241 151.871 328.137C158.195 339.782 162.58 352.33 167.361 364.584C162.499 352.39 157.154 340.334 151.335 328.451ZM194.287 465.747C189.827 445.105 186.179 424.01 179.709 403.482C179.714 403.48 179.719 403.479 179.724 403.477C180.051 403.383 180.385 403.258 180.704 403.138C186.697 423.861 191.246 444.816 194.287 465.747ZM168.989 370.899C169.15 370.854 169.315 370.778 169.48 370.702C173.276 380.596 176.738 390.536 179.896 400.594C179.722 400.632 179.525 400.649 179.344 400.718C176.205 390.687 172.763 380.77 168.989 370.899ZM77.2508 474.412C76.8368 468.032 77.611 461.679 75.3575 455.27C75.6693 461.651 75.9697 468.032 76.2586 474.412C76.5893 474.412 76.92 474.412 77.2508 474.412ZM118.961 274.979C118.343 273.834 117.887 274.989 117.499 273.822C115.575 268.05 111.196 263.912 107.963 259.07C106.206 256.447 105.777 255.312 105.943 254.054C109.88 259.587 114.048 265.038 117.117 271.066C117.716 272.262 118.485 272.599 119.075 273.591C119.992 275.149 119.645 275.243 118.961 274.979ZM105.943 253.987C105.946 253.985 105.948 253.983 105.951 253.981C105.95 253.989 105.95 253.999 105.948 254.008C105.945 254.007 105.942 254.006 105.939 254.006C105.941 254 105.942 253.993 105.943 253.987ZM105.948 254.008C105.952 254.009 105.956 254.009 105.959 254.01C105.955 254.014 105.95 254.018 105.946 254.022C105.947 254.017 105.948 254.013 105.948 254.008ZM105.913 253.999C105.922 254.001 105.931 254.004 105.939 254.006C105.936 254.016 105.933 254.026 105.93 254.035C105.924 254.023 105.919 254.011 105.913 253.999ZM105.946 254.022C105.945 254.032 105.944 254.043 105.943 254.054C105.938 254.048 105.934 254.041 105.93 254.035C105.935 254.031 105.941 254.026 105.946 254.022ZM133.479 584.606C132.97 584.384 132.054 584.1 131.756 584.981C131.459 585.864 132.32 585.898 132.968 586.08C136.407 587.101 139.888 587.974 143.426 588.559C140.5 585.896 136.785 586.029 133.479 584.606ZM130.345 295.206C126.658 288.885 122.475 282.908 119.107 276.296C118.913 275.907 119.011 275.455 118.99 275.034C120.854 276.667 122.42 278.835 123.91 281.47C126.205 285.541 128.571 289.576 130.809 293.685C131.255 294.499 131.871 295.496 131.387 295.9C131.136 296.109 130.697 295.82 130.345 295.206ZM69.9643 345.286C71.4608 348.748 72.3696 358.076 71.6593 363.913C70.4507 357.16 70.9586 351.151 69.9643 345.286ZM81.1327 523.949C82.2678 521.707 82.3324 520.005 81.0313 517.763C79.3703 519.873 80.1094 521.779 81.1327 523.949ZM80.2283 485.056C80.2373 484.112 80.1381 483.167 79.4899 483.082C78.6976 482.967 78.2033 484.312 78.5251 485.085C80.1783 488.976 78.6235 493.353 80.1537 498.475C80.1533 498.465 80.1528 498.455 80.1524 498.446C80.1929 493.153 80.204 489.09 80.2283 485.056ZM156.185 348.081C154.004 342.113 151.075 336.621 148.632 330.813C147.334 327.733 145.635 324.771 144.28 321.72C143.215 319.323 142.366 316.88 142.058 314.281C142.945 316.651 143.934 318.98 144.98 321.29C148.985 330.173 153.875 338.71 156.185 348.081ZM195.928 493.222C196.161 493.188 196.393 493.154 196.625 493.121C197.648 503.309 198.296 513.454 198.546 523.547C198.304 523.562 198.063 523.576 197.821 523.591C197.58 513.519 196.941 503.393 195.928 493.222ZM118.903 274.959C118.885 274.943 118.867 274.925 118.849 274.909C118.849 274.909 118.906 274.95 118.943 274.973C118.949 274.976 118.955 274.977 118.961 274.979C118.962 274.981 118.963 274.983 118.964 274.985C118.973 274.99 118.977 274.99 118.974 274.985C118.979 274.993 118.984 275.001 118.989 275.009C118.99 275.017 118.989 275.026 118.99 275.034C118.974 275.021 118.959 275.007 118.943 274.993C118.913 274.975 118.884 274.957 118.855 274.939C118.871 274.946 118.887 274.952 118.903 274.959ZM140.637 314.736C139.327 311.084 136.481 308.114 135.902 304.174C137.991 307.529 140.367 310.777 140.637 314.736ZM162.107 585.801C162.937 585.758 163.881 585.899 163.738 586.756C163.624 587.572 162.765 587.614 161.878 587.535C160.059 587.361 158.258 587.188 156.446 587.016C156.153 586.971 155.861 586.925 155.569 586.877C155.575 586.877 155.58 586.877 155.586 586.878C155.625 586.633 155.645 586.409 155.665 586.165C155.925 586.143 156.185 586.12 156.447 586.095C158.323 585.985 160.215 585.872 162.107 585.801ZM195.981 562.012C195.291 556.59 197.03 551.366 197.117 545.983C198.003 551.392 196.582 556.735 195.981 562.012ZM164.769 369.536C164.288 369.791 163.613 369.315 163.474 368.614C162.658 364.294 160.784 360.456 159.084 356.456C158.888 356.015 159.005 355.385 158.946 354.269C162.204 358.348 163.015 363.34 165.105 367.487C165.558 368.368 165.317 369.249 164.769 369.536ZM171.793 393.125C169.888 386.557 167.887 379.972 165.553 373.48C165.08 372.152 164.93 371.283 165.485 370.965C166.428 370.438 166.566 372.167 166.835 372.979C168.921 379.139 170.785 385.299 172.551 391.53C172.548 391.521 172.545 391.513 172.543 391.504C172.302 392.033 172.045 392.567 171.793 393.125ZM109.009 563.222C111.368 565.135 113.157 567.529 115.632 570.217C113.602 569.771 112.248 569.41 110.839 569.002C110.402 570.596 112.275 570.533 112.306 572.137C109.245 569.686 106.289 567.571 104.077 564.596C101.506 561.123 98.7322 557.743 95.8455 554.469C95.8276 554.466 95.8097 554.463 95.7917 554.461C94.53 552.993 94.8768 552.068 95.4466 550.812C95.4588 550.812 95.4709 550.811 95.4829 550.81C97.6603 551.386 99.7454 551.752 98.7699 554.695C98.4788 555.646 99.567 555.487 99.9732 555.844C102.264 557.868 105.251 558.957 106.118 562.271C106.396 563.3 108.262 562.618 109.009 563.222ZM178.239 411.286C174.729 405.249 173.199 398.662 172.556 391.587C175.094 397.914 176.672 404.611 178.239 411.286ZM172.551 391.53C172.553 391.549 172.555 391.568 172.556 391.587C172.55 391.57 172.543 391.553 172.536 391.536C172.541 391.534 172.546 391.532 172.551 391.53ZM189.244 465.829C188.233 464.83 186.847 464.719 187.079 462.625C187.816 455.83 184.808 449.912 183.639 443.569C183.566 443.131 183.508 442.687 183.417 442.171C184.598 442.33 183.852 444.159 185.034 444.753C184.64 441.388 184.259 438.152 183.076 435.117C182.917 434.729 182.331 434.386 182.345 434.218C182.532 432.363 180.876 429.441 182.143 428.796C183.39 428.129 183.75 431.389 183.992 432.657C183.994 432.665 183.996 432.674 183.998 432.683C186.183 443.607 188.445 454.44 189.244 465.829ZM68.7059 293.188C68.9284 296.684 69.807 300.034 70.5022 303.351C70.8715 305.737 71.1337 308.153 71.1497 310.638C71.1528 311.525 71.5546 312.984 70.9257 313.156C70.3479 313.327 70.0974 312.069 70.0081 311.039C70.0038 311.039 69.9995 311.039 69.9952 311.039C69.7728 308.476 69.5483 305.914 69.3216 303.351C68.9274 300.001 68.7198 296.607 68.7059 293.188ZM74.6216 346.431C74.0619 351.181 76.5652 355.559 76.1876 360.251C76.1932 360.26 76.1989 360.27 76.2045 360.28C76.0393 362.197 76.2033 364.399 75.2033 366.145C73.8201 359.335 74.2 353.183 73.4779 347.089C73.3882 346.316 73.6072 345.373 74.1332 345.459C74.2898 345.487 74.647 346.231 74.6216 346.431ZM76.1856 375.557C76.5041 378.962 79.9534 382.196 76.7708 385.544C75.3985 382.225 76.3662 378.905 76.1856 375.557ZM76.8671 388.805C78.4831 393.812 77.6999 397.847 78.1708 401.738C77.1609 397.932 76.6088 394.069 76.8671 388.805ZM95.473 550.752C95.4688 550.761 95.4652 550.77 95.4611 550.779C95.4864 550.765 95.5118 550.75 95.5372 550.736C95.5158 550.742 95.494 550.746 95.473 550.752ZM72.9902 328.263C73.1092 332.011 74.3091 335.96 73.5031 340.709C71.8782 335.902 72.8391 331.924 72.1291 328.09C72.1041 327.947 72.3308 327.461 72.4159 327.518C72.6135 327.633 72.9566 328.034 72.9742 328.234C72.9795 328.244 72.9848 328.253 72.9902 328.263ZM133.447 576.811C135.45 577.136 135.706 579.457 137.743 578.909C137.75 578.904 137.757 578.899 137.764 578.894C137.623 579.318 137.464 579.737 137.322 580.16C136.855 580.116 136.38 580.149 135.927 580.036C129.463 578.458 123.16 575.907 117.212 572.486C116.501 572.074 115.924 571.584 116.394 570.743C117.107 569.461 117.814 570.112 118.506 570.532C121.637 572.431 125.064 573.699 128.137 575.496C129.802 576.475 131.78 576.53 133.447 576.811ZM189.403 475.861C188.535 472.576 187.511 469.926 187.415 466.965C189.739 467.607 190.991 471.922 189.403 475.861ZM191.194 502.126C189.892 500.165 190.582 498.036 190.825 496.147C190.825 496.155 190.826 496.164 190.827 496.172C191.319 492.42 191.286 488.732 190.086 485.153C192.901 490.216 192.461 496.239 193.087 501.893C193.177 502.836 193.059 503.826 192.147 503.933C191.123 504.028 191.511 502.601 191.194 502.126ZM192.633 539.707C191.74 538.151 189.634 538.275 190.844 536.506C192.525 534.035 191.879 531.647 191.356 529.475C190.601 526.388 192.628 523.914 192.014 520.808C191.249 516.847 192.861 512.47 191.416 508.391C191.103 507.529 191.222 506.412 192.159 506.384C193.097 506.357 193.095 507.494 193.149 508.413C193.373 513.156 193.838 517.95 193.41 522.605C193.404 522.613 193.398 522.622 193.392 522.631C192.901 528.107 193.591 533.515 192.633 539.707ZM161.163 578.443C162.135 577.829 162.507 578.439 162.679 578.642C164.31 580.453 166.713 580.592 168.945 579.733C171.033 578.936 171.005 580.323 171.206 580.731C171.749 581.811 169.975 581.751 169.403 581.752C165.106 581.873 160.761 582.164 156.446 582.263C154.596 582.336 152.782 582.231 151.025 581.816C148.384 581.181 145.782 582.098 143.301 581.255C143.297 581.247 143.293 581.24 143.289 581.232C141.368 580.581 138.678 581.206 138.148 578.326C138.95 576.867 139.482 581.011 139.995 577.417C140.098 576.733 141.01 576.911 141.558 577.009C145.036 577.585 148.332 578.287 151.801 579.702C153.216 580.273 154.862 580.622 156.447 580.169C158.109 579.899 159.716 579.363 161.163 578.443ZM190.583 562.875C188.608 559.348 190.377 555.935 191.092 553.328C192.092 549.616 190.534 546.758 190.951 543.396C191.037 542.622 190.378 541.437 191.333 541.234C192.25 541.026 192.663 542.185 192.623 543.366C192.629 543.375 192.635 543.383 192.641 543.391C192.396 549.763 193.032 556.209 190.583 562.875ZM197.328 579.638C197.757 579.863 198.387 577.893 199.102 579.547C199.331 580.098 199.016 580.687 197.843 580.843C190.032 581.898 182.163 581.956 174.266 581.383C174.009 581.362 173.809 580.872 173.18 580.098C179.846 579.996 185.797 578.828 192.121 579.244C193.837 579.354 195.612 578.752 197.328 579.638ZM209.803 578.366C212.778 577.804 213.036 580.103 215.096 580.448C210.804 582.397 207.113 582.452 204.108 578.461C206.455 579.557 208.144 578.676 209.803 578.366ZM180.93 599.71C180.97 598.649 180.253 596.47 183.103 597.306C183.795 597.522 183.919 596.898 183.675 596.335C183.539 596.027 183.24 595.803 183.014 595.525C185.688 592.678 184.929 588.71 185.945 585.294C186.113 584.699 186.294 583.766 187.151 584.082C187.664 584.276 187.726 584.745 187.606 585.424C185.901 595.514 183.664 605.276 180.812 614.507C180.799 614.503 180.786 614.499 180.773 614.495C180.678 614.793 180.331 615.016 179.888 615.528C179.126 613.558 179.011 611.339 179.999 610.134C182.172 607.5 181.25 604.032 182.787 601.289C183.125 600.689 183.996 599.483 182.522 599.071C181.562 598.799 181.138 599.27 180.93 599.71ZM180.755 600.203C180.791 600.085 180.84 599.9 180.93 599.71C180.922 599.943 180.879 600.122 180.755 600.203Z" fill="var(--stroke-0, #DADAF5)"/>
<path id="t" d="M190.457 135.413C192.507 139.615 193.831 144.195 194.835 149.017C193.031 144.686 191.681 140.088 190.457 135.413ZM190.457 135.413C190.423 135.342 190.388 135.271 190.354 135.201C190.354 135.201 190.404 135.257 190.414 135.291C190.417 135.289 190.421 135.288 190.424 135.287C190.435 135.329 190.446 135.371 190.457 135.413ZM190.394 135.223C190.394 135.183 190.392 135.141 190.392 135.101C190.409 135.16 190.426 135.219 190.444 135.279C190.427 135.26 190.411 135.241 190.394 135.223ZM420.07 310.725C420.656 315.056 427.194 316.997 431.499 319.444C438.747 323.558 446.009 327.37 453.357 331.246C460.853 335.199 468.897 338.692 476.879 341.562C478.294 342.058 479.406 342.31 477.743 342.971C477.727 342.972 477.712 342.974 477.697 342.976C477.699 342.98 477.701 342.984 477.703 342.988C477.687 342.994 477.671 343.002 477.654 343.008C477.659 342.998 477.663 342.988 477.668 342.978C477.646 342.98 477.623 342.983 477.601 342.985C477.606 342.975 477.61 342.964 477.615 342.954C474.654 345.447 471.668 341.485 468.979 340.571C463.01 338.55 457.385 334.273 451.578 332.586C445.309 330.735 440.287 325.732 432.452 324.829C452.043 336.778 471.351 346.693 491.552 353.503C492.047 352.471 489.856 352.606 489.902 351.29C510.263 360.842 531 370.57 553.04 371.349C545.936 368.542 537.792 369.19 530.647 365.551C534.264 365.969 537.96 365.905 541.417 366.69C551.914 369.094 562.502 370.201 572.673 372.047C576.199 372.687 579.391 370.878 582.822 371.656C583.891 371.892 585.585 371.548 586.07 372.01C589.018 374.788 592.716 374.848 596.276 374.528L553.893 417.762C553.752 415.167 553.529 412.542 553.674 409.987C553.815 407.558 553.887 405.135 553.914 402.717C554.019 393.097 553.402 383.549 553.509 373.937C553.654 359.076 553.343 344.182 553.912 329.354C554.247 320.755 555.191 311.736 555.04 303.51C555.038 303.448 555.036 303.387 555.034 303.326C554.799 297.245 554.393 291.186 553.176 285.256C551.498 277.088 546.891 270.2 545.425 261.497C541.156 258.132 538.705 253.514 535.283 249.387C534.148 248.102 532.999 246.833 531.816 245.606C516.05 229.217 501.377 211.875 486.066 195.031C467.296 174.377 448.624 153.577 430.284 132.54C418.12 118.607 405.71 104.873 393.516 90.9712C393.031 90.4312 392.68 89.7562 392.189 89.0356C393.687 89.1689 394.582 91.6286 395.942 91.9933C394.753 90.06 393.016 87.5571 391.663 87.1866C389.428 86.578 387.992 84.4716 386.513 82.782C385.066 81.1127 383.618 79.4445 382.17 77.7763C378.246 73.0683 373.847 68.741 369.041 64.8185C359.337 56.8937 347.511 51.4073 334.994 48.1219C324.19 45.2816 312.7 44.1091 301.222 45.2037C288.919 46.3699 276.676 50.0487 265.451 56.0251C280.026 48.6805 296.047 45.1948 311.659 45.572C311.645 45.7458 311.632 45.9303 311.59 46.1037C293.658 46.1665 274.416 50.3316 259.055 61.2205C259.142 61.3361 259.229 61.4517 259.316 61.5674C266.373 57.3965 273.882 54.1391 281.551 51.9513C283.895 51.2776 286.262 50.3664 288.646 50.3138C287.852 51.4128 285.381 51.422 283.891 52.1341C284.454 52.3104 285.849 51.4051 286.348 51.83C286.184 51.9308 286.037 52.0771 285.827 52.1308C279.082 54.0905 272.435 56.6298 265.827 59.5315C264.29 60.2129 263.271 60.9279 262.281 61.784C259.374 64.262 254.258 67.531 251.16 68.8621C249.58 69.5294 249.65 68.6758 250.305 67.6568C251.299 66.0907 250.921 65.681 248.965 66.5197C247.805 67.0251 247.576 66.8812 248.12 65.9597C249.636 63.4721 249.416 63.3927 244.827 67.0797C249.086 62.6838 247.15 63.3721 245.365 63.2108C242.87 62.9349 237.832 64.9608 241.595 58.7932C242.087 58.014 241.93 56.6367 240.434 56.6978C238.812 56.7608 236.705 56.7404 237.97 53.799C238.164 53.363 238.861 52.431 239.441 51.8971C245.269 46.7266 243.577 46.4471 242.296 46.2569C239.046 45.8381 239.111 42.7658 239.784 38.9965C240.138 36.9904 239.363 35.7827 239.716 33.7254C240.084 31.4224 245.403 26.9765 249.439 23.9933C257.345 18.0336 266.37 13.3876 275.795 10.0488C280.003 8.54448 284.601 6.91657 288.928 5.43505C296.471 2.83736 303.703 2.50958 311.451 1.41179C314.374 1.00125 316.714 0.619061 318.957 -1.66893e-06C322.3 1.40926 327.669 0.0714858 332.018 0.420571C336.384 0.753865 341.06 1.32784 345.417 0.952574C348.531 0.687933 349.517 2.14201 352.263 2.6355C367.088 5.31896 381.463 10.9631 394.957 17.9177C402.091 21.5854 408.602 26.0569 414.333 30.9856C416.968 33.2474 419.498 35.5319 422.014 37.9322C435.085 50.2783 449.078 61.8097 462.124 74.1824C468.68 80.395 475.153 87.5762 483.194 92.677C486.363 94.6809 489.088 97.8748 491.805 100.704C496.286 105.356 500.72 109.915 506.097 113.905C511.26 117.735 514.952 123.178 520.099 127.304C526.857 132.709 532.876 138.854 539.045 144.894C541.945 147.726 544.842 150.7 548.724 151.572C551.284 152.134 549.001 153.766 550.992 155.27C554.817 158.155 558.493 161.375 562.131 164.541C569.613 171.039 576.241 178.158 582.575 185.618C585.005 188.486 587.927 191.241 590.915 193.755C591.962 194.675 592.997 195.588 594.015 196.493C597.351 199.455 599.309 203.904 603.198 205.936C603.552 208.34 604.565 211.985 606.988 213.375C610.903 215.624 612.563 219.371 614.979 222.974C619.742 230.07 624.497 237.314 626.485 245.736C626.935 247.657 628.439 247.269 629.218 249.563C630.69 253.838 632.306 258.58 633.616 262.41C637.044 272.328 636.346 283.098 639.911 292.953C641.009 295.962 640.419 299.838 640.332 303.51C640.322 303.833 640.322 304.155 640.336 304.475C640.623 311.757 641.612 319.237 640.14 326.355C638.511 334.131 639.797 342.007 640.264 349.586C640.522 353.87 639.704 359.175 641.903 363.063C639.68 365.238 641.762 370.378 639.268 372.751C637.706 374.233 638.798 377.595 639.435 379.21C641.758 385.009 641.647 389.095 641.389 395.422C641.292 397.809 641.004 400.248 640.84 402.717C640.569 406.792 640.634 410.949 642.441 415.094C642.75 415.8 642.836 416.716 642.794 417.762L642.667 462.652L598.041 463.412C594.673 463.373 590.129 462.343 586.394 462.162C583.09 462.017 578.912 461.875 576.163 460.161C575.272 459.594 574.245 459.44 573.274 460.04C568.582 462.832 563.648 460.373 559.27 458.945C555.322 457.653 552.327 455.516 548.467 457.96C547.215 458.728 544.066 457.994 542.166 457.234C537.034 455.192 537.101 455.12 531.923 455.253C531.114 455.266 530.124 455.029 529.295 454.762C520.312 451.981 510.95 450.969 502.293 446.507C496.166 443.366 487.696 440.141 481.464 439.445C474.096 438.635 468.671 434.884 462.382 432.706C454.964 430.145 447.545 426.783 440.743 422.874C425.823 414.332 410.188 407.257 396.645 396.948C395.334 395.942 393.709 394.494 392.126 395.003C391.169 395.319 389.473 394.093 389.066 393.523C384.156 386.536 375.868 383.53 369.421 378.628C351.687 365.158 334.499 351.18 318.735 335.649C309.666 326.727 300.526 317.889 292.329 308.236C285.365 300.037 278.43 291.966 271.821 283.564C269.951 281.187 268.127 278.807 266.326 276.381C260.599 268.666 255.129 260.532 249.199 253.002C247.015 250.249 243.348 246.986 243.812 243.144C243.805 243.105 237.577 235.394 237.481 235.198C236.914 234.393 236.304 233.617 235.866 232.768C229.072 220.044 221.604 208.116 215.349 195.382C206.469 177.332 199.13 158.48 192.758 139.483C190.797 133.625 189.642 127.412 187.467 121.042C187.935 125.943 190.331 130.889 190.392 135.101C187.654 125.819 185.093 116.302 183.659 107.028C183.184 103.98 182.544 100.784 181.977 97.6147L178.755 80.7819L188.098 73.215C192.386 69.8649 196.705 66.6205 200.848 64.7665C201.809 64.3295 202.651 63.306 203.383 62.5935C205.779 60.2834 207.441 59.6616 207.346 60.4986C207.173 62.3294 209.081 60.7899 211.875 58.3649C212.847 57.5194 214.17 56.2781 214.839 56.2942C215.386 56.2828 214.492 57.2058 213.652 58.0438C212.131 59.5516 209.681 61.7618 211.214 61.5247C212.303 61.3553 214.356 60.4713 216.722 57.8513C216.836 57.7321 217.243 57.5337 217.62 57.3058C217.455 58.3061 215.594 59.8006 214.055 61.2436C216.966 60.0542 219.182 59.3344 218.038 62.0589C217.784 62.6426 218.351 62.5114 216.99 63.759C214.167 66.3414 214.42 66.5485 216.275 66.027C218.633 65.3561 222.115 63.6648 220.075 67.4035C219.925 67.6723 220.061 67.8558 220.33 67.7516C222.944 66.7779 223.728 67.2354 222.631 70.0529C221.904 71.8886 225.943 69.1234 228.534 67.1474C234.322 62.7346 238.765 61.1135 240.129 62.4777C240.129 62.4778 240.129 62.4779 240.129 62.4779C240.587 62.936 240.708 63.7322 240.433 64.8801C239.768 67.5705 237.874 71.9675 242.66 69.1111C233.891 79.9802 225.231 90.8506 216.591 101.708L220.545 85.9452C230.198 108.06 241.689 129.076 254.297 149.381C273.771 180.638 295.512 210.383 321.043 236.224C317.977 231.846 313.702 228.36 310.783 223.942C310.546 223.58 310.557 223.178 310.211 221.932C315.097 227.522 320.098 232.998 325.21 238.355C325.778 238.951 326.347 239.544 326.917 240.136C327.452 240.691 328.085 241.322 327.199 241.273C324.643 241.152 327.536 242.653 327.764 242.656C330.119 242.736 331.764 244.785 333.193 246.785C335.093 249.419 337.69 251.093 339.973 253.18C350.436 262.732 361.198 271.896 372.293 280.544C376.601 283.904 380.711 287.695 385.678 290.455C388.58 292.062 387.748 289.002 390.054 290.518C392.692 292.242 389.424 293.154 392.111 294.971C394.889 296.844 397.331 299.236 400.569 301.015C400.3 300.078 400.092 299.359 399.681 297.926C405.547 304.78 412.617 307.674 420.07 310.725ZM528.915 451.324C521.994 448.444 514.688 447.734 507.733 445.497C514.374 448.711 521.75 449.735 528.915 451.324ZM480.25 435.912C486.554 440.117 494.117 441.767 501.453 443.772C494.404 441.058 486.946 439.35 480.25 435.912ZM550.198 455.153C562.779 457.11 575.637 458.328 588.768 458.568C588.733 458.302 588.699 458.037 588.664 457.771C575.613 457.528 562.827 456.316 550.314 454.371C550.276 454.632 550.237 454.893 550.198 455.153ZM636.987 403.43C636.987 408.207 637.262 412.984 637.418 417.762L637.306 457.367L597.934 458.037C597.12 458.076 596.305 458.108 595.488 458.133C596.305 458.165 597.122 458.197 597.938 458.224L637.493 457.551L637.605 417.762C637.91 412.946 638.199 408.125 636.987 403.43ZM218.596 128.501C214.621 114.166 209.377 102.412 204.877 90.6858L204.804 90.3046L205.016 90.1332C205.512 89.5575 206.008 88.9831 206.503 88.41C205.916 88.893 205.333 89.3802 204.754 89.8716L204.402 90.1573L204.523 90.793C207.258 103.528 212.294 115.667 218.596 128.501ZM355.604 49.8118C359.519 52.375 362.169 54.4296 366.098 54.7823C362.726 52.5914 359.794 50.7171 355.604 49.8118ZM403.469 91.1784C408.135 98.8606 413.669 104.092 419.692 108.646C414.812 102.622 409.575 97.1415 403.469 91.1784ZM368.811 62.9126C369.492 63.4658 370.17 64.0567 370.631 63.9365C371.013 63.8403 371.055 63.3091 371.138 62.8977C371.168 62.6144 370.788 62.124 370.337 62.0738C366.939 61.7521 365.195 58.2823 362.255 56.9899C363.975 57.2552 365.389 59.1298 367.719 59.6738C362.021 55.2442 355.948 54.5183 350.41 50.9566C350.403 50.9491 350.396 50.9415 350.389 50.934C351.831 53.0073 354.003 53.2115 355.776 54.192C360.391 56.7597 364.778 59.6432 368.811 62.9126ZM329.245 44.6061C334.227 46.0158 338.383 46.9613 342.542 48.0236C338.432 46.9447 334.54 44.3402 329.245 44.6061ZM553.203 265.628C553.114 265.755 553.37 266.734 554.021 266.743C554.718 266.756 555.011 266.221 555.046 265.485C555.165 262.91 553.542 260.745 552.398 257.343C552.392 257.346 552.387 257.35 552.381 257.353C552.049 258.486 551.82 258.792 551.884 259.089C552.318 261.248 555.186 263.26 553.203 265.628ZM387.613 80.5493C386.351 79.0738 385.151 77.5355 383.93 76.0158C382.211 73.7523 380.314 71.6253 377.865 70.1649C379.903 72.1023 381.844 74.12 383.71 76.236C385.011 77.6742 386.311 79.112 387.613 80.5493ZM392.763 86.6446C395.925 90.5198 398.905 94.5302 402.912 97.4663C399.595 93.7472 396.88 89.3779 392.763 86.6446ZM473.298 174.572C475.583 176.481 475.703 179.856 477.046 180.423C481.6 182.359 483.478 186.839 486.623 190.004C483.155 184.18 479.466 178.523 473.298 174.572ZM413.197 109.27C416.035 112.21 415.715 115.606 419.318 118.714C419.896 115.013 415.983 112.216 413.197 109.27ZM494.939 201.535C495.087 201.667 495.248 201.787 495.374 201.894C499.653 205.35 503.092 209.647 506.555 213.873C508.018 215.672 509.523 216.031 510.277 215.51C511.172 214.895 509.482 213.509 508.684 212.583C503.632 206.591 497.661 201.47 492.666 195.327C491.105 193.405 488.811 191.946 486.851 190.281C485.654 191.254 487.741 192.203 488.347 193.215C489.869 195.793 492.064 196.349 493.893 197.876C496.385 199.95 496.497 200.863 494.939 201.535ZM543.958 257.519C543.057 258.776 544.092 258.345 544.475 258.046C544.919 257.698 545.648 258.771 545.931 257.722C545.627 257.33 545.248 256.938 544.973 256.469C544.72 256.067 544.251 255.633 544.564 255.109C544.569 255.115 544.573 255.121 544.578 255.127C549.169 258.431 548.949 264.966 552.707 268.849C549.604 260.524 545.036 252.497 538.658 246.012C536.533 243.86 534.374 241.738 532.176 239.653C531.34 238.857 530.247 238.366 529.734 237.248C526.811 231.038 520.916 226.913 516.629 221.694C515.284 220.056 514.114 219.875 512.262 219.723C517.909 224.934 522.793 229.836 526.386 235.749C526.951 236.676 527.888 237.557 528.681 238.395C531.559 241.383 534.465 244.343 537.337 247.334C539.615 249.75 541.693 252.35 543.418 255.166C543.894 255.957 544.682 256.521 543.958 257.519ZM244.532 71.8213C242.473 74.8602 231.559 88.8626 219.396 104.513L224.342 84.7964C235.006 108.996 250.782 134.463 251.77 137.006C241.139 120.702 232.071 102.876 223.58 85.0269L218.833 103.95C219.705 102.786 220.573 101.621 221.437 100.455C228.24 91.2268 235.067 81.7437 243.409 72.844C243.743 72.4788 244.09 72.2183 244.532 71.8213ZM554.319 279.093C556.554 286.206 557.71 293.62 557.829 301.03C557.838 301.863 557.794 302.703 557.856 303.51C557.939 305.106 558.228 306.603 559.085 307.831C559.084 307.822 559.085 307.812 559.084 307.802C560.023 306.672 559.792 305.003 559.802 303.51C559.802 303.489 559.802 303.469 559.802 303.449C560.039 295.04 558.907 286.582 556.555 278.443C556.237 277.386 556.136 275.971 554.92 276.254C553.479 276.602 553.928 277.861 554.319 279.093ZM343.988 52.248C335.684 49.4935 326.99 47.5107 317.987 46.2259C327.018 46.475 335.899 48.6697 343.988 52.248ZM558.158 403.43C557.159 407.812 558.509 412.228 557.906 416.643C559.957 412.195 558.75 407.812 558.158 403.43ZM557.126 350.114C558.626 347.642 558.989 344.906 558.409 341.545C557.771 337.822 557.91 333.802 558.634 329.979C558.784 329.156 559.579 328.365 558.575 327.805C557.571 327.245 557.318 328.332 557.304 329.682C557.235 336.493 557.176 343.303 557.126 350.114ZM557.006 325.301C558.618 319.78 559.365 314.034 559.094 308.065C555.686 313.091 558.204 319.681 557.006 325.301ZM559.182 307.968C559.183 307.957 559.183 307.946 559.183 307.935C559.179 307.941 559.175 307.946 559.171 307.952C559.174 307.957 559.179 307.963 559.182 307.968ZM368.227 66.828C368.342 66.6559 368.457 66.4838 368.572 66.3117C373.395 69.7856 377.638 74.0004 381.336 78.6104C386.76 85.0276 392.11 91.5209 397.694 97.8193C392.092 91.5655 386.5 85.3012 380.919 79.0265C377.104 74.577 372.861 70.4872 368.227 66.828ZM483.996 194.724C465.207 175.953 448.25 155.489 430.299 135.925C430.303 135.922 430.307 135.918 430.311 135.914C430.574 135.698 430.826 135.445 431.067 135.205C448.652 155.133 466.276 174.977 483.996 194.724ZM402.389 104.233C402.529 104.14 402.657 104.011 402.786 103.883C411.445 113.538 420.13 123.168 428.839 132.773C428.691 132.874 428.51 132.962 428.373 133.099C419.686 123.502 411.025 113.88 402.389 104.233ZM383.358 292.668C377.875 288.627 373.31 283.609 366.72 280.638C371.986 285.03 377.316 289.291 382.722 293.43C382.934 293.176 383.146 292.922 383.358 292.668ZM312.711 48.897C311.46 48.7658 312.146 49.7887 311.003 49.4644C305.304 47.8843 299.615 49.6674 294.031 50.5088C290.978 50.9823 289.802 50.952 288.708 50.3076C295.255 48.8177 301.98 47.6553 308.557 48.2884C309.851 48.424 310.528 47.965 311.655 48.0253C313.413 48.1349 313.291 48.483 312.711 48.897ZM288.647 50.2814C288.646 50.2782 288.645 50.2751 288.644 50.272C288.651 50.2765 288.661 50.2803 288.668 50.2848C288.666 50.2873 288.664 50.2899 288.662 50.2925C288.657 50.2888 288.652 50.2851 288.647 50.2814ZM288.668 50.2848C288.67 50.2816 288.672 50.2785 288.674 50.2753C288.676 50.2809 288.678 50.2866 288.68 50.2922C288.676 50.2898 288.672 50.2872 288.668 50.2848ZM288.646 50.3138C288.652 50.3068 288.657 50.2996 288.662 50.2925C288.67 50.2991 288.678 50.3058 288.686 50.3125C288.673 50.3129 288.66 50.3134 288.646 50.3138ZM288.68 50.2922C288.689 50.2975 288.699 50.3024 288.708 50.3076C288.701 50.3092 288.693 50.3109 288.686 50.3125C288.684 50.3057 288.682 50.299 288.68 50.2922ZM557.551 371.263C556.707 371.069 555.207 370.839 555.068 371.759C554.931 372.681 556.232 372.654 557.262 372.796C562.749 373.609 568.222 374.342 573.629 374.83C568.757 372.23 563.01 372.502 557.551 371.263ZM334.418 52.9462C327.755 51.1462 320.877 50.5341 313.838 49.5233C313.425 49.461 313.119 49.1232 312.771 48.9038C315.082 48.2855 317.694 48.2806 320.585 48.728C325.043 49.4237 329.448 50.2966 333.718 51.5531C334.568 51.7991 335.647 52.0688 335.58 52.6959C335.544 53.0211 335.058 53.1256 334.418 52.9462ZM286.192 193.949C289.477 196.298 295.832 204.115 298.934 209.638C293.712 204.396 290.488 198.729 286.192 193.949ZM431.37 323.544C429.228 320.564 426.977 318.88 423.222 317.86C425.035 321.138 427.849 322.238 431.37 323.544ZM393.997 297.492C393.224 296.867 392.384 296.322 391.908 296.77C391.317 297.313 392.122 298.59 392.962 298.845C397.22 300.113 399.937 304.185 405.203 306.192C405.195 306.186 405.187 306.18 405.178 306.175C400.715 302.805 397.328 300.164 393.997 297.492ZM378.738 82.448C378.555 82.2177 378.371 81.9882 378.186 81.7595C374.903 77.3602 370.812 73.7878 366.774 70.1003C362.72 66.4227 357.653 64.0898 354.146 59.7643C363.051 66.3212 372.746 72.3016 378.243 81.7033C378.409 81.9507 378.574 82.1989 378.738 82.448ZM506.084 221.427C506.25 221.261 506.416 221.095 506.582 220.929C515.437 230.42 524.318 239.884 533.226 249.321C533.055 249.492 532.884 249.664 532.712 249.835C523.809 240.393 514.933 230.924 506.084 221.427ZM312.664 48.9327C312.642 48.9388 312.617 48.9439 312.595 48.9502C312.595 48.9502 312.659 48.9259 312.697 48.9079C312.702 48.9043 312.706 48.9005 312.711 48.897C312.714 48.8972 312.716 48.8974 312.718 48.8976C312.726 48.8928 312.729 48.8893 312.724 48.889C312.732 48.8893 312.741 48.8896 312.75 48.8899C312.758 48.8944 312.764 48.8992 312.771 48.9038C312.752 48.909 312.732 48.9141 312.713 48.9194C312.683 48.9336 312.653 48.9478 312.622 48.962C312.637 48.9522 312.65 48.9423 312.664 48.9327ZM353.254 60.9511C350.384 58.7868 346.634 58.2492 343.916 55.6731C347.404 56.828 351.06 57.9409 353.254 60.9511ZM551.236 415.357C551.193 414.402 551.334 413.314 552.19 413.479C553.006 413.611 553.049 414.6 552.969 415.621C552.91 416.337 552.851 417.05 552.791 417.762L596.254 373.427C594.752 373.298 593.242 373.15 591.704 372.983C591.712 372.983 591.721 372.983 591.729 372.983C591.783 372.739 591.812 372.515 591.839 372.27C593.311 372.187 594.777 372.076 596.225 371.965L551.329 417.762C551.294 416.961 551.262 416.159 551.236 415.357ZM548.779 277.581C546.268 273.833 545.792 269.292 543.507 265.428C546.631 268.791 547.501 273.414 548.779 277.581ZM397.459 103.898C397.098 104.306 396.179 103.965 395.697 103.236C392.779 98.7446 389.033 94.9881 385.468 91.004C385.066 90.5672 384.899 89.8484 384.337 88.6399C389.496 92.335 392.693 97.6195 396.801 101.573C397.686 102.413 397.873 103.437 397.459 103.898ZM416.753 127.478C411.265 120.988 405.804 114.425 400.211 107.995C399.064 106.673 398.483 105.763 398.887 105.265C399.579 104.434 400.573 106.282 401.252 107.094C406.413 113.211 411.502 119.353 416.626 125.506C416.618 125.498 416.611 125.49 416.604 125.482C416.654 126.13 416.693 126.792 416.753 127.478ZM507.557 352.044C512.55 353.553 517.171 355.782 522.772 358.217C519.43 358.081 517.278 357.983 514.968 357.844C515.59 359.63 518.168 359.173 519.367 360.862C513.303 358.882 507.63 357.363 502.115 354.809C495.727 351.84 488.896 349.102 482.121 346.754C482.097 346.758 482.074 346.762 482.05 346.766C479.055 345.707 478.459 344.587 477.703 342.988C477.717 342.982 477.729 342.976 477.743 342.971C480.848 342.672 483.864 342.317 485.814 345.872C486.462 347.007 487.617 346.44 488.496 346.687C493.379 348.061 498.485 348.389 502.732 351.749C504.026 352.777 505.965 351.565 507.557 352.044ZM433.415 144.787C426.473 139.645 421.161 133.013 416.663 125.567C422.623 131.597 427.965 138.246 433.415 144.787ZM416.626 125.506C416.638 125.527 416.651 125.547 416.663 125.567C416.647 125.551 416.631 125.534 416.615 125.518C416.618 125.514 416.622 125.51 416.626 125.506ZM479.614 197.336C477.994 196.812 476.679 197.38 475.372 195.1C471.165 187.75 464.345 183.012 458.964 176.836C458.6 176.408 458.248 175.967 457.818 175.465C459.012 175.111 459.556 177.363 461.045 177.458C458.396 174.096 455.944 170.908 452.84 168.187C452.438 167.844 451.667 167.729 451.571 167.546C450.534 165.508 447.114 163.103 447.896 161.901C448.644 160.687 451.047 163.97 452.096 165.204C452.103 165.212 452.111 165.221 452.118 165.229C461.198 175.815 470.664 186.061 479.614 197.336ZM255.255 142.609C259.351 148.985 264.374 154.396 268.085 161.151C268.543 161.996 269.648 163.179 269.186 163.644C268.767 164.083 267.897 163.016 267.287 162.075C267.283 162.077 267.279 162.079 267.275 162.081C263.125 155.695 259.116 149.203 255.255 142.609ZM290.767 192.438C293.098 197.021 297.796 199.492 300.362 203.813C300.372 203.818 300.383 203.823 300.393 203.829C301.433 205.601 302.93 207.421 303.215 209.525C297.82 204.407 294.392 198.728 290.197 193.655C289.666 193.01 289.297 192.041 289.788 191.831C289.936 191.772 290.67 192.244 290.767 192.438ZM309.987 217.048C312.445 219.774 317.267 220.371 316.978 225.135C313.703 223.207 312.286 219.793 309.987 217.048ZM319.228 227.8C323.136 230.474 325.274 233.6 327.702 236.245C328.135 236.715 328.576 237.168 329.037 237.598C328.511 237.222 327.992 236.835 327.478 236.434C324.674 234.247 322.035 231.639 319.228 227.8ZM477.666 342.911C477.671 342.923 477.678 342.935 477.683 342.946C477.696 342.92 477.708 342.893 477.721 342.867C477.703 342.883 477.683 342.896 477.666 342.911ZM279.053 176.754C281.218 180.157 284.448 183.147 286.498 187.881C282.355 184.385 280.933 180.21 278.218 177.035C278.118 176.915 278.045 176.349 278.15 176.359C278.383 176.365 278.898 176.56 279.023 176.736C279.033 176.742 279.043 176.748 279.053 176.754ZM554.586 363.279C558.06 363.524 559.253 365.88 562.404 365.248C562.414 365.242 562.424 365.237 562.434 365.231C562.339 365.668 562.216 366.102 562.121 366.539C561.348 366.511 560.585 366.563 559.832 366.469C548.919 365.146 537.83 363.049 526.707 360.366C525.381 360.044 524.193 359.623 524.282 358.649C524.409 357.167 525.952 357.751 527.289 358.095C533.349 359.652 539.54 360.631 545.364 362.256C548.553 363.15 551.726 363.071 554.586 363.279ZM487.175 207.53C483.937 204.617 481.09 202.431 478.831 199.423C481.365 198.94 485.561 202.666 487.175 207.53ZM509.361 233.014C506.683 231.825 505.523 229.303 504.2 227.271C504.208 227.279 504.215 227.288 504.223 227.296C501.578 223.23 498.689 219.594 494.871 216.609C501.177 220.182 505.585 226.445 510.71 231.666C511.553 232.547 512.275 233.597 511.626 234.247C510.875 234.951 510.008 233.3 509.361 233.014ZM537.01 263.671C535.583 263.177 533.942 264.501 534.134 262.69C534.381 260.157 532.714 259.045 531.272 258.085C530.233 257.4 529.802 256.376 529.345 255.326C528.375 253.77 527.419 252.199 525.833 250.889C521.786 247.526 519.302 242.228 514.745 239.096C513.774 238.436 512.943 237.263 513.674 236.672C514.405 236.081 515.34 237.196 516.149 238.065C520.288 242.594 524.732 246.957 528.479 251.738C528.482 251.751 528.485 251.763 528.488 251.776C529.134 252.596 529.8 253.398 530.482 254.189C532.735 257.082 535.339 259.79 537.01 263.671ZM543.877 416.445C543.263 415.325 543.873 414.896 544.077 414.699C545.887 412.82 546.026 410.053 545.168 407.483C544.37 405.077 545.758 405.109 546.165 404.879C547.246 404.253 547.186 406.296 547.186 406.955C547.274 410.539 547.451 414.153 547.58 417.762L596.151 368.217C592.339 368.472 588.383 368.498 584.525 367.94C580.263 367.321 576.198 368.271 572.071 367.475C572.063 367.468 572.055 367.46 572.047 367.452C568.764 366.827 564.681 367.557 562.882 364.639C563.765 363.128 565.882 367.331 565.666 363.661C565.63 362.961 567.219 363.122 568.162 363.21C574.202 363.734 579.887 364.418 585.605 365.819C588.921 366.639 592.971 366.981 596.09 365.149L544.512 417.762C544.325 417.312 544.114 416.872 543.877 416.445ZM544.119 280.348C541.164 278.65 541.587 275.619 541.237 273.493C540.735 270.506 538.221 269.346 537.198 266.989C536.95 266.443 535.903 266.059 536.605 265.391C537.273 264.742 538.124 265.266 538.588 266.06C538.597 266.062 538.606 266.064 538.614 266.066C541.089 270.339 544.18 274.635 544.119 280.348ZM545.072 374.794C545.298 374.299 543.328 373.574 544.981 372.751C545.533 372.487 546.121 372.85 546.277 374.201C547.332 383.197 547.391 392.259 546.817 401.354C546.796 401.65 546.307 401.881 545.532 402.605C545.431 394.927 544.263 388.074 544.679 380.791C544.789 378.814 544.187 376.771 545.072 374.794ZM543.8 360.426C543.239 357 545.538 356.703 545.883 354.331C547.831 359.274 547.887 363.525 543.896 366.985C544.992 364.283 544.111 362.338 543.8 360.426ZM543.647 315.354C543.455 313.84 542.309 310.978 545.27 311.329C545.992 311.428 545.987 310.538 545.637 309.813C545.443 309.418 545.106 309.187 544.83 308.858C545.584 307.128 545.873 305.334 545.96 303.51C546.111 301.722 545.576 299.921 545.745 298.142C545.783 297.658 545.756 296.921 546.658 296.978C547.2 297.018 547.364 297.363 547.392 297.91C547.506 299.776 547.545 301.643 547.509 303.51C547.387 314.442 547.304 325.364 547.24 336.306C547.227 336.306 547.213 336.306 547.2 336.306C547.194 336.767 546.926 337.229 546.653 338.151C545.344 335.68 544.616 332.55 545.249 330.474C546.642 325.861 544.909 321.412 545.804 316.996C546 316.041 546.593 314.096 545.067 313.964C544.07 313.872 543.756 314.665 543.647 315.354ZM543.583 316.107C543.592 315.928 543.6 315.651 543.647 315.354C543.689 315.686 543.687 315.953 543.583 316.107Z" fill="var(--stroke-0, #DADAF5)"/>
<path id="r" d="M218.507 346.453C213.261 347.827 207.77 348.438 202.08 348.717C207.411 347.567 212.93 346.932 218.507 346.453ZM218.507 346.453C218.595 346.43 218.685 346.407 218.773 346.384C218.773 346.384 218.697 346.425 218.656 346.429C218.657 346.433 218.658 346.436 218.658 346.44C218.608 346.444 218.558 346.449 218.507 346.453ZM218.738 346.42C218.783 346.426 218.831 346.431 218.877 346.437C218.805 346.445 218.734 346.453 218.662 346.461C218.688 346.447 218.713 346.434 218.738 346.42ZM99.1898 558.206C98.0024 562.059 103.017 564.887 106.052 567.419C111.156 571.747 116.751 575.27 122.631 578.219C128.661 581.249 135.394 583.069 142.04 583.596C143.216 583.678 144.106 583.589 142.925 584.696C142.914 584.702 142.902 584.708 142.891 584.714C142.893 584.717 142.895 584.72 142.897 584.724C142.885 584.734 142.874 584.746 142.862 584.757C142.864 584.746 142.866 584.735 142.869 584.725C142.851 584.733 142.834 584.741 142.817 584.75C142.819 584.739 142.821 584.728 142.824 584.717C140.875 587.935 137.836 584.9 135.626 584.62C130.526 584.001 125.821 580.767 121.022 579.663C115.714 578.381 112.169 573.826 105.515 572.434C120.118 585.12 138.314 591.479 156.238 590.003C156.292 588.863 154.618 589.816 154.262 588.571C154.982 588.625 155.707 588.671 156.437 588.709C184.753 589.652 212.804 592.314 241.069 589.121C230.783 587.675 220.419 590.16 209.941 588.556C214.739 587.996 219.537 587.013 224.335 586.981C238.881 586.904 253.503 586.171 268.011 586.959C273.077 587.235 277.3 585.178 282.366 585.766C283.901 585.943 286.32 585.526 287.049 585.972C294.034 590.162 302.823 587.779 310.997 588.178C313.827 588.319 316.648 588.391 319.465 588.418C330.669 588.523 341.791 587.906 352.986 588.013C370.296 588.158 387.644 587.847 404.915 588.416C415.047 588.755 425.68 589.717 435.352 589.538C446.481 589.318 457.573 589.68 468.549 589.957C472.73 590.069 476.943 590.032 481.162 590.002C488.229 589.913 494.884 588.959 502.149 589.55C508.51 585.573 515.971 584.327 522.454 580.393C537.411 571.393 550.577 557.857 557.332 540.784C560.468 532.886 562.372 524.437 562.937 515.666C563.811 496.685 564.776 477.705 565.873 458.751L576.976 482.646C576.216 481.915 575.448 481.185 574.672 480.455C560.601 467.256 544.548 455.533 527.616 444.916C526.949 444.508 526.369 443.932 525.628 443.35C527.193 443.093 528.905 445.288 530.402 445.317C528.572 443.694 525.962 441.673 524.457 441.665C521.969 441.645 519.816 439.995 517.696 438.757C508.268 433.19 498.529 428.033 488.59 423.15C472.923 415.459 456.39 409.233 439.686 403.586C425.261 398.72 410.573 394.343 395.659 390.882C379.659 387.172 363.321 384.39 346.867 382.471C367.94 385.302 388.677 389.483 408.965 395.001C408.896 395.163 408.825 395.336 408.72 395.489C385.04 389.617 360.586 384.077 336.109 382.597C336.103 382.742 336.097 382.886 336.092 383.03C346.78 384.342 357.423 385.991 367.919 388.036C371.146 388.66 374.538 389.024 377.495 390.101C375.919 390.706 372.86 389.515 370.634 389.383C371.216 389.822 373.45 389.721 373.821 390.336C373.561 390.344 373.295 390.4 373.006 390.344C363.564 388.737 354.068 387.21 344.615 385.501C342.419 385.109 340.753 385.036 339.008 385.08C333.91 385.207 325.838 384.242 321.698 383.034C319.587 382.417 320.443 381.854 321.972 381.572C324.319 381.121 324.296 380.565 321.727 379.824C320.199 379.383 320.124 379.12 321.437 378.835C325.033 378.062 324.833 377.922 317.464 377.329C325.171 377.178 322.778 376.281 321.318 374.943C319.271 373.015 313.372 370.924 321.708 369.145C322.777 368.923 323.748 367.813 322.418 366.828C320.974 365.753 319.277 364.28 322.648 363.03C323.152 362.848 324.468 362.647 325.356 362.647C334.236 362.73 332.946 361.292 331.997 360.34C329.534 357.887 331.881 355.638 335.001 353.179C336.662 351.864 336.833 350.438 338.473 349.061C340.281 347.52 347.444 347.273 352.62 347.081C362.803 346.678 373.098 347.183 383.248 348.228C387.821 348.692 392.75 349.025 397.422 349.22C405.506 349.532 412.556 351.436 420.48 352.34C423.452 352.677 425.835 352.835 428.188 352.712C431.203 354.819 436.791 354.513 441.065 355.491C445.347 356.467 450.005 357.582 454.37 357.551C457.473 357.524 458.385 359.038 461.109 359.663C475.808 363.022 490.317 367.622 504.747 372.016C512.389 374.344 519.628 377.091 526.509 380.168C550.033 390.698 574.06 401.598 596.043 416.549C603.517 421.641 610.925 427.655 618.746 433.137L631.409 445.086L630.649 458.751C630.891 461.157 631.222 463.555 631.681 465.932C632.504 470.192 632.173 475.068 632.094 479.635C631.973 487.157 631.884 494.564 632.865 502.279C633.425 506.7 633.216 511.162 633.104 515.666C633.028 519.659 632.846 523.611 632.823 527.668C632.757 540.832 629.917 553.984 625.586 566.532C623.559 572.455 621.005 578.251 620.608 583.879C620.332 587.603 618.196 585.718 616.7 589.242C613.772 596.027 609.933 602.623 605.699 608.826C597.001 621.603 585.722 632.253 573.034 640.603C566.863 644.672 560.238 649.193 553.838 653.193C549.438 655.957 543.919 656.934 540.252 660.342C537.525 660.137 533.189 660.272 530.755 662.316C526.806 665.629 522.084 666.286 517.221 667.656C507.627 670.36 497.82 672.756 487.834 671.912C485.566 671.713 485.406 673.263 482.59 673.238C482.119 673.234 481.642 673.23 481.162 673.226C477.574 673.181 473.729 673.312 470.585 673.563C461.719 674.289 452.622 671.851 443.987 674.765C441.07 675.766 437.346 674.716 433.892 674.84C425.41 675.127 416.698 676.116 408.408 674.644C399.35 673.015 390.177 674.301 381.349 674.768C376.36 675.026 370.18 674.208 365.651 676.407C363.118 674.184 357.132 676.266 354.368 673.772C352.641 672.21 348.726 673.302 346.845 673.939C340.09 676.262 335.331 676.151 327.962 675.893C325.181 675.796 322.341 675.508 319.465 675.344C314.719 675.073 309.877 675.138 305.049 676.945C302.017 678.082 295.684 676.193 290.656 676.074C287.394 676.003 283.364 676.048 280.523 674.509C279.602 673.996 278.566 673.91 277.645 674.577C273.231 677.691 268.165 675.708 263.637 674.807C259.607 673.99 256.19 672.285 252.736 675.281C251.623 676.226 248.361 675.998 246.326 675.576C240.838 674.456 240.915 674.378 235.734 675.523C234.928 675.697 233.891 675.667 233.008 675.578C223.452 674.719 213.857 676.036 203.993 674.184C196.97 672.872 187.451 672.43 181.08 673.864C173.519 675.557 166.84 673.995 159.855 674.346C158.721 674.404 157.581 674.453 156.437 674.492C146.652 674.744 136.548 673.662 127.086 671.315C103.084 665.462 79.3293 656.008 61.0122 639.626C59.2288 638.033 57.0868 635.791 55.0819 635.751C53.864 635.744 51.669 633.646 51.1558 632.819C44.9048 622.801 35.2246 615.061 28.7272 605.241C11.1201 578.87 1.36433 546.983 2.33803 515.666C2.34711 515.418 2.35628 515.171 2.36552 514.924C2.87142 501.145 2.81021 487.444 3.54646 473.704C3.85707 467.921 4.0708 462.149 4.25594 456.385L5.3273 437.308L17.4663 428.419C25.5482 422.152 33.793 416.268 42.3042 410.901C52.0722 404.741 62.3402 399.143 72.0874 393.252C75.6513 391.078 80.1281 387.418 84.3549 388.123C84.4064 388.097 94.4576 382.138 94.7213 382.06C95.7632 381.526 96.7651 380.955 97.8218 380.566C113.681 374.488 128.919 368.015 144.768 363.141C167.274 356.21 190.336 351.495 213.35 348.103C220.441 347.063 227.748 346.909 235.462 345.804C229.824 345.458 223.642 347.042 218.877 346.437C230.02 345.183 241.38 344.223 252.21 344.388C262.081 344.491 273.501 343.809 281.697 345.814C282.92 346.101 284.522 345.869 285.752 345.809C289.78 345.628 291.778 346.278 291.005 346.839C289.352 348.102 292.316 348.192 296.778 348.275C298.326 348.301 300.514 348.286 301.085 348.753C301.573 349.118 300.026 349.185 298.6 349.236C296.034 349.315 292.046 349.334 293.598 350.179C294.706 350.781 297.219 351.488 301.438 351.176C301.636 351.167 302.154 351.298 302.67 351.389C301.699 352.007 298.85 351.836 296.329 351.872C299.843 352.949 302.342 353.936 299.127 355.161C298.432 355.42 299.029 355.704 296.838 355.709C292.284 355.73 292.336 356.066 294.378 356.913C296.988 357.987 301.318 359.098 296.565 360.483C296.22 360.581 296.19 360.808 296.504 360.912C299.53 361.953 299.817 362.821 296.638 364.163C294.563 365.035 300.194 365.692 303.972 366.035C312.406 366.789 317.379 368.832 317.379 370.753C317.379 370.753 317.379 370.753 317.379 370.753C317.379 371.401 316.825 372.049 315.669 372.67C312.931 374.109 307.897 375.942 314.067 377.244C269.718 381.724 227.363 392.723 187.073 408.177C147.186 423.556 108.895 443.007 77.3829 469.048C82.5026 465.969 86.9605 461.633 92.2461 458.808C92.6789 458.58 93.11 458.611 94.5247 458.31C86.8491 463.635 79.4529 469.231 72.4102 475.092C71.748 475.643 70.9967 476.296 71.1596 475.373C71.6116 472.706 69.6411 475.709 69.6137 475.947C69.2491 478.397 66.8757 480.1 64.5967 481.601C63.8489 482.097 63.1637 482.638 62.5205 483.209L75.1914 456.385C75.2868 459.309 75.7831 462.126 75.9743 465.029C77.1002 481.884 78.0816 498.774 79.0186 515.666C79.0652 516.236 79.1179 516.803 79.1764 517.367C79.6528 521.979 79.9982 526.691 81.9744 531.043C83.1466 533.557 84.4657 531.078 85.2584 533.158C86.2036 535.501 83.1142 534.691 84.1093 537.174C85.1621 539.727 85.7518 542.489 87.4422 545.03C87.7248 544.212 87.9429 543.589 88.4082 542.368C89.3436 549.681 94.1269 554.3 99.1898 558.206ZM231.895 672.295C224.296 670.934 216.735 672.007 209.135 671.718C216.696 673.031 224.334 672.247 231.895 672.295ZM178.623 670.944C186.376 672.768 194.398 671.964 202.343 671.799C194.475 671.203 186.491 671.914 178.623 670.944ZM254.041 672.248C267.001 672.336 279.96 672.398 292.92 672.434C292.882 672.169 292.844 671.904 292.806 671.639C279.884 671.604 266.963 671.543 254.041 671.457C254.041 671.721 254.041 671.984 254.041 672.248ZM318.635 671.491C312.264 671.491 305.893 671.852 299.523 671.981C305.932 672.3 312.379 672.878 318.635 671.491ZM219.441 375.512C237.689 373.674 253.066 370.169 268.326 367.715C252.283 367.938 236.456 370.98 219.441 375.512ZM466.965 407.613C472.398 410.394 476.384 412.543 481.421 412.755C476.563 410.604 472.46 408.687 466.965 407.613ZM537.822 442.734C545.085 449.374 552.146 453.596 559.464 457.328C552.983 451.93 546.016 447.332 537.822 442.734ZM487.553 421.146C488.634 421.684 489.735 422.255 490.273 422.089C490.72 421.954 490.56 421.388 490.503 420.946C490.429 420.644 489.759 420.159 489.175 420.144C484.707 420.061 481.296 416.482 477.149 415.174C479.432 415.423 481.847 417.363 484.993 417.798C476.316 413.478 468.27 412.634 460.392 408.507C460.382 408.499 460.372 408.49 460.361 408.482C462.559 410.744 465.495 411.091 468.015 412.173C474.623 415.025 481.153 417.969 487.553 421.146ZM432.282 398.893C438.687 401.381 444.205 403.041 449.744 404.676C444.224 403.019 439.22 399.761 432.282 398.893ZM494.654 595.951C494.55 595.83 493.375 595.791 493.116 596.411C492.831 597.076 493.299 597.516 494.09 597.766C496.865 598.632 499.849 597.683 503.982 597.459C503.98 597.453 503.978 597.446 503.976 597.44C502.875 596.817 502.629 596.512 502.281 596.496C499.777 596.346 496.47 598.55 494.654 595.951ZM517.975 436.259C512.853 433.204 507.903 429.646 502.102 427.826C507.48 430.532 512.765 433.338 517.975 436.259ZM525.383 440.841C529.937 443.836 534.245 447.088 539.209 449.145C534.717 446.157 530.51 442.46 525.383 440.841ZM566.487 522.759C566.544 525.342 563.968 527.153 564.344 528.334C565.589 532.498 562.942 535.914 561.876 539.478C565.03 534.674 567.543 529.069 566.487 522.759ZM552.935 459.003C556.544 461.494 557.002 464.985 561.27 467.607C561.156 463.79 556.486 461.48 552.935 459.003ZM555.675 549.603C555.618 549.756 555.577 549.916 555.531 550.044C554.167 554.375 551.37 558.064 548.425 561.42C547.167 562.838 547.173 564.171 547.816 564.823C548.577 565.594 549.487 563.99 550.14 563.194C554.446 558.126 557.036 551.974 560.177 546.071C561.17 544.206 561.343 541.878 561.757 539.756C560.326 539.192 560.579 541.133 559.998 541.95C558.528 543.984 559.038 545.883 558.473 547.812C557.688 550.43 556.885 550.729 555.675 549.603ZM507.01 589.117C505.996 587.917 506.068 589.045 506.246 589.498C506.454 590.023 505.015 590.472 506.042 591.015C506.582 590.813 507.15 590.536 507.758 590.38C508.287 590.23 508.933 589.868 509.38 590.306C509.372 590.309 509.364 590.312 509.355 590.315C504.052 594.077 497.045 592.099 491.326 594.524C504.032 593.976 517.04 590.227 527.544 582.359C528.303 581.795 528.788 580.918 529.797 580.698C535.471 579.362 539.099 574.364 543.256 570.64C544.577 569.456 544.56 568.374 544.357 566.72C540.654 571.781 536.437 575.841 531.189 577.961C530.369 578.293 529.582 578.956 528.821 579.485C522.963 583.662 516.599 587.214 509.751 589.153C508.721 589.438 507.811 590.081 507.01 589.117ZM313.418 380.489C302.819 379.364 205.978 403.859 201.644 407.35C224.167 398.436 248.394 392.027 272.472 386.481C284.966 383.593 297.903 380.993 311.701 380.436C312.26 380.407 312.746 380.463 313.418 380.489ZM478.529 592.79C465.48 592.657 452.43 592.492 439.38 592.373C435.998 592.332 432.505 592.079 429.983 593.589C429.994 593.588 430.006 593.589 430.017 593.588C431.36 594.546 433.355 594.287 435.12 594.306C449.551 594.548 463.982 594.778 478.375 595.116C479.299 595.13 480.325 595.232 481.162 595.185C481.766 595.136 482.223 594.921 482.307 594.291C482.418 593.419 481.909 593.066 481.162 592.911C480.396 592.804 479.456 592.797 478.529 592.79ZM451.945 409.196C440.441 405.317 428.795 401.51 417.132 397.612C429.05 400.51 440.652 404.497 451.945 409.196ZM318.635 592.662C313.53 591.663 308.387 593.013 303.244 592.41C308.425 594.461 313.53 593.254 318.635 592.662ZM380.735 591.63C383.613 593.13 386.8 593.493 390.715 592.913C395.051 592.275 399.734 592.414 404.186 593.138C405.145 593.288 406.066 594.083 406.718 593.079C407.371 592.075 406.105 591.822 404.532 591.808C396.599 591.739 388.667 591.68 380.735 591.63ZM409.635 591.51C416.066 593.122 422.758 593.869 429.711 593.598C423.857 590.19 416.18 592.708 409.635 591.51ZM429.824 593.686C429.836 593.687 429.849 593.687 429.862 593.687C429.855 593.683 429.849 593.679 429.842 593.675C429.836 593.678 429.83 593.683 429.824 593.686ZM488.361 425.349C488.439 425.157 488.517 424.965 488.595 424.774C504.728 431.793 519.579 441.208 534.016 450.673C519.547 441.304 504.217 432.855 488.361 425.349ZM556.554 539.127C558.887 531.574 560.434 523.771 560.938 515.666C561.759 496.693 562.945 477.736 563.668 458.751L575.554 484.331C575.39 484.179 575.225 484.028 575.06 483.877C575.063 483.872 575.067 483.868 575.07 483.864C575.314 483.626 575.543 483.353 575.762 483.092C575.918 483.239 576.072 483.387 576.227 483.534L564.711 458.751C563.693 477.734 562.71 496.703 561.77 515.666C561.193 523.857 559.416 531.743 556.554 539.127ZM540.62 456.006C540.735 455.884 540.83 455.729 540.925 455.574C552.372 463.392 563.192 471.786 573.23 480.808C573.092 480.922 572.918 481.026 572.796 481.176C562.802 472.183 552.022 463.808 540.62 456.006ZM78.7909 531.376C77.3885 526.268 77.461 521.041 75.9366 515.666C75.7673 514.805 75.572 513.944 75.3467 513.081C75.3781 513.943 75.4093 514.804 75.4405 515.666C75.7187 521.094 76.5181 526.416 77.8181 531.571C78.1424 531.506 78.4666 531.441 78.7909 531.376ZM409.41 398.544C407.762 397.998 408.386 399.211 406.936 398.507C399.8 395.042 391.756 394.49 384.168 392.75C380.052 391.813 378.579 391.21 377.574 390.124C386.518 391.905 395.529 393.583 404.041 396.528C405.712 397.117 406.757 396.913 408.243 397.353C410.56 398.048 410.309 398.338 409.41 398.544ZM377.513 390.073C377.514 390.069 377.514 390.066 377.514 390.063C377.521 390.07 377.53 390.078 377.537 390.085C377.533 390.087 377.529 390.088 377.526 390.09C377.522 390.084 377.517 390.078 377.513 390.073ZM377.537 390.085C377.541 390.084 377.545 390.082 377.549 390.08C377.549 390.086 377.548 390.092 377.547 390.097C377.543 390.093 377.54 390.089 377.537 390.085ZM377.495 390.101C377.505 390.097 377.516 390.094 377.526 390.09C377.532 390.099 377.538 390.109 377.544 390.119C377.528 390.113 377.511 390.107 377.495 390.101ZM377.547 390.097C377.555 390.106 377.565 390.116 377.574 390.124C377.564 390.123 377.554 390.121 377.544 390.119C377.545 390.112 377.546 390.105 377.547 390.097ZM247.094 588.241C245.904 588.19 243.832 588.227 243.87 589.158C243.908 590.089 245.635 589.833 247.055 589.801C254.616 589.682 262.178 589.673 269.739 589.633C262.6 587.516 254.732 588.545 247.094 588.241ZM438.775 408.365C429.509 405.223 420.059 402.811 410.759 399.52C410.216 399.324 409.895 398.898 409.488 398.571C412.778 398.747 416.257 399.55 420.108 400.811C426.015 402.754 431.956 404.684 437.839 406.814C439.006 407.234 440.493 407.709 440.396 408.334C440.345 408.658 439.666 408.673 438.775 408.365ZM129.915 435.5C126.583 438.653 116.659 444.526 110.021 447.363C116.784 442.334 123.702 439.478 129.915 435.5ZM104.87 571.157C103.722 568.217 102.282 566.476 99.3443 564.984C99.8597 568.199 102.098 569.65 104.87 571.157ZM84.1129 539.82C83.8582 539.031 83.5184 538.266 82.8769 538.385C82.0869 538.516 81.9769 539.826 82.5054 540.383C85.1617 543.115 85.1771 547.341 88.6376 550.704C88.6333 550.697 88.6291 550.689 88.6248 550.682C86.5268 546.517 85.2199 543.18 84.1129 539.82ZM509.812 440.726C502.732 436.318 495.217 432.845 487.862 428.953C480.814 425.244 472.993 422.711 467.068 417.942C481.316 425.555 497.072 431.255 509.812 440.726ZM541.511 561.317C541.698 561.459 541.885 561.601 542.072 561.742C535.692 569.419 527.865 575.808 519.245 580.452C519.122 580.243 518.999 580.035 518.876 579.826C527.417 575.236 535.179 568.916 541.511 561.317ZM409.336 398.563C409.304 398.561 409.27 398.558 409.238 398.557C409.238 398.557 409.331 398.555 409.388 398.55C409.395 398.548 409.402 398.546 409.41 398.544C409.413 398.545 409.415 398.546 409.418 398.547C409.431 398.545 409.436 398.543 409.428 398.541C409.44 398.544 409.452 398.547 409.464 398.551C409.473 398.557 409.48 398.564 409.488 398.571C409.461 398.569 409.433 398.568 409.405 398.566C409.361 398.57 409.316 398.574 409.271 398.577C409.293 398.573 409.314 398.568 409.336 398.563ZM466.124 419.143C461.643 416.701 456.271 415.762 452.171 412.725C457.183 414.388 462.36 415.845 466.124 419.143ZM304.742 585.74C305.855 585.697 307.122 585.838 306.93 586.694C306.777 587.51 305.624 587.553 304.435 587.473C301.365 587.254 298.333 587.037 295.262 586.821C295.275 586.821 295.287 586.821 295.299 586.821C295.376 586.576 295.416 586.352 295.454 586.107C298.524 585.977 301.633 585.827 304.742 585.74ZM483.26 588.055C488.4 586.906 493.548 587.805 498.621 586.632C493.769 588.759 488.377 588.21 483.26 588.055ZM535.561 456.752C535.313 457.237 534.296 457.108 533.601 456.497C529.399 452.739 524.467 449.992 519.547 447.08C519.001 446.766 518.594 446.112 517.616 445.094C524.051 447.243 528.978 451.649 534.228 454.597C535.368 455.228 535.848 456.203 535.561 456.752ZM560.255 476.785C553.677 471.016 546.744 465.401 539.432 460.206C537.939 459.141 537.108 458.372 537.377 457.789C537.845 456.813 539.346 458.426 540.242 459.091C547.066 464.089 553.575 469.353 559.797 474.826C559.788 474.819 559.78 474.811 559.771 474.804C559.933 475.449 560.084 476.106 560.255 476.785ZM175.054 582.794C182.039 582.486 188.871 583.084 197.046 583.74C192.748 584.606 189.907 585.19 186.952 585.795C188.487 587.286 191.557 586.042 193.783 587.288C185.263 587.252 177.548 587.712 169.603 587.295C165.268 587.065 160.857 586.967 156.437 586.995C153.277 587.027 150.164 587.022 147.05 586.976C147.033 586.987 147.015 586.999 146.998 587.01C144.427 586.943 143.733 586.025 142.897 584.724C142.907 584.715 142.916 584.705 142.925 584.696C145.317 583.53 147.411 582.253 149.711 584.944C150.469 585.793 151.204 584.863 151.922 584.786C153.45 584.621 154.935 584.271 156.437 583.967C160.516 583.469 164.626 583.215 168.913 584.217C171.024 584.713 172.828 582.895 175.054 582.794ZM559.634 467.852C559.245 464.808 559.062 461.776 559.056 458.751L572.58 487.856C568.038 484.042 563.857 479.627 559.845 474.882C564.702 478.494 569.225 482.621 573.421 486.86L560.359 458.751C560.123 461.784 559.871 464.818 559.634 467.852ZM559.797 474.826C559.813 474.845 559.829 474.863 559.845 474.882C559.826 474.868 559.807 474.853 559.788 474.839C559.791 474.835 559.794 474.83 559.797 474.826ZM552.1 536.776C551.671 535.478 550.498 534.773 551.612 533.166C555.165 527.931 554.524 521.643 555.017 515.666C555.024 515.541 555.03 515.415 555.038 515.29C555.083 514.637 555.147 513.985 555.197 513.217C555.859 513.636 555.679 514.645 555.652 515.666C555.634 516.101 555.677 516.536 556.061 516.879C556.13 516.474 556.197 516.069 556.259 515.666C556.692 511.397 557.06 507.319 556.823 503.123C556.781 502.509 556.318 501.78 556.38 501.55C557.087 499.017 556.369 494.22 557.773 493.874C559.16 493.49 558.538 498.173 558.407 500.053C558.406 500.066 558.405 500.079 558.405 500.092C558.065 505.275 557.776 510.462 557.487 515.666C556.874 523.025 555.225 530.187 552.1 536.776ZM194.471 410.057C186.27 413.29 178.969 417.64 170.533 420.562C169.481 420.921 167.882 421.9 167.473 421.377C167.08 420.902 168.489 420.146 169.69 419.643C169.688 419.639 169.687 419.635 169.685 419.631C177.81 416.216 186.084 413.022 194.471 410.057ZM130.59 440.324C125.042 442.304 121.347 446.929 116.108 449.25C116.101 449.26 116.093 449.271 116.085 449.281C113.929 450.225 111.672 451.628 109.309 451.789C115.923 446.569 122.901 443.476 129.369 439.633C130.194 439.145 131.349 438.851 131.473 439.373C131.507 439.53 130.824 440.242 130.59 440.324ZM99.8653 458.331C96.4618 460.73 95.039 465.672 89.928 465.188C92.5618 461.849 96.4766 460.559 99.8653 458.331ZM86.7113 467.413C82.6043 472.089 78.2655 474.221 74.8516 477.34C77.8533 473.858 81.2979 470.709 86.7113 467.413ZM142.856 584.662C142.862 584.671 142.869 584.68 142.875 584.69C142.881 584.661 142.887 584.632 142.892 584.604C142.881 584.624 142.867 584.642 142.856 584.662ZM150.553 429.901C146.287 431.737 142.238 434.723 136.545 436.375C141.332 432.465 146.291 431.442 150.433 429.022C150.589 428.932 151.235 428.919 151.2 429.025C151.14 429.261 150.804 429.764 150.58 429.873C150.571 429.882 150.562 429.892 150.553 429.901ZM241.107 580.905C245.943 580.511 248.207 582.638 252.429 581.528C252.442 581.521 252.455 581.514 252.468 581.507C252.429 581.953 252.352 582.401 252.313 582.847C251.239 582.937 250.202 583.108 249.128 583.138C233.737 583.596 218.347 584.076 202.957 584.655C201.115 584.721 199.426 584.665 199.157 583.708C198.735 582.254 200.961 582.36 202.841 582.312C211.323 582.086 219.844 581.468 228.249 581.773C232.778 581.942 237.116 581.229 241.107 580.905ZM547.194 544.738C548.249 541.763 548.667 539.23 549.963 536.832C551.725 538.429 550.667 542.637 547.194 544.738ZM532.061 563.412C532.602 561.298 534.489 560.579 535.938 559.576C535.933 559.582 535.928 559.588 535.923 559.593C538.806 557.611 541.18 555.121 542.43 551.859C541.527 557.191 537.09 560.963 533.451 564.717C532.829 565.343 532.026 565.825 531.374 565.179C530.66 564.441 531.93 563.93 532.061 563.412ZM503.005 580.729C504.079 579.444 503.268 577.498 505.148 578.124C507.78 578.979 509.597 577.561 511.154 576.315C513.345 574.535 516.233 575.388 518.447 573.497C521.183 571.158 525.48 570.38 527.661 567.044C528.11 566.342 528.989 565.839 529.585 566.562C530.181 567.287 529.336 567.912 528.676 568.447C525.244 571.174 521.677 573.895 517.665 575.492C517.655 575.49 517.645 575.488 517.634 575.487C512.972 577.341 508.664 579.927 503.005 580.729ZM303.476 578.381C304.78 577.767 305.279 578.377 305.509 578.581C307.697 580.391 310.921 580.53 313.914 579.672C316.716 578.874 316.678 580.262 316.947 580.669C317.676 581.75 315.297 581.69 314.529 581.69C304.55 581.901 294.379 582.619 284.554 581.97C278.221 581.55 272.502 582.823 266.476 582.477C266.463 582.47 266.45 582.463 266.438 582.457C261.679 582.184 256.075 583.464 252.966 580.854C253.887 579.223 257.726 583.087 256.689 579.483C256.497 578.795 258.801 578.735 260.182 578.703C268.894 578.451 277.414 578.641 286.011 579.804C291.577 580.553 298.294 580.839 303.476 578.381ZM482.03 582.742C485.085 580.52 488.257 581.859 490.717 582.154C494.181 582.556 496.404 580.442 499.348 580.063C500.035 579.964 500.845 579.036 501.3 579.896C501.746 580.719 500.859 581.421 499.823 581.666C499.818 581.674 499.812 581.682 499.806 581.69C494.23 582.99 488.358 584.692 482.03 582.742ZM351.989 579.576C352.564 579.802 353.409 577.832 354.368 579.485C354.675 580.037 354.252 580.625 352.679 580.781C342.201 581.836 331.646 581.895 321.053 581.321C320.708 581.3 320.439 580.811 319.595 580.036C328.538 579.935 336.521 578.767 345.003 579.183C347.306 579.293 349.686 578.69 351.989 579.576ZM368.723 578.304C372.714 577.743 373.06 580.042 375.823 580.387C370.066 582.335 365.114 582.391 361.084 578.4C364.231 579.496 366.497 578.615 368.723 578.304ZM421.221 578.151C422.984 577.959 426.318 576.813 425.909 579.774C425.794 580.496 426.83 580.491 427.674 580.141C428.134 579.947 428.404 579.61 428.787 579.334C434.314 581.402 440.418 579.972 446.213 580.471C447.211 580.548 448.745 580.594 448.438 581.487C448.246 582.023 447.517 582.15 446.405 582.132C429.863 581.942 413.359 581.827 396.817 581.744C396.817 581.731 396.817 581.717 396.817 581.704C396.28 581.698 395.742 581.43 394.668 581.157C397.546 579.848 401.192 579.12 403.61 579.753C408.983 581.146 414.165 579.413 419.308 580.308C420.421 580.504 422.686 581.097 422.839 579.571C422.947 578.574 422.023 578.26 421.221 578.151ZM420.344 578.087C420.552 578.096 420.875 578.104 421.221 578.151C420.834 578.193 420.524 578.191 420.344 578.087Z" fill="var(--stroke-0, #DADAF5)"/>
</g>
</svg>
