<svg preserveAspectRatio="none" width="100%" height="100%" overflow="visible" style="display: block;" viewBox="0 0 642.802 677.363" fill="none" xmlns="http://www.w3.org/2000/svg">
<g id="Group 43896">
<path id="l" d="M20.7518 252.56C19.4283 257.133 17.468 261.556 15.2568 266.105C16.5334 261.455 18.4972 256.933 20.7518 252.56ZM20.7518 252.56C20.774 252.483 20.797 252.405 20.8189 252.329C20.8189 252.329 20.818 252.405 20.8024 252.438C20.8058 252.439 20.8092 252.44 20.8126 252.442C20.7923 252.481 20.7721 252.521 20.7518 252.56ZM20.8338 252.373C20.8606 252.343 20.8878 252.309 20.9144 252.279C20.8871 252.335 20.8599 252.392 20.8326 252.449C20.833 252.424 20.8334 252.398 20.8338 252.373ZM85.1319 512.489C84.1879 513.32 83.6963 514.437 83.4798 515.72C82.9516 517.716 84.1407 520.255 84.5136 522.324C85.4159 527.236 86.8167 531.91 88.4432 536.517C90.11 541.245 92.7056 545.758 95.8653 549.652C96.4334 550.334 96.9716 550.765 95.4829 550.804C95.4722 550.802 95.4613 550.799 95.4507 550.796C95.4492 550.799 95.448 550.803 95.4466 550.806C95.4319 550.806 95.417 550.807 95.4019 550.807C95.4114 550.802 95.421 550.797 95.4305 550.791C95.4148 550.787 95.3991 550.783 95.3834 550.779C95.3931 550.773 95.4029 550.767 95.4126 550.762C91.8755 551.681 92.5748 548.208 91.5184 546.89C89.0933 543.86 88.6552 539.575 86.3375 536.598C83.8238 533.261 84.6521 528.924 80.7416 524.992C82.769 539.154 88.5206 551.994 97.8987 561.535C98.8211 560.86 97.3023 560.485 98.1103 559.512C105.523 570.927 116.134 582.639 130.532 584.487C126.61 581.467 121.113 581.514 117.721 577.491C119.93 578.218 122.33 578.447 124.294 579.405C130.304 582.358 136.787 583.786 143.115 585.778C145.37 586.479 147.538 584.706 149.738 585.508C150.412 585.751 151.534 585.416 151.837 585.88C153.13 587.817 154.739 588.447 156.447 588.539C159.821 588.655 163.367 588.01 166.769 588.234C168.879 588.374 170.982 588.447 173.081 588.473C181.434 588.579 189.725 587.961 198.071 588.068C207.951 588.18 217.848 588.023 227.724 588.199L186.227 618.661C187.002 616.376 187.778 614.026 188.557 611.667C190.506 605.815 192.892 599.472 193.788 593.44C194.814 586.481 196.117 579.484 197.062 572.439C198.367 562.842 197.329 552.814 200.839 543.233C198.716 535.904 200.343 528.211 199.984 520.624C199.182 502.853 198.498 484.843 195.783 466.794C192.47 444.736 187.496 422.646 181.249 400.817C177.093 386.344 171.9 372.111 166.261 358.019C166.032 357.47 165.972 356.836 165.803 356.134C167.091 356.55 166.965 358.786 168.035 359.372C167.713 357.516 167.093 355.064 166.018 354.48C164.249 353.524 163.727 351.461 163.016 349.77C159.852 342.122 156.443 334.536 152.931 326.975C151.667 324.251 150.341 321.54 148.966 318.84C144.367 309.805 139.295 300.978 134.154 292.188C128.393 282.352 122.456 272.575 116 263.121C109.076 252.988 101.629 243.143 93.7779 233.604C103.57 246.082 112.678 258.969 121.117 272.232C120.965 272.317 120.804 272.408 120.636 272.47C110.395 257.398 100.181 241.679 87.7292 228.332C87.6265 228.433 87.5238 228.535 87.4211 228.637C92.3966 234.943 97.229 241.37 101.826 247.914C103.234 249.915 104.935 251.802 105.911 253.996C104.577 253.675 103.633 251.354 102.448 250.189C102.479 250.785 103.833 251.784 103.623 252.404C103.467 252.285 103.276 252.198 103.148 252.019C98.825 246.339 94.5075 240.601 90.4303 234.674C89.4802 233.3 88.6074 232.417 87.6158 231.579C84.7015 229.123 80.9649 224.351 79.5573 221.357C78.8403 219.833 79.6905 219.861 80.7137 220.438C82.2968 221.307 82.6673 220.894 81.7858 219.047C81.262 217.947 81.4039 217.718 82.311 218.183C84.7968 219.455 84.7687 219.257 81.2061 215.063C85.4645 218.888 84.8032 217.018 84.9291 215.303C85.1492 212.861 83.4111 208.331 89.138 211.303C89.8724 211.689 91.1634 211.379 91.1211 209.987C91.0781 208.471 91.1729 206.535 93.8656 207.354C94.264 207.479 95.1181 208.005 95.6026 208.458C100.395 213.033 100.692 211.322 100.825 210.157C101.168 207.137 104.003 206.699 107.417 206.492C109.24 206.378 110.317 205.433 112.178 205.264C114.235 205.059 118.379 208.468 121.418 210.883C127.415 215.636 132.916 220.985 138.088 226.592C140.404 229.091 143.076 231.691 145.675 234.004C150.221 238.023 153.12 242.657 157.273 246.906C158.837 248.503 160.181 249.702 161.692 250.67C162.081 253.535 165.72 255.835 167.691 258.421C169.68 261.033 171.809 263.861 174.574 265.75C176.55 267.096 176.085 268.551 177.387 270.179C182.954 277.116 188.103 284.434 193.34 291.633C194.709 293.514 196.082 295.383 197.473 297.23C201.011 301.932 204.137 306.789 206.845 311.61C216.151 328.18 226.512 344.529 234.444 362.049C237.898 369.675 240.671 378.155 245.558 385.582C247.493 388.516 248.456 392.27 249.555 395.782C251.365 401.529 253.072 407.186 255.779 412.828C258.377 418.241 258.816 424.41 261.055 430.157C264.005 437.716 265.762 445.61 267.503 453.531C268.33 457.272 269.012 461.061 271.683 463.817C273.451 465.624 270.651 465.69 271.397 467.926C272.826 472.208 273.883 476.734 274.872 481.195C276.917 490.363 277.643 499.659 277.626 508.954C277.618 513.53 278.242 518.349 279.033 522.965C279.576 526.119 278.276 529.453 280.133 532.308C278.948 533.843 277.601 536.422 278.795 538.228C280.714 541.117 280.047 544.027 280.237 547.136C280.615 553.23 281.479 559.408 279.883 565.485C279.52 566.882 281.049 567.1 280.881 568.832C280.59 572.061 280.443 575.672 280.453 578.609C280.51 586.117 277.164 593.439 278.9 601.192C279.506 603.808 277.94 606.803 277.52 609.76C276.496 616.95 275.819 624.64 272.55 631.34C270.51 635.463 269.246 639.976 268.153 644.392L258.247 674.487L227.724 674.07C224.858 674.278 222.013 674.625 219.215 674.824C215.495 675.082 210.889 674.263 207.512 676.463C205.624 674.239 201.161 676.321 199.101 673.827C197.814 672.266 194.895 673.358 193.493 673.995C188.457 676.317 184.909 676.206 179.416 675.949C177.343 675.851 175.225 675.564 173.081 675.399C169.544 675.128 165.934 675.193 162.335 677.001C160.997 677.674 158.797 677.286 156.447 676.834C154.196 676.522 151.873 676.128 149.777 675.993C146.443 675.793 142.262 675.516 139.549 673.673C138.665 673.063 137.633 672.858 136.616 673.403C131.737 675.939 126.762 673.085 122.458 671.216C118.572 669.528 115.731 667.023 111.5 668.909C110.138 669.503 106.965 668.284 105.121 667.204C100.159 664.288 100.305 664.25 94.9379 663.304C94.1079 663.147 93.1317 662.697 92.3352 662.25C83.7237 657.544 74.3649 653.88 67.0635 646.649C61.8578 641.561 54.7492 635.262 49.0609 631.89C42.2483 627.881 38.6786 621.77 33.9056 616.538C28.2286 610.324 23.258 603.029 19.5828 595.444C11.4995 578.898 3.90363 561.637 2.44601 543.292C2.3071 541.51 2.32669 539.163 0.910134 538.203C0.0423931 537.625 -0.115261 535.364 0.0678639 534.638C1.67643 528.325 0.898018 522.077 0.604027 515.72C0.483895 513.813 0.377648 511.917 0.465302 510.057C1.32534 492.26 1.47886 474.435 2.37616 456.639C2.88207 446.367 2.82086 436.153 3.55711 425.911C4.35545 414.781 4.52836 403.708 5.17748 392.635C5.63333 384.853 6.28761 376.899 5.94816 369.116C5.81495 366.255 4.72582 362.393 7.30573 360.047C7.34391 360.018 6.57243 351.977 6.57999 351.806C6.55875 351.005 6.48191 350.203 6.5874 349.431C7.96452 337.758 7.76851 326.285 8.45709 314.755C8.67853 310.954 8.93309 307.151 9.20755 303.345C10.1124 287.364 13.851 271.708 19.7573 257.214C22.1339 251.39 25.5787 246 28.6872 239.98C25.4388 243.762 23.7118 249.048 20.9144 252.279C25.1731 243.379 30.3974 234.798 36.6294 227.756C42.2427 221.283 48.647 213.758 55.1744 210.47C56.1327 209.971 56.9665 208.896 57.7044 208.152C58.4016 207.453 59.0466 206.907 59.6045 206.504C60.7947 205.696 61.5486 205.614 61.5258 206.166C61.485 207.865 63.1663 206.553 65.6165 204.471C66.4685 203.745 67.6226 202.673 68.2483 202.732C68.7592 202.757 67.9842 203.561 67.2552 204.288C65.9336 205.597 63.7905 207.5 65.207 207.379C66.2129 207.293 68.0723 206.602 70.1101 204.31C70.209 204.207 70.5757 204.048 70.9131 203.86C70.8251 204.784 69.185 206.057 67.842 207.304C70.4833 206.384 72.5056 205.858 71.6171 208.328C71.4177 208.856 71.9395 208.771 70.7497 209.847C68.2827 212.073 68.5329 212.283 70.2313 211.918C72.3899 211.447 75.5314 210.096 73.8724 213.454C73.7494 213.695 73.8889 213.876 74.1329 213.796C76.5109 213.059 77.2732 213.538 76.4342 216.097C75.8759 217.764 79.4667 215.447 81.7567 213.772C86.8734 210.03 90.9161 208.809 92.2806 210.173C92.2807 210.173 92.2807 210.173 92.2808 210.173C92.7388 210.631 92.9039 211.383 92.7229 212.437C92.2791 214.906 90.7992 218.889 95.0818 216.536C91.3549 221.311 87.6529 226.088 83.9658 230.864C69.1046 250.737 63.0524 274.703 64.5282 296.865C64.6666 299.041 64.8728 301.201 65.1458 303.345C68.2754 334.178 70.066 365.114 72.9412 395.954C73.3823 391.004 72.2296 385.997 72.6285 381.104C72.6629 380.704 72.9189 380.417 73.404 379.302C73.9237 386.95 74.4257 394.599 74.9099 402.248C74.9553 402.963 75.023 403.793 74.3839 403.221C72.5236 401.591 73.7399 404.394 73.9085 404.538C75.6383 406.025 75.5287 408.486 75.2656 410.775C74.933 413.779 75.7287 416.554 75.9849 419.444C77.1669 432.634 78.1893 445.853 79.1688 459.071C79.5489 464.221 79.3749 469.457 80.4369 474.751C81.0541 477.84 82.8806 475.38 83.1782 477.983C83.5134 480.958 80.7443 479.099 81.02 482.16C81.3024 485.336 80.9339 488.542 81.4937 492.004C82.0734 491.26 82.516 490.687 83.3969 489.543C81.5723 497.954 83.3955 504.964 85.1319 512.489ZM92.6249 658.789C86.2189 654.438 79.063 651.803 72.7582 647.452C78.4718 652.646 85.7096 655.653 92.6249 658.789ZM49.2588 628.069C53.608 634.747 60.4443 639.331 67.0473 643.738C60.9433 638.748 54.2808 634.205 49.2588 628.069ZM113.617 666.363C126.169 670.022 139.198 672.052 152.193 672.432C152.162 672.166 152.131 671.9 152.1 671.635C139.208 671.249 126.284 669.231 113.833 665.602C113.761 665.856 113.689 666.109 113.617 666.363ZM172.463 671.547C167.714 671.546 162.965 671.907 158.215 672.037C162.993 672.356 167.799 672.933 172.463 671.547ZM46.4838 265.811C52.5888 253.556 57.119 242.856 63.3325 233.008C55.0249 241.774 49.6866 253.059 46.4838 265.811ZM148.883 306.864C150.377 310.67 151.485 313.605 153.943 315.789C154.264 316.074 154.608 316.347 154.979 316.607C154.788 316.232 154.602 315.863 154.417 315.498C152.856 312.401 151.454 309.652 148.883 306.864ZM175.055 360.327C176.276 367.803 179.046 373.427 182.45 378.712C180.669 372.525 178.221 366.692 175.055 360.327ZM153.55 325.125C153.923 325.95 154.292 326.806 154.765 326.908C155.156 326.995 155.419 326.526 155.671 326.188C155.819 325.944 155.685 325.325 155.301 325.075C152.691 323.421 152.449 320.111 151.118 317.521C150.945 317.182 150.754 316.856 150.538 316.548C150.824 316.789 151.064 317.086 151.282 317.42C152.096 318.663 152.594 320.411 154.036 321.687C153.323 320.066 152.493 318.599 151.616 317.216C148.892 312.933 145.791 309.472 144.024 304.702C144.023 304.692 144.022 304.682 144.021 304.671C143.924 307.227 145.593 308.715 146.523 310.564C147.771 313.06 149.011 315.557 150.227 318.067C151.365 320.415 152.478 322.765 153.55 325.125ZM132.718 285.555C135.004 290.185 137.355 293.795 139.774 297.369C137.383 293.787 136.437 289.262 132.718 285.555ZM205.37 551.849C205.23 551.925 204.979 553.031 205.548 553.383C206.154 553.762 206.665 553.39 207.051 552.696C208.401 550.253 208.07 547.391 208.95 543.573C208.943 543.573 208.937 543.573 208.93 543.573C208.038 544.416 207.683 544.57 207.578 544.884C206.782 547.181 208.249 550.601 205.37 551.849ZM164.803 348.1C163.118 343.934 161.919 339.398 159.113 335.803C161.053 339.859 162.971 343.996 164.803 348.1ZM167.202 354.248C168.599 358.144 169.715 362.099 172.129 365.441C170.635 361.607 169.876 357.382 167.202 354.248ZM196.74 447.132C197.604 449.407 195.85 451.904 196.642 452.827C199.32 455.97 198.363 459.993 199.111 463.486C199.611 457.966 199.715 452.371 196.74 447.132ZM176.47 377.578C177.748 380.683 176.033 383.345 177.85 386.793C179.952 383.96 177.701 380.659 176.47 377.578ZM199.141 474.997C199.182 475.15 199.24 475.3 199.277 475.427C200.669 479.663 200.808 484.044 200.947 488.448C200.994 490.307 201.946 491.225 202.859 491.225C203.939 491.227 203.47 489.532 203.409 488.548C203.107 482.228 201.404 476.103 200.946 469.737C200.802 467.741 199.777 465.729 199.138 463.773C197.612 463.978 198.761 465.481 198.672 466.454C198.425 468.899 199.87 470.198 200.45 472.03C201.239 474.521 200.782 475.194 199.141 474.997ZM201.846 538.44C200.387 539.029 201.485 539.316 201.969 539.283C202.531 539.25 202.527 540.735 203.353 539.931C203.323 539.366 203.235 538.751 203.28 538.132C203.305 537.59 203.176 536.87 203.738 536.598C203.738 536.606 203.737 536.615 203.737 536.624C205.526 542.624 201.89 548.779 203.392 554.786C204.824 542.442 205.627 529.795 204.205 517.186C204.106 516.274 203.608 515.421 203.956 514.467C205.836 509.18 203.984 503.632 203.949 498.238C203.938 496.535 203.138 495.856 201.793 494.904C202.941 500.95 203.549 506.436 202.412 511.89C202.234 512.743 202.364 513.742 202.411 514.653C202.851 521.776 203.272 528.829 202.776 535.871C202.694 536.932 203.012 537.983 201.846 538.44ZM97.0091 219.191C95.9398 220.876 91.9374 226.293 86.584 233.482C71.8603 251.146 68.1649 286.445 68.5854 288.505C67.9972 273.575 72.235 257.88 79.4631 243.322C81.2583 239.701 83.2827 236.077 85.725 232.624C88.8978 228.345 92.2751 224.131 96.0282 220.072C96.316 219.753 96.6225 219.532 97.0091 219.191ZM200.424 566.179C199.679 574.738 198.53 583.157 197.023 591.383C196.619 593.537 195.966 595.678 197.141 597.542C197.142 597.535 197.144 597.527 197.145 597.521C198.249 596.862 198.233 595.55 198.454 594.43C200.343 585.312 201.717 575.94 202.737 566.446C202.855 565.214 203.341 563.711 202.117 563.457C200.66 563.165 200.547 564.705 200.424 566.179ZM138.133 301.556C133.391 293.804 128.716 285.916 124.278 277.831C129.555 285.315 134.078 293.311 138.133 301.556ZM172.463 592.717C168.658 591.718 164.823 593.068 160.99 592.465C164.852 594.516 168.658 593.309 172.463 592.717ZM218.757 591.685C220.902 593.185 223.278 593.549 226.196 592.968C226.7 592.869 227.209 592.789 227.724 592.726L190.546 620.018C190.908 617.738 191.778 615.468 192.995 613.342C193.296 612.809 194.214 612.459 193.348 611.807C192.482 611.156 192.037 611.854 191.768 612.785C191.089 615.141 190.374 617.467 189.632 619.731L227.724 591.768C224.735 591.738 221.746 591.71 218.757 591.685ZM192.29 609.65C194.855 606.136 196.526 602.148 197.117 597.714C193.063 600.721 194.486 605.932 192.29 609.65ZM197.218 597.66C197.219 597.652 197.221 597.644 197.223 597.636C197.218 597.639 197.213 597.643 197.208 597.646C197.211 597.651 197.214 597.655 197.218 597.66ZM151.332 328.447C151.511 328.342 151.689 328.237 151.868 328.133C158.192 339.778 162.577 352.326 167.358 364.58C162.496 352.386 157.151 340.33 151.332 328.447ZM194.284 465.742C189.824 445.1 186.176 424.005 179.705 403.478C179.711 403.476 179.716 403.474 179.721 403.472C180.047 403.378 180.382 403.253 180.7 403.134C186.694 423.856 191.242 444.811 194.284 465.742ZM168.986 370.894C169.147 370.85 169.312 370.774 169.476 370.697C173.272 380.592 176.735 390.532 179.893 400.59C179.719 400.627 179.522 400.645 179.341 400.714C176.202 390.682 172.76 380.766 168.986 370.894ZM77.2506 474.408C76.8367 468.027 77.6109 461.675 75.3573 455.266C75.6692 461.646 75.9696 468.027 76.2584 474.408C76.5892 474.408 76.9199 474.408 77.2506 474.408ZM118.958 274.976C118.34 273.831 117.884 274.986 117.497 273.818C115.573 268.046 111.193 263.908 107.961 259.066C106.203 256.444 105.774 255.308 105.94 254.05C109.878 259.583 114.045 265.034 117.114 271.063C117.713 272.259 118.483 272.595 119.072 273.588C119.989 275.146 119.642 275.239 118.958 274.976ZM105.941 253.984C105.943 253.982 105.946 253.98 105.948 253.977C105.947 253.986 105.947 253.996 105.946 254.004C105.943 254.004 105.94 254.003 105.937 254.002C105.938 253.996 105.94 253.99 105.941 253.984ZM105.946 254.004C105.95 254.005 105.953 254.006 105.957 254.007C105.953 254.01 105.948 254.014 105.944 254.018C105.944 254.013 105.945 254.009 105.946 254.004ZM105.911 253.996C105.919 253.998 105.928 254 105.937 254.002C105.934 254.012 105.93 254.022 105.927 254.032C105.922 254.02 105.916 254.008 105.911 253.996ZM105.944 254.018C105.942 254.029 105.942 254.04 105.94 254.05C105.936 254.044 105.932 254.038 105.927 254.032C105.933 254.027 105.938 254.023 105.944 254.018ZM133.479 584.599C132.97 584.378 132.054 584.094 131.756 584.975C131.459 585.858 132.319 585.892 132.968 586.074C136.407 587.095 139.888 587.968 143.425 588.553C140.5 585.89 136.785 586.023 133.479 584.599ZM130.343 295.203C126.655 288.882 122.473 282.904 119.104 276.293C118.91 275.904 119.009 275.451 118.987 275.031C120.851 276.663 122.417 278.831 123.907 281.467C126.202 285.538 128.568 289.572 130.806 293.681C131.252 294.496 131.868 295.492 131.385 295.896C131.133 296.105 130.694 295.816 130.343 295.203ZM69.9642 345.282C71.4607 348.744 72.3695 358.072 71.6592 363.909C70.4505 357.157 70.9585 351.148 69.9642 345.282ZM81.1326 523.943C82.2677 521.701 82.3323 520 81.0312 517.757C79.3702 519.867 80.1093 521.773 81.1326 523.943ZM80.2282 485.051C80.2372 484.107 80.138 483.162 79.4898 483.077C78.6974 482.962 78.2032 484.307 78.5249 485.08C80.1782 488.971 78.6233 493.348 80.1536 498.47C80.1531 498.46 80.1527 498.45 80.1523 498.441C80.1928 493.148 80.2039 489.085 80.2282 485.051ZM156.182 348.077C154.001 342.109 151.072 336.617 148.629 330.809C147.331 327.729 145.632 324.767 144.277 321.716C143.212 319.319 142.363 316.876 142.055 314.277C142.942 316.647 143.931 318.976 144.977 321.286C148.982 330.169 153.872 338.706 156.182 348.077ZM195.925 493.216C196.157 493.183 196.39 493.149 196.622 493.115C197.645 503.304 198.293 513.449 198.543 523.541C198.302 523.556 198.06 523.571 197.818 523.586C197.577 513.514 196.938 503.388 195.925 493.216ZM118.901 274.955C118.882 274.94 118.864 274.921 118.846 274.906C118.846 274.906 118.903 274.947 118.941 274.97C118.946 274.972 118.952 274.974 118.958 274.976C118.959 274.978 118.96 274.98 118.961 274.982C118.97 274.986 118.975 274.987 118.972 274.982C118.977 274.99 118.981 274.997 118.986 275.005C118.987 275.014 118.987 275.022 118.987 275.031C118.972 275.017 118.956 275.003 118.94 274.99C118.911 274.972 118.881 274.954 118.852 274.936C118.868 274.943 118.884 274.949 118.901 274.955ZM140.634 314.732C139.324 311.081 136.478 308.11 135.899 304.17C137.988 307.525 140.364 310.773 140.634 314.732ZM162.106 585.795C162.936 585.752 163.88 585.893 163.737 586.75C163.623 587.566 162.764 587.608 161.877 587.529C160.059 587.355 158.258 587.182 156.447 587.01C156.154 586.965 155.861 586.919 155.569 586.871C155.574 586.871 155.58 586.871 155.586 586.871C155.624 586.627 155.645 586.403 155.665 586.159C155.925 586.137 156.186 586.114 156.447 586.089C158.323 585.979 160.215 585.866 162.106 585.795ZM195.978 562.006C195.288 556.584 197.027 551.36 197.114 545.977C198 551.386 196.58 556.73 195.978 562.006ZM164.766 369.532C164.285 369.787 163.609 369.311 163.471 368.61C162.655 364.29 160.781 360.451 159.081 356.451C158.884 356.011 159.002 355.381 158.943 354.265C162.201 358.344 163.012 363.335 165.102 367.482C165.555 368.364 165.314 369.245 164.766 369.532ZM171.79 393.121C169.885 386.552 167.883 379.967 165.55 373.476C165.076 372.147 164.927 371.278 165.482 370.961C166.424 370.433 166.563 372.163 166.832 372.975C168.918 379.134 170.782 385.295 172.548 391.525C172.545 391.517 172.542 391.508 172.539 391.5C172.298 392.028 172.041 392.563 171.79 393.121ZM109.009 563.216C111.368 565.129 113.157 567.522 115.631 570.211C113.602 569.765 112.248 569.404 110.839 568.996C110.402 570.59 112.275 570.527 112.306 572.13C109.245 569.68 106.289 567.565 104.077 564.59C101.506 561.117 98.7322 557.737 95.8455 554.463C95.8276 554.46 95.8097 554.457 95.7918 554.455C94.53 552.987 94.8768 552.062 95.4466 550.806C95.4588 550.806 95.4709 550.805 95.4829 550.804C97.6603 551.38 99.7454 551.746 98.7699 554.689C98.4788 555.64 99.567 555.481 99.9732 555.838C102.264 557.862 105.251 558.951 106.118 562.265C106.396 563.294 108.262 562.612 109.009 563.216ZM178.236 411.282C174.726 405.245 173.196 398.657 172.553 391.583C175.09 397.91 176.669 404.606 178.236 411.282ZM172.548 391.525C172.549 391.544 172.551 391.564 172.553 391.583C172.546 391.566 172.54 391.548 172.533 391.531C172.538 391.529 172.543 391.527 172.548 391.525ZM189.241 465.824C188.229 464.825 186.844 464.714 187.076 462.62C187.813 455.825 184.805 449.908 183.636 443.564C183.563 443.126 183.505 442.682 183.414 442.166C184.595 442.326 183.849 444.154 185.031 444.748C184.637 441.383 184.256 438.147 183.073 435.112C182.914 434.724 182.328 434.381 182.342 434.213C182.529 432.358 180.873 429.436 182.139 428.791C183.386 428.125 183.747 431.384 183.989 432.652C183.991 432.661 183.993 432.669 183.995 432.678C186.18 443.602 188.441 454.435 189.241 465.824ZM68.7055 293.185C68.9281 296.679 69.8065 300.029 70.5016 303.345C70.8712 305.732 71.1335 308.149 71.1495 310.635C71.1527 311.522 71.5544 312.981 70.9256 313.152C70.3478 313.324 70.0973 312.065 70.008 311.035C70.0037 311.035 69.9994 311.035 69.9951 311.035C69.7726 308.472 69.548 305.909 69.3213 303.345C68.9271 299.995 68.7195 296.602 68.7055 293.185ZM74.6214 346.428C74.0617 351.177 76.565 355.555 76.1874 360.247C76.1931 360.257 76.1987 360.266 76.2044 360.276C76.0392 362.193 76.2032 364.396 75.2032 366.141C73.82 359.331 74.1999 353.179 73.4778 347.085C73.3881 346.313 73.607 345.37 74.133 345.455C74.2897 345.484 74.6469 346.227 74.6214 346.428ZM76.1855 375.554C76.504 378.958 79.9532 382.192 76.7707 385.54C75.3984 382.221 76.3661 378.901 76.1855 375.554ZM76.867 388.801C78.483 393.808 77.6998 397.842 78.1706 401.734C77.1608 397.928 76.6087 394.065 76.867 388.801ZM95.473 550.746C95.4688 550.755 95.4652 550.764 95.4611 550.773C95.4864 550.759 95.5118 550.744 95.5372 550.729C95.5158 550.736 95.494 550.74 95.473 550.746ZM72.99 328.26C73.1091 332.007 74.3089 335.956 73.503 340.705C71.8781 335.899 72.839 331.921 72.1289 328.087C72.104 327.943 72.3306 327.458 72.4158 327.515C72.6133 327.629 72.9565 328.031 72.974 328.231C72.9794 328.24 72.9847 328.25 72.99 328.26ZM133.447 576.805C135.45 577.13 135.706 579.451 137.743 578.903C137.75 578.898 137.757 578.893 137.764 578.888C137.623 579.311 137.464 579.731 137.322 580.154C136.854 580.11 136.38 580.143 135.927 580.03C129.463 578.452 123.16 575.901 117.212 572.48C116.501 572.068 115.924 571.578 116.394 570.736C117.106 569.455 117.814 570.106 118.506 570.526C121.637 572.425 125.064 573.693 128.137 575.49C129.802 576.468 131.78 576.523 133.447 576.805ZM189.399 475.856C188.532 472.571 187.508 469.921 187.411 466.959C189.736 467.601 190.987 471.916 189.399 475.856ZM191.191 502.121C189.889 500.16 190.579 498.031 190.821 496.141C190.822 496.15 190.823 496.158 190.824 496.167C191.316 492.415 191.283 488.727 190.083 485.147C192.898 490.211 192.458 496.234 193.084 501.888C193.174 502.83 193.056 503.82 192.144 503.927C191.12 504.023 191.508 502.596 191.191 502.121ZM192.63 539.701C191.737 538.145 189.631 538.269 190.841 536.5C192.523 534.029 191.876 531.642 191.354 529.469C190.598 526.383 192.625 523.908 192.011 520.802C191.246 516.842 192.858 512.464 191.413 508.386C191.1 507.523 191.219 506.407 192.156 506.379C193.094 506.352 193.092 507.489 193.146 508.408C193.37 513.15 193.835 517.944 193.407 522.599C193.401 522.608 193.395 522.617 193.389 522.626C192.898 528.102 193.588 533.509 192.63 539.701ZM161.162 578.437C162.135 577.823 162.507 578.432 162.678 578.636C164.309 580.447 166.712 580.586 168.944 579.727C171.033 578.93 171.004 580.317 171.205 580.725C171.748 581.805 169.974 581.745 169.402 581.746C165.106 581.867 160.762 582.158 156.447 582.257C154.597 582.33 152.782 582.225 151.025 581.809C148.384 581.175 145.782 582.092 143.301 581.249C143.297 581.241 143.293 581.234 143.289 581.226C141.368 580.575 138.678 581.199 138.148 578.32C138.95 576.861 139.482 581.005 139.995 577.411C140.098 576.727 141.01 576.905 141.557 577.003C145.036 577.579 148.332 578.281 151.801 579.696C153.216 580.267 154.863 580.616 156.447 580.163C158.109 579.893 159.716 579.357 161.162 578.437ZM190.581 562.869C188.606 559.342 190.375 555.929 191.09 553.322C192.089 549.61 190.531 546.752 190.949 543.391C191.035 542.616 190.375 541.432 191.33 541.228C192.247 541.02 192.661 542.179 192.62 543.36C192.626 543.369 192.632 543.377 192.639 543.386C192.393 549.757 193.029 556.203 190.581 562.869ZM197.327 579.632C197.756 579.857 198.386 577.887 199.101 579.541C199.33 580.092 199.015 580.681 197.842 580.837C190.031 581.892 182.162 581.95 174.266 581.377C174.008 581.356 173.808 580.866 173.179 580.092C179.845 579.99 185.796 578.822 192.119 579.238C193.836 579.348 195.61 578.746 197.327 579.632ZM209.802 578.36C212.777 577.798 213.035 580.097 215.095 580.442C210.803 582.391 207.112 582.446 204.107 578.455C206.453 579.551 208.142 578.67 209.802 578.36ZM180.928 599.704C180.967 598.643 180.251 596.464 183.1 597.299C183.793 597.516 183.916 596.892 183.673 596.329C183.537 596.021 183.237 595.797 183.012 595.519C185.686 592.672 184.927 588.704 185.943 585.288C186.11 584.693 186.292 583.76 187.148 584.076C187.661 584.27 187.723 584.739 187.603 585.418C185.899 595.508 183.662 605.269 180.81 614.501C180.797 614.497 180.784 614.493 180.771 614.489C180.676 614.787 180.329 615.01 179.886 615.522C179.124 613.552 179.009 611.333 179.997 610.128C182.17 607.494 181.248 604.026 182.785 601.283C183.123 600.683 183.993 599.477 182.52 599.065C181.559 598.793 181.136 599.264 180.928 599.704ZM180.753 600.197C180.788 600.079 180.838 599.894 180.928 599.704C180.919 599.937 180.877 600.116 180.753 600.197Z" fill="var(--stroke-0, #C6EDD1)"/>
<path id="t" d="M190.455 135.413C192.505 139.615 193.829 144.195 194.833 149.017C193.029 144.686 191.679 140.088 190.455 135.413ZM190.455 135.413C190.421 135.342 190.387 135.271 190.352 135.201C190.352 135.201 190.402 135.257 190.412 135.29C190.415 135.289 190.419 135.288 190.422 135.286C190.433 135.328 190.444 135.371 190.455 135.413ZM190.392 135.222C190.392 135.183 190.39 135.141 190.39 135.101C190.407 135.16 190.425 135.219 190.442 135.279C190.425 135.26 190.409 135.241 190.392 135.222ZM420.068 310.724C420.654 315.055 427.192 316.995 431.497 319.443C438.745 323.557 446.007 327.369 453.355 331.245C460.851 335.198 468.895 338.691 476.877 341.56C478.292 342.056 479.404 342.308 477.741 342.969C477.725 342.971 477.71 342.973 477.695 342.974C477.697 342.978 477.699 342.982 477.701 342.986C477.685 342.992 477.669 343 477.652 343.007C477.657 342.997 477.661 342.987 477.666 342.977C477.644 342.979 477.621 342.981 477.599 342.983C477.603 342.973 477.608 342.963 477.613 342.953C474.652 345.445 471.666 341.484 468.977 340.57C463.008 338.548 457.383 334.272 451.576 332.585C445.307 330.733 440.285 325.731 432.45 324.828C452.041 336.777 471.349 346.692 491.55 353.502C492.045 352.47 489.854 352.605 489.899 351.288C510.261 360.84 530.998 370.568 553.037 371.347C545.934 368.54 537.789 369.189 530.645 365.549C534.262 365.968 537.957 365.903 541.415 366.688C551.912 369.092 562.5 370.199 572.67 372.045C576.197 372.685 579.389 370.876 582.82 371.654C583.889 371.89 585.583 371.546 586.068 372.008C589.016 374.786 592.714 374.846 596.274 374.527L553.891 417.76C553.75 415.165 553.527 412.54 553.672 409.985C553.813 407.556 553.885 405.134 553.912 402.716C554.017 393.096 553.4 383.547 553.507 373.936C553.652 359.075 553.341 344.18 553.91 329.352C554.245 320.754 555.189 311.736 555.038 303.51C555.036 303.448 555.034 303.387 555.032 303.325C554.797 297.244 554.391 291.185 553.174 285.255C551.496 277.088 546.889 270.199 545.423 261.497C541.153 258.131 538.703 253.514 535.281 249.387C534.146 248.101 532.996 246.833 531.813 245.605C516.047 229.216 501.374 211.874 486.063 195.031C467.293 174.376 448.622 153.577 430.281 132.539C418.117 118.607 405.708 104.873 393.513 90.9708C393.028 90.4309 392.678 89.7558 392.187 89.0352C393.684 89.1685 394.579 91.6283 395.939 91.9929C394.75 90.0597 393.014 87.5567 391.66 87.1862C389.426 86.5776 387.99 84.4712 386.51 82.7816C385.064 81.1124 383.616 79.4444 382.168 77.7763C378.244 73.0683 373.845 68.7409 369.038 64.8184C359.334 56.8936 347.509 51.4072 334.992 48.1218C324.188 45.2816 312.698 44.1091 301.22 45.2037C288.917 46.3699 276.674 50.0488 265.449 56.0252C280.024 48.6806 296.045 45.1948 311.657 45.5721C311.643 45.7458 311.63 45.9303 311.588 46.1037C293.656 46.1665 274.414 50.3317 259.053 61.2205C259.14 61.3361 259.227 61.4517 259.314 61.5674C266.371 57.3966 273.88 54.1391 281.549 51.9513C283.893 51.2776 286.26 50.3665 288.644 50.3139C287.849 51.4129 285.379 51.422 283.889 52.1342C284.452 52.3104 285.847 51.4051 286.346 51.83C286.182 51.9309 286.035 52.0771 285.825 52.1309C279.08 54.0905 272.433 56.6299 265.825 59.5315C264.288 60.2129 263.269 60.9279 262.279 61.7841C259.372 64.2621 254.256 67.531 251.158 68.8621C249.578 69.5294 249.648 68.6758 250.303 67.6568C251.297 66.0907 250.919 65.681 248.963 66.5197C247.803 67.0251 247.574 66.8812 248.118 65.9597C249.634 63.4721 249.414 63.3927 244.825 67.0797C249.084 62.6838 247.148 63.3721 245.363 63.2108C242.868 62.9349 237.83 64.9608 241.593 58.7932C242.085 58.014 241.929 56.6367 240.432 56.6978C238.81 56.7608 236.703 56.7404 237.968 53.799C238.162 53.363 238.859 52.431 239.44 51.8971C245.267 46.7267 243.576 46.4471 242.294 46.2569C239.044 45.8381 239.109 42.7659 239.782 38.9965C240.136 36.9904 239.361 35.7828 239.714 33.7254C240.082 31.4225 245.402 26.9765 249.437 23.9933C257.343 18.0337 266.368 13.3877 275.793 10.0489C280.001 8.54453 284.599 6.91661 288.926 5.4351C296.469 2.8374 303.701 2.50961 311.449 1.41181C314.372 1.00126 316.711 0.619066 318.955 2.38419e-07C322.297 1.40926 327.667 0.0714667 332.015 0.42054C336.382 0.753823 341.058 1.32778 345.415 0.952505C348.528 0.687859 349.514 2.14192 352.261 2.63541C367.086 5.31883 381.461 10.9629 394.954 17.9174C402.089 21.5851 408.6 26.0566 414.331 30.9852C416.966 33.2472 419.496 35.5318 422.012 37.9322C435.083 50.2781 449.075 61.8094 462.122 74.182C468.678 80.3945 475.151 87.5757 483.191 92.6765C486.36 94.6804 489.086 97.8743 491.802 100.703C496.284 105.355 500.718 109.915 506.095 113.904C511.258 117.735 514.949 123.178 520.097 127.304C526.854 132.709 532.873 138.853 539.043 144.893C541.942 147.726 544.84 150.7 548.721 151.571C551.282 152.133 548.999 153.765 550.989 155.269C554.815 158.154 558.491 161.375 562.128 164.54C569.611 171.038 576.239 178.157 582.572 185.617C585.003 188.485 587.924 191.241 590.913 193.755C591.959 194.675 592.994 195.588 594.012 196.492C597.348 199.454 599.306 203.903 603.195 205.935C603.549 208.338 604.562 211.983 606.985 213.374C610.9 215.622 612.561 219.37 614.977 222.972C619.74 230.069 624.494 237.313 626.483 245.735C626.932 247.655 628.436 247.267 629.216 249.561C630.688 253.837 632.304 258.578 633.614 262.408C637.042 272.326 636.344 283.097 639.909 292.951C641.007 295.961 640.417 299.837 640.33 303.51C640.321 303.833 640.32 304.154 640.334 304.473C640.621 311.756 641.61 319.236 640.138 326.353C638.509 334.13 639.795 342.006 640.262 349.584C640.52 353.868 639.702 359.174 641.901 363.062C639.678 365.237 641.76 370.377 639.266 372.749C637.704 374.232 638.796 377.594 639.434 379.208C641.756 385.008 641.645 389.094 641.387 395.421C641.29 397.808 641.002 400.247 640.838 402.716C640.567 406.79 640.632 410.948 642.439 415.092C642.748 415.799 642.834 416.714 642.792 417.76L642.665 462.65L598.039 463.41C594.671 463.371 590.127 462.342 586.391 462.16C583.088 462.015 578.909 461.873 576.16 460.159C575.269 459.592 574.243 459.438 573.272 460.038C568.58 462.83 563.646 460.371 559.268 458.943C555.319 457.651 552.325 455.514 548.465 457.958C547.213 458.726 544.064 457.992 542.164 457.232C537.032 455.19 537.099 455.118 531.921 455.251C531.112 455.264 530.122 455.028 529.293 454.76C520.31 451.979 510.948 450.967 502.291 446.505C496.164 443.364 487.694 440.14 481.462 439.443C474.095 438.633 468.669 434.883 462.38 432.704C454.962 430.144 447.543 426.782 440.741 422.873C425.822 414.33 410.186 407.256 396.643 396.947C395.332 395.941 393.708 394.493 392.124 395.002C391.167 395.318 389.471 394.092 389.064 393.522C384.154 386.534 375.866 383.528 369.419 378.627C351.686 365.157 334.497 351.179 318.733 335.648C309.664 326.726 300.524 317.888 292.327 308.235C285.363 300.036 278.428 291.965 271.819 283.563C269.95 281.186 268.125 278.806 266.324 276.381C260.598 268.665 255.127 260.531 249.198 253.001C247.013 250.249 243.346 246.985 243.81 243.143C243.803 243.104 237.576 235.394 237.48 235.198C236.912 234.392 236.302 233.616 235.865 232.767C229.07 220.044 221.602 208.116 215.347 195.381C206.467 177.331 199.128 158.48 192.756 139.483C190.795 133.625 189.64 127.412 187.465 121.041C187.933 125.943 190.33 130.889 190.39 135.101C187.652 125.819 185.091 116.302 183.657 107.028C183.182 103.98 182.542 100.784 181.975 97.6148L178.753 80.7819L188.096 73.215C192.384 69.8649 196.703 66.6205 200.846 64.7665C201.807 64.3294 202.649 63.3059 203.381 62.5934C205.777 60.2833 207.439 59.6616 207.344 60.4986C207.171 62.3294 209.079 60.7898 211.873 58.3649C212.845 57.5193 214.168 56.2781 214.837 56.2942C215.384 56.2828 214.49 57.2058 213.65 58.0437C212.129 59.5516 209.679 61.7618 211.212 61.5246C212.301 61.3553 214.354 60.4713 216.72 57.8513C216.834 57.7321 217.241 57.5336 217.618 57.3057C217.453 58.306 215.592 59.8006 214.053 61.2436C216.964 60.0542 219.18 59.3343 218.036 62.0589C217.782 62.6425 218.35 62.5114 216.988 63.759C214.165 66.3414 214.418 66.5485 216.273 66.0269C218.631 65.356 222.113 63.6648 220.074 67.4035C219.923 67.6722 220.059 67.8558 220.328 67.7515C222.942 66.7779 223.726 67.2353 222.629 70.0528C221.902 71.8886 225.941 69.1233 228.532 67.1474C234.321 62.7346 238.763 61.1135 240.127 62.4777C240.127 62.4778 240.127 62.4779 240.127 62.4779C240.585 62.936 240.706 63.7322 240.431 64.8801C239.766 67.5705 237.872 71.9675 242.658 69.1111C233.889 79.9802 225.229 90.8507 216.589 101.708L220.543 85.9451C230.196 108.059 241.687 129.076 254.295 149.38C273.769 180.637 295.511 210.383 321.041 236.223C317.975 231.846 313.7 228.359 310.781 223.941C310.544 223.579 310.556 223.178 310.209 221.931C315.095 227.521 320.097 232.997 325.208 238.354C325.776 238.95 326.345 239.544 326.915 240.135C327.45 240.69 328.083 241.321 327.197 241.272C324.641 241.151 327.534 242.652 327.763 242.655C330.117 242.735 331.762 244.784 333.191 246.784C335.091 249.418 337.689 251.092 339.971 253.179C350.434 262.731 361.197 271.895 372.291 280.543C376.599 283.903 380.709 287.694 385.676 290.454C388.578 292.061 387.746 289.001 390.053 290.517C392.69 292.241 389.422 293.153 392.109 294.97C394.887 296.843 397.329 299.235 400.567 301.014C400.299 300.077 400.09 299.358 399.679 297.924C405.545 304.779 412.615 307.673 420.068 310.724ZM528.913 451.323C521.992 448.442 514.686 447.733 507.731 445.495C514.372 448.709 521.748 449.734 528.913 451.323ZM480.248 435.911C486.552 440.115 494.115 441.765 501.451 443.771C494.402 441.056 486.944 439.348 480.248 435.911ZM550.196 455.151C562.776 457.108 575.635 458.326 588.766 458.566C588.731 458.3 588.697 458.035 588.662 457.769C575.61 457.526 562.825 456.314 550.312 454.369C550.274 454.63 550.235 454.891 550.196 455.151ZM636.985 403.428C636.985 408.205 637.26 412.982 637.416 417.76L637.304 457.365L597.933 458.035C597.118 458.074 596.303 458.106 595.486 458.131C596.303 458.163 597.12 458.195 597.936 458.222L637.491 457.549L637.603 417.76C637.908 412.945 638.197 408.123 636.985 403.428ZM218.594 128.501C214.619 114.166 209.375 102.412 204.875 90.6858L204.803 90.3046L205.014 90.1332C205.511 89.5575 206.006 88.983 206.501 88.4099C205.914 88.893 205.331 89.3801 204.752 89.8716L204.4 90.1573L204.521 90.793C207.256 103.528 212.292 115.666 218.594 128.501ZM355.602 49.8117C359.516 52.3749 362.167 54.4295 366.096 54.7822C362.724 52.5912 359.791 50.7169 355.602 49.8117ZM403.466 91.178C408.133 98.8602 413.667 104.091 419.69 108.646C414.81 102.622 409.572 97.1411 403.466 91.178ZM368.808 62.9124C369.49 63.4656 370.168 64.0566 370.629 63.9364C371.011 63.8402 371.053 63.3089 371.136 62.8975C371.165 62.6142 370.786 62.1238 370.335 62.0736C366.937 61.7519 365.193 58.2821 362.253 56.9898C363.973 57.2551 365.386 59.1296 367.717 59.6737C362.019 55.244 355.945 54.5182 350.408 50.9565C350.401 50.949 350.394 50.9414 350.387 50.9339C351.829 53.0072 354 53.2114 355.774 54.1919C360.389 56.7596 364.776 59.643 368.808 62.9124ZM329.243 44.6061C334.225 46.0157 338.38 46.9613 342.539 48.0235C338.43 46.9446 334.537 44.3402 329.243 44.6061ZM553.2 265.627C553.112 265.754 553.368 266.733 554.019 266.742C554.716 266.755 555.008 266.22 555.044 265.484C555.163 262.909 553.539 260.744 552.395 257.342C552.39 257.346 552.385 257.349 552.379 257.353C552.046 258.485 551.818 258.791 551.882 259.089C552.315 261.247 555.183 263.26 553.2 265.627ZM387.611 80.5489C386.349 79.0736 385.149 77.5354 383.928 76.0158C382.209 73.7522 380.312 71.6251 377.863 70.1647C379.901 72.1022 381.842 74.1199 383.708 76.236C385.008 77.6741 386.309 79.1118 387.611 80.5489ZM392.761 86.6443C395.922 90.5194 398.902 94.5297 402.91 97.466C399.592 93.7468 396.878 89.3775 392.761 86.6443ZM473.296 174.572C475.581 176.48 475.7 179.856 477.044 180.423C481.598 182.359 483.475 186.839 486.621 190.003C483.153 184.179 479.463 178.523 473.296 174.572ZM413.194 109.269C416.032 112.21 415.713 115.606 419.315 118.714C419.894 115.013 415.98 112.215 413.194 109.269ZM494.937 201.535C495.085 201.666 495.246 201.786 495.371 201.893C499.651 205.35 503.09 209.647 506.553 213.873C508.015 215.672 509.52 216.03 510.274 215.509C511.169 214.894 509.479 213.508 508.681 212.582C503.629 206.59 497.658 201.469 492.664 195.326C491.102 193.405 488.808 191.945 486.848 190.28C485.651 191.254 487.738 192.203 488.344 193.215C489.867 195.793 492.062 196.349 493.891 197.875C496.383 199.949 496.495 200.862 494.937 201.535ZM543.955 257.519C543.055 258.775 544.09 258.344 544.473 258.045C544.917 257.697 545.645 258.77 545.929 257.721C545.625 257.329 545.245 256.937 544.97 256.468C544.718 256.066 544.248 255.633 544.562 255.108C544.566 255.114 544.571 255.121 544.575 255.127C549.167 258.431 548.947 264.966 552.704 268.848C549.601 260.523 545.034 252.497 538.656 246.012C536.531 243.86 534.372 241.737 532.173 239.652C531.338 238.856 530.244 238.365 529.731 237.247C526.808 231.037 520.914 226.912 516.626 221.693C515.282 220.055 514.111 219.874 512.259 219.723C517.906 224.934 522.79 229.835 526.383 235.749C526.948 236.675 527.885 237.556 528.678 238.394C531.556 241.383 534.463 244.343 537.335 247.334C539.613 249.75 541.69 252.35 543.416 255.166C543.892 255.956 544.68 256.52 543.955 257.519ZM244.53 71.8213C242.471 74.8602 231.557 88.8626 219.394 104.513L224.34 84.7963C235.004 108.996 250.78 134.463 251.768 137.005C241.137 120.701 232.069 102.876 223.578 85.0268L218.831 103.95C219.703 102.786 220.571 101.621 221.435 100.454C228.238 91.2267 235.065 81.7437 243.408 72.844C243.741 72.4788 244.088 72.2183 244.53 71.8213ZM554.317 279.092C556.552 286.205 557.708 293.619 557.827 301.029C557.836 301.862 557.792 302.703 557.854 303.51C557.937 305.105 558.226 306.602 559.083 307.83C559.082 307.821 559.083 307.81 559.082 307.801C560.021 306.671 559.79 305.002 559.8 303.51C559.8 303.489 559.8 303.469 559.8 303.448C560.037 295.039 558.905 286.581 556.552 278.442C556.234 277.385 556.133 275.97 554.918 276.253C553.477 276.602 553.926 277.86 554.317 279.092ZM343.985 52.248C335.682 49.4934 326.988 47.5107 317.985 46.2259C327.016 46.475 335.897 48.6697 343.985 52.248ZM558.156 403.428C557.157 407.811 558.507 412.226 557.904 416.642C559.955 412.193 558.748 407.811 558.156 403.428ZM557.124 350.112C558.624 347.641 558.987 344.905 558.407 341.544C557.769 337.82 557.908 333.8 558.632 329.978C558.782 329.154 559.577 328.364 558.573 327.804C557.569 327.244 557.316 328.33 557.302 329.681C557.233 336.491 557.174 343.302 557.124 350.112ZM557.004 325.299C558.616 319.778 559.363 314.033 559.092 308.063C555.684 313.089 558.202 319.68 557.004 325.299ZM559.181 307.967C559.181 307.956 559.181 307.945 559.181 307.934C559.177 307.939 559.173 307.945 559.169 307.951C559.173 307.956 559.177 307.961 559.181 307.967ZM368.225 66.8278C368.34 66.6557 368.455 66.4836 368.57 66.3115C373.393 69.7855 377.636 74.0004 381.334 78.6104C386.758 85.0275 392.108 91.5206 397.691 97.819C392.09 91.5652 386.498 85.3011 380.917 79.0266C377.102 74.5769 372.859 70.487 368.225 66.8278ZM483.993 194.723C465.204 175.952 448.247 155.488 430.297 135.925C430.301 135.921 430.304 135.917 430.308 135.913C430.571 135.697 430.824 135.445 431.064 135.204C448.649 155.133 466.274 174.976 483.993 194.723ZM402.387 104.232C402.526 104.139 402.655 104.011 402.783 103.883C411.443 113.538 420.127 123.168 428.837 132.773C428.689 132.874 428.507 132.961 428.371 133.098C419.684 123.502 411.023 113.88 402.387 104.232ZM383.356 292.667C377.873 288.626 373.308 283.608 366.718 280.637C371.984 285.029 377.315 289.29 382.72 293.429C382.932 293.175 383.144 292.921 383.356 292.667ZM312.709 48.897C311.458 48.7658 312.144 49.7887 311 49.4644C305.302 47.8843 299.613 49.6674 294.029 50.5088C290.976 50.9823 289.8 50.952 288.706 50.3077C295.253 48.8178 301.978 47.6553 308.555 48.2884C309.849 48.424 310.526 47.965 311.653 48.0253C313.411 48.1349 313.289 48.483 312.709 48.897ZM288.645 50.2814C288.644 50.2783 288.643 50.2752 288.642 50.272C288.649 50.2765 288.658 50.2804 288.666 50.2848C288.664 50.2874 288.662 50.2899 288.66 50.2925C288.655 50.2888 288.65 50.2851 288.645 50.2814ZM288.666 50.2848C288.668 50.2816 288.67 50.2785 288.672 50.2753C288.674 50.281 288.676 50.2866 288.678 50.2922C288.673 50.2898 288.67 50.2872 288.666 50.2848ZM288.644 50.3139C288.649 50.3068 288.655 50.2996 288.66 50.2925C288.668 50.2992 288.676 50.3058 288.684 50.3125C288.671 50.313 288.658 50.3134 288.644 50.3139ZM288.678 50.2922C288.686 50.2976 288.697 50.3024 288.706 50.3077C288.699 50.3093 288.691 50.3109 288.684 50.3125C288.682 50.3057 288.68 50.299 288.678 50.2922ZM557.549 371.261C556.705 371.067 555.205 370.837 555.066 371.757C554.929 372.679 556.23 372.652 557.259 372.794C562.747 373.607 568.22 374.34 573.627 374.828C568.755 372.228 563.008 372.5 557.549 371.261ZM334.415 52.9462C327.752 51.1462 320.875 50.5341 313.836 49.5233C313.423 49.461 313.117 49.1232 312.769 48.9038C315.08 48.2855 317.692 48.2806 320.583 48.728C325.041 49.4237 329.446 50.2966 333.716 51.5531C334.565 51.7991 335.645 52.0687 335.578 52.6959C335.542 53.0211 335.056 53.1255 334.415 52.9462ZM286.19 193.948C289.475 196.297 295.83 204.114 298.933 209.637C293.71 204.395 290.487 198.728 286.19 193.948ZM431.368 323.542C429.226 320.563 426.975 318.879 423.22 317.858C425.033 321.137 427.847 322.236 431.368 323.542ZM393.995 297.491C393.222 296.866 392.382 296.32 391.906 296.769C391.315 297.312 392.12 298.589 392.96 298.844C397.218 300.111 399.935 304.184 405.201 306.191C405.193 306.185 405.185 306.179 405.176 306.174C400.713 302.804 397.326 300.162 393.995 297.491ZM378.735 82.4477C378.553 82.2175 378.369 81.9881 378.185 81.7595C374.901 77.3601 370.81 73.7877 366.772 70.1001C362.717 66.4226 357.651 64.0896 354.144 59.7642C363.048 66.3211 372.744 72.3015 378.241 81.7033C378.407 81.9506 378.572 82.1987 378.735 82.4477ZM506.082 221.427C506.248 221.261 506.414 221.095 506.58 220.929C515.434 230.42 524.315 239.883 533.223 249.321C533.052 249.492 532.881 249.663 532.71 249.834C523.806 240.392 514.93 230.923 506.082 221.427ZM312.662 48.9327C312.64 48.9388 312.615 48.9439 312.593 48.9502C312.593 48.9502 312.657 48.9259 312.695 48.9079C312.7 48.9043 312.704 48.9005 312.709 48.897C312.711 48.8972 312.714 48.8974 312.716 48.8976C312.724 48.8928 312.727 48.8894 312.722 48.8891C312.73 48.8893 312.739 48.8896 312.748 48.8899C312.755 48.8944 312.762 48.8992 312.769 48.9038C312.75 48.909 312.73 48.9141 312.711 48.9194C312.681 48.9336 312.65 48.9478 312.62 48.962C312.635 48.9522 312.648 48.9423 312.662 48.9327ZM353.252 60.951C350.382 58.7867 346.631 58.2491 343.913 55.6731C347.402 56.828 351.057 57.9408 353.252 60.951ZM551.234 415.356C551.191 414.4 551.332 413.313 552.188 413.477C553.004 413.609 553.047 414.598 552.967 415.62C552.908 416.335 552.849 417.048 552.789 417.76L596.252 373.425C594.75 373.296 593.24 373.148 591.701 372.981C591.71 372.981 591.718 372.981 591.727 372.981C591.781 372.737 591.809 372.513 591.837 372.268C593.309 372.185 594.775 372.074 596.223 371.963L551.327 417.76C551.292 416.959 551.26 416.157 551.234 415.356ZM548.777 277.58C546.265 273.832 545.79 269.291 543.505 265.428C546.629 268.791 547.498 273.413 548.777 277.58ZM397.457 103.898C397.096 104.305 396.177 103.965 395.695 103.235C392.777 98.7442 389.031 94.9877 385.465 91.0036C385.064 90.5669 384.897 89.848 384.335 88.6395C389.494 92.3347 392.69 97.6192 396.799 101.572C397.683 102.412 397.871 103.437 397.457 103.898ZM416.75 127.477C411.263 120.988 405.801 114.425 400.208 107.995C399.062 106.672 398.481 105.762 398.885 105.265C399.576 104.434 400.571 106.282 401.25 107.094C406.411 113.211 411.499 119.353 416.623 125.506C416.616 125.498 416.609 125.489 416.601 125.481C416.652 126.13 416.691 126.791 416.75 127.477ZM507.555 352.043C512.548 353.551 517.169 355.781 522.769 358.215C519.428 358.079 517.276 357.982 514.966 357.842C515.588 359.628 518.166 359.171 519.365 360.861C513.301 358.88 507.628 357.361 502.113 354.807C495.725 351.838 488.894 349.1 482.119 346.752C482.095 346.756 482.071 346.761 482.048 346.765C479.053 345.706 478.457 344.585 477.701 342.986C477.715 342.981 477.727 342.974 477.741 342.969C480.846 342.67 483.862 342.316 485.812 345.87C486.46 347.005 487.615 346.438 488.494 346.686C493.377 348.059 498.483 348.387 502.73 351.747C504.024 352.775 505.963 351.563 507.555 352.043ZM433.412 144.786C426.471 139.644 421.158 133.013 416.66 125.567C422.621 131.597 427.963 138.245 433.412 144.786ZM416.623 125.506C416.635 125.526 416.648 125.546 416.66 125.567C416.644 125.55 416.628 125.534 416.612 125.517C416.616 125.513 416.62 125.51 416.623 125.506ZM479.611 197.336C477.991 196.812 476.677 197.38 475.37 195.099C471.163 187.749 464.343 183.011 458.961 176.836C458.597 176.407 458.246 175.966 457.816 175.465C459.009 175.111 459.554 177.362 461.043 177.457C458.393 174.095 455.942 170.908 452.838 168.187C452.435 167.844 451.665 167.729 451.569 167.545C450.531 165.507 447.111 163.103 447.894 161.9C448.642 160.686 451.044 163.969 452.093 165.204C452.101 165.212 452.108 165.22 452.116 165.228C461.195 175.814 470.662 186.06 479.611 197.336ZM255.254 142.609C259.349 148.985 264.372 154.395 268.083 161.151C268.542 161.995 269.646 163.179 269.184 163.644C268.766 164.083 267.895 163.016 267.285 162.075C267.281 162.077 267.277 162.079 267.273 162.081C263.123 155.695 259.114 149.202 255.254 142.609ZM290.765 192.437C293.096 197.02 297.794 199.491 300.36 203.812C300.37 203.818 300.381 203.823 300.391 203.828C301.431 205.6 302.928 207.42 303.214 209.525C297.819 204.406 294.39 198.727 290.195 193.654C289.664 193.009 289.295 192.04 289.786 191.831C289.934 191.771 290.668 192.244 290.765 192.437ZM309.986 217.047C312.443 219.773 317.265 220.37 316.976 225.134C313.701 223.207 312.284 219.793 309.986 217.047ZM319.226 227.8C323.135 230.474 325.272 233.599 327.7 236.244C328.133 236.714 328.574 237.167 329.036 237.597C328.509 237.221 327.99 236.834 327.476 236.433C324.672 234.246 322.034 231.638 319.226 227.8ZM477.664 342.91C477.669 342.921 477.676 342.933 477.681 342.945C477.694 342.918 477.706 342.892 477.719 342.865C477.701 342.881 477.681 342.895 477.664 342.91ZM279.051 176.754C281.216 180.156 284.446 183.146 286.496 187.88C282.353 184.385 280.932 180.209 278.216 177.034C278.116 176.915 278.044 176.349 278.148 176.358C278.382 176.365 278.897 176.56 279.022 176.735C279.031 176.741 279.041 176.747 279.051 176.754ZM554.584 363.277C558.058 363.523 559.251 365.878 562.401 365.246C562.411 365.24 562.421 365.235 562.432 365.229C562.337 365.667 562.214 366.1 562.119 366.537C561.346 366.509 560.583 366.561 559.83 366.468C548.917 365.144 537.827 363.047 526.704 360.364C525.379 360.042 524.19 359.621 524.28 358.648C524.407 357.165 525.95 357.749 527.287 358.093C533.347 359.651 539.538 360.629 545.361 362.255C548.551 363.148 551.723 363.069 554.584 363.277ZM487.172 207.53C483.934 204.617 481.087 202.43 478.829 199.423C481.362 198.94 485.558 202.666 487.172 207.53ZM509.359 233.014C506.68 231.824 505.521 229.303 504.198 227.271C504.205 227.279 504.213 227.287 504.22 227.295C501.576 223.229 498.686 219.594 494.868 216.608C501.174 220.181 505.583 226.445 510.707 231.666C511.551 232.546 512.272 233.597 511.623 234.246C510.872 234.95 510.005 233.299 509.359 233.014ZM537.008 263.67C535.581 263.176 533.94 264.5 534.132 262.689C534.379 260.156 532.711 259.044 531.269 258.085C530.231 257.4 529.799 256.375 529.343 255.326C528.373 253.77 527.417 252.199 525.83 250.888C521.783 247.526 519.299 242.227 514.743 239.095C513.771 238.435 512.94 237.263 513.671 236.671C514.402 236.08 515.338 237.195 516.146 238.064C520.285 242.593 524.729 246.957 528.476 251.737C528.479 251.75 528.482 251.762 528.485 251.775C529.132 252.596 529.798 253.398 530.48 254.189C532.733 257.082 535.337 259.79 537.008 263.67ZM543.876 416.443C543.262 415.323 543.871 414.895 544.075 414.697C545.885 412.819 546.024 410.051 545.166 407.481C544.368 405.075 545.756 405.108 546.163 404.877C547.244 404.251 547.184 406.294 547.184 406.953C547.272 410.538 547.449 414.151 547.578 417.76L596.149 368.215C592.337 368.47 588.381 368.496 584.523 367.938C580.261 367.319 576.196 368.269 572.069 367.474C572.061 367.466 572.053 367.458 572.044 367.451C568.762 366.825 564.679 367.555 562.88 364.637C563.763 363.126 565.879 367.33 565.663 363.659C565.628 362.959 567.217 363.12 568.16 363.208C574.2 363.732 579.885 364.416 585.603 365.817C588.919 366.637 592.969 366.979 596.088 365.147L544.51 417.76C544.323 417.31 544.112 416.87 543.876 416.443ZM544.116 280.347C541.162 278.65 541.585 275.619 541.234 273.492C540.733 270.505 538.219 269.346 537.196 266.988C536.947 266.442 535.901 266.058 536.603 265.391C537.271 264.741 538.122 265.265 538.586 266.059C538.594 266.061 538.603 266.063 538.612 266.065C541.087 270.338 544.178 274.635 544.116 280.347ZM545.07 374.792C545.296 374.298 543.326 373.573 544.979 372.749C545.531 372.486 546.119 372.849 546.275 374.199C547.33 383.195 547.389 392.257 546.815 401.352C546.794 401.648 546.305 401.879 545.53 402.604C545.429 394.926 544.261 388.072 544.677 380.79C544.787 378.813 544.185 376.769 545.07 374.792ZM543.798 360.425C543.237 356.999 545.536 356.702 545.881 354.329C547.829 359.272 547.885 363.524 543.894 366.983C544.99 364.281 544.109 362.336 543.798 360.425ZM543.645 315.352C543.453 313.839 542.307 310.976 545.268 311.327C545.99 311.426 545.985 310.537 545.635 309.812C545.441 309.417 545.104 309.186 544.828 308.856C545.582 307.128 545.871 305.333 545.958 303.51C546.11 301.722 545.574 299.921 545.743 298.141C545.781 297.657 545.754 296.92 546.656 296.978C547.198 297.017 547.362 297.362 547.39 297.909C547.504 299.775 547.543 301.643 547.507 303.51C547.385 314.442 547.302 325.363 547.239 336.304C547.225 336.304 547.211 336.304 547.198 336.304C547.193 336.766 546.924 337.227 546.651 338.15C545.342 335.679 544.614 332.548 545.247 330.473C546.64 325.859 544.907 321.411 545.802 316.995C545.998 316.039 546.591 314.095 545.065 313.963C544.068 313.871 543.754 314.664 543.645 315.352ZM543.581 316.105C543.59 315.927 543.598 315.649 543.645 315.352C543.687 315.684 543.685 315.951 543.581 316.105Z" fill="var(--stroke-0, #C6EDD1)"/>
<path id="r" d="M218.512 346.453C213.266 347.827 207.775 348.438 202.084 348.716C207.416 347.567 212.935 346.932 218.512 346.453ZM218.512 346.453C218.6 346.43 218.69 346.407 218.778 346.384C218.778 346.384 218.702 346.425 218.661 346.429C218.662 346.433 218.662 346.436 218.663 346.44C218.613 346.444 218.562 346.449 218.512 346.453ZM218.743 346.42C218.788 346.426 218.836 346.431 218.881 346.437C218.81 346.445 218.739 346.453 218.667 346.461C218.692 346.447 218.718 346.434 218.743 346.42ZM99.1909 558.202C98.0035 562.055 103.018 564.883 106.053 567.415C111.157 571.743 116.752 575.266 122.631 578.215C128.662 581.246 135.395 583.065 142.041 583.592C143.216 583.675 144.107 583.586 142.926 584.692C142.914 584.698 142.903 584.704 142.891 584.71C142.893 584.713 142.896 584.716 142.898 584.72C142.886 584.731 142.875 584.742 142.863 584.753C142.865 584.742 142.867 584.732 142.869 584.721C142.852 584.729 142.835 584.738 142.817 584.746C142.82 584.735 142.822 584.724 142.824 584.713C140.876 587.931 137.836 584.897 135.626 584.616C130.527 583.997 125.821 580.763 121.023 579.659C115.714 578.377 112.17 573.823 105.516 572.43C120.119 585.116 138.314 591.475 156.238 589.999C156.292 588.859 154.618 589.812 154.262 588.568C154.982 588.621 155.707 588.667 156.437 588.705C184.752 589.648 212.804 592.31 241.068 589.117C230.782 587.671 220.419 590.156 209.941 588.552C214.738 587.992 219.536 587.01 224.334 586.977C238.88 586.9 253.503 586.167 268.01 586.955C273.076 587.231 277.299 585.174 282.365 585.763C283.9 585.939 286.319 585.523 287.048 585.968C294.033 590.158 302.822 587.775 310.996 588.175C313.826 588.315 316.647 588.387 319.463 588.414C330.668 588.519 341.79 587.902 352.985 588.009C370.294 588.154 387.642 587.844 404.913 588.412C415.045 588.751 425.678 589.714 435.35 589.534C446.479 589.314 457.571 589.676 468.547 589.953C472.728 590.066 476.943 590.029 481.162 589.998C488.228 589.909 494.883 588.955 502.148 589.546C508.509 585.57 515.969 584.324 522.452 580.39C537.41 571.391 550.576 557.855 557.332 540.782C560.468 532.884 562.372 524.433 562.938 515.661C563.811 496.681 564.776 477.702 565.873 458.748L576.977 482.643C576.217 481.913 575.45 481.183 574.674 480.455C560.604 467.256 544.55 455.533 527.619 444.916C526.952 444.507 526.372 443.932 525.63 443.349C527.195 443.092 528.908 445.287 530.405 445.316C528.575 443.694 525.965 441.673 524.459 441.664C521.972 441.645 519.819 439.994 517.699 438.757C508.271 433.19 498.532 428.033 488.593 423.149C472.926 415.458 456.393 409.232 439.689 403.586C425.264 398.72 410.576 394.343 395.662 390.882C379.663 387.172 363.325 384.39 346.871 382.471C367.944 385.302 388.68 389.483 408.968 395.002C408.899 395.163 408.828 395.336 408.724 395.489C385.043 389.617 360.59 384.078 336.113 382.597C336.107 382.742 336.101 382.886 336.096 383.031C346.784 384.343 357.427 385.991 367.923 388.036C371.15 388.66 374.542 389.024 377.498 390.101C375.923 390.706 372.864 389.515 370.638 389.383C371.22 389.823 373.454 389.721 373.824 390.336C373.565 390.345 373.299 390.401 373.009 390.344C363.568 388.737 354.072 387.21 344.619 385.501C342.423 385.109 340.757 385.036 339.012 385.08C333.914 385.207 325.842 384.242 321.702 383.034C319.591 382.417 320.447 381.854 321.976 381.572C324.323 381.121 324.3 380.566 321.731 379.824C320.203 379.383 320.128 379.12 321.441 378.835C325.037 378.063 324.837 377.922 317.468 377.329C325.175 377.178 322.782 376.281 321.322 374.943C319.275 373.015 313.377 370.924 321.712 369.146C322.782 368.923 323.752 367.813 322.422 366.828C320.978 365.754 319.281 364.28 322.653 363.03C323.156 362.848 324.472 362.647 325.36 362.647C334.24 362.73 332.95 361.292 332.001 360.34C329.538 357.888 331.885 355.638 335.005 353.179C336.666 351.864 336.836 350.438 338.477 349.061C340.285 347.52 347.448 347.274 352.624 347.081C362.807 346.678 373.102 347.184 383.252 348.228C387.825 348.692 392.754 349.025 397.425 349.22C405.51 349.532 412.56 351.436 420.483 352.34C423.455 352.677 425.839 352.835 428.191 352.712C431.207 354.819 436.794 354.514 441.069 355.491C445.351 356.467 450.008 357.582 454.373 357.551C457.476 357.523 458.388 359.038 461.112 359.663C475.811 363.022 490.32 367.622 504.75 372.016C512.391 374.344 519.631 377.091 526.512 380.168C550.036 390.697 574.063 401.597 596.045 416.549C603.518 421.639 610.926 427.653 618.746 433.134L631.409 445.083L630.648 458.748C630.89 461.155 631.222 463.554 631.681 465.932C632.504 470.192 632.173 475.068 632.094 479.635C631.973 487.157 631.885 494.564 632.865 502.278C633.425 506.698 633.217 511.159 633.104 515.661C633.028 519.656 632.846 523.61 632.823 527.669C632.756 540.833 629.916 553.984 625.585 566.533C623.557 572.456 621.003 578.251 620.606 583.879C620.33 587.604 618.194 585.718 616.698 589.242C613.77 596.027 609.931 602.622 605.697 608.826C596.998 621.603 585.719 632.252 573.031 640.601C566.86 644.671 560.234 649.191 553.835 653.191C549.435 655.954 543.916 656.932 540.249 660.339C537.522 660.134 533.186 660.27 530.752 662.314C526.802 665.626 522.081 666.283 517.218 667.653C507.624 670.357 497.817 672.752 487.831 671.908C485.563 671.709 485.402 673.259 482.587 673.234C482.117 673.23 481.641 673.226 481.162 673.222C477.573 673.177 473.728 673.308 470.582 673.559C461.717 674.286 452.62 671.847 443.984 674.761C441.068 675.762 437.344 674.712 433.89 674.836C425.408 675.124 416.696 676.113 408.406 674.64C399.348 673.012 390.175 674.297 381.348 674.764C376.358 675.022 370.179 674.204 365.65 676.403C363.117 674.18 357.13 676.262 354.367 673.768C352.64 672.206 348.724 673.299 346.844 673.936C340.089 676.258 335.329 676.147 327.96 675.889C325.18 675.792 322.339 675.505 319.463 675.34C314.718 675.069 309.875 675.134 305.048 676.941C302.016 678.079 295.683 676.189 290.655 676.07C287.393 675.999 283.363 676.044 280.522 674.505C279.601 673.992 278.565 673.906 277.644 674.574C273.231 677.687 268.164 675.705 263.636 674.804C259.606 673.986 256.19 672.281 252.735 675.277C251.623 676.223 248.36 675.994 246.326 675.572C240.837 674.453 240.914 674.374 235.733 675.519C234.927 675.694 233.89 675.663 233.007 675.574C223.451 674.715 213.856 676.033 203.993 674.18C196.969 672.868 187.45 672.426 181.079 673.86C173.518 675.553 166.84 673.991 159.855 674.342C158.721 674.401 157.581 674.449 156.437 674.488C146.652 674.74 136.548 673.658 127.085 671.311C103.083 665.457 79.3292 656.003 61.0124 639.622C59.2291 638.029 57.0871 635.786 55.0821 635.746C53.8643 635.739 51.6693 633.641 51.1562 632.814C44.9052 622.797 35.2252 615.056 28.7279 605.236C11.1211 578.866 1.36543 546.979 2.33921 515.661C2.34829 515.414 2.35744 515.167 2.36666 514.92C2.87257 501.142 2.81136 487.44 3.54761 473.7C3.85812 467.919 4.07181 462.149 4.25691 456.387L5.32826 437.311L17.467 428.421C25.5506 422.153 33.797 416.268 42.3099 410.899C52.0778 404.74 62.3458 399.142 72.0929 393.251C75.6568 391.077 80.1337 387.417 84.3604 388.122C84.412 388.097 94.4631 382.138 94.7267 382.059C95.7686 381.525 96.7706 380.955 97.8272 380.565C113.686 374.488 128.924 368.015 144.773 363.141C167.279 356.209 190.341 351.495 213.355 348.103C220.446 347.063 227.753 346.909 235.467 345.804C229.829 345.458 223.646 347.042 218.881 346.437C230.025 345.183 241.385 344.223 252.214 344.388C262.086 344.491 273.506 343.809 281.701 345.814C282.924 346.101 284.526 345.869 285.756 345.809C289.784 345.628 291.783 346.278 291.01 346.84C289.356 348.102 292.321 348.192 296.782 348.275C298.331 348.302 300.518 348.286 301.09 348.754C301.578 349.118 300.03 349.185 298.605 349.236C296.038 349.315 292.05 349.334 293.603 350.179C294.71 350.781 297.223 351.488 301.443 351.176C301.641 351.167 302.158 351.298 302.675 351.389C301.703 352.007 298.854 351.836 296.333 351.872C299.847 352.95 302.346 353.936 299.131 355.161C298.436 355.42 299.033 355.704 296.842 355.709C292.288 355.73 292.341 356.066 294.383 356.913C296.992 357.988 301.322 359.098 296.569 360.483C296.224 360.581 296.195 360.809 296.509 360.912C299.534 361.953 299.821 362.821 296.642 364.164C294.567 365.035 300.198 365.693 303.977 366.035C312.41 366.79 317.384 368.832 317.383 370.753C317.383 370.753 317.383 370.754 317.383 370.754C317.383 371.402 316.83 372.049 315.673 372.67C312.935 374.11 307.901 375.942 314.072 377.245C269.722 381.724 227.368 392.723 187.078 408.177C147.191 423.556 108.9 443.006 77.3882 469.047C82.5078 465.968 86.9658 461.632 92.2514 458.807C92.6841 458.579 93.1153 458.61 94.5299 458.309C86.8544 463.634 79.4582 469.23 72.4155 475.091C71.7533 475.642 71.002 476.295 71.1649 475.371C71.6169 472.705 69.6464 475.707 69.619 475.946C69.2543 478.396 66.881 480.098 64.6019 481.6C63.8527 482.096 63.1663 482.639 62.5221 483.211L75.1927 456.387C75.2886 459.309 75.7843 462.124 75.9754 465.025C77.1013 481.88 78.0827 498.77 79.0197 515.661C79.0664 516.232 79.119 516.799 79.1775 517.363C79.654 521.975 79.9994 526.686 81.9756 531.039C83.1478 533.553 84.4669 531.074 85.2596 533.154C86.2048 535.497 83.1154 534.687 84.1105 537.17C85.1633 539.723 85.753 542.485 87.4433 545.026C87.726 544.208 87.9441 543.585 88.4094 542.364C89.3447 549.676 94.1281 554.296 99.1909 558.202ZM231.894 672.291C224.295 670.93 216.734 672.003 209.135 671.714C216.696 673.027 224.333 672.243 231.894 672.291ZM178.623 670.94C186.375 672.764 194.397 671.96 202.342 671.795C194.474 671.2 186.49 671.91 178.623 670.94ZM254.04 672.244C267 672.332 279.959 672.394 292.919 672.43C292.881 672.165 292.843 671.9 292.805 671.635C279.883 671.6 266.962 671.54 254.04 671.454C254.04 671.717 254.04 671.981 254.04 672.244ZM318.634 671.488C312.263 671.487 305.892 671.848 299.522 671.977C305.931 672.296 312.378 672.874 318.634 671.488ZM219.446 375.512C237.693 373.674 253.071 370.169 268.33 367.716C252.288 367.938 236.461 370.98 219.446 375.512ZM466.968 407.613C472.401 410.394 476.387 412.543 481.424 412.755C476.566 410.604 472.463 408.687 466.968 407.613ZM537.825 442.734C545.087 449.373 552.148 453.595 559.467 457.327C552.986 451.93 546.018 447.332 537.825 442.734ZM487.556 421.146C488.637 421.684 489.738 422.255 490.276 422.089C490.723 421.954 490.563 421.388 490.506 420.946C490.432 420.644 489.762 420.159 489.178 420.144C484.71 420.061 481.299 416.482 477.152 415.174C479.435 415.423 481.85 417.363 484.996 417.798C476.319 413.477 468.273 412.634 460.395 408.507C460.385 408.499 460.375 408.49 460.364 408.482C462.562 410.743 465.498 411.091 468.018 412.173C474.626 415.025 481.156 417.969 487.556 421.146ZM432.285 398.893C438.69 401.381 444.208 403.041 449.747 404.676C444.227 403.019 439.223 399.761 432.285 398.893ZM494.652 595.948C494.548 595.827 493.374 595.788 493.114 596.408C492.83 597.072 493.297 597.512 494.088 597.762C496.863 598.628 499.847 597.68 503.98 597.456C503.978 597.449 503.976 597.443 503.974 597.437C502.873 596.814 502.627 596.509 502.279 596.492C499.775 596.343 496.469 598.547 494.652 595.948ZM517.977 436.258C512.855 433.204 507.905 429.646 502.105 427.826C507.483 430.531 512.767 433.338 517.977 436.258ZM525.385 440.841C529.94 443.836 534.247 447.088 539.212 449.145C534.72 446.156 530.513 442.46 525.385 440.841ZM566.486 522.757C566.544 525.341 563.967 527.151 564.344 528.333C565.588 532.497 562.941 535.912 561.875 539.477C565.029 534.673 567.543 529.068 566.486 522.757ZM552.938 459.003C556.547 461.493 557.004 464.985 561.272 467.606C561.158 463.789 556.489 461.48 552.938 459.003ZM555.674 549.602C555.617 549.754 555.576 549.914 555.53 550.042C554.166 554.373 551.369 558.062 548.424 561.418C547.166 562.836 547.172 564.169 547.815 564.821C548.575 565.592 549.486 563.988 550.139 563.192C554.445 558.124 557.035 551.972 560.177 546.069C561.169 544.204 561.342 541.876 561.756 539.754C560.326 539.19 560.579 541.131 559.997 541.948C558.527 543.982 559.037 545.882 558.472 547.81C557.688 550.429 556.884 550.727 555.674 549.602ZM507.008 589.114C505.994 587.914 506.067 589.042 506.244 589.494C506.452 590.02 505.013 590.469 506.04 591.012C506.58 590.81 507.148 590.533 507.757 590.377C508.285 590.227 508.932 589.865 509.379 590.303C509.37 590.306 509.362 590.309 509.354 590.311C504.05 594.074 497.043 592.096 491.325 594.521C504.03 593.973 517.038 590.224 527.542 582.356C528.302 581.793 528.787 580.916 529.795 580.695C535.47 579.359 539.097 574.362 543.255 570.638C544.576 569.454 544.559 568.372 544.355 566.718C540.653 571.779 536.436 575.838 531.187 577.959C530.367 578.291 529.58 578.954 528.82 579.483C522.962 583.659 516.597 587.211 509.749 589.15C508.719 589.435 507.81 590.077 507.008 589.114ZM313.422 380.49C302.824 379.364 205.983 403.858 201.649 407.349C224.171 398.436 248.398 392.027 272.477 386.482C284.97 383.593 297.907 380.993 311.705 380.436C312.264 380.407 312.751 380.463 313.422 380.49ZM478.527 592.786C465.478 592.653 452.428 592.488 439.378 592.369C435.995 592.328 432.503 592.075 429.981 593.585C429.992 593.585 430.004 593.585 430.015 593.585C431.358 594.542 433.353 594.283 435.118 594.303C449.549 594.544 463.98 594.775 478.373 595.113C479.298 595.127 480.325 595.228 481.162 595.181C481.765 595.132 482.222 594.917 482.306 594.287C482.416 593.416 481.909 593.063 481.162 592.908C480.396 592.8 479.455 592.793 478.527 592.786ZM451.948 409.196C440.444 405.317 428.798 401.51 417.135 397.612C429.054 400.51 440.656 404.497 451.948 409.196ZM318.634 592.658C313.529 591.659 308.386 593.009 303.243 592.406C308.424 594.457 313.529 593.25 318.634 592.658ZM380.733 591.626C383.612 593.126 386.798 593.49 390.713 592.909C395.05 592.271 399.732 592.41 404.184 593.134C405.144 593.284 406.064 594.079 406.716 593.076C407.369 592.071 406.103 591.818 404.53 591.804C396.598 591.735 388.665 591.676 380.733 591.626ZM409.633 591.506C416.064 593.118 422.756 593.865 429.709 593.594C423.855 590.186 416.178 592.704 409.633 591.506ZM429.822 593.683C429.834 593.683 429.847 593.683 429.86 593.683C429.853 593.679 429.847 593.675 429.84 593.671C429.834 593.675 429.828 593.679 429.822 593.683ZM488.364 425.348C488.442 425.157 488.52 424.965 488.598 424.773C504.73 431.792 519.582 441.208 534.019 450.673C519.55 441.304 504.22 432.855 488.364 425.348ZM556.553 539.125C558.887 531.571 560.435 523.768 560.938 515.661C561.759 496.689 562.945 477.733 563.668 458.748L575.555 484.328C575.391 484.177 575.227 484.026 575.062 483.876C575.066 483.872 575.069 483.867 575.073 483.863C575.316 483.625 575.546 483.352 575.765 483.091C575.919 483.238 576.074 483.385 576.227 483.531L564.711 458.748C563.694 477.73 562.71 496.699 561.77 515.661C561.193 523.853 559.416 531.741 556.553 539.125ZM540.622 456.006C540.738 455.884 540.833 455.729 540.927 455.574C552.374 463.392 563.195 471.785 573.233 480.807C573.095 480.921 572.921 481.025 572.799 481.175C562.804 472.182 552.024 463.808 540.622 456.006ZM78.7921 531.372C77.3897 526.264 77.4622 521.036 75.9376 515.661C75.7683 514.801 75.573 513.94 75.3478 513.078C75.3792 513.939 75.4105 514.8 75.4416 515.661C75.7198 521.089 76.5192 526.411 77.8193 531.567C78.1436 531.502 78.4678 531.437 78.7921 531.372ZM409.413 398.544C407.766 397.998 408.389 399.211 406.94 398.507C399.804 395.043 391.759 394.49 384.172 392.75C380.055 391.813 378.583 391.21 377.577 390.125C386.522 391.905 395.533 393.583 404.044 396.528C405.716 397.117 406.76 396.913 408.246 397.353C410.564 398.048 410.312 398.338 409.413 398.544ZM377.517 390.073C377.517 390.069 377.518 390.066 377.518 390.063C377.525 390.07 377.534 390.078 377.54 390.085C377.537 390.087 377.533 390.088 377.529 390.09C377.525 390.084 377.521 390.078 377.517 390.073ZM377.54 390.085C377.545 390.084 377.549 390.082 377.553 390.08C377.552 390.086 377.552 390.092 377.551 390.098C377.547 390.094 377.544 390.09 377.54 390.085ZM377.498 390.101C377.508 390.097 377.52 390.094 377.529 390.09C377.536 390.099 377.542 390.109 377.548 390.119C377.532 390.113 377.515 390.107 377.498 390.101ZM377.551 390.098C377.559 390.107 377.569 390.116 377.577 390.125C377.568 390.123 377.558 390.121 377.548 390.119C377.549 390.112 377.55 390.105 377.551 390.098ZM247.093 588.237C245.903 588.186 243.831 588.224 243.869 589.154C243.907 590.085 245.635 589.829 247.055 589.798C254.615 589.678 262.177 589.669 269.738 589.629C262.599 587.512 254.731 588.542 247.093 588.237ZM438.778 408.365C429.512 405.223 420.062 402.811 410.763 399.52C410.219 399.325 409.899 398.898 409.492 398.571C412.781 398.747 416.26 399.55 420.111 400.811C426.018 402.754 431.96 404.684 437.842 406.814C439.009 407.234 440.496 407.709 440.399 408.334C440.348 408.658 439.67 408.673 438.778 408.365ZM129.92 435.5C126.589 438.652 116.665 444.525 110.026 447.362C116.79 442.333 123.707 439.477 129.92 435.5ZM104.871 571.153C103.723 568.213 102.283 566.472 99.3453 564.98C99.8607 568.195 102.099 569.646 104.871 571.153ZM84.1141 539.816C83.8594 539.027 83.5196 538.262 82.8781 538.381C82.0881 538.512 81.9781 539.822 82.5066 540.379C85.1629 543.111 85.1783 547.337 88.6388 550.7C88.6345 550.693 88.6302 550.685 88.626 550.678C86.5279 546.513 85.2211 543.176 84.1141 539.816ZM509.815 440.725C502.735 436.317 495.22 432.845 487.865 428.953C480.816 425.244 472.996 422.711 467.071 417.942C481.319 425.555 497.075 431.255 509.815 440.725ZM541.51 561.315C541.697 561.457 541.884 561.598 542.071 561.74C535.69 569.417 527.863 575.806 519.243 580.449C519.12 580.241 518.997 580.032 518.874 579.824C527.416 575.234 535.178 568.914 541.51 561.315ZM409.339 398.563C409.307 398.561 409.273 398.558 409.241 398.557C409.241 398.557 409.334 398.555 409.391 398.55C409.399 398.549 409.406 398.546 409.413 398.544C409.416 398.545 409.419 398.546 409.422 398.547C409.434 398.545 409.439 398.543 409.432 398.541C409.444 398.544 409.456 398.547 409.467 398.551C409.476 398.557 409.483 398.564 409.492 398.571C409.464 398.57 409.436 398.568 409.409 398.567C409.364 398.57 409.319 398.574 409.275 398.577C409.297 398.573 409.318 398.568 409.339 398.563ZM466.127 419.143C461.646 416.701 456.274 415.762 452.174 412.725C457.186 414.388 462.363 415.845 466.127 419.143ZM304.741 585.736C305.854 585.693 307.12 585.834 306.929 586.691C306.775 587.506 305.623 587.549 304.434 587.47C301.363 587.25 298.332 587.033 295.261 586.817C295.274 586.817 295.286 586.817 295.298 586.817C295.375 586.573 295.414 586.348 295.453 586.104C298.523 585.973 301.632 585.823 304.741 585.736ZM483.259 588.051C488.399 586.902 493.547 587.802 498.62 586.628C493.768 588.756 488.376 588.206 483.259 588.051ZM535.564 456.752C535.316 457.237 534.299 457.108 533.604 456.497C529.401 452.739 524.47 449.992 519.55 447.079C519.004 446.766 518.597 446.112 517.619 445.093C524.054 447.242 528.98 451.648 534.231 454.596C535.371 455.227 535.85 456.203 535.564 456.752ZM560.257 476.784C553.68 471.016 546.747 465.401 539.434 460.205C537.941 459.14 537.11 458.371 537.379 457.789C537.848 456.813 539.349 458.426 540.245 459.091C547.068 464.088 553.578 469.353 559.8 474.825C559.791 474.818 559.782 474.811 559.773 474.804C559.936 475.448 560.086 476.106 560.257 476.784ZM175.054 582.79C182.039 582.483 188.871 583.08 197.046 583.736C192.747 584.602 189.907 585.186 186.952 585.791C188.487 587.282 191.557 586.038 193.783 587.284C185.263 587.248 177.548 587.709 169.603 587.291C165.267 587.061 160.857 586.963 156.437 586.991C153.277 587.023 150.164 587.018 147.051 586.972C147.033 586.984 147.016 586.995 146.998 587.007C144.428 586.939 143.734 586.021 142.898 584.72C142.907 584.711 142.916 584.701 142.926 584.692C145.317 583.526 147.412 582.249 149.712 584.94C150.469 585.789 151.204 584.86 151.922 584.782C153.45 584.617 154.935 584.267 156.437 583.963C160.516 583.465 164.626 583.212 168.913 584.213C171.024 584.709 172.828 582.891 175.054 582.79ZM559.634 467.852C559.245 464.807 559.062 461.774 559.056 458.748L572.581 487.854C568.039 484.04 563.859 479.625 559.848 474.881C564.704 478.493 569.226 482.619 573.421 486.857L560.359 458.748C560.123 461.783 559.871 464.817 559.634 467.852ZM559.8 474.825C559.816 474.844 559.832 474.863 559.848 474.881C559.829 474.867 559.81 474.852 559.79 474.838C559.794 474.834 559.797 474.83 559.8 474.825ZM552.099 536.774C551.67 535.476 550.497 534.771 551.612 533.164C555.166 527.928 554.524 521.64 555.017 515.661C555.024 515.537 555.031 515.413 555.038 515.289C555.084 514.637 555.147 513.985 555.198 513.217C555.859 513.635 555.68 514.642 555.652 515.661C555.634 516.097 555.676 516.534 556.061 516.877C556.131 516.471 556.197 516.066 556.26 515.661C556.693 511.394 557.06 507.317 556.824 503.123C556.782 502.509 556.318 501.78 556.38 501.55C557.087 499.017 556.369 494.22 557.773 493.874C559.16 493.49 558.538 498.173 558.407 500.053C558.406 500.066 558.406 500.079 558.405 500.092C558.066 505.274 557.776 510.459 557.487 515.661C556.874 523.022 555.225 530.184 552.099 536.774ZM194.476 410.057C186.275 413.29 178.974 417.639 170.537 420.562C169.486 420.921 167.887 421.9 167.478 421.377C167.085 420.902 168.494 420.145 169.695 419.643C169.693 419.639 169.692 419.634 169.69 419.63C177.815 416.216 186.089 413.022 194.476 410.057ZM130.595 440.323C125.047 442.303 121.352 446.929 116.113 449.249C116.106 449.26 116.098 449.27 116.09 449.28C113.934 450.225 111.677 451.627 109.314 451.788C115.928 446.568 122.907 443.475 129.374 439.633C130.2 439.144 131.354 438.85 131.479 439.372C131.512 439.529 130.829 440.241 130.595 440.323ZM99.8705 458.33C96.4672 460.729 95.0441 465.672 89.9332 465.187C92.567 461.848 96.4819 460.558 99.8705 458.33ZM86.7165 467.412C82.6096 472.088 78.2707 474.22 74.8568 477.339C77.8585 473.857 81.3032 470.708 86.7165 467.412ZM142.857 584.658C142.863 584.667 142.87 584.677 142.876 584.686C142.881 584.657 142.887 584.629 142.892 584.6C142.881 584.62 142.868 584.638 142.857 584.658ZM150.558 429.901C146.292 431.737 142.243 434.722 136.55 436.374C141.337 432.465 146.296 431.442 150.438 429.021C150.594 428.932 151.24 428.919 151.205 429.024C151.145 429.261 150.809 429.764 150.585 429.872C150.576 429.882 150.567 429.891 150.558 429.901ZM241.107 580.901C245.942 580.507 248.207 582.635 252.428 581.524C252.441 581.517 252.454 581.51 252.467 581.503C252.428 581.95 252.351 582.397 252.312 582.843C251.238 582.933 250.201 583.104 249.127 583.134C233.737 583.592 218.347 584.072 202.957 584.651C201.114 584.717 199.425 584.662 199.157 583.705C198.735 582.25 200.96 582.356 202.841 582.308C211.323 582.082 219.843 581.464 228.248 581.769C232.777 581.938 237.115 581.225 241.107 580.901ZM547.193 544.736C548.249 541.761 548.666 539.228 549.963 536.83C551.724 538.427 550.667 542.634 547.193 544.736ZM532.059 563.41C532.6 561.295 534.488 560.577 535.937 559.574C535.932 559.579 535.927 559.585 535.921 559.591C538.805 557.608 541.179 555.119 542.429 551.857C541.526 557.189 537.089 560.961 533.45 564.715C532.828 565.341 532.024 565.823 531.373 565.176C530.658 564.438 531.928 563.927 532.059 563.41ZM503.004 580.726C504.078 579.441 503.266 577.494 505.147 578.121C507.778 578.976 509.595 577.558 511.153 576.312C513.343 574.532 516.231 575.385 518.446 573.495C521.182 571.155 525.479 570.377 527.659 567.042C528.109 566.34 528.988 565.837 529.584 566.559C530.18 567.284 529.335 567.909 528.675 568.444C525.242 571.172 521.676 573.892 517.663 575.489C517.653 575.487 517.643 575.485 517.633 575.484C512.971 577.338 508.662 579.924 503.004 580.726ZM303.475 578.378C304.779 577.764 305.278 578.373 305.508 578.577C307.696 580.388 310.92 580.526 313.913 579.668C316.715 578.871 316.677 580.258 316.946 580.665C317.675 581.746 315.295 581.686 314.528 581.686C304.549 581.897 294.378 582.615 284.553 581.966C278.22 581.547 272.501 582.82 266.475 582.473C266.462 582.466 266.45 582.46 266.437 582.453C261.678 582.18 256.074 583.46 252.966 580.85C253.887 579.219 257.725 583.083 256.689 579.479C256.497 578.791 258.8 578.731 260.181 578.7C268.893 578.447 277.414 578.637 286.01 579.8C291.576 580.549 298.293 580.835 303.475 578.378ZM482.029 582.739C485.084 580.516 488.256 581.856 490.716 582.15C494.18 582.552 496.403 580.439 499.347 580.06C500.033 579.96 500.844 579.033 501.298 579.893C501.744 580.715 500.858 581.418 499.822 581.663C499.816 581.671 499.81 581.679 499.805 581.687C494.229 582.986 488.356 584.688 482.029 582.739ZM351.987 579.573C352.563 579.798 353.407 577.828 354.367 579.482C354.673 580.033 354.251 580.621 352.677 580.778C342.2 581.833 331.645 581.891 321.052 581.318C320.707 581.297 320.438 580.807 319.594 580.033C328.537 579.931 336.52 578.763 345.001 579.179C347.304 579.289 349.684 578.687 351.987 579.573ZM368.721 578.301C372.712 577.739 373.058 580.038 375.821 580.383C370.064 582.331 365.112 582.387 361.082 578.396C364.229 579.492 366.495 578.611 368.721 578.301ZM421.219 578.147C422.982 577.955 426.316 576.81 425.907 579.77C425.792 580.492 426.828 580.487 427.672 580.138C428.133 579.943 428.402 579.606 428.785 579.33C434.312 581.399 440.416 579.968 446.211 580.467C447.209 580.544 448.743 580.59 448.436 581.483C448.244 582.019 447.515 582.147 446.403 582.128C429.861 581.939 413.357 581.823 396.815 581.741C396.815 581.727 396.815 581.714 396.815 581.7C396.278 581.695 395.74 581.426 394.666 581.153C397.544 579.844 401.19 579.116 403.608 579.75C408.981 581.143 414.163 579.409 419.306 580.304C420.419 580.5 422.684 581.093 422.837 579.567C422.945 578.571 422.021 578.256 421.219 578.147ZM420.342 578.083C420.55 578.092 420.873 578.1 421.219 578.147C420.832 578.189 420.522 578.187 420.342 578.083Z" fill="var(--stroke-0, #C6EDD1)"/>
</g>
</svg>
