<svg preserveAspectRatio="none" width="100%" height="100%" overflow="visible" style="display: block;" viewBox="0 0 642.801 677.369" fill="none" xmlns="http://www.w3.org/2000/svg">
<g id="Group 43896">
<path id="l" d="M20.7522 252.564C19.4288 257.137 17.4684 261.56 15.2572 266.109C16.5338 261.459 18.4976 256.937 20.7522 252.564ZM20.7522 252.564C20.7744 252.487 20.7975 252.409 20.8194 252.333C20.8194 252.333 20.8184 252.409 20.8029 252.442C20.8063 252.443 20.8097 252.444 20.8131 252.445C20.7927 252.485 20.7725 252.525 20.7522 252.564ZM20.8342 252.377C20.8611 252.346 20.8882 252.313 20.9149 252.283C20.8876 252.339 20.8603 252.396 20.8331 252.453C20.8335 252.428 20.8338 252.402 20.8342 252.377ZM85.1321 512.493C84.1878 513.325 83.6962 514.442 83.4798 515.726C82.952 517.721 84.1409 520.26 84.5137 522.329C85.4159 527.241 86.8168 531.914 88.4432 536.522C90.11 541.25 92.7055 545.763 95.8652 549.656C96.4333 550.339 96.9715 550.77 95.4828 550.809C95.4721 550.806 95.4612 550.804 95.4506 550.801C95.4491 550.804 95.4479 550.808 95.4465 550.811C95.4318 550.811 95.4169 550.812 95.4018 550.812C95.4113 550.807 95.4209 550.801 95.4304 550.796C95.4147 550.792 95.399 550.788 95.3833 550.784C95.393 550.778 95.4028 550.772 95.4125 550.767C91.8754 551.686 92.5747 548.213 91.5183 546.895C89.0932 543.865 88.6552 539.58 86.3375 536.602C83.8239 533.266 84.6522 528.928 80.7417 524.997C82.769 539.158 88.5204 551.999 97.8986 561.54C98.821 560.865 97.3021 560.49 98.1102 559.517C105.523 570.932 116.134 582.644 130.532 584.492C126.609 581.472 121.113 581.519 117.721 577.496C119.93 578.223 122.33 578.452 124.294 579.41C130.304 582.363 136.787 583.791 143.114 585.784C145.37 586.484 147.538 584.711 149.737 585.513C150.411 585.756 151.534 585.422 151.836 585.885C153.13 587.823 154.739 588.452 156.447 588.544C159.821 588.661 163.367 588.016 166.769 588.239C168.878 588.38 170.982 588.452 173.081 588.479C181.434 588.584 189.725 587.967 198.07 588.074C207.951 588.185 217.848 588.028 227.724 588.205L186.228 618.667C187.002 616.381 187.778 614.031 188.557 611.673C190.506 605.821 192.892 599.478 193.788 593.446C194.815 586.486 196.117 579.49 197.063 572.445C198.367 562.847 197.33 552.819 200.839 543.238C198.716 535.91 200.343 528.217 199.985 520.629C199.183 502.858 198.498 484.848 195.784 466.8C192.471 444.741 187.496 422.651 181.249 400.822C177.093 386.349 171.9 372.117 166.262 358.025C166.032 357.475 165.973 356.841 165.803 356.139C167.092 356.555 166.965 358.791 168.035 359.377C167.713 357.522 167.093 355.069 166.019 354.485C164.25 353.53 163.727 351.466 163.016 349.776C159.852 342.127 156.444 334.541 152.932 326.98C151.668 324.255 150.341 321.545 148.967 318.845C144.367 309.809 139.295 300.982 134.154 292.193C128.393 282.357 122.457 272.58 116.001 263.126C109.077 252.992 101.63 243.147 93.7789 233.608C103.57 246.087 112.678 258.973 121.118 272.237C120.965 272.321 120.805 272.413 120.637 272.474C110.396 257.402 100.182 241.684 87.7303 228.336C87.6276 228.438 87.5248 228.539 87.4221 228.641C92.3976 234.947 97.2299 241.374 101.827 247.919C103.235 249.919 104.936 251.807 105.911 254C104.578 253.679 103.634 251.359 102.449 250.193C102.48 250.79 103.834 251.788 103.624 252.408C103.468 252.29 103.277 252.203 103.149 252.024C98.8259 246.343 94.5084 240.605 90.4313 234.678C89.4812 233.305 88.6085 232.421 87.6168 231.584C84.7025 229.127 80.966 224.356 79.5584 221.361C78.8414 219.837 79.6916 219.866 80.7148 220.442C82.2979 221.311 82.6684 220.898 81.7869 219.051C81.2631 217.952 81.405 217.723 82.3121 218.187C84.7979 219.46 84.7698 219.261 81.2072 215.067C85.4656 218.893 84.8043 217.023 84.9302 215.307C85.1504 212.865 83.4122 208.335 89.1392 211.307C89.8735 211.694 91.1645 211.383 91.1223 209.992C91.0792 208.475 91.1741 206.539 93.8667 207.358C94.2652 207.483 95.1192 208.009 95.6038 208.462C100.396 213.037 100.693 211.326 100.826 210.162C101.169 207.141 104.005 206.703 107.418 206.497C109.241 206.383 110.319 205.438 112.179 205.269C114.237 205.064 118.381 208.472 121.419 210.888C127.416 215.641 132.917 220.99 138.089 226.596C140.405 229.096 143.077 231.696 145.676 234.009C150.222 238.028 153.121 242.662 157.274 246.911C158.838 248.508 160.182 249.707 161.693 250.675C162.082 253.54 165.721 255.84 167.692 258.426C169.68 261.038 171.81 263.866 174.575 265.755C176.551 267.101 176.086 268.556 177.388 270.185C182.955 277.121 188.103 284.439 193.34 291.637C194.709 293.519 196.083 295.388 197.474 297.235C201.012 301.937 204.138 306.794 206.846 311.615C216.152 328.185 226.513 344.534 234.444 362.055C237.898 369.68 240.671 378.161 245.559 385.588C247.494 388.521 248.456 392.276 249.556 395.788C251.365 401.535 253.073 407.191 255.78 412.833C258.377 418.246 258.817 424.415 261.055 430.163C264.006 437.722 265.763 445.615 267.503 453.536C268.33 457.278 269.012 461.067 271.684 463.822C273.452 465.63 270.651 465.696 271.397 467.932C272.826 472.214 273.884 476.74 274.873 481.201C276.918 490.369 277.643 499.665 277.626 508.96C277.619 513.536 278.243 518.355 279.033 522.971C279.576 526.125 278.276 529.458 280.134 532.313C278.948 533.848 277.601 536.427 278.795 538.234C280.715 541.122 280.047 544.032 280.237 547.142C280.615 553.236 281.48 559.414 279.883 565.491C279.52 566.888 281.05 567.105 280.881 568.838C280.591 572.066 280.443 575.678 280.454 578.615C280.51 586.122 277.164 593.445 278.9 601.198C279.506 603.814 277.94 606.809 277.521 609.766C276.496 616.956 275.819 624.646 272.55 631.346C270.51 635.469 269.246 639.981 268.153 644.397L258.247 674.492L227.724 674.076C224.858 674.283 222.013 674.631 219.214 674.829C215.495 675.087 210.888 674.268 207.512 676.468C205.624 674.244 201.161 676.327 199.101 673.832C197.813 672.271 194.894 673.363 193.492 674C188.457 676.322 184.909 676.212 179.415 675.954C177.343 675.857 175.225 675.569 173.081 675.405C169.543 675.134 165.933 675.199 162.335 677.006C160.997 677.679 158.797 677.292 156.447 676.839C154.195 676.528 151.872 676.133 149.776 675.998C146.443 675.798 142.262 675.522 139.548 673.678C138.664 673.069 137.632 672.863 136.616 673.408C131.736 675.944 126.761 673.09 122.457 671.221C118.572 669.533 115.73 667.028 111.499 668.914C110.138 669.508 106.965 668.289 105.12 667.209C100.158 664.293 100.304 664.255 94.9371 663.309C94.1072 663.152 93.131 662.702 92.3345 662.255C83.7229 657.549 74.3641 653.885 67.0628 646.654C61.8571 641.566 54.7485 635.266 49.0603 631.895C42.2477 627.886 38.678 621.775 33.9051 616.543C28.2281 610.329 23.2575 603.033 19.5823 595.448C11.4992 578.902 3.90341 561.641 2.44595 543.296C2.30704 541.514 2.32666 539.167 0.910109 538.207C0.0423718 537.63 -0.115263 535.368 0.0678654 534.642C1.67638 528.329 0.89823 522.082 0.604246 515.726C0.484087 513.818 0.377791 511.922 0.46546 510.061C1.3255 492.265 1.47902 474.439 2.37632 456.643C2.88222 446.372 2.82102 436.158 3.55726 425.915C4.35561 414.785 4.52852 403.712 5.17764 392.639C5.63349 384.857 6.28777 376.903 5.94832 369.121C5.81511 366.259 4.72597 362.397 7.30588 360.051C7.34407 360.022 6.57259 351.982 6.58015 351.81C6.55891 351.009 6.48207 350.207 6.58755 349.435C7.96468 337.762 7.76867 326.289 8.45725 314.759C8.67866 310.959 8.93318 307.155 9.2076 303.351C10.1125 287.369 13.8512 271.713 19.7577 257.218C22.1343 251.394 25.5792 246.004 28.6877 239.984C25.4393 243.766 23.7123 249.051 20.9149 252.283C25.1736 243.383 30.3979 234.802 36.6299 227.76C42.2433 221.287 48.6476 213.762 55.1751 210.473C56.1334 209.975 56.9672 208.9 57.7051 208.156C58.4021 207.457 59.0468 206.911 59.6047 206.508C60.7956 205.699 61.5497 205.617 61.5269 206.17C61.4861 207.869 63.1674 206.556 65.6177 204.475C66.4698 203.749 67.6238 202.677 68.2495 202.736C68.7605 202.761 67.9854 203.564 67.2563 204.292C65.9347 205.6 63.7916 207.504 65.2081 207.383C66.214 207.297 68.0734 206.606 70.1113 204.314C70.2102 204.21 70.5769 204.052 70.9143 203.864C70.8263 204.787 69.1861 206.061 67.8431 207.308C70.4844 206.388 72.5068 205.862 71.6182 208.331C71.4188 208.86 71.9406 208.775 70.7507 209.851C68.2837 212.077 68.5338 212.287 70.2322 211.922C72.3908 211.451 75.5324 210.1 73.8733 213.458C73.7502 213.699 73.8897 213.88 74.1337 213.8C76.5118 213.063 77.2741 213.542 76.435 216.101C75.8766 217.768 79.4675 215.451 81.7576 213.776C86.8745 210.035 90.9172 208.813 92.2816 210.177C92.2817 210.177 92.2818 210.177 92.2818 210.177C92.7398 210.635 92.9048 211.387 92.7238 212.441C92.28 214.911 90.7999 218.893 95.0826 216.54C91.3554 221.315 87.6531 226.092 83.9657 230.869C69.1049 250.741 63.0529 274.707 64.5284 296.869C64.6668 299.046 64.8731 301.206 65.1461 303.351C68.2756 334.183 70.0662 365.119 72.9414 395.958C73.3825 391.008 72.2298 386.001 72.6287 381.108C72.6631 380.708 72.919 380.421 73.4041 379.306C73.9239 386.955 74.4259 394.603 74.9101 402.252C74.9555 402.968 75.0232 403.797 74.384 403.225C72.5238 401.595 73.7401 404.399 73.9086 404.542C75.6385 406.03 75.5289 408.49 75.2657 410.779C74.9332 413.783 75.7288 416.558 75.9851 419.448C77.1671 432.638 78.1895 445.857 79.169 459.075C79.5491 464.226 79.375 469.462 80.437 474.755C81.0542 477.845 82.8807 475.384 83.1783 477.987C83.5135 480.963 80.7444 479.104 81.0202 482.165C81.3026 485.341 80.9341 488.546 81.4939 492.008C82.0735 491.264 82.5162 490.691 83.3971 489.547C81.5725 497.959 83.3957 504.969 85.1321 512.493ZM92.6242 658.794C86.2182 654.443 79.0623 651.808 72.7575 647.457C78.4711 652.651 85.7089 655.658 92.6242 658.794ZM49.2582 628.074C53.6074 634.751 60.4436 639.335 67.0466 643.743C60.9427 638.752 54.2802 634.21 49.2582 628.074ZM113.616 666.368C126.168 670.027 139.197 672.058 152.193 672.437C152.161 672.172 152.131 671.906 152.1 671.64C139.208 671.254 126.284 669.236 113.832 665.607C113.76 665.861 113.688 666.114 113.616 666.368ZM172.462 671.552C167.713 671.552 162.964 671.912 158.215 672.042C162.993 672.361 167.799 672.938 172.462 671.552ZM46.4842 265.815C52.5893 253.56 57.1195 242.86 63.3331 233.012C55.0254 241.778 49.6871 253.063 46.4842 265.815ZM148.884 306.869C150.377 310.675 151.486 313.61 153.943 315.793C154.264 316.079 154.608 316.352 154.979 316.612C154.788 316.237 154.602 315.868 154.418 315.503C152.856 312.406 151.454 309.657 148.884 306.869ZM175.055 360.332C176.277 367.808 179.046 373.433 182.451 378.718C180.669 372.531 178.221 366.697 175.055 360.332ZM153.551 325.13C153.923 325.955 154.292 326.812 154.766 326.913C155.156 327 155.419 326.531 155.671 326.194C155.82 325.949 155.686 325.33 155.302 325.08C152.691 323.426 152.449 320.115 151.118 317.526C150.945 317.187 150.754 316.861 150.538 316.553C150.824 316.794 151.064 317.091 151.283 317.425C152.096 318.668 152.594 320.416 154.036 321.692C153.324 320.071 152.493 318.604 151.617 317.22C148.893 312.938 145.792 309.477 144.025 304.707C144.024 304.697 144.023 304.687 144.022 304.676C143.925 307.233 145.594 308.72 146.524 310.569C147.772 313.065 149.011 315.562 150.227 318.072C151.366 320.419 152.478 322.77 153.551 325.13ZM132.718 285.56C135.005 290.19 137.356 293.8 139.775 297.374C137.383 293.792 136.437 289.267 132.718 285.56ZM205.37 551.855C205.23 551.931 204.98 553.036 205.548 553.388C206.155 553.768 206.665 553.395 207.052 552.702C208.402 550.258 208.071 547.397 208.95 543.579C208.944 543.579 208.937 543.579 208.931 543.579C208.038 544.421 207.684 544.576 207.578 544.89C206.782 547.187 208.249 550.606 205.37 551.855ZM164.804 348.105C163.118 343.939 161.919 339.403 159.114 335.808C161.054 339.865 162.971 344.001 164.804 348.105ZM167.202 354.254C168.599 358.149 169.716 362.104 172.129 365.446C170.636 361.612 169.876 357.387 167.202 354.254ZM196.74 447.138C197.605 449.412 195.851 451.909 196.643 452.832C199.32 455.976 198.363 459.999 199.111 463.491C199.611 457.971 199.715 452.377 196.74 447.138ZM176.471 377.583C177.748 380.688 176.033 383.35 177.851 386.799C179.953 383.965 177.702 380.664 176.471 377.583ZM199.142 475.003C199.182 475.156 199.241 475.306 199.277 475.432C200.67 479.669 200.808 484.05 200.947 488.453C200.995 490.313 201.947 491.231 202.859 491.231C203.939 491.232 203.47 489.537 203.409 488.553C203.107 482.233 201.405 476.109 200.946 469.743C200.803 467.746 199.778 465.734 199.138 463.779C197.613 463.983 198.762 465.487 198.673 466.459C198.426 468.905 199.87 470.203 200.45 472.036C201.239 474.527 200.783 475.2 199.142 475.003ZM201.846 538.446C200.388 539.035 201.485 539.321 201.97 539.289C202.532 539.255 202.527 540.741 203.353 539.936C203.323 539.372 203.235 538.756 203.28 538.137C203.306 537.596 203.176 536.875 203.738 536.603C203.738 536.612 203.738 536.621 203.738 536.629C205.527 542.63 201.891 548.785 203.393 554.791C204.824 542.448 205.627 529.8 204.206 517.192C204.107 516.279 203.609 515.426 203.956 514.473C205.837 509.186 203.985 503.637 203.95 498.244C203.938 496.541 203.139 495.862 201.794 494.909C202.941 500.956 203.549 506.441 202.412 511.896C202.235 512.749 202.365 513.748 202.411 514.658C202.851 521.782 203.272 528.835 202.777 535.876C202.694 536.938 203.012 537.989 201.846 538.446ZM97.0098 219.195C95.9404 220.88 91.9377 226.298 86.5838 233.487C71.8606 251.15 68.1653 286.449 68.5857 288.509C67.9976 273.579 72.2355 257.884 79.4636 243.326C81.2587 239.705 83.283 236.081 85.7252 232.629C88.8979 228.349 92.2755 224.135 96.0289 220.077C96.3167 219.758 96.6232 219.537 97.0098 219.195ZM200.424 566.185C199.68 574.744 198.53 583.162 197.023 591.389C196.62 593.542 195.967 595.684 197.141 597.547C197.142 597.541 197.144 597.533 197.145 597.526C198.249 596.868 198.233 595.556 198.455 594.436C200.343 585.318 201.717 575.946 202.737 566.452C202.856 565.22 203.342 563.717 202.118 563.463C200.66 563.171 200.547 564.71 200.424 566.185ZM138.133 301.561C133.392 293.809 128.716 285.921 124.279 277.836C129.555 285.32 134.079 293.316 138.133 301.561ZM172.462 592.722C168.657 591.724 164.823 593.074 160.989 592.47C164.852 594.521 168.657 593.314 172.462 592.722ZM218.756 591.691C220.902 593.191 223.278 593.554 226.196 592.974C226.7 592.874 227.209 592.794 227.724 592.731L190.546 620.023C190.908 617.743 191.778 615.474 192.995 613.348C193.296 612.815 194.214 612.464 193.349 611.812C192.482 611.162 192.037 611.859 191.768 612.79C191.089 615.147 190.374 617.473 189.632 619.736L227.724 591.773C224.735 591.743 221.745 591.716 218.756 591.691ZM192.29 609.655C194.855 606.142 196.526 602.154 197.117 597.719C193.063 600.726 194.486 605.938 192.29 609.655ZM197.218 597.666C197.219 597.658 197.221 597.65 197.223 597.642C197.218 597.645 197.213 597.648 197.208 597.652C197.211 597.656 197.215 597.661 197.218 597.666ZM151.333 328.452C151.511 328.347 151.69 328.243 151.868 328.138C158.192 339.783 162.578 352.331 167.358 364.585C162.497 352.391 157.151 340.335 151.333 328.452ZM194.284 465.747C189.825 445.105 186.176 424.01 179.706 403.483C179.711 403.481 179.716 403.479 179.721 403.477C180.048 403.383 180.382 403.258 180.701 403.139C186.695 423.862 191.243 444.817 194.284 465.747ZM168.987 370.9C169.147 370.855 169.312 370.779 169.477 370.703C173.273 380.597 176.735 390.537 179.893 400.595C179.719 400.633 179.522 400.65 179.342 400.719C176.202 390.687 172.76 380.771 168.987 370.9ZM77.2508 474.412C76.8368 468.031 77.6111 461.679 75.3575 455.27C75.6694 461.65 75.9697 468.031 76.2586 474.412C76.5893 474.412 76.9201 474.412 77.2508 474.412ZM118.959 274.98C118.341 273.836 117.885 274.991 117.498 273.823C115.573 268.051 111.194 263.913 107.961 259.071C106.204 256.448 105.775 255.313 105.941 254.055C109.879 259.588 114.046 265.039 117.115 271.067C117.714 272.263 118.483 272.6 119.073 273.593C119.99 275.15 119.643 275.244 118.959 274.98ZM105.942 253.988C105.944 253.986 105.947 253.984 105.949 253.982C105.948 253.991 105.948 254 105.947 254.009C105.944 254.008 105.941 254.007 105.937 254.007C105.939 254.001 105.94 253.995 105.942 253.988ZM105.947 254.009C105.95 254.01 105.954 254.01 105.958 254.011C105.953 254.015 105.949 254.019 105.944 254.023C105.945 254.018 105.946 254.014 105.947 254.009ZM105.911 254C105.92 254.002 105.929 254.005 105.937 254.007C105.934 254.017 105.931 254.027 105.928 254.037C105.923 254.024 105.917 254.012 105.911 254ZM105.944 254.023C105.943 254.033 105.942 254.044 105.941 254.055C105.937 254.049 105.932 254.043 105.928 254.037C105.934 254.032 105.939 254.027 105.944 254.023ZM133.478 584.605C132.97 584.383 132.054 584.099 131.756 584.98C131.459 585.863 132.319 585.897 132.968 586.079C136.407 587.1 139.888 587.973 143.425 588.558C140.499 585.895 136.784 586.028 133.478 584.605ZM130.343 295.208C126.656 288.886 122.473 282.909 119.105 276.298C118.911 275.909 119.009 275.456 118.988 275.035C120.852 276.668 122.418 278.836 123.908 281.471C126.203 285.542 128.569 289.577 130.807 293.686C131.253 294.501 131.869 295.497 131.385 295.901C131.133 296.11 130.695 295.821 130.343 295.208ZM69.9643 345.286C71.4609 348.748 72.3696 358.076 71.6594 363.913C70.4507 357.161 70.9586 351.152 69.9643 345.286ZM81.1327 523.948C82.2678 521.706 82.3324 520.005 81.0314 517.762C79.3703 519.872 80.1094 521.778 81.1327 523.948ZM80.2283 485.055C80.2373 484.111 80.1381 483.167 79.4899 483.081C78.6976 482.967 78.2033 484.311 78.5251 485.084C80.1783 488.975 78.6235 493.353 80.1537 498.474C80.1533 498.464 80.1529 498.455 80.1524 498.445C80.1929 493.152 80.2041 489.089 80.2283 485.055ZM156.182 348.082C154.002 342.114 151.072 336.622 148.629 330.814C147.331 327.733 145.632 324.771 144.277 321.72C143.213 319.324 142.364 316.881 142.056 314.282C142.942 316.652 143.932 318.98 144.978 321.291C148.983 330.173 153.872 338.71 156.182 348.082ZM195.926 493.222C196.158 493.188 196.39 493.154 196.623 493.121C197.646 503.309 198.294 513.454 198.544 523.547C198.302 523.561 198.06 523.576 197.819 523.591C197.577 513.519 196.938 503.393 195.926 493.222ZM118.901 274.96C118.883 274.944 118.865 274.926 118.847 274.911C118.847 274.911 118.904 274.952 118.941 274.975C118.947 274.977 118.953 274.978 118.959 274.98C118.96 274.982 118.961 274.984 118.962 274.986C118.971 274.991 118.975 274.991 118.972 274.987C118.977 274.994 118.982 275.002 118.987 275.01C118.988 275.019 118.987 275.027 118.988 275.035C118.972 275.022 118.957 275.008 118.941 274.994C118.911 274.976 118.882 274.959 118.853 274.941C118.869 274.947 118.885 274.953 118.901 274.96ZM140.635 314.737C139.324 311.086 136.479 308.115 135.9 304.175C137.989 307.53 140.365 310.778 140.635 314.737ZM162.106 585.8C162.935 585.758 163.88 585.899 163.737 586.755C163.622 587.571 162.764 587.614 161.877 587.534C160.058 587.36 158.258 587.187 156.447 587.015C156.154 586.971 155.861 586.925 155.568 586.877C155.574 586.877 155.58 586.877 155.586 586.877C155.624 586.633 155.645 586.408 155.665 586.164C155.925 586.143 156.186 586.119 156.447 586.095C158.323 585.984 160.214 585.871 162.106 585.8ZM195.979 562.012C195.289 556.59 197.028 551.365 197.115 545.983C198 551.392 196.58 556.735 195.979 562.012ZM164.766 369.537C164.286 369.792 163.61 369.316 163.472 368.615C162.656 364.295 160.781 360.457 159.081 356.457C158.885 356.016 159.003 355.386 158.944 354.27C162.202 358.349 163.013 363.34 165.103 367.488C165.556 368.369 165.315 369.25 164.766 369.537ZM171.791 393.126C169.885 386.557 167.884 379.973 165.551 373.481C165.077 372.152 164.927 371.284 165.482 370.966C166.425 370.439 166.564 372.168 166.832 372.98C168.919 379.139 170.783 385.3 172.548 391.531C172.545 391.522 172.543 391.514 172.54 391.505C172.299 392.034 172.042 392.568 171.791 393.126ZM109.009 563.221C111.368 565.134 113.156 567.527 115.631 570.216C113.602 569.77 112.248 569.409 110.838 569.001C110.402 570.595 112.275 570.532 112.306 572.135C109.245 569.685 106.289 567.57 104.076 564.595C101.505 561.122 98.732 557.742 95.8454 554.468C95.8275 554.465 95.8096 554.462 95.7916 554.46C94.5299 552.992 94.8767 552.067 95.4465 550.811C95.4587 550.811 95.4708 550.809 95.4828 550.809C97.6602 551.385 99.7453 551.751 98.7697 554.694C98.4787 555.645 99.5668 555.486 99.9731 555.843C102.264 557.867 105.25 558.956 106.118 562.27C106.396 563.299 108.262 562.617 109.009 563.221ZM178.237 411.287C174.726 405.25 173.197 398.663 172.554 391.588C175.091 397.915 176.669 404.611 178.237 411.287ZM172.548 391.531C172.55 391.55 172.552 391.569 172.554 391.588C172.547 391.571 172.54 391.554 172.533 391.537C172.538 391.535 172.543 391.533 172.548 391.531ZM189.242 465.829C188.23 464.831 186.844 464.72 187.077 462.626C187.813 455.83 184.805 449.913 183.637 443.57C183.563 443.131 183.506 442.688 183.414 442.172C184.595 442.331 183.849 444.16 185.032 444.753C184.638 441.388 184.257 438.153 183.074 435.118C182.915 434.729 182.329 434.386 182.343 434.219C182.529 432.364 180.873 429.442 182.14 428.796C183.387 428.13 183.747 431.39 183.99 432.657C183.992 432.666 183.994 432.675 183.996 432.683C186.18 443.607 188.442 454.441 189.242 465.829ZM68.7058 293.189C68.9284 296.684 69.8069 300.034 70.502 303.351C70.8714 305.737 71.1337 308.153 71.1497 310.639C71.1529 311.526 71.5546 312.984 70.9257 313.156C70.3479 313.328 70.0974 312.069 70.0081 311.039C70.0038 311.039 69.9995 311.039 69.9953 311.039C69.7728 308.476 69.5482 305.914 69.3215 303.351C68.9273 300 68.7197 296.607 68.7058 293.189ZM74.6216 346.432C74.0619 351.181 76.5652 355.559 76.1876 360.251C76.1933 360.261 76.1989 360.27 76.2046 360.28C76.0394 362.197 76.2033 364.4 75.2033 366.145C73.8201 359.335 74.2 353.183 73.478 347.089C73.3882 346.317 73.6072 345.374 74.1332 345.459C74.2899 345.488 74.647 346.232 74.6216 346.432ZM76.1856 375.558C76.5042 378.962 79.9534 382.196 76.7708 385.544C75.3985 382.225 76.3662 378.905 76.1856 375.558ZM76.8672 388.805C78.4832 393.812 77.7 397.847 78.1708 401.738C77.161 397.932 76.6089 394.069 76.8672 388.805ZM95.4729 550.751C95.4687 550.76 95.4651 550.769 95.461 550.778C95.4863 550.764 95.5117 550.749 95.5371 550.734C95.5157 550.741 95.4939 550.745 95.4729 550.751ZM72.9902 328.264C73.1093 332.012 74.3091 335.96 73.5031 340.71C71.8782 335.903 72.8391 331.925 72.1291 328.091C72.1042 327.947 72.3308 327.462 72.416 327.519C72.6135 327.633 72.9566 328.035 72.9742 328.235C72.9795 328.244 72.9849 328.254 72.9902 328.264ZM133.447 576.81C135.45 577.135 135.706 579.456 137.743 578.908C137.75 578.903 137.757 578.898 137.764 578.893C137.622 579.317 137.464 579.736 137.322 580.159C136.854 580.115 136.379 580.148 135.927 580.035C129.463 578.457 123.16 575.906 117.212 572.485C116.501 572.073 115.924 571.583 116.394 570.741C117.106 569.46 117.814 570.111 118.506 570.531C121.636 572.43 125.064 573.698 128.137 575.495C129.801 576.474 131.78 576.529 133.447 576.81ZM189.4 475.861C188.532 472.576 187.509 469.926 187.412 466.965C189.736 467.607 190.988 471.922 189.4 475.861ZM191.192 502.127C189.889 500.165 190.579 498.036 190.822 496.147C190.823 496.155 190.823 496.164 190.824 496.172C191.317 492.421 191.283 488.733 190.084 485.153C192.898 490.216 192.458 496.239 193.084 501.894C193.174 502.836 193.056 503.826 192.145 503.933C191.12 504.028 191.508 502.601 191.192 502.127ZM192.631 539.707C191.738 538.151 189.632 538.275 190.842 536.506C192.523 534.035 191.877 531.647 191.354 529.475C190.599 526.388 192.626 523.913 192.011 520.808C191.246 516.847 192.858 512.47 191.413 508.391C191.1 507.529 191.219 506.412 192.157 506.384C193.095 506.357 193.093 507.494 193.147 508.413C193.37 513.156 193.836 517.95 193.408 522.605C193.402 522.613 193.395 522.622 193.389 522.631C192.898 528.107 193.589 533.515 192.631 539.707ZM161.162 578.442C162.134 577.828 162.506 578.438 162.678 578.642C164.309 580.452 166.712 580.591 168.943 579.732C171.032 578.935 171.004 580.322 171.204 580.73C171.748 581.811 169.974 581.75 169.402 581.751C165.106 581.872 160.762 582.164 156.447 582.263C154.597 582.335 152.782 582.231 151.024 581.815C148.384 581.18 145.782 582.097 143.301 581.254C143.297 581.247 143.293 581.239 143.289 581.231C141.368 580.58 138.678 581.205 138.148 578.325C138.949 576.866 139.482 581.01 139.994 577.416C140.098 576.732 141.01 576.91 141.557 577.008C145.036 577.585 148.332 578.287 151.8 579.701C153.215 580.273 154.863 580.622 156.447 580.168C158.109 579.898 159.716 579.362 161.162 578.442ZM190.581 562.874C188.606 559.347 190.375 555.935 191.09 553.327C192.09 549.616 190.532 546.758 190.949 543.396C191.035 542.622 190.375 541.437 191.331 541.234C192.247 541.026 192.661 542.185 192.62 543.366C192.627 543.374 192.633 543.383 192.639 543.391C192.394 549.762 193.03 556.208 190.581 562.874ZM197.327 579.637C197.756 579.863 198.386 577.892 199.101 579.546C199.329 580.097 199.014 580.686 197.841 580.842C190.03 581.897 182.162 581.956 174.265 581.382C174.008 581.361 173.808 580.872 173.178 580.097C179.845 579.995 185.796 578.828 192.119 579.244C193.836 579.353 195.61 578.751 197.327 579.637ZM209.802 578.365C212.777 577.803 213.035 580.103 215.094 580.448C210.803 582.396 207.111 582.452 204.107 578.46C206.453 579.557 208.142 578.675 209.802 578.365ZM180.928 599.71C180.968 598.649 180.251 596.47 183.1 597.305C183.793 597.521 183.916 596.898 183.673 596.334C183.537 596.026 183.238 595.802 183.012 595.524C185.686 592.677 184.927 588.709 185.943 585.294C186.111 584.699 186.292 583.766 187.149 584.082C187.662 584.276 187.723 584.744 187.603 585.423C185.899 595.514 183.662 605.275 180.81 614.506C180.797 614.503 180.784 614.499 180.771 614.495C180.676 614.793 180.329 615.016 179.886 615.528C179.124 613.557 179.009 611.338 179.997 610.133C182.17 607.499 181.248 604.032 182.785 601.288C183.123 600.688 183.994 599.482 182.52 599.07C181.559 598.798 181.136 599.27 180.928 599.71ZM180.753 600.202C180.789 600.084 180.838 599.9 180.928 599.71C180.92 599.942 180.877 600.121 180.753 600.202Z" fill="var(--stroke-0, #C6EDD1)"/>
<path id="t" d="M190.458 135.414C192.507 139.616 193.831 144.196 194.836 149.018C193.032 144.687 191.682 140.089 190.458 135.414ZM190.458 135.414C190.424 135.343 190.389 135.272 190.354 135.202C190.354 135.202 190.405 135.258 190.415 135.291C190.418 135.29 190.421 135.289 190.425 135.287C190.436 135.329 190.447 135.372 190.458 135.414ZM190.395 135.224C190.395 135.184 190.393 135.142 190.392 135.102C190.41 135.161 190.427 135.22 190.445 135.28C190.428 135.261 190.411 135.242 190.395 135.224ZM420.07 310.725C420.656 315.056 427.194 316.997 431.498 319.444C438.747 323.558 446.008 327.371 453.356 331.247C460.852 335.2 468.896 338.693 476.879 341.562C478.293 342.058 479.405 342.31 477.742 342.971C477.727 342.972 477.712 342.974 477.696 342.976C477.698 342.98 477.701 342.984 477.702 342.988C477.686 342.994 477.67 343.002 477.653 343.008C477.658 342.998 477.663 342.988 477.667 342.979C477.645 342.981 477.622 342.983 477.6 342.985C477.605 342.975 477.61 342.965 477.614 342.954C474.653 345.447 471.668 341.485 468.979 340.572C463.01 338.55 457.384 334.274 451.578 332.587C445.308 330.735 440.287 325.732 432.452 324.829C452.043 336.779 471.35 346.694 491.551 353.504C492.046 352.472 489.855 352.607 489.901 351.29C510.262 360.842 530.999 370.57 553.039 371.349C545.935 368.542 537.791 369.19 530.646 365.551C534.263 365.969 537.959 365.905 541.416 366.69C551.913 369.094 562.501 370.201 572.671 372.047C576.198 372.686 579.39 370.877 582.821 371.655C583.89 371.892 585.584 371.548 586.069 372.01C589.017 374.788 592.714 374.848 596.273 374.529L553.89 417.762C553.749 415.166 553.526 412.541 553.671 409.985C553.812 407.556 553.884 405.133 553.911 402.715C554.016 393.095 553.399 383.547 553.506 373.935C553.651 359.074 553.34 344.18 553.909 329.352C554.244 320.754 555.188 311.736 555.037 303.51C555.035 303.448 555.033 303.386 555.031 303.325C554.796 297.244 554.389 291.185 553.173 285.255C551.495 277.087 546.888 270.199 545.422 261.497C541.152 258.131 538.702 253.514 535.28 249.387C534.145 248.101 532.995 246.833 531.812 245.605C516.046 229.216 501.373 211.874 486.062 195.031C467.292 174.376 448.62 153.577 430.28 132.54C418.116 118.607 405.707 104.873 393.512 90.9713C393.027 90.4314 392.676 89.7563 392.185 89.0357C393.683 89.169 394.578 91.6287 395.938 91.9934C394.749 90.0601 393.013 87.5572 391.659 87.1867C389.425 86.5781 387.988 84.4717 386.509 82.7821C385.062 81.1128 383.614 79.4445 382.166 77.7762C378.242 73.0684 373.843 68.7411 369.037 64.8186C359.333 56.8938 347.507 51.4073 334.991 48.1219C324.187 45.2816 312.696 44.1091 301.219 45.2037C288.916 46.3698 276.673 50.0487 265.448 56.0251C280.023 48.6805 296.044 45.1948 311.656 45.572C311.641 45.7457 311.628 45.9303 311.587 46.1036C293.655 46.1664 274.413 50.3316 259.052 61.2204C259.139 61.3361 259.226 61.4517 259.312 61.5673C266.37 57.3965 273.878 54.139 281.548 51.9513C283.892 51.2775 286.259 50.3664 288.643 50.3138C287.848 51.4128 285.377 51.4219 283.887 52.1341C284.451 52.3103 285.846 51.405 286.345 51.83C286.181 51.9308 286.033 52.0771 285.824 52.1308C279.079 54.0905 272.432 56.6298 265.824 59.5315C264.287 60.2129 263.268 60.9279 262.278 61.784C259.371 64.262 254.255 67.5309 251.157 68.862C249.577 69.5293 249.647 68.6757 250.302 67.6567C251.295 66.0906 250.918 65.681 248.962 66.5197C247.802 67.0251 247.573 66.8811 248.117 65.9597C249.633 63.472 249.413 63.3926 244.823 67.0796C249.083 62.6838 247.147 63.3721 245.362 63.2107C242.867 62.9348 237.829 64.9607 241.592 58.7931C242.084 58.014 241.927 56.6367 240.431 56.6977C238.809 56.7607 236.702 56.7403 237.967 53.799C238.161 53.3629 238.858 52.4309 239.438 51.897C245.265 46.7266 243.574 46.4471 242.293 46.2569C239.042 45.838 239.108 42.7658 239.781 38.9965C240.135 36.9903 239.36 35.7827 239.713 33.7254C240.081 31.4224 245.4 26.9765 249.436 23.9933C257.342 18.0337 266.367 13.3876 275.792 10.0488C280 8.54446 284.598 6.91654 288.924 5.43503C296.468 2.83734 303.7 2.50956 311.448 1.41178C314.371 1.00125 316.71 0.619058 318.953 -3.57619e-07C322.296 1.40927 327.666 0.0715004 332.014 0.420597C336.381 0.753902 341.057 1.32788 345.414 0.952638C348.527 0.688005 349.513 2.14208 352.26 2.63559C367.085 5.3191 381.46 10.9633 394.953 17.9179C402.088 21.5856 408.598 26.0571 414.329 30.9858C416.965 33.2475 419.494 35.5319 422.01 37.9321C435.081 50.2782 449.074 61.8096 462.121 74.1823C468.676 80.3948 475.149 87.576 483.19 92.6767C486.359 94.6806 489.084 97.8744 491.801 100.703C496.282 105.355 500.716 109.915 506.093 113.904C511.256 117.735 514.948 123.178 520.095 127.304C526.853 132.709 532.872 138.853 539.041 144.893C541.941 147.726 544.838 150.699 548.72 151.571C551.28 152.133 548.997 153.765 550.988 155.269C554.813 158.154 558.489 161.374 562.127 164.54C569.609 171.038 576.237 178.157 582.571 185.617C585.001 188.485 587.923 191.24 590.912 193.755C591.958 194.674 592.993 195.587 594.011 196.492C597.347 199.454 599.305 203.903 603.194 205.935C603.548 208.338 604.561 211.983 606.984 213.374C610.899 215.622 612.559 219.37 614.975 222.972C619.738 230.068 624.493 237.312 626.482 245.734C626.931 247.655 628.435 247.267 629.215 249.561C630.687 253.836 632.303 258.578 633.613 262.408C637.041 272.326 636.343 283.096 639.908 292.951C641.006 295.961 640.415 299.837 640.329 303.51C640.319 303.833 640.319 304.154 640.333 304.473C640.62 311.755 641.609 319.236 640.137 326.353C638.508 334.13 639.794 342.005 640.261 349.584C640.519 353.868 639.701 359.173 641.9 363.062C639.677 365.237 641.759 370.376 639.265 372.749C637.703 374.232 638.795 377.593 639.432 379.208C641.754 385.007 641.644 389.094 641.386 395.42C641.289 397.807 641.001 400.246 640.837 402.715C640.566 406.79 640.631 410.947 642.438 415.092C642.747 415.799 642.833 416.715 642.791 417.762L642.664 462.653L598.038 463.412C594.67 463.373 590.127 462.343 586.393 462.162C583.089 462.017 578.911 461.875 576.162 460.161C575.271 459.594 574.244 459.44 573.273 460.04C568.581 462.832 563.647 460.373 559.269 458.945C555.32 457.653 552.326 455.516 548.467 457.96C547.215 458.728 544.065 457.994 542.165 457.234C537.033 455.192 537.1 455.12 531.922 455.253C531.114 455.266 530.124 455.029 529.294 454.762C520.311 451.981 510.95 450.969 502.292 446.507C496.166 443.366 487.695 440.141 481.463 439.445C474.096 438.635 468.67 434.884 462.382 432.706C454.963 430.145 447.544 426.784 440.742 422.875C425.823 414.332 410.187 407.258 396.645 396.949C395.334 395.943 393.709 394.494 392.125 395.003C391.169 395.32 389.472 394.094 389.066 393.524C384.155 386.536 375.867 383.53 369.421 378.629C351.687 365.159 334.498 351.181 318.735 335.65C309.666 326.727 300.526 317.889 292.328 308.237C285.364 300.038 278.429 291.966 271.82 283.563C269.951 281.187 268.126 278.808 266.325 276.382C260.599 268.667 255.128 260.532 249.199 253.002C247.015 250.25 243.348 246.987 243.812 243.145C243.805 243.106 237.577 235.395 237.481 235.199C236.914 234.394 236.303 233.618 235.866 232.769C229.072 220.045 221.604 208.117 215.349 195.382C206.469 177.332 199.131 158.481 192.758 139.484C190.798 133.626 189.642 127.413 187.468 121.043C187.936 125.944 190.332 130.89 190.392 135.102C187.655 125.82 185.094 116.303 183.66 107.029C183.185 103.98 182.545 100.783 181.977 97.6125L178.755 80.7802L188.098 73.2136C192.385 69.8641 196.703 66.6206 200.845 64.7669C201.806 64.3299 202.648 63.3064 203.38 62.5939C205.776 60.2837 207.438 59.6619 207.343 60.499C207.17 62.3297 209.078 60.7902 211.872 58.3652C212.844 57.5196 214.167 56.2784 214.836 56.2945C215.383 56.2831 214.489 57.206 213.649 58.044C212.128 59.5519 209.678 61.7622 211.211 61.5249C212.3 61.3556 214.353 60.4716 216.719 57.8515C216.833 57.7323 217.24 57.5339 217.617 57.306C217.452 58.3063 215.591 59.8009 214.052 61.2439C216.963 60.0544 219.179 59.3345 218.035 62.0591C217.781 62.6428 218.348 62.5116 216.987 63.7592C214.164 66.3417 214.417 66.5487 216.272 66.0272C218.63 65.3562 222.112 63.665 220.073 67.4037C219.922 67.6724 220.058 67.8559 220.327 67.7517C222.941 66.778 223.725 67.2355 222.628 70.053C221.901 71.8887 225.94 69.1234 228.531 67.1474C234.319 62.7345 238.761 61.1134 240.126 62.4776C240.126 62.4777 240.126 62.4777 240.126 62.4778C240.584 62.9359 240.705 63.732 240.43 64.88C239.765 67.5704 237.871 71.9674 242.657 69.111C233.889 79.9792 225.23 90.849 216.591 101.706L220.545 85.9433C230.198 108.059 241.689 129.076 254.298 149.382C273.771 180.639 295.512 210.385 321.042 236.225C317.977 231.847 313.701 228.361 310.783 223.943C310.546 223.581 310.557 223.179 310.21 221.933C315.096 227.523 320.098 232.998 325.209 238.355C325.777 238.951 326.347 239.545 326.917 240.137C327.451 240.692 328.085 241.323 327.199 241.274C324.643 241.153 327.535 242.653 327.764 242.657C330.119 242.736 331.763 244.786 333.193 246.786C335.093 249.419 337.69 251.094 339.973 253.181C350.435 262.732 361.198 271.897 372.292 280.545C376.601 283.904 380.71 287.696 385.678 290.455C388.579 292.063 387.747 289.003 390.054 290.519C392.692 292.242 389.423 293.154 392.111 294.972C394.889 296.845 397.331 299.237 400.569 301.015C400.3 300.078 400.091 299.36 399.681 297.926C405.546 304.781 412.616 307.675 420.07 310.725ZM528.914 451.324C521.993 448.444 514.687 447.735 507.732 445.497C514.373 448.711 521.749 449.736 528.914 451.324ZM480.25 435.913C486.553 440.117 494.116 441.767 501.452 443.772C494.403 441.058 486.945 439.35 480.25 435.913ZM550.197 455.153C562.778 457.11 575.636 458.328 588.767 458.568C588.732 458.302 588.698 458.037 588.663 457.771C575.612 457.528 562.826 456.316 550.313 454.371C550.275 454.632 550.236 454.893 550.197 455.153ZM636.984 403.428C636.984 408.206 637.259 412.984 637.415 417.762L637.303 457.367L597.931 458.037C597.118 458.076 596.303 458.108 595.487 458.133C596.303 458.165 597.119 458.197 597.935 458.224L637.489 457.551L637.602 417.762C637.907 412.946 638.196 408.124 636.984 403.428ZM218.597 128.502C214.622 114.166 209.377 102.411 204.877 90.6838L204.804 90.3025L205.016 90.131C205.511 89.5562 206.006 88.9826 206.501 88.4103C205.914 88.8926 205.332 89.3791 204.754 89.8698L204.402 90.1554L204.523 90.7909C207.258 103.527 212.294 115.667 218.597 128.502ZM355.6 49.8119C359.515 52.3751 362.166 54.4297 366.094 54.7824C362.722 52.5915 359.79 50.7172 355.6 49.8119ZM403.465 91.1784C408.131 98.8607 413.665 104.092 419.688 108.646C414.808 102.622 409.571 97.1416 403.465 91.1784ZM368.807 62.9127C369.488 63.4659 370.166 64.0569 370.627 63.9366C371.009 63.8405 371.051 63.3092 371.134 62.8978C371.164 62.6145 370.784 62.1241 370.333 62.0739C366.935 61.7522 365.191 58.2824 362.251 56.99C363.971 57.2553 365.385 59.1299 367.715 59.6739C362.017 55.2443 355.944 54.5184 350.407 50.9567C350.4 50.9491 350.393 50.9416 350.386 50.934C351.827 53.0073 353.999 53.2115 355.772 54.192C360.387 56.7598 364.774 59.6433 368.807 62.9127ZM329.242 44.6061C334.223 46.0158 338.379 46.9614 342.538 48.0236C338.428 46.9447 334.536 44.3402 329.242 44.6061ZM553.199 265.627C553.111 265.754 553.367 266.733 554.017 266.742C554.715 266.755 555.007 266.22 555.043 265.484C555.162 262.909 553.538 260.744 552.394 257.342C552.389 257.346 552.383 257.349 552.378 257.353C552.045 258.485 551.817 258.791 551.881 259.088C552.314 261.247 555.182 263.259 553.199 265.627ZM387.609 80.5494C386.347 79.0739 385.147 77.5356 383.926 76.0158C382.207 73.7523 380.31 71.6254 377.861 70.165C379.899 72.1024 381.84 74.12 383.706 76.2359C385.007 77.6743 386.308 79.1121 387.609 80.5494ZM392.759 86.6448C395.921 90.5199 398.901 94.5303 402.908 97.4664C399.591 93.7472 396.876 89.378 392.759 86.6448ZM473.294 174.572C475.58 176.48 475.699 179.856 477.042 180.423C481.596 182.359 483.474 186.839 486.619 190.004C483.152 184.179 479.462 178.523 473.294 174.572ZM413.193 109.27C416.031 112.21 415.711 115.606 419.314 118.714C419.893 115.013 415.979 112.216 413.193 109.27ZM494.936 201.535C495.083 201.667 495.245 201.786 495.37 201.894C499.649 205.35 503.088 209.647 506.551 213.873C508.014 215.672 509.519 216.031 510.273 215.509C511.168 214.894 509.478 213.508 508.68 212.582C503.628 206.59 497.657 201.469 492.662 195.326C491.101 193.405 488.807 191.945 486.847 190.28C485.65 191.254 487.737 192.203 488.343 193.215C489.866 195.793 492.06 196.349 493.89 197.875C496.382 199.949 496.493 200.862 494.936 201.535ZM543.954 257.518C543.054 258.775 544.089 258.344 544.471 258.045C544.915 257.697 545.644 258.77 545.928 257.721C545.623 257.329 545.244 256.937 544.969 256.468C544.717 256.066 544.247 255.633 544.561 255.108C544.565 255.114 544.57 255.12 544.574 255.127C549.165 258.431 548.946 264.966 552.703 268.848C549.6 260.523 545.033 252.496 538.655 246.012C536.529 243.86 534.371 241.737 532.172 239.652C531.337 238.856 530.243 238.365 529.73 237.247C526.807 231.037 520.912 226.912 516.625 221.693C515.28 220.055 514.11 219.874 512.258 219.723C517.905 224.934 522.789 229.835 526.382 235.749C526.947 236.675 527.884 237.556 528.677 238.394C531.555 241.383 534.462 244.343 537.334 247.334C539.612 249.75 541.689 252.35 543.414 255.166C543.891 255.956 544.678 256.52 543.954 257.518ZM244.529 71.8211C242.47 74.8598 231.558 88.861 219.395 104.511L224.342 84.7946C235.005 108.995 250.783 134.465 251.77 137.007C241.139 120.702 232.071 102.875 223.58 85.0251L218.833 103.948C219.704 102.784 220.571 101.62 221.434 100.455C228.237 91.2268 235.064 81.7436 243.407 72.8438C243.74 72.4786 244.087 72.2181 244.529 71.8211ZM554.315 279.092C556.551 286.205 557.707 293.619 557.826 301.029C557.835 301.862 557.79 302.703 557.853 303.51C557.936 305.105 558.225 306.602 559.082 307.83C559.081 307.82 559.082 307.81 559.081 307.801C560.02 306.67 559.789 305.002 559.799 303.51C559.799 303.489 559.799 303.469 559.799 303.448C560.036 295.039 558.904 286.581 556.551 278.442C556.233 277.385 556.132 275.97 554.917 276.253C553.476 276.601 553.925 277.86 554.315 279.092ZM343.984 52.2481C335.681 49.4935 326.987 47.5108 317.984 46.2259C327.015 46.475 335.895 48.6697 343.984 52.2481ZM558.154 403.428C557.156 407.81 558.506 412.226 557.903 416.641C559.954 412.193 558.747 407.81 558.154 403.428ZM557.123 350.112C558.623 347.64 558.986 344.905 558.406 341.543C557.768 337.82 557.907 333.8 558.631 329.978C558.781 329.154 559.576 328.364 558.572 327.803C557.568 327.243 557.315 328.33 557.301 329.681C557.232 336.491 557.173 343.301 557.123 350.112ZM557.003 325.299C558.615 319.778 559.362 314.033 559.091 308.063C555.683 313.089 558.201 319.68 557.003 325.299ZM559.179 307.966C559.18 307.955 559.18 307.944 559.18 307.933C559.176 307.939 559.172 307.945 559.167 307.951C559.171 307.956 559.175 307.961 559.179 307.966ZM368.224 66.8281C368.338 66.656 368.453 66.4839 368.568 66.3118C373.391 69.7857 377.634 74.0004 381.332 78.6103C386.756 85.0276 392.106 91.5209 397.69 97.8194C392.088 91.5655 386.497 85.3012 380.915 79.0265C377.1 74.577 372.858 70.4872 368.224 66.8281ZM483.992 194.724C465.203 175.952 448.246 155.488 430.295 135.925C430.299 135.921 430.303 135.918 430.307 135.914C430.57 135.697 430.822 135.445 431.063 135.204C448.648 155.133 466.272 174.976 483.992 194.724ZM402.385 104.233C402.525 104.14 402.654 104.011 402.782 103.883C411.441 113.538 420.126 123.168 428.835 132.773C428.688 132.874 428.506 132.962 428.369 133.099C419.683 123.502 411.021 113.88 402.385 104.233ZM383.357 292.669C377.875 288.627 373.309 283.61 366.719 280.638C371.985 285.031 377.316 289.291 382.721 293.43C382.933 293.176 383.145 292.923 383.357 292.669ZM312.708 48.897C311.456 48.7658 312.142 49.7887 310.999 49.4644C305.301 47.8843 299.612 49.6673 294.028 50.5087C290.975 50.9822 289.799 50.9519 288.704 50.3076C295.252 48.8177 301.976 47.6553 308.553 48.2884C309.848 48.424 310.525 47.965 311.651 48.0253C313.409 48.1349 313.288 48.483 312.708 48.897ZM288.644 50.2813C288.643 50.2782 288.642 50.2751 288.641 50.272C288.648 50.2764 288.657 50.2803 288.665 50.2847C288.663 50.2873 288.661 50.2899 288.659 50.2924C288.654 50.2887 288.649 50.285 288.644 50.2813ZM288.665 50.2847C288.667 50.2816 288.669 50.2784 288.671 50.2753C288.673 50.2809 288.674 50.2865 288.676 50.2922C288.672 50.2897 288.669 50.2871 288.665 50.2847ZM288.643 50.3138C288.648 50.3067 288.654 50.2996 288.659 50.2924C288.667 50.2991 288.675 50.3058 288.683 50.3124C288.67 50.3129 288.656 50.3133 288.643 50.3138ZM288.676 50.2922C288.685 50.2975 288.695 50.3023 288.704 50.3076C288.697 50.3092 288.69 50.3108 288.683 50.3124C288.681 50.3057 288.679 50.2989 288.676 50.2922ZM557.55 371.263C556.706 371.069 555.206 370.839 555.067 371.759C554.93 372.681 556.231 372.654 557.26 372.796C562.748 373.609 568.221 374.342 573.628 374.83C568.756 372.23 563.009 372.502 557.55 371.263ZM334.414 52.9463C327.751 51.1462 320.874 50.5341 313.834 49.5233C313.421 49.461 313.116 49.1231 312.768 48.9037C315.079 48.2855 317.691 48.2806 320.582 48.728C325.039 49.4238 329.444 50.2967 333.715 51.5531C334.564 51.7992 335.644 52.0688 335.576 52.6959C335.54 53.0211 335.054 53.1256 334.414 52.9463ZM286.192 193.95C289.477 196.299 295.832 204.116 298.934 209.639C293.712 204.397 290.488 198.73 286.192 193.95ZM431.37 323.544C429.227 320.565 426.976 318.881 423.221 317.86C425.035 321.139 427.848 322.238 431.37 323.544ZM393.997 297.493C393.223 296.868 392.383 296.322 391.907 296.771C391.316 297.313 392.121 298.591 392.962 298.846C397.22 300.113 399.936 304.185 405.203 306.192C405.195 306.187 405.186 306.181 405.178 306.175C400.715 302.806 397.328 300.164 393.997 297.493ZM378.734 82.4482C378.551 82.2178 378.367 81.9882 378.183 81.7595C374.899 77.3602 370.808 73.7879 366.77 70.1004C362.716 66.4228 357.65 64.0898 354.143 59.7644C363.047 66.3212 372.742 72.3016 378.239 81.7032C378.405 81.9507 378.57 82.199 378.734 82.4482ZM506.081 221.427C506.247 221.261 506.413 221.095 506.578 220.929C515.433 230.42 524.314 239.883 533.222 249.32C533.051 249.492 532.88 249.663 532.709 249.834C523.805 240.392 514.929 230.923 506.081 221.427ZM312.661 48.9327C312.638 48.9388 312.614 48.9439 312.592 48.9502C312.592 48.9502 312.655 48.9259 312.694 48.9079C312.699 48.9043 312.703 48.9005 312.708 48.897C312.71 48.8972 312.712 48.8974 312.714 48.8976C312.723 48.8928 312.726 48.8893 312.72 48.889C312.729 48.8893 312.738 48.8896 312.747 48.8899C312.754 48.8944 312.761 48.8992 312.768 48.9037C312.748 48.9089 312.729 48.9141 312.709 48.9193C312.679 48.9335 312.649 48.9478 312.619 48.962C312.633 48.9522 312.647 48.9423 312.661 48.9327ZM353.25 60.9512C350.38 58.7868 346.63 58.2492 343.912 55.6732C347.4 56.8281 351.056 57.941 353.25 60.9512ZM551.233 415.355C551.19 414.4 551.331 413.312 552.187 413.477C553.003 413.609 553.046 414.598 552.966 415.619C552.907 416.335 552.847 417.049 552.788 417.762L596.251 373.427C594.75 373.298 593.24 373.15 591.702 372.983C591.711 372.983 591.719 372.983 591.728 372.983C591.782 372.739 591.81 372.514 591.838 372.27C593.31 372.187 594.774 372.076 596.222 371.965L551.326 417.762C551.291 416.96 551.259 416.158 551.233 415.355ZM548.776 277.58C546.264 273.832 545.788 269.291 543.503 265.428C546.628 268.79 547.497 273.413 548.776 277.58ZM397.455 103.898C397.094 104.306 396.175 103.966 395.693 103.236C392.775 98.7447 389.029 94.9882 385.464 91.0041C385.062 90.5674 384.895 89.8486 384.333 88.6401C389.492 92.3352 392.689 97.6197 396.798 101.573C397.682 102.413 397.869 103.437 397.455 103.898ZM416.749 127.478C411.262 120.988 405.8 114.425 400.207 107.995C399.06 106.673 398.479 105.763 398.883 105.266C399.575 104.434 400.57 106.282 401.249 107.094C406.409 113.211 411.498 119.353 416.622 125.506C416.615 125.498 416.607 125.49 416.6 125.482C416.65 126.13 416.689 126.792 416.749 127.478ZM507.556 352.045C512.549 353.553 517.17 355.782 522.771 358.217C519.429 358.081 517.277 357.984 514.967 357.844C515.589 359.63 518.168 359.173 519.366 360.863C513.302 358.882 507.629 357.363 502.114 354.809C495.726 351.84 488.895 349.102 482.12 346.754C482.096 346.758 482.073 346.762 482.049 346.767C479.055 345.707 478.459 344.587 477.702 342.988C477.716 342.982 477.729 342.976 477.742 342.971C480.847 342.672 483.863 342.317 485.813 345.872C486.461 347.007 487.616 346.44 488.495 346.688C493.379 348.061 498.485 348.389 502.731 351.749C504.025 352.777 505.964 351.565 507.556 352.045ZM433.411 144.786C426.469 139.644 421.157 133.013 416.659 125.567C422.619 131.597 427.961 138.246 433.411 144.786ZM416.622 125.506C416.634 125.527 416.647 125.547 416.659 125.567C416.643 125.551 416.627 125.534 416.611 125.518C416.614 125.514 416.618 125.51 416.622 125.506ZM479.61 197.336C477.99 196.812 476.675 197.38 475.368 195.099C471.162 187.749 464.341 183.011 458.96 176.836C458.596 176.408 458.245 175.967 457.815 175.465C459.008 175.111 459.552 177.362 461.042 177.457C458.392 174.096 455.94 170.908 452.836 168.187C452.434 167.844 451.664 167.729 451.567 167.546C450.53 165.508 447.11 163.103 447.892 161.9C448.64 160.687 451.043 163.97 452.092 165.204C452.1 165.212 452.107 165.22 452.114 165.229C461.194 175.814 470.66 186.061 479.61 197.336ZM255.256 142.61C259.351 148.987 264.374 154.397 268.085 161.152C268.544 161.997 269.648 163.181 269.186 163.645C268.768 164.085 267.897 163.017 267.287 162.077C267.283 162.079 267.279 162.081 267.276 162.083C263.126 155.696 259.116 149.204 255.256 142.61ZM290.767 192.439C293.098 197.022 297.796 199.493 300.361 203.814C300.372 203.819 300.383 203.825 300.393 203.83C301.433 205.602 302.93 207.422 303.215 209.526C297.82 204.408 294.392 198.729 290.197 193.656C289.666 193.011 289.297 192.042 289.788 191.832C289.936 191.773 290.67 192.245 290.767 192.439ZM309.987 217.049C312.445 219.775 317.267 220.372 316.978 225.136C313.702 223.208 312.286 219.794 309.987 217.049ZM319.227 227.801C323.136 230.475 325.273 233.601 327.701 236.245C328.134 236.715 328.575 237.169 329.037 237.599C328.51 237.222 327.991 236.836 327.477 236.434C324.673 234.247 322.035 231.639 319.227 227.801ZM477.665 342.912C477.671 342.923 477.677 342.935 477.683 342.947C477.695 342.92 477.708 342.894 477.72 342.867C477.703 342.883 477.682 342.896 477.665 342.912ZM279.053 176.755C281.218 180.158 284.448 183.148 286.498 187.882C282.355 184.387 280.934 180.211 278.218 177.036C278.118 176.917 278.046 176.351 278.15 176.36C278.384 176.366 278.899 176.562 279.024 176.737C279.033 176.743 279.043 176.749 279.053 176.755ZM554.585 363.279C558.059 363.524 559.252 365.88 562.402 365.248C562.413 365.242 562.423 365.237 562.433 365.231C562.338 365.668 562.215 366.102 562.12 366.539C561.347 366.511 560.584 366.563 559.831 366.469C548.918 365.146 537.829 363.049 526.706 360.366C525.38 360.044 524.192 359.623 524.281 358.649C524.408 357.167 525.951 357.751 527.288 358.095C533.348 359.653 539.539 360.631 545.363 362.256C548.552 363.15 551.725 363.071 554.585 363.279ZM487.171 207.53C483.933 204.617 481.086 202.43 478.828 199.423C481.361 198.94 485.557 202.666 487.171 207.53ZM509.358 233.014C506.679 231.824 505.52 229.303 504.196 227.271C504.204 227.279 504.211 227.287 504.219 227.295C501.574 223.229 498.685 219.594 494.867 216.608C501.173 220.181 505.581 226.445 510.706 231.666C511.55 232.546 512.271 233.597 511.622 234.246C510.871 234.95 510.004 233.299 509.358 233.014ZM537.006 263.67C535.579 263.176 533.939 264.5 534.13 262.689C534.378 260.156 532.71 259.044 531.268 258.085C530.23 257.4 529.798 256.375 529.341 255.326C528.372 253.77 527.415 252.198 525.829 250.888C521.782 247.526 519.298 242.227 514.741 239.095C513.77 238.435 512.939 237.263 513.67 236.671C514.401 236.08 515.336 237.195 516.145 238.064C520.284 242.593 524.728 246.957 528.475 251.737C528.478 251.75 528.481 251.762 528.484 251.775C529.13 252.596 529.797 253.398 530.479 254.189C532.732 257.082 535.336 259.79 537.006 263.67ZM543.874 416.443C543.26 415.323 543.87 414.894 544.074 414.697C545.884 412.818 546.023 410.051 545.165 407.481C544.367 405.075 545.754 405.107 546.162 404.877C547.243 404.251 547.183 406.294 547.183 406.953C547.271 410.538 547.448 414.152 547.577 417.762L596.148 368.217C592.337 368.472 588.382 368.497 584.524 367.94C580.262 367.32 576.197 368.27 572.07 367.475C572.062 367.468 572.054 367.46 572.046 367.452C568.763 366.827 564.68 367.557 562.881 364.639C563.764 363.128 565.881 367.331 565.664 363.661C565.629 362.961 567.218 363.122 568.161 363.21C574.201 363.734 579.886 364.418 585.604 365.819C588.919 366.639 592.969 366.981 596.087 365.15L544.51 417.762C544.322 417.311 544.111 416.871 543.874 416.443ZM544.115 280.347C541.161 278.65 541.584 275.619 541.233 273.492C540.731 270.505 538.218 269.345 537.195 266.988C536.946 266.442 535.899 266.058 536.602 265.39C537.27 264.741 538.121 265.265 538.585 266.059C538.593 266.061 538.602 266.063 538.611 266.065C541.086 270.338 544.177 274.634 544.115 280.347ZM545.069 374.792C545.295 374.297 543.325 373.572 544.978 372.749C545.53 372.485 546.118 372.848 546.274 374.199C547.329 383.195 547.388 392.257 546.814 401.352C546.793 401.648 546.304 401.879 545.529 402.603C545.428 394.925 544.26 388.072 544.676 380.789C544.786 378.812 544.183 376.769 545.069 374.792ZM543.797 360.425C543.235 356.998 545.535 356.701 545.88 354.329C547.828 359.272 547.884 363.523 543.893 366.983C544.989 364.281 544.108 362.336 543.797 360.425ZM543.644 315.352C543.452 313.838 542.306 310.976 545.267 311.327C545.989 311.426 545.984 310.537 545.634 309.812C545.44 309.417 545.103 309.185 544.827 308.856C545.581 307.127 545.87 305.333 545.957 303.51C546.108 301.722 545.573 299.921 545.741 298.141C545.779 297.657 545.752 296.92 546.655 296.977C547.197 297.017 547.361 297.362 547.389 297.909C547.503 299.775 547.542 301.643 547.506 303.51C547.384 314.442 547.301 325.363 547.237 336.304C547.224 336.304 547.21 336.304 547.197 336.304C547.191 336.765 546.923 337.227 546.65 338.15C545.341 335.678 544.613 332.548 545.246 330.472C546.639 325.859 544.906 321.41 545.801 316.995C545.997 316.039 546.59 314.095 545.064 313.963C544.067 313.871 543.753 314.664 543.644 315.352ZM543.58 316.105C543.589 315.926 543.597 315.649 543.644 315.352C543.686 315.684 543.684 315.951 543.58 316.105Z" fill="var(--stroke-0, #C6EDD1)"/>
<path id="r" d="M218.509 346.455C213.263 347.829 207.772 348.44 202.081 348.718C207.413 347.569 212.931 346.934 218.509 346.455ZM218.509 346.455C218.597 346.432 218.687 346.409 218.774 346.386C218.774 346.386 218.699 346.427 218.658 346.431C218.659 346.435 218.659 346.438 218.66 346.442C218.61 346.446 218.559 346.451 218.509 346.455ZM218.74 346.422C218.785 346.428 218.833 346.433 218.878 346.439C218.807 346.447 218.735 346.455 218.664 346.463C218.689 346.449 218.714 346.436 218.74 346.422ZM99.188 558.206C98.0005 562.058 103.015 564.887 106.051 567.418C111.154 571.747 116.749 575.27 122.629 578.219C128.659 581.249 135.392 583.068 142.038 583.596C143.214 583.678 144.104 583.589 142.923 584.696C142.912 584.702 142.9 584.708 142.889 584.714C142.891 584.717 142.893 584.72 142.895 584.723C142.883 584.734 142.872 584.746 142.86 584.757C142.862 584.746 142.864 584.735 142.867 584.725C142.849 584.733 142.832 584.741 142.815 584.75C142.817 584.739 142.819 584.728 142.822 584.717C140.873 587.935 137.834 584.9 135.624 584.62C130.524 584.001 125.819 580.767 121.02 579.662C115.712 578.381 112.167 573.826 105.513 572.434C120.116 585.12 138.311 591.479 156.236 590.003C156.29 588.863 154.616 589.816 154.26 588.571C154.98 588.625 155.705 588.671 156.435 588.709C184.751 589.652 212.802 592.314 241.066 589.121C230.78 587.675 220.417 590.16 209.939 588.556C214.736 587.996 219.534 587.013 224.332 586.981C238.878 586.904 253.501 586.171 268.008 586.959C273.074 587.235 277.297 585.178 282.363 585.766C283.898 585.943 286.317 585.526 287.046 585.972C294.031 590.162 302.82 587.779 310.995 588.178C313.824 588.319 316.645 588.391 319.462 588.418C330.666 588.523 341.788 587.906 352.983 588.013C370.293 588.158 387.64 587.847 404.912 588.416C415.044 588.755 425.677 589.717 435.348 589.538C446.478 589.318 457.57 589.68 468.546 589.957C472.727 590.07 476.941 590.032 481.161 590.002C488.227 589.913 494.882 588.959 502.147 589.55C508.507 585.574 515.968 584.327 522.451 580.393C537.409 571.394 550.575 557.858 557.33 540.785C560.466 532.887 562.37 524.438 562.936 515.666C563.809 496.684 564.774 477.705 565.871 458.75L576.975 482.645C576.215 481.915 575.448 481.185 574.673 480.457C560.602 467.257 544.549 455.535 527.617 444.917C526.95 444.509 526.37 443.934 525.629 443.351C527.194 443.094 528.906 445.289 530.403 445.318C528.573 443.696 525.963 441.675 524.458 441.666C521.97 441.647 519.817 439.996 517.697 438.759C508.269 433.192 498.53 428.034 488.591 423.151C472.924 415.46 456.391 409.234 439.687 403.588C425.262 398.722 410.574 394.345 395.66 390.884C379.661 387.174 363.322 384.392 346.868 382.473C367.942 385.304 388.678 389.485 408.966 395.003C408.897 395.165 408.826 395.338 408.721 395.49C385.041 389.619 360.588 384.079 336.11 382.599C336.104 382.744 336.099 382.888 336.093 383.032C346.781 384.344 357.424 385.993 367.921 388.038C371.147 388.662 374.539 389.026 377.496 390.103C375.92 390.707 372.861 389.517 370.635 389.385C371.217 389.824 373.451 389.723 373.822 390.338C373.562 390.346 373.296 390.402 373.007 390.346C363.565 388.739 354.069 387.212 344.617 385.503C342.42 385.111 340.754 385.038 339.009 385.082C333.911 385.209 325.839 384.244 321.699 383.036C319.589 382.419 320.444 381.856 321.973 381.574C324.32 381.123 324.297 380.567 321.728 379.826C320.2 379.385 320.126 379.121 321.439 378.837C325.034 378.064 324.835 377.924 317.465 377.331C325.172 377.18 322.779 376.283 321.319 374.945C319.272 373.017 313.374 370.926 321.709 369.147C322.779 368.925 323.749 367.815 322.419 366.83C320.976 365.755 319.278 364.282 322.65 363.032C323.154 362.85 324.47 362.649 325.357 362.649C334.237 362.732 332.947 361.294 331.998 360.342C329.536 357.889 331.883 355.64 335.003 353.181C336.663 351.866 336.834 350.44 338.474 349.063C340.283 347.522 347.445 347.275 352.621 347.083C362.805 346.68 373.099 347.185 383.249 348.23C387.822 348.693 392.751 349.027 397.423 349.222C405.507 349.534 412.557 351.438 420.481 352.342C423.452 352.679 425.836 352.836 428.189 352.714C431.204 354.82 436.792 354.515 441.066 355.492C445.348 356.469 450.006 357.584 454.37 357.553C457.474 357.525 458.386 359.04 461.11 359.665C475.809 363.024 490.318 367.624 504.748 372.018C512.389 374.345 519.629 377.092 526.51 380.17C550.034 390.699 574.061 401.599 596.044 416.55C603.517 421.641 610.924 427.655 618.744 433.136L631.407 445.085L630.647 458.75C630.889 461.157 631.22 463.556 631.679 465.934C632.503 470.195 632.172 475.07 632.092 479.637C631.972 487.16 631.883 494.567 632.864 502.281C633.423 506.701 633.215 511.163 633.102 515.666C633.026 519.66 632.844 523.612 632.821 527.671C632.755 540.835 629.915 553.986 625.584 566.535C623.557 572.458 621.002 578.253 620.605 583.882C620.329 587.606 618.194 585.721 616.697 589.245C613.769 596.029 609.93 602.625 605.696 608.828C596.998 621.605 585.718 632.255 573.03 640.604C566.859 644.674 560.234 649.194 553.834 653.194C549.434 655.958 543.915 656.935 540.248 660.343C537.522 660.138 533.185 660.273 530.751 662.317C526.802 665.629 522.08 666.287 517.217 667.656C507.623 670.361 497.816 672.756 487.83 671.912C485.562 671.713 485.402 673.263 482.586 673.238C482.115 673.234 481.64 673.23 481.161 673.226C477.572 673.181 473.727 673.312 470.581 673.563C461.716 674.289 452.619 671.851 443.983 674.765C441.067 675.766 437.343 674.716 433.889 674.84C425.407 675.127 416.695 676.116 408.404 674.644C399.347 673.015 390.174 674.301 381.346 674.768C376.357 675.026 370.177 674.208 365.648 676.407C363.115 674.184 357.129 676.266 354.365 673.772C352.638 672.21 348.723 673.302 346.842 673.939C340.087 676.262 335.328 676.151 327.959 675.893C325.178 675.796 322.338 675.508 319.462 675.344C314.716 675.073 309.874 675.138 305.046 676.945C302.014 678.082 295.681 676.193 290.653 676.074C287.391 676.003 283.361 676.048 280.521 674.509C279.6 673.996 278.563 673.91 277.642 674.577C273.229 677.691 268.163 675.708 263.634 674.807C259.604 673.99 256.188 672.285 252.734 675.281C251.621 676.226 248.358 675.998 246.324 675.576C240.835 674.457 240.912 674.378 235.731 675.523C234.925 675.698 233.888 675.667 233.005 675.578C223.449 674.719 213.854 676.036 203.991 674.184C196.967 672.872 187.448 672.43 181.077 673.864C173.516 675.557 166.838 673.995 159.853 674.346C158.719 674.404 157.579 674.453 156.435 674.492C146.65 674.744 136.546 673.662 127.083 671.315C103.081 665.461 79.3267 656.007 61.0098 639.626C59.2264 638.033 57.0845 635.79 55.0795 635.75C53.8617 635.743 51.6667 633.645 51.1535 632.818C44.9026 622.8 35.2225 615.06 28.7251 605.24C11.1184 578.87 1.36275 546.983 2.33641 515.666C2.3455 515.418 2.35467 515.171 2.36391 514.923C2.86982 501.145 2.80861 487.443 3.54486 473.703C3.8554 467.922 4.06909 462.152 4.2542 456.389L5.32555 437.312L17.4642 428.423C25.5475 422.155 33.7935 416.27 42.306 410.902C52.0739 404.742 62.342 399.145 72.0892 393.253C75.6531 391.079 80.1299 387.419 84.3567 388.124C84.4082 388.099 94.4594 382.14 94.7231 382.061C95.7649 381.528 96.7669 380.957 97.8236 380.567C113.682 374.49 128.921 368.017 144.77 363.143C167.276 356.211 190.337 351.496 213.352 348.105C220.443 347.065 227.75 346.911 235.464 345.806C229.826 345.46 223.643 347.044 218.878 346.439C230.022 345.184 241.382 344.225 252.211 344.389C262.083 344.493 273.503 343.811 281.699 345.816C282.922 346.103 284.523 345.871 285.753 345.811C289.781 345.63 291.78 346.28 291.007 346.841C289.353 348.104 292.318 348.194 296.779 348.277C298.328 348.303 300.515 348.288 301.087 348.755C301.575 349.12 300.027 349.187 298.602 349.238C296.035 349.317 292.047 349.336 293.6 350.181C294.708 350.783 297.22 351.49 301.44 351.178C301.638 351.169 302.155 351.3 302.672 351.391C301.7 352.009 298.851 351.838 296.33 351.874C299.844 352.951 302.344 353.938 299.129 355.163C298.433 355.422 299.03 355.706 296.839 355.711C292.285 355.732 292.338 356.068 294.38 356.915C296.989 357.989 301.319 359.1 296.566 360.485C296.221 360.583 296.192 360.81 296.506 360.914C299.531 361.955 299.818 362.823 296.64 364.165C294.564 365.037 300.195 365.694 303.974 366.037C312.407 366.791 317.381 368.834 317.38 370.755C317.38 370.755 317.38 370.755 317.38 370.755C317.38 371.403 316.827 372.051 315.67 372.672C312.932 374.111 307.898 375.944 314.069 377.246C269.719 381.725 227.365 392.725 187.075 408.179C147.187 423.558 108.897 443.008 77.3846 469.049C82.5042 465.97 86.9622 461.634 92.2478 458.81C92.6805 458.581 93.1117 458.612 94.5263 458.311C86.8508 463.636 79.4546 469.233 72.4119 475.094C71.7497 475.644 70.9984 476.297 71.1613 475.374C71.6133 472.707 69.6428 475.71 69.6154 475.948C69.2507 478.398 66.8774 480.101 64.5983 481.602C63.8495 482.099 63.1633 482.641 62.5193 483.213L75.19 456.389C75.2857 459.311 75.7816 462.127 75.9727 465.028C77.0986 481.884 78.08 498.774 79.017 515.666C79.0637 516.236 79.1163 516.803 79.1748 517.367C79.6512 521.979 79.9965 526.69 81.9727 531.042C83.145 533.557 84.464 531.077 85.2567 533.157C86.2019 535.501 83.1126 534.691 84.1076 537.173C85.1604 539.726 85.7501 542.489 87.4404 545.03C87.7231 544.212 87.9412 543.588 88.4064 542.367C89.3418 549.68 94.1252 554.3 99.188 558.206ZM231.892 672.295C224.293 670.934 216.732 672.007 209.133 671.718C216.694 673.031 224.331 672.247 231.892 672.295ZM178.62 670.944C186.373 672.768 194.395 671.964 202.34 671.799C194.472 671.203 186.488 671.914 178.62 670.944ZM254.038 672.248C266.998 672.336 279.958 672.398 292.917 672.434C292.879 672.169 292.841 671.904 292.803 671.639C279.881 671.604 266.96 671.543 254.038 671.457C254.038 671.721 254.038 671.984 254.038 672.248ZM318.632 671.491C312.261 671.491 305.891 671.852 299.52 671.981C305.929 672.3 312.376 672.878 318.632 671.491ZM219.442 375.514C237.69 373.676 253.068 370.171 268.328 367.717C252.285 367.94 236.458 370.982 219.442 375.514ZM466.966 407.615C472.399 410.396 476.385 412.544 481.422 412.757C476.564 410.606 472.461 408.689 466.966 407.615ZM537.823 442.736C545.086 449.375 552.147 453.597 559.465 457.329C552.984 451.931 546.017 447.333 537.823 442.736ZM487.554 421.148C488.635 421.686 489.736 422.257 490.274 422.09C490.721 421.956 490.561 421.389 490.504 420.948C490.43 420.646 489.76 420.161 489.176 420.146C484.708 420.063 481.297 416.484 477.15 415.176C479.433 415.424 481.848 417.364 484.994 417.799C476.317 413.479 468.271 412.636 460.393 408.509C460.383 408.5 460.373 408.492 460.362 408.484C462.56 410.745 465.496 411.092 468.016 412.175C474.624 415.026 481.154 417.971 487.554 421.148ZM432.283 398.895C438.688 401.383 444.206 403.043 449.745 404.677C444.225 403.021 439.221 399.762 432.283 398.895ZM494.651 595.952C494.547 595.83 493.373 595.791 493.113 596.412C492.829 597.076 493.296 597.516 494.087 597.766C496.862 598.632 499.846 597.683 503.979 597.459C503.977 597.453 503.975 597.447 503.973 597.44C502.872 596.817 502.626 596.513 502.278 596.496C499.774 596.346 496.467 598.55 494.651 595.952ZM517.976 436.26C512.854 433.206 507.904 429.648 502.103 427.827C507.481 430.533 512.766 433.34 517.976 436.26ZM525.384 440.843C529.938 443.837 534.246 447.09 539.21 449.146C534.718 446.158 530.511 442.462 525.384 440.843ZM566.485 522.76C566.542 525.344 563.966 527.154 564.343 528.336C565.587 532.5 562.94 535.915 561.874 539.48C565.028 534.676 567.541 529.071 566.485 522.76ZM552.936 459.005C556.545 461.495 557.003 464.987 561.271 467.608C561.157 463.791 556.487 461.481 552.936 459.005ZM555.673 549.605C555.616 549.757 555.574 549.917 555.529 550.045C554.165 554.377 551.368 558.065 548.423 561.421C547.165 562.839 547.171 564.172 547.814 564.824C548.574 565.596 549.485 563.991 550.138 563.195C554.444 558.127 557.034 551.976 560.175 546.072C561.168 544.207 561.341 541.879 561.755 539.757C560.324 539.193 560.577 541.134 559.996 541.952C558.526 543.985 559.036 545.885 558.471 547.813C557.686 550.432 556.883 550.73 555.673 549.605ZM507.007 589.118C505.993 587.917 506.066 589.046 506.243 589.498C506.451 590.024 505.012 590.472 506.039 591.015C506.579 590.814 507.147 590.537 507.756 590.38C508.284 590.23 508.931 589.869 509.378 590.306C509.369 590.309 509.361 590.312 509.353 590.315C504.049 594.078 497.042 592.1 491.324 594.525C504.029 593.977 517.037 590.228 527.541 582.359C528.301 581.796 528.786 580.919 529.794 580.699C535.469 579.363 539.096 574.365 543.254 570.641C544.575 569.457 544.558 568.375 544.354 566.721C540.652 571.783 536.435 575.842 531.186 577.962C530.366 578.294 529.579 578.957 528.819 579.486C522.961 583.663 516.596 587.215 509.748 589.154C508.718 589.439 507.809 590.081 507.007 589.118ZM313.42 380.491C302.821 379.366 205.979 403.86 201.646 407.351C224.168 398.438 248.395 392.029 272.474 386.483C284.967 383.595 297.905 380.995 311.703 380.438C312.261 380.409 312.748 380.465 313.42 380.491ZM478.526 592.79C465.477 592.657 452.427 592.492 439.377 592.373C435.994 592.332 432.501 592.079 429.979 593.589C429.99 593.588 430.002 593.589 430.013 593.588C431.357 594.546 433.352 594.287 435.117 594.306C449.548 594.548 463.979 594.778 478.372 595.116C479.296 595.13 480.323 595.232 481.161 595.185C481.764 595.136 482.22 594.921 482.305 594.291C482.415 593.419 481.907 593.067 481.161 592.912C480.394 592.804 479.454 592.797 478.526 592.79ZM451.946 409.198C440.442 405.319 428.796 401.512 417.133 397.614C429.051 400.512 440.653 404.499 451.946 409.198ZM318.632 592.662C313.528 591.663 308.384 593.013 303.241 592.41C308.423 594.461 313.528 593.254 318.632 592.662ZM380.732 591.63C383.61 593.13 386.797 593.493 390.712 592.913C395.048 592.275 399.731 592.414 404.183 593.138C405.142 593.288 406.063 594.083 406.715 593.079C407.368 592.075 406.102 591.822 404.529 591.808C396.596 591.739 388.664 591.68 380.732 591.63ZM409.632 591.51C416.063 593.122 422.755 593.869 429.708 593.598C423.854 590.19 416.177 592.708 409.632 591.51ZM429.82 593.686C429.833 593.687 429.846 593.687 429.859 593.687C429.852 593.683 429.846 593.679 429.839 593.675C429.833 593.678 429.827 593.683 429.82 593.686ZM488.362 425.35C488.44 425.158 488.518 424.967 488.596 424.775C504.729 431.794 519.58 441.21 534.017 450.675C519.548 441.305 504.218 432.856 488.362 425.35ZM556.552 539.129C558.885 531.575 560.433 523.772 560.936 515.666C561.757 496.693 562.943 477.735 563.667 458.75L575.553 484.33C575.389 484.179 575.225 484.028 575.061 483.878C575.064 483.873 575.067 483.869 575.071 483.865C575.315 483.627 575.544 483.354 575.763 483.093C575.918 483.24 576.072 483.386 576.226 483.533L564.709 458.75C563.692 477.733 562.708 496.702 561.768 515.666C561.191 523.857 559.415 531.744 556.552 539.129ZM540.621 456.008C540.736 455.885 540.831 455.73 540.926 455.575C552.373 463.394 563.193 471.787 573.231 480.809C573.093 480.923 572.919 481.027 572.797 481.177C562.803 472.184 552.023 463.809 540.621 456.008ZM78.7892 531.376C77.3869 526.268 77.4594 521.041 75.9351 515.666C75.7657 514.805 75.5704 513.943 75.3451 513.081C75.3765 513.943 75.4078 514.804 75.4389 515.666C75.7171 521.093 76.5165 526.415 77.8164 531.571C78.1407 531.506 78.465 531.441 78.7892 531.376ZM409.411 398.546C407.763 398 408.387 399.213 406.937 398.509C399.801 395.044 391.757 394.492 384.169 392.752C380.053 391.815 378.58 391.211 377.575 390.126C386.519 391.907 395.53 393.585 404.042 396.53C405.713 397.119 406.758 396.915 408.244 397.355C410.562 398.05 410.31 398.34 409.411 398.546ZM377.514 390.075C377.515 390.071 377.515 390.068 377.516 390.065C377.522 390.072 377.531 390.08 377.538 390.087C377.534 390.089 377.531 390.09 377.527 390.092C377.523 390.086 377.519 390.08 377.514 390.075ZM377.538 390.087C377.542 390.085 377.546 390.084 377.551 390.082C377.55 390.088 377.549 390.094 377.548 390.099C377.545 390.095 377.542 390.091 377.538 390.087ZM377.496 390.103C377.506 390.099 377.517 390.096 377.527 390.092C377.533 390.101 377.539 390.111 377.546 390.121C377.529 390.115 377.512 390.109 377.496 390.103ZM377.548 390.099C377.557 390.108 377.566 390.117 377.575 390.126C377.565 390.125 377.555 390.122 377.546 390.121C377.547 390.114 377.547 390.106 377.548 390.099ZM247.091 588.241C245.902 588.19 243.829 588.227 243.867 589.158C243.905 590.089 245.633 589.833 247.053 589.801C254.614 589.682 262.175 589.673 269.736 589.633C262.597 587.516 254.729 588.545 247.091 588.241ZM438.776 408.367C429.51 405.225 420.06 402.813 410.76 399.522C410.217 399.326 409.897 398.9 409.49 398.573C412.779 398.749 416.258 399.552 420.109 400.813C426.016 402.756 431.957 404.686 437.84 406.816C439.007 407.236 440.494 407.711 440.397 408.336C440.346 408.66 439.668 408.675 438.776 408.367ZM129.917 435.502C126.585 438.654 116.661 444.528 110.022 447.364C116.786 442.336 123.703 439.479 129.917 435.502ZM104.868 571.157C103.721 568.216 102.281 566.476 99.3424 564.984C99.8578 568.198 102.096 569.65 104.868 571.157ZM84.1112 539.819C83.8565 539.031 83.5167 538.266 82.8752 538.385C82.0852 538.515 81.9752 539.826 82.5037 540.383C85.16 543.114 85.1754 547.341 88.6358 550.704C88.6316 550.696 88.6273 550.689 88.623 550.682C86.525 546.517 85.2182 543.18 84.1112 539.819ZM509.813 440.727C502.734 436.319 495.218 432.846 487.863 428.955C480.815 425.246 472.994 422.712 467.069 417.943C481.317 425.557 497.073 431.256 509.813 440.727ZM541.508 561.318C541.696 561.46 541.883 561.602 542.07 561.744C535.689 569.42 527.862 575.809 519.242 580.453C519.119 580.244 518.996 580.036 518.873 579.827C527.415 575.237 535.177 568.917 541.508 561.318ZM409.337 398.565C409.305 398.563 409.271 398.56 409.239 398.559C409.239 398.559 409.332 398.556 409.389 398.552C409.396 398.55 409.403 398.548 409.411 398.546C409.414 398.547 409.417 398.548 409.419 398.549C409.432 398.547 409.437 398.545 409.43 398.543C409.441 398.546 409.453 398.549 409.465 398.552C409.474 398.559 409.481 398.566 409.49 398.573C409.462 398.571 409.434 398.57 409.407 398.568C409.362 398.572 409.317 398.575 409.272 398.579C409.294 398.574 409.315 398.569 409.337 398.565ZM466.125 419.145C461.644 416.703 456.272 415.764 452.172 412.726C457.184 414.39 462.361 415.846 466.125 419.145ZM304.739 585.74C305.852 585.697 307.119 585.838 306.927 586.694C306.774 587.51 305.622 587.553 304.432 587.473C301.362 587.254 298.33 587.037 295.26 586.821C295.272 586.821 295.284 586.821 295.297 586.821C295.373 586.576 295.413 586.352 295.451 586.107C298.521 585.977 301.63 585.827 304.739 585.74ZM483.258 588.055C488.398 586.906 493.546 587.805 498.619 586.632C493.767 588.759 488.375 588.21 483.258 588.055ZM535.562 456.754C535.314 457.238 534.297 457.109 533.602 456.499C529.4 452.741 524.468 449.994 519.548 447.081C519.002 446.767 518.595 446.114 517.617 445.095C524.052 447.244 528.979 451.65 534.229 454.598C535.369 455.229 535.849 456.205 535.562 456.754ZM560.255 476.786C553.678 471.018 546.745 465.403 539.433 460.207C537.94 459.142 537.109 458.373 537.378 457.79C537.846 456.814 539.347 458.427 540.243 459.092C547.067 464.09 553.576 469.354 559.798 474.827C559.789 474.82 559.781 474.813 559.772 474.805C559.934 475.45 560.084 476.108 560.255 476.786ZM175.052 582.794C182.037 582.486 188.869 583.084 197.044 583.74C192.745 584.606 189.905 585.19 186.949 585.795C188.485 587.286 191.555 586.042 193.781 587.288C185.26 587.252 177.546 587.712 169.601 587.295C165.265 587.065 160.855 586.967 156.435 586.995C153.275 587.027 150.162 587.022 147.048 586.976C147.031 586.987 147.013 586.999 146.996 587.01C144.425 586.943 143.731 586.025 142.895 584.723C142.905 584.715 142.914 584.705 142.923 584.696C145.315 583.53 147.409 582.253 149.709 584.944C150.467 585.793 151.202 584.863 151.92 584.786C153.448 584.621 154.933 584.271 156.435 583.966C160.514 583.469 164.624 583.216 168.911 584.217C171.022 584.713 172.826 582.895 175.052 582.794ZM559.633 467.854C559.243 464.809 559.061 461.776 559.054 458.75L572.579 487.855C568.037 484.042 563.857 479.627 559.846 474.883C564.703 478.495 569.225 482.621 573.419 486.859L560.358 458.75C560.121 461.785 559.869 464.819 559.633 467.854ZM559.798 474.827C559.814 474.846 559.83 474.864 559.846 474.883C559.827 474.869 559.808 474.854 559.789 474.84C559.792 474.836 559.795 474.832 559.798 474.827ZM552.098 536.777C551.669 535.479 550.496 534.775 551.61 533.167C555.164 527.932 554.522 521.644 555.015 515.666C555.022 515.541 555.029 515.417 555.036 515.292C555.082 514.639 555.145 513.987 555.196 513.22C555.857 513.638 555.678 514.646 555.65 515.666C555.632 516.101 555.675 516.537 556.059 516.88C556.129 516.475 556.195 516.07 556.258 515.666C556.691 511.398 557.058 507.32 556.822 503.125C556.78 502.511 556.317 501.782 556.378 501.552C557.085 499.019 556.368 494.222 557.771 493.876C559.158 493.492 558.536 498.175 558.405 500.056C558.404 500.068 558.404 500.081 558.403 500.094C558.064 505.277 557.774 510.463 557.485 515.666C556.872 523.026 555.223 530.188 552.098 536.777ZM194.473 410.059C186.271 413.292 178.97 417.641 170.534 420.564C169.482 420.923 167.883 421.902 167.475 421.379C167.081 420.904 168.491 420.147 169.691 419.645C169.69 419.64 169.688 419.636 169.687 419.632C177.812 416.218 186.086 413.024 194.473 410.059ZM130.591 440.325C125.043 442.305 121.349 446.931 116.11 449.251C116.102 449.262 116.094 449.272 116.087 449.283C113.93 450.227 111.673 451.629 109.311 451.79C115.925 446.57 122.903 443.477 129.37 439.635C130.196 439.146 131.35 438.853 131.475 439.375C131.508 439.532 130.825 440.243 130.591 440.325ZM99.8669 458.332C96.4635 460.731 95.0405 465.674 89.9296 465.189C92.5634 461.851 96.4783 460.56 99.8669 458.332ZM86.7129 467.414C82.6059 472.09 78.2671 474.222 74.8532 477.341C77.8548 473.859 81.2996 470.711 86.7129 467.414ZM142.854 584.662C142.86 584.671 142.867 584.68 142.873 584.69C142.879 584.661 142.884 584.632 142.89 584.604C142.879 584.623 142.865 584.642 142.854 584.662ZM150.554 429.903C146.288 431.739 142.239 434.724 136.547 436.376C141.334 432.467 146.293 431.444 150.434 429.023C150.591 428.934 151.237 428.921 151.202 429.026C151.142 429.263 150.806 429.766 150.582 429.874C150.573 429.884 150.563 429.893 150.554 429.903ZM241.105 580.905C245.94 580.511 248.205 582.638 252.426 581.528C252.439 581.521 252.452 581.514 252.465 581.507C252.426 581.953 252.349 582.401 252.31 582.847C251.236 582.937 250.199 583.108 249.125 583.138C233.735 583.596 218.345 584.076 202.955 584.655C201.112 584.721 199.423 584.665 199.154 583.708C198.732 582.254 200.958 582.36 202.839 582.312C211.321 582.086 219.841 581.468 228.246 581.773C232.775 581.942 237.113 581.229 241.105 580.905ZM547.192 544.74C548.247 541.764 548.665 539.231 549.961 536.834C551.723 538.43 550.665 542.638 547.192 544.74ZM532.058 563.413C532.599 561.299 534.487 560.58 535.936 559.577C535.931 559.583 535.925 559.589 535.92 559.594C538.803 557.612 541.178 555.122 542.428 551.86C541.525 557.192 537.088 560.964 533.449 564.718C532.827 565.344 532.023 565.826 531.372 565.18C530.657 564.442 531.927 563.931 532.058 563.413ZM503.003 580.73C504.077 579.444 503.265 577.498 505.145 578.125C507.777 578.98 509.594 577.562 511.152 576.315C513.342 574.536 516.23 575.388 518.445 573.498C521.181 571.158 525.478 570.381 527.658 567.045C528.108 566.343 528.987 565.84 529.583 566.562C530.179 567.287 529.334 567.913 528.674 568.448C525.241 571.175 521.675 573.896 517.662 575.492C517.652 575.491 517.642 575.489 517.632 575.487C512.97 577.342 508.661 579.927 503.003 580.73ZM303.473 578.382C304.777 577.767 305.276 578.377 305.507 578.581C307.694 580.391 310.918 580.53 313.911 579.672C316.713 578.874 316.675 580.262 316.944 580.669C317.673 581.75 315.294 581.69 314.526 581.69C304.547 581.901 294.376 582.619 284.551 581.97C278.218 581.551 272.499 582.824 266.473 582.477C266.461 582.47 266.448 582.463 266.435 582.457C261.676 582.184 256.072 583.464 252.964 580.854C253.885 579.223 257.723 583.087 256.687 579.483C256.495 578.795 258.798 578.735 260.179 578.703C268.891 578.451 277.412 578.641 286.009 579.804C291.574 580.553 298.292 580.839 303.473 578.382ZM482.028 582.742C485.082 580.52 488.255 581.86 490.715 582.154C494.178 582.556 496.402 580.443 499.346 580.063C500.032 579.964 500.843 579.036 501.297 579.897C501.743 580.719 500.857 581.421 499.821 581.666C499.815 581.674 499.809 581.682 499.804 581.69C494.228 582.99 488.355 584.692 482.028 582.742ZM351.986 579.576C352.561 579.802 353.406 577.832 354.365 579.485C354.672 580.037 354.249 580.625 352.676 580.781C342.198 581.836 331.643 581.895 321.05 581.321C320.705 581.3 320.436 580.811 319.592 580.036C328.535 579.935 336.518 578.767 345 579.183C347.303 579.293 349.683 578.691 351.986 579.576ZM368.72 578.304C372.711 577.743 373.057 580.042 375.82 580.387C370.063 582.335 365.111 582.391 361.081 578.4C364.228 579.496 366.494 578.615 368.72 578.304ZM421.218 578.151C422.981 577.959 426.315 576.813 425.906 579.774C425.791 580.496 426.827 580.491 427.671 580.141C428.131 579.947 428.401 579.61 428.784 579.334C434.311 581.403 440.415 579.972 446.21 580.471C447.208 580.548 448.742 580.594 448.435 581.487C448.243 582.023 447.514 582.15 446.402 582.132C429.86 581.942 413.356 581.827 396.814 581.744C396.814 581.731 396.814 581.717 396.814 581.704C396.277 581.698 395.739 581.43 394.665 581.157C397.543 579.848 401.189 579.12 403.607 579.753C408.98 581.146 414.162 579.413 419.305 580.308C420.418 580.504 422.682 581.097 422.836 579.571C422.943 578.574 422.02 578.26 421.218 578.151ZM420.341 578.087C420.549 578.096 420.872 578.104 421.218 578.151C420.831 578.193 420.52 578.191 420.341 578.087Z" fill="var(--stroke-0, #C6EDD1)"/>
</g>
</svg>
