<svg preserveAspectRatio="none" width="100%" height="100%" overflow="visible" style="display: block;" viewBox="0 0 642.797 677.367" fill="none" xmlns="http://www.w3.org/2000/svg">
<g id="Group 43896">
<path id="l" d="M20.7516 252.564C19.4282 257.137 17.4679 261.56 15.2568 266.109C16.5334 261.459 18.4971 256.937 20.7516 252.564ZM20.7516 252.564C20.7739 252.487 20.7969 252.41 20.8188 252.333C20.8188 252.333 20.8179 252.409 20.8023 252.442C20.8057 252.443 20.8091 252.444 20.8125 252.446C20.7921 252.485 20.772 252.525 20.7516 252.564ZM20.8337 252.377C20.8605 252.347 20.8876 252.313 20.9143 252.283C20.887 252.339 20.8597 252.396 20.8325 252.453C20.8329 252.428 20.8333 252.402 20.8337 252.377ZM85.132 512.493C84.1878 513.324 83.6962 514.441 83.4798 515.724C82.9518 517.72 84.1408 520.259 84.5137 522.328C85.4159 527.24 86.8167 531.913 88.4432 536.521C90.11 541.248 92.7056 545.762 95.8652 549.655C96.4333 550.337 96.9715 550.769 95.4828 550.808C95.4721 550.805 95.4613 550.803 95.4506 550.8C95.4491 550.803 95.448 550.807 95.4465 550.81C95.4319 550.81 95.4169 550.811 95.4019 550.811C95.4114 550.806 95.4209 550.8 95.4304 550.795C95.4147 550.791 95.399 550.787 95.3833 550.783C95.393 550.777 95.4028 550.771 95.4125 550.766C91.8754 551.685 92.5747 548.212 91.5183 546.894C89.0933 543.864 88.6552 539.579 86.3375 536.601C83.8238 533.265 84.6522 528.927 80.7416 524.996C82.769 539.157 88.5205 551.997 97.8986 561.539C98.821 560.864 97.3022 560.489 98.1102 559.516C105.523 570.931 116.134 582.643 130.532 584.491C126.609 581.471 121.113 581.517 117.721 577.495C119.93 578.222 122.33 578.451 124.294 579.409C130.304 582.362 136.787 583.79 143.114 585.782C145.37 586.483 147.538 584.71 149.737 585.512C150.411 585.755 151.534 585.42 151.836 585.884C153.13 587.822 154.739 588.451 156.447 588.543C159.821 588.659 163.366 588.014 166.769 588.238C168.878 588.379 170.982 588.451 173.081 588.477C181.434 588.583 189.725 587.965 198.07 588.072C207.951 588.184 217.847 588.027 227.723 588.203L186.227 618.665C187.001 616.38 187.777 614.03 188.556 611.671C190.505 605.819 192.891 599.476 193.787 593.444C194.814 586.484 196.117 579.488 197.062 572.443C198.366 562.845 197.329 552.817 200.838 543.236C198.716 535.908 200.342 528.215 199.984 520.627C199.182 502.856 198.498 484.846 195.783 466.798C192.47 444.739 187.496 422.65 181.249 400.82C177.093 386.347 171.9 372.115 166.261 358.023C166.032 357.474 165.973 356.84 165.803 356.138C167.091 356.554 166.965 358.79 168.035 359.376C167.713 357.52 167.093 355.067 166.018 354.484C164.25 353.528 163.727 351.465 163.016 349.774C159.852 342.126 156.443 334.539 152.932 326.979C151.667 324.254 150.341 321.544 148.966 318.844C144.367 309.808 139.295 300.981 134.154 292.192C128.393 282.356 122.457 272.579 116 263.125C109.076 252.992 101.63 243.147 93.778 233.608C103.57 246.086 112.678 258.973 121.118 272.236C120.965 272.321 120.804 272.412 120.637 272.474C110.395 257.402 100.181 241.683 87.7293 228.336C87.6266 228.438 87.5239 228.539 87.4211 228.641C92.3967 234.947 97.2291 241.374 101.826 247.918C103.235 249.919 104.935 251.806 105.911 254C104.577 253.679 103.634 251.359 102.449 250.193C102.479 250.789 103.833 251.788 103.623 252.408C103.468 252.289 103.276 252.202 103.148 252.023C98.8251 246.343 94.5076 240.605 90.4304 234.678C89.4803 233.304 88.6076 232.421 87.6159 231.584C84.7015 229.127 80.965 224.356 79.5573 221.361C78.8403 219.837 79.6906 219.865 80.7138 220.442C82.2968 221.311 82.6674 220.898 81.7859 219.051C81.262 217.952 81.404 217.722 82.311 218.187C84.7969 219.459 84.7687 219.261 81.2061 215.067C85.4646 218.893 84.8033 217.022 84.9292 215.307C85.1493 212.865 83.4112 208.335 89.1381 211.307C89.8724 211.694 91.1634 211.383 91.1212 209.991C91.0782 208.475 91.173 206.539 93.8656 207.358C94.2641 207.483 95.1182 208.009 95.6027 208.462C100.395 213.037 100.692 211.326 100.825 210.161C101.168 207.141 104.003 206.703 107.417 206.496C109.24 206.382 110.317 205.437 112.178 205.268C114.236 205.063 118.379 208.472 121.418 210.887C127.415 215.64 132.916 220.989 138.088 226.595C140.404 229.095 143.076 231.695 145.675 234.008C150.222 238.026 153.12 242.66 157.273 246.91C158.837 248.507 160.181 249.706 161.692 250.674C162.081 253.538 165.72 255.839 167.691 258.425C169.68 261.036 171.81 263.864 174.575 265.754C176.551 267.1 176.085 268.555 177.388 270.183C182.955 277.12 188.103 284.437 193.34 291.636C194.709 293.517 196.083 295.386 197.474 297.234C201.011 301.936 204.138 306.793 206.845 311.614C216.152 328.183 226.513 344.533 234.444 362.053C237.898 369.679 240.671 378.159 245.558 385.586C247.493 388.52 248.456 392.274 249.556 395.786C251.365 401.533 253.072 407.19 255.779 412.832C258.377 418.244 258.816 424.414 261.055 430.161C264.005 437.72 265.762 445.614 267.503 453.535C268.33 457.276 269.011 461.065 271.683 463.821C273.451 465.628 270.651 465.694 271.397 467.93C272.826 472.212 273.883 476.738 274.872 481.199C276.917 490.367 277.642 499.663 277.625 508.958C277.618 513.534 278.242 518.353 279.033 522.969C279.575 526.123 278.276 529.456 280.133 532.312C278.947 533.847 277.601 536.426 278.795 538.232C280.714 541.121 280.046 544.031 280.236 547.14C280.614 553.234 281.479 559.412 279.882 565.489C279.52 566.886 281.049 567.103 280.88 568.836C280.59 572.064 280.442 575.676 280.453 578.613C280.509 586.121 277.163 593.443 278.899 601.196C279.505 603.812 277.939 606.807 277.52 609.764C276.495 616.954 275.818 624.644 272.549 631.343C270.509 635.467 269.245 639.98 268.152 644.396L258.246 674.491L227.723 674.074C224.858 674.282 222.013 674.629 219.214 674.828C215.495 675.086 210.888 674.267 207.512 676.467C205.623 674.243 201.161 676.325 199.101 673.831C197.813 672.27 194.894 673.362 193.492 673.999C188.457 676.321 184.909 676.21 179.415 675.953C177.342 675.855 175.225 675.568 173.081 675.404C169.543 675.133 165.933 675.197 162.335 677.005C160.997 677.678 158.797 677.291 156.447 676.838C154.195 676.526 151.872 676.132 149.776 675.997C146.443 675.797 142.262 675.52 139.548 673.677C138.664 673.067 137.632 672.862 136.616 673.407C131.736 675.943 126.762 673.089 122.457 671.22C118.572 669.532 115.731 667.027 111.499 668.913C110.138 669.507 106.965 668.288 105.12 667.207C100.158 664.291 100.304 664.254 94.9373 663.308C94.1074 663.151 93.1311 662.701 92.3347 662.254C83.7231 657.548 74.3643 653.884 67.063 646.653C61.8573 641.565 54.7488 635.265 49.0605 631.894C42.2479 627.885 38.6782 621.774 33.9053 616.542C28.2283 610.328 23.2577 603.032 19.5825 595.447C11.4993 578.902 3.90352 561.641 2.44598 543.295C2.30707 541.513 2.32668 539.167 0.910119 538.207C0.0423823 537.629 -0.11526 535.368 0.0678644 534.642C1.67641 528.328 0.898114 522.081 0.604127 515.724C0.483983 513.817 0.377713 511.921 0.465375 510.06C1.32542 492.264 1.47893 474.439 2.37623 456.642C2.88214 446.371 2.82093 436.157 3.55718 425.914C4.35552 414.784 4.52843 403.711 5.17755 392.639C5.6334 384.857 6.28769 376.902 5.94824 369.12C5.81503 366.259 4.72589 362.397 7.3058 360.05C7.34399 360.022 6.57251 351.981 6.58006 351.81C6.55883 351.009 6.48199 350.207 6.58747 349.435C7.9646 337.762 7.76858 326.289 8.45717 314.758C8.6786 310.958 8.93315 307.155 9.2076 303.349C10.1125 287.368 13.851 271.712 19.7572 257.218C22.1337 251.394 25.5785 246.004 28.687 239.984C25.4386 243.766 23.7116 249.052 20.9143 252.283C25.1729 243.384 30.3971 234.802 36.629 227.76C42.2423 221.287 48.6465 213.762 55.174 210.473C56.1322 209.975 56.966 208.9 57.7039 208.156C58.4014 207.456 59.0466 206.91 59.6048 206.507C60.795 205.699 61.5487 205.617 61.5259 206.17C61.4851 207.868 63.1664 206.556 65.6167 204.475C66.4687 203.749 67.6228 202.676 68.2485 202.735C68.7594 202.761 67.9844 203.564 67.2553 204.292C65.9337 205.6 63.7906 207.503 65.207 207.383C66.213 207.296 68.0724 206.606 70.1103 204.314C70.2092 204.21 70.5759 204.052 70.9133 203.863C70.8253 204.787 69.1851 206.061 67.8421 207.307C70.4834 206.388 72.5057 205.861 71.6172 208.331C71.4178 208.86 71.9395 208.774 70.7497 209.85C68.2826 212.077 68.5328 212.287 70.2312 211.922C72.3898 211.45 75.5314 210.1 73.8722 213.458C73.7492 213.699 73.8887 213.879 74.1327 213.8C76.5108 213.062 77.2731 213.541 76.434 216.101C75.8756 217.768 79.4665 215.451 81.7566 213.776C86.8734 210.034 90.9161 208.813 92.2806 210.177C92.2806 210.177 92.2807 210.177 92.2808 210.177C92.7388 210.635 92.9038 211.387 92.7227 212.441C92.2789 214.911 90.7989 218.893 95.0815 216.54C91.3546 221.315 87.6526 226.091 83.9655 230.868C69.1045 250.74 63.0525 274.707 64.5283 296.869C64.6666 299.045 64.8729 301.205 65.1459 303.349C68.2755 334.182 70.066 365.118 72.9413 395.958C73.3824 391.008 72.2297 386.001 72.6286 381.108C72.663 380.708 72.9189 380.421 73.404 379.305C73.9238 386.954 74.4258 394.603 74.91 402.252C74.9554 402.967 75.0231 403.797 74.3839 403.225C72.5237 401.594 73.74 404.398 73.9085 404.541C75.6384 406.029 75.5288 408.489 75.2657 410.778C74.9331 413.782 75.7287 416.558 75.985 419.447C77.167 432.637 78.1894 445.856 79.1689 459.075C79.549 464.225 79.3749 469.461 80.4369 474.754C81.0541 477.844 82.8806 475.384 83.1782 477.987C83.5134 480.962 80.7444 479.103 81.0201 482.164C81.3025 485.34 80.934 488.545 81.4938 492.007C82.0734 491.263 82.5161 490.691 83.397 489.546C81.5724 497.958 83.3956 504.968 85.132 512.493ZM92.6243 658.793C86.2183 654.441 79.0625 651.807 72.7577 647.456C78.4713 652.65 85.7091 655.657 92.6243 658.793ZM49.2584 628.073C53.6076 634.75 60.4438 639.334 67.0468 643.742C60.9429 638.751 54.2804 634.209 49.2584 628.073ZM113.616 666.367C126.168 670.026 139.197 672.056 152.193 672.436C152.161 672.17 152.131 671.905 152.1 671.639C139.208 671.253 126.284 669.235 113.832 665.606C113.76 665.86 113.688 666.113 113.616 666.367ZM172.462 671.551C167.713 671.55 162.964 671.911 158.215 672.041C162.993 672.36 167.799 672.937 172.462 671.551ZM46.4838 265.815C52.5887 253.56 57.1187 242.86 63.3322 233.012C55.0247 241.778 49.6865 253.063 46.4838 265.815ZM148.884 306.867C150.377 310.674 151.486 313.609 153.943 315.792C154.264 316.078 154.608 316.351 154.979 316.611C154.788 316.236 154.602 315.866 154.418 315.501C152.856 312.405 151.454 309.655 148.884 306.867ZM175.055 360.331C176.277 367.806 179.046 373.431 182.451 378.716C180.669 372.529 178.221 366.695 175.055 360.331ZM153.55 325.129C153.923 325.954 154.292 326.81 154.766 326.912C155.156 326.998 155.419 326.53 155.671 326.192C155.819 325.947 155.686 325.329 155.301 325.079C152.691 323.425 152.449 320.114 151.118 317.524C150.945 317.185 150.754 316.859 150.538 316.551C150.824 316.792 151.064 317.089 151.282 317.424C152.096 318.666 152.594 320.414 154.036 321.69C153.324 320.07 152.493 318.603 151.616 317.219C148.892 312.936 145.791 309.476 144.025 304.706C144.024 304.696 144.023 304.685 144.022 304.675C143.925 307.231 145.594 308.719 146.524 310.567C147.772 313.064 149.011 315.561 150.227 318.071C151.365 320.418 152.478 322.768 153.55 325.129ZM132.718 285.559C135.005 290.189 137.356 293.799 139.774 297.373C137.383 293.791 136.437 289.266 132.718 285.559ZM205.369 551.853C205.229 551.929 204.979 553.034 205.547 553.386C206.154 553.766 206.665 553.393 207.051 552.7C208.401 550.257 208.07 547.395 208.949 543.577C208.943 543.577 208.936 543.577 208.93 543.577C208.038 544.419 207.683 544.574 207.578 544.888C206.781 547.185 208.248 550.604 205.369 551.853ZM164.803 348.103C163.118 343.938 161.919 339.401 159.113 335.807C161.054 339.863 162.971 344 164.803 348.103ZM167.202 354.252C168.599 358.148 169.715 362.102 172.129 365.445C170.635 361.611 169.876 357.386 167.202 354.252ZM196.74 447.136C197.604 449.411 195.85 451.907 196.642 452.831C199.32 455.974 198.363 459.997 199.111 463.489C199.611 457.97 199.715 452.375 196.74 447.136ZM176.471 377.582C177.748 380.687 176.033 383.349 177.85 386.797C179.953 383.964 177.701 380.662 176.471 377.582ZM199.141 475.001C199.182 475.154 199.24 475.304 199.277 475.43C200.669 479.667 200.808 484.048 200.947 488.451C200.994 490.311 201.946 491.229 202.859 491.229C203.939 491.23 203.47 489.536 203.409 488.552C203.106 482.231 201.404 476.107 200.946 469.741C200.802 467.745 199.777 465.732 199.138 463.777C197.612 463.982 198.761 465.485 198.672 466.457C198.425 468.903 199.87 470.201 200.45 472.034C201.238 474.525 200.782 475.198 199.141 475.001ZM201.845 538.444C200.387 539.033 201.484 539.319 201.969 539.287C202.531 539.253 202.526 540.739 203.352 539.934C203.323 539.37 203.234 538.754 203.28 538.135C203.305 537.594 203.176 536.873 203.737 536.601C203.737 536.61 203.737 536.619 203.737 536.628C205.526 542.628 201.89 548.783 203.392 554.789C204.823 542.446 205.627 529.798 204.205 517.19C204.106 516.277 203.608 515.424 203.956 514.471C205.836 509.184 203.984 503.636 203.949 498.242C203.938 496.539 203.138 495.86 201.793 494.907C202.94 500.954 203.548 506.44 202.412 511.894C202.234 512.747 202.364 513.746 202.411 514.656C202.85 521.78 203.272 528.833 202.776 535.875C202.693 536.936 203.011 537.987 201.845 538.444ZM97.0087 219.195C95.9394 220.88 91.937 226.297 86.5836 233.486C71.8603 251.149 68.165 286.448 68.5855 288.508C67.9973 273.579 72.2349 257.883 79.4628 243.325C81.2581 239.704 83.2825 236.08 85.725 232.627C88.8974 228.348 92.2748 224.135 96.0278 220.076C96.3156 219.757 96.6222 219.537 97.0087 219.195ZM200.423 566.183C199.679 574.742 198.529 583.16 197.022 591.387C196.619 593.54 195.966 595.682 197.14 597.546C197.141 597.539 197.143 597.531 197.144 597.524C198.248 596.866 198.232 595.554 198.454 594.434C200.343 585.316 201.717 575.944 202.737 566.45C202.855 565.218 203.341 563.715 202.117 563.461C200.659 563.169 200.546 564.708 200.423 566.183ZM138.133 301.56C133.391 293.808 128.716 285.92 124.278 277.835C129.555 285.319 134.079 293.315 138.133 301.56ZM172.462 592.721C168.657 591.722 164.823 593.073 160.989 592.469C164.852 594.52 168.657 593.313 172.462 592.721ZM218.756 591.69C220.902 593.189 223.277 593.553 226.196 592.972C226.699 592.873 227.209 592.793 227.723 592.73L190.545 620.022C190.907 617.742 191.777 615.472 192.994 613.346C193.295 612.813 194.213 612.462 193.348 611.81C192.481 611.16 192.036 611.857 191.767 612.789C191.088 615.145 190.373 617.471 189.631 619.735L227.723 591.772C224.734 591.742 221.745 591.715 218.756 591.69ZM192.289 609.653C194.854 606.14 196.525 602.152 197.116 597.717C193.062 600.724 194.485 605.936 192.289 609.653ZM197.217 597.664C197.219 597.656 197.22 597.648 197.222 597.64C197.217 597.643 197.212 597.646 197.207 597.65C197.211 597.654 197.214 597.659 197.217 597.664ZM151.333 328.45C151.511 328.346 151.69 328.241 151.868 328.137C158.192 339.782 162.577 352.33 167.358 364.583C162.496 352.389 157.151 340.334 151.333 328.45ZM194.284 465.745C189.824 445.103 186.176 424.009 179.706 403.481C179.711 403.48 179.716 403.478 179.721 403.476C180.047 403.382 180.382 403.257 180.701 403.137C186.694 423.86 191.242 444.815 194.284 465.745ZM168.986 370.898C169.147 370.853 169.312 370.777 169.477 370.701C173.273 380.596 176.735 390.535 179.893 400.593C179.719 400.631 179.522 400.649 179.341 400.718C176.202 390.686 172.76 380.77 168.986 370.898ZM77.2507 474.411C76.8368 468.031 77.611 461.678 75.3574 455.269C75.6693 461.65 75.9697 468.031 76.2585 474.411C76.5892 474.411 76.92 474.411 77.2507 474.411ZM118.958 274.98C118.341 273.835 117.885 274.99 117.497 273.822C115.573 268.05 111.193 263.912 107.961 259.07C106.204 256.448 105.774 255.313 105.94 254.054C109.878 259.588 114.046 265.038 117.114 271.067C117.713 272.263 118.483 272.599 119.073 273.592C119.99 275.15 119.642 275.243 118.958 274.98ZM105.941 253.988C105.944 253.986 105.946 253.984 105.949 253.982C105.947 253.99 105.947 254 105.946 254.009C105.943 254.008 105.94 254.007 105.937 254.006C105.938 254 105.94 253.994 105.941 253.988ZM105.946 254.009C105.95 254.009 105.953 254.01 105.957 254.011C105.953 254.014 105.948 254.018 105.944 254.022C105.944 254.018 105.945 254.013 105.946 254.009ZM105.911 254C105.919 254.002 105.928 254.005 105.937 254.006C105.934 254.016 105.931 254.026 105.928 254.036C105.922 254.024 105.916 254.012 105.911 254ZM105.944 254.022C105.942 254.033 105.942 254.044 105.94 254.054C105.936 254.048 105.932 254.042 105.928 254.036C105.933 254.032 105.938 254.027 105.944 254.022ZM133.478 584.603C132.97 584.382 132.054 584.098 131.756 584.979C131.459 585.862 132.319 585.896 132.968 586.078C136.407 587.099 139.888 587.972 143.425 588.557C140.499 585.894 136.784 586.027 133.478 584.603ZM130.343 295.207C126.656 288.885 122.473 282.908 119.105 276.297C118.91 275.908 119.009 275.455 118.988 275.035C120.851 276.667 122.418 278.835 123.907 281.471C126.203 285.542 128.568 289.576 130.807 293.685C131.253 294.499 131.869 295.496 131.385 295.9C131.133 296.109 130.694 295.82 130.343 295.207ZM69.9643 345.286C71.4608 348.748 72.3695 358.076 71.6593 363.912C70.4506 357.16 70.9585 351.151 69.9643 345.286ZM81.1327 523.947C82.2677 521.705 82.3324 520.004 81.0313 517.761C79.3702 519.871 80.1094 521.777 81.1327 523.947ZM80.2282 485.055C80.2373 484.11 80.138 483.166 79.4898 483.08C78.6975 482.966 78.2033 484.311 78.525 485.083C80.1782 488.974 78.6234 493.352 80.1536 498.473C80.1532 498.464 80.1528 498.454 80.1524 498.444C80.1928 493.151 80.204 489.089 80.2282 485.055ZM156.182 348.081C154.002 342.113 151.072 336.621 148.629 330.813C147.331 327.732 145.632 324.77 144.277 321.719C143.213 319.323 142.364 316.879 142.056 314.281C142.942 316.651 143.932 318.979 144.978 321.289C148.982 330.172 153.872 338.709 156.182 348.081ZM195.925 493.22C196.157 493.186 196.39 493.153 196.622 493.119C197.645 503.307 198.293 513.452 198.543 523.545C198.301 523.56 198.06 523.574 197.818 523.589C197.576 513.517 196.937 503.391 195.925 493.22ZM118.901 274.959C118.883 274.943 118.864 274.925 118.846 274.91C118.846 274.91 118.904 274.951 118.941 274.974C118.947 274.976 118.952 274.978 118.958 274.98C118.959 274.982 118.96 274.984 118.961 274.986C118.97 274.99 118.975 274.991 118.972 274.986C118.977 274.994 118.982 275.001 118.987 275.009C118.987 275.018 118.987 275.026 118.988 275.035C118.972 275.021 118.956 275.007 118.941 274.994C118.911 274.976 118.882 274.958 118.852 274.94C118.869 274.947 118.885 274.953 118.901 274.959ZM140.635 314.736C139.324 311.084 136.479 308.114 135.9 304.174C137.989 307.529 140.365 310.777 140.635 314.736ZM162.106 585.799C162.935 585.756 163.88 585.897 163.737 586.754C163.622 587.57 162.764 587.612 161.877 587.533C160.058 587.359 158.258 587.186 156.447 587.014C156.154 586.969 155.861 586.923 155.568 586.875C155.574 586.876 155.58 586.876 155.586 586.876C155.624 586.631 155.645 586.407 155.665 586.163C155.925 586.141 156.186 586.118 156.447 586.093C158.323 585.983 160.214 585.87 162.106 585.799ZM195.978 562.01C195.288 556.588 197.027 551.363 197.114 545.981C198 551.39 196.579 556.733 195.978 562.01ZM164.766 369.535C164.285 369.791 163.61 369.314 163.471 368.614C162.655 364.293 160.781 360.455 159.081 356.455C158.885 356.015 159.002 355.384 158.943 354.268C162.202 358.348 163.012 363.339 165.102 367.486C165.555 368.367 165.314 369.248 164.766 369.535ZM171.79 393.125C169.885 386.556 167.884 379.971 165.55 373.479C165.077 372.151 164.927 371.282 165.482 370.964C166.425 370.437 166.564 372.166 166.832 372.978C168.918 379.138 170.782 385.299 172.548 391.529C172.545 391.521 172.542 391.512 172.539 391.504C172.299 392.032 172.042 392.566 171.79 393.125ZM109.009 563.22C111.368 565.133 113.156 567.526 115.631 570.215C113.602 569.769 112.248 569.408 110.839 569C110.402 570.594 112.275 570.531 112.306 572.134C109.245 569.684 106.289 567.568 104.076 564.593C101.505 561.121 98.7321 557.741 95.8454 554.466C95.8275 554.464 95.8096 554.461 95.7917 554.459C94.5299 552.991 94.8768 552.066 95.4465 550.81C95.4587 550.81 95.4709 550.808 95.4828 550.808C97.6602 551.384 99.7453 551.75 98.7698 554.693C98.4787 555.644 99.5669 555.484 99.9731 555.842C102.264 557.866 105.25 558.954 106.118 562.269C106.396 563.298 108.262 562.616 109.009 563.22ZM178.236 411.285C174.726 405.249 173.196 398.661 172.553 391.587C175.091 397.914 176.669 404.61 178.236 411.285ZM172.548 391.529C172.55 391.548 172.552 391.568 172.553 391.587C172.547 391.57 172.54 391.552 172.533 391.535C172.538 391.533 172.543 391.531 172.548 391.529ZM189.241 465.827C188.229 464.829 186.844 464.718 187.076 462.624C187.813 455.829 184.805 449.911 183.636 443.568C183.563 443.129 183.505 442.686 183.414 442.17C184.595 442.329 183.849 444.158 185.031 444.752C184.637 441.387 184.256 438.151 183.073 435.116C182.914 434.727 182.328 434.385 182.342 434.217C182.529 432.362 180.873 429.44 182.139 428.794C183.386 428.128 183.747 431.388 183.989 432.656C183.991 432.664 183.993 432.673 183.995 432.681C186.18 443.606 188.441 454.439 189.241 465.827ZM68.7056 293.188C68.9282 296.683 69.8066 300.033 70.5017 303.349C70.8713 305.736 71.1336 308.153 71.1496 310.638C71.1528 311.525 71.5545 312.984 70.9257 313.156C70.3478 313.328 70.0973 312.069 70.008 311.039C70.0038 311.039 69.9995 311.039 69.9952 311.039C69.7727 308.476 69.5481 305.913 69.3214 303.349C68.9272 299.999 68.7196 296.606 68.7056 293.188ZM74.6215 346.432C74.0618 351.181 76.5651 355.559 76.1875 360.251C76.1932 360.26 76.1988 360.27 76.2045 360.28C76.0393 362.196 76.2032 364.399 75.2032 366.145C73.82 359.335 74.2 353.183 73.4779 347.089C73.3881 346.316 73.6071 345.373 74.1331 345.459C74.2898 345.487 74.6469 346.231 74.6215 346.432ZM76.1855 375.557C76.5041 378.962 79.9533 382.196 76.7707 385.543C75.3985 382.224 76.3662 378.905 76.1855 375.557ZM76.8671 388.804C78.4831 393.811 77.6999 397.846 78.1707 401.737C77.1609 397.932 76.6088 394.069 76.8671 388.804ZM95.4729 550.749C95.4687 550.759 95.4652 550.768 95.461 550.777C95.4864 550.763 95.5117 550.748 95.5371 550.733C95.5158 550.739 95.494 550.744 95.4729 550.749ZM72.9901 328.263C73.1092 332.011 74.309 335.96 73.503 340.709C71.8782 335.903 72.8391 331.925 72.129 328.091C72.1041 327.947 72.3307 327.461 72.4159 327.519C72.6134 327.633 72.9566 328.034 72.9741 328.235C72.9794 328.244 72.9848 328.254 72.9901 328.263ZM133.447 576.809C135.45 577.134 135.706 579.455 137.743 578.907C137.75 578.902 137.757 578.897 137.764 578.892C137.622 579.315 137.464 579.735 137.322 580.158C136.854 580.114 136.379 580.147 135.927 580.034C129.463 578.456 123.16 575.905 117.212 572.484C116.501 572.072 115.924 571.582 116.394 570.74C117.106 569.459 117.814 570.11 118.506 570.53C121.636 572.429 125.064 573.697 128.137 575.494C129.801 576.472 131.78 576.527 133.447 576.809ZM189.399 475.86C188.532 472.574 187.508 469.925 187.411 466.963C189.736 467.605 190.987 471.92 189.399 475.86ZM191.191 502.125C189.889 500.163 190.578 498.034 190.821 496.145C190.822 496.153 190.823 496.162 190.823 496.17C191.316 492.419 191.283 488.731 190.083 485.151C192.897 490.214 192.458 496.237 193.083 501.892C193.173 502.834 193.056 503.824 192.144 503.931C191.12 504.026 191.507 502.599 191.191 502.125ZM192.63 539.705C191.737 538.149 189.631 538.273 190.841 536.504C192.522 534.033 191.876 531.645 191.353 529.473C190.598 526.386 192.625 523.912 192.011 520.806C191.245 516.845 192.858 512.468 191.412 508.389C191.1 507.527 191.219 506.41 192.156 506.382C193.094 506.355 193.092 507.492 193.146 508.411C193.369 513.154 193.835 517.948 193.407 522.603C193.401 522.611 193.395 522.62 193.388 522.629C192.897 528.105 193.588 533.513 192.63 539.705ZM161.162 578.441C162.134 577.827 162.506 578.437 162.678 578.64C164.309 580.451 166.712 580.59 168.943 579.731C171.032 578.934 171.004 580.321 171.204 580.729C171.748 581.809 169.974 581.749 169.402 581.75C165.106 581.871 160.762 582.162 156.447 582.261C154.597 582.334 152.782 582.229 151.024 581.814C148.384 581.179 145.782 582.096 143.301 581.253C143.297 581.245 143.293 581.238 143.289 581.23C141.368 580.579 138.678 581.203 138.148 578.324C138.949 576.865 139.482 581.009 139.994 577.415C140.098 576.731 141.01 576.909 141.557 577.007C145.036 577.583 148.332 578.285 151.8 579.7C153.215 580.271 154.863 580.62 156.447 580.167C158.109 579.897 159.716 579.361 161.162 578.441ZM190.58 562.872C188.605 559.345 190.374 555.933 191.089 553.325C192.089 549.614 190.531 546.756 190.948 543.394C191.034 542.62 190.374 541.435 191.33 541.232C192.247 541.024 192.66 542.183 192.62 543.364C192.626 543.372 192.632 543.381 192.638 543.389C192.393 549.76 193.029 556.206 190.58 562.872ZM197.327 579.636C197.756 579.862 198.385 577.891 199.101 579.545C199.329 580.096 199.014 580.685 197.841 580.841C190.03 581.896 182.162 581.954 174.265 581.381C174.008 581.36 173.808 580.87 173.178 580.096C179.845 579.994 185.796 578.827 192.119 579.243C193.836 579.352 195.61 578.75 197.327 579.636ZM209.801 578.364C212.777 577.802 213.034 580.101 215.094 580.446C210.803 582.395 207.111 582.45 204.107 578.459C206.453 579.555 208.142 578.674 209.801 578.364ZM180.927 599.708C180.967 598.647 180.25 596.468 183.1 597.303C183.792 597.519 183.916 596.896 183.672 596.332C183.536 596.024 183.237 595.8 183.011 595.522C185.685 592.675 184.926 588.707 185.942 585.292C186.11 584.697 186.291 583.764 187.148 584.08C187.661 584.274 187.723 584.742 187.602 585.421C185.898 595.512 183.662 605.273 180.809 614.504C180.796 614.501 180.783 614.497 180.77 614.493C180.675 614.791 180.329 615.014 179.885 615.526C179.124 613.556 179.008 611.336 179.996 610.131C182.169 607.497 181.247 604.03 182.784 601.286C183.122 600.686 183.993 599.48 182.519 599.068C181.559 598.796 181.135 599.268 180.927 599.708ZM180.752 600.2C180.788 600.082 180.837 599.898 180.927 599.708C180.919 599.94 180.877 600.119 180.752 600.2Z" fill="var(--stroke-0, #C6EDD1)"/>
<path id="t" d="M190.453 135.413C192.503 139.615 193.827 144.195 194.831 149.017C193.027 144.686 191.677 140.088 190.453 135.413ZM190.453 135.413C190.419 135.343 190.385 135.271 190.35 135.201C190.35 135.201 190.4 135.257 190.41 135.291C190.413 135.29 190.417 135.288 190.42 135.287C190.431 135.329 190.442 135.371 190.453 135.413ZM190.39 135.223C190.39 135.183 190.388 135.141 190.388 135.101C190.405 135.161 190.423 135.22 190.44 135.279C190.423 135.26 190.407 135.242 190.39 135.223ZM420.065 310.724C420.651 315.056 427.189 316.996 431.494 319.443C438.742 323.557 446.004 327.37 453.352 331.246C460.848 335.199 468.892 338.692 476.874 341.561C478.289 342.057 479.401 342.309 477.738 342.97C477.722 342.971 477.707 342.973 477.692 342.975C477.694 342.979 477.696 342.983 477.698 342.987C477.682 342.993 477.666 343.001 477.649 343.007C477.654 342.997 477.658 342.988 477.663 342.978C477.641 342.98 477.618 342.982 477.596 342.984C477.6 342.974 477.605 342.964 477.61 342.954C474.649 345.446 471.663 341.484 468.974 340.571C463.005 338.549 457.38 334.273 451.573 332.586C445.304 330.734 440.282 325.731 432.447 324.828C452.038 336.778 471.346 346.693 491.547 353.503C492.042 352.471 489.851 352.606 489.896 351.289C510.258 360.841 530.995 370.569 553.034 371.348C545.931 368.541 537.786 369.189 530.642 365.55C534.259 365.968 537.954 365.904 541.412 366.689C551.909 369.093 562.497 370.2 572.667 372.046C576.194 372.686 579.385 370.876 582.817 371.654C583.886 371.891 585.58 371.547 586.065 372.009C589.013 374.787 592.71 374.847 596.27 374.528L553.886 417.761C553.746 415.166 553.522 412.54 553.668 409.985C553.809 407.556 553.881 405.133 553.907 402.715C554.013 393.095 553.395 383.547 553.502 373.935C553.648 359.074 553.337 344.18 553.905 329.352C554.241 320.754 555.185 311.736 555.033 303.51C555.031 303.448 555.029 303.386 555.027 303.325C554.793 297.244 554.386 291.185 553.169 285.255C551.491 277.087 546.884 270.199 545.418 261.497C541.149 258.131 538.698 253.514 535.277 249.387C534.141 248.101 532.991 246.833 531.808 245.605C516.043 229.216 501.37 211.874 486.058 195.031C467.289 174.376 448.617 153.577 430.276 132.54C418.112 118.607 405.703 104.873 393.508 90.9713C393.023 90.4314 392.673 89.7563 392.182 89.0357C393.679 89.1691 394.574 91.6288 395.934 91.9934C394.745 90.0602 393.009 87.5572 391.655 87.1868C389.421 86.5782 387.985 84.4718 386.505 82.7822C385.058 81.1128 383.61 79.4446 382.162 77.7763C378.239 73.0684 373.839 68.7411 369.033 64.8186C359.329 56.8938 347.504 51.4073 334.987 48.1219C324.183 45.2816 312.693 44.1091 301.215 45.2037C288.913 46.3699 276.67 50.0487 265.445 56.0251C280.019 48.6805 296.041 45.1948 311.652 45.572C311.638 45.7457 311.625 45.9303 311.584 46.1036C293.651 46.1664 274.409 50.3316 259.049 61.2205C259.136 61.3361 259.222 61.4517 259.309 61.5674C266.366 57.3965 273.875 54.1391 281.545 51.9513C283.889 51.2775 286.255 50.3664 288.64 50.3138C287.845 51.4128 285.374 51.4219 283.884 52.1341C284.447 52.3104 285.843 51.4051 286.341 51.83C286.177 51.9308 286.03 52.0771 285.82 52.1308C279.076 54.0905 272.428 56.6298 265.82 59.5315C264.283 60.2129 263.264 60.9279 262.274 61.7841C259.368 64.2621 254.252 67.531 251.154 68.8621C249.574 69.5294 249.644 68.6758 250.298 67.6568C251.292 66.0907 250.915 65.681 248.959 66.5197C247.798 67.0251 247.569 66.8812 248.114 65.9597C249.629 63.4721 249.41 63.3927 244.82 67.0797C249.08 62.6838 247.143 63.3721 245.358 63.2108C242.863 62.9348 237.826 64.9608 241.588 58.7932C242.081 58.014 241.924 56.6367 240.427 56.6978C238.805 56.7608 236.699 56.7404 237.963 53.799C238.158 53.363 238.855 52.431 239.435 51.8971C245.262 46.7267 243.571 46.4471 242.289 46.257C239.039 45.8381 239.105 42.7659 239.777 38.9966C240.132 36.9904 239.357 35.7828 239.709 33.7254C240.078 31.4225 245.397 26.9765 249.432 23.9933C257.339 18.0337 266.363 13.3876 275.788 10.0488C279.997 8.54449 284.594 6.91657 288.921 5.43505C296.464 2.83736 303.696 2.50956 311.444 1.41179C314.367 1.00125 316.707 0.619059 318.95 2.38419e-07C322.293 1.40927 327.662 0.0714972 332.011 0.420592C336.377 0.753895 341.053 1.32788 345.411 0.952627C348.524 0.687998 349.51 2.14207 352.256 2.63558C367.081 5.31909 381.456 10.9633 394.949 17.9179C402.084 21.5857 408.595 26.0572 414.326 30.9859C416.961 33.2476 419.491 35.532 422.006 37.9322C435.077 50.2782 449.07 61.8096 462.117 74.1823C468.673 80.3948 475.146 87.576 483.186 92.6767C486.355 94.6806 489.081 97.8745 491.797 100.703C496.279 105.355 500.713 109.915 506.09 113.904C511.253 117.735 514.944 123.178 520.092 127.304C526.849 132.709 532.868 138.853 539.038 144.893C541.937 147.726 544.835 150.699 548.716 151.571C551.277 152.133 548.994 153.765 550.984 155.269C554.81 158.154 558.486 161.374 562.123 164.54C569.606 171.038 576.234 178.157 582.567 185.617C584.998 188.485 587.92 191.24 590.909 193.755C591.955 194.674 592.989 195.587 594.007 196.492C597.344 199.453 599.301 203.903 603.19 205.935C603.545 208.338 604.557 211.983 606.98 213.374C610.895 215.622 612.556 219.37 614.972 222.972C619.735 230.068 624.489 237.312 626.478 245.734C626.927 247.655 628.432 247.267 629.211 249.561C630.683 253.836 632.299 258.578 633.609 262.408C637.037 272.326 636.34 283.096 639.904 292.951C641.003 295.961 640.412 299.837 640.326 303.51C640.316 303.833 640.316 304.154 640.329 304.473C640.617 311.755 641.606 319.235 640.134 326.353C638.505 334.13 639.79 342.005 640.258 349.584C640.516 353.868 639.697 359.173 641.897 363.062C639.673 365.236 641.755 370.376 639.261 372.749C637.7 374.232 638.792 377.593 639.429 379.208C641.751 385.007 641.64 389.094 641.383 395.42C641.285 397.807 640.998 400.246 640.834 402.715C640.562 406.79 640.627 410.947 642.435 415.092C642.743 415.799 642.829 416.715 642.788 417.761L642.66 462.652L598.034 463.411C594.666 463.372 590.123 462.342 586.388 462.161C583.084 462.016 578.906 461.874 576.157 460.16C575.266 459.593 574.24 459.439 573.268 460.039C568.577 462.831 563.643 460.372 559.265 458.944C555.316 457.652 552.321 455.515 548.462 457.959C547.21 458.727 544.061 457.993 542.161 457.233C537.028 455.191 537.096 455.119 531.917 455.252C531.109 455.265 530.119 455.028 529.29 454.761C520.307 451.98 510.945 450.968 502.288 446.506C496.161 443.365 487.691 440.141 481.459 439.444C474.092 438.634 468.666 434.884 462.377 432.705C454.959 430.144 447.54 426.783 440.738 422.874C425.819 414.331 410.183 407.257 396.64 396.948C395.329 395.942 393.705 394.493 392.121 395.002C391.164 395.319 389.468 394.093 389.061 393.523C384.151 386.535 375.863 383.529 369.417 378.628C351.683 365.158 334.494 351.18 318.73 335.649C309.661 326.727 300.521 317.889 292.324 308.236C285.36 300.037 278.425 291.966 271.816 283.564C269.947 281.187 268.122 278.807 266.321 276.381C260.595 268.666 255.124 260.532 249.195 253.002C247.01 250.249 243.343 246.986 243.808 243.144C243.8 243.105 237.573 235.395 237.477 235.199C236.91 234.393 236.299 233.617 235.862 232.768C229.067 220.044 221.6 208.116 215.344 195.382C206.465 177.332 199.126 158.48 192.754 139.484C190.793 133.625 189.638 127.412 187.463 121.042C187.931 125.943 190.328 130.889 190.388 135.101C187.65 125.819 185.089 116.303 183.655 107.028C183.18 103.979 182.54 100.783 181.973 97.6126L178.751 80.78L188.094 73.2133C192.381 69.8637 196.699 66.6201 200.841 64.7664C201.802 64.3294 202.644 63.3059 203.376 62.5934C205.773 60.2833 207.434 59.6615 207.339 60.4986C207.166 62.3293 209.075 60.7898 211.869 58.3649C212.84 57.5193 214.163 56.2781 214.832 56.2942C215.38 56.2828 214.485 57.2057 213.646 58.0437C212.124 59.5516 209.674 61.7618 211.207 61.5246C212.296 61.3552 214.349 60.4713 216.715 57.8513C216.83 57.732 217.236 57.5336 217.613 57.3057C217.449 58.306 215.587 59.8006 214.048 61.2436C216.959 60.0542 219.175 59.3343 218.032 62.0589C217.777 62.6425 218.345 62.5113 216.983 63.759C214.16 66.3414 214.413 66.5484 216.268 66.0269C218.626 65.356 222.109 63.6648 220.069 67.4035C219.918 67.6722 220.055 67.8557 220.323 67.7515C222.938 66.7779 223.721 67.2353 222.624 70.0528C221.897 71.8886 225.936 69.1233 228.527 67.1474C234.316 62.7345 238.758 61.1135 240.122 62.4777C240.122 62.4778 240.123 62.4779 240.123 62.4779C240.581 62.936 240.701 63.7322 240.426 64.8801C239.762 67.5705 237.867 71.9674 242.653 69.1111C233.885 79.9794 225.226 90.8492 216.586 101.706L220.54 85.9434C230.193 108.058 241.684 129.076 254.293 149.381C273.767 180.638 295.508 210.384 321.038 236.224C317.973 231.847 313.697 228.36 310.778 223.942C310.541 223.58 310.553 223.179 310.206 221.932C315.092 227.522 320.094 232.998 325.206 238.355C325.774 238.951 326.343 239.544 326.913 240.136C327.447 240.691 328.08 241.322 327.195 241.273C324.639 241.152 327.531 242.653 327.76 242.656C330.115 242.736 331.759 244.785 333.189 246.785C335.089 249.419 337.686 251.093 339.969 253.18C350.431 262.731 361.194 271.896 372.288 280.544C376.596 283.904 380.706 287.695 385.673 290.454C388.575 292.062 387.743 289.002 390.05 290.518C392.687 292.241 389.419 293.154 392.106 294.971C394.884 296.844 397.326 299.236 400.564 301.014C400.296 300.078 400.087 299.359 399.676 297.925C405.542 304.78 412.612 307.674 420.065 310.724ZM528.91 451.323C521.989 448.443 514.683 447.734 507.728 445.496C514.369 448.71 521.745 449.735 528.91 451.323ZM480.245 435.912C486.549 440.116 494.112 441.766 501.448 443.771C494.399 441.057 486.941 439.349 480.245 435.912ZM550.193 455.152C562.773 457.109 575.632 458.327 588.763 458.567C588.728 458.301 588.694 458.036 588.659 457.77C575.607 457.527 562.822 456.315 550.309 454.37C550.27 454.631 550.232 454.892 550.193 455.152ZM636.981 403.428C636.98 408.205 637.256 412.983 637.412 417.761L637.299 457.366L597.928 458.036C597.114 458.075 596.299 458.107 595.482 458.132C596.299 458.164 597.115 458.196 597.931 458.223L637.486 457.55L637.599 417.761C637.904 412.945 638.193 408.124 636.981 403.428ZM218.592 128.501C214.617 114.166 209.372 102.411 204.873 90.6839L204.8 90.3026L205.011 90.1311C205.507 89.5561 206.002 88.9823 206.497 88.4099C205.91 88.8923 205.328 89.3789 204.75 89.8698L204.397 90.1554L204.519 90.7909C207.254 103.527 212.289 115.666 218.592 128.501ZM355.597 49.8119C359.511 52.3751 362.162 54.4297 366.091 54.7824C362.719 52.5915 359.786 50.7172 355.597 49.8119ZM403.461 91.1784C408.128 98.8607 413.662 104.092 419.685 108.646C414.805 102.622 409.567 97.1416 403.461 91.1784ZM368.803 62.9127C369.485 63.4659 370.163 64.0569 370.624 63.9366C371.006 63.8404 371.048 63.3092 371.131 62.8978C371.16 62.6145 370.781 62.1241 370.33 62.0739C366.932 61.7522 365.188 58.2824 362.248 56.99C363.968 57.2553 365.381 59.1299 367.712 59.6739C362.014 55.2442 355.94 54.5184 350.403 50.9567C350.396 50.9491 350.389 50.9416 350.382 50.934C351.824 53.0073 353.995 53.2115 355.769 54.192C360.383 56.7598 364.771 59.6433 368.803 62.9127ZM329.238 44.6061C334.22 46.0158 338.375 46.9614 342.535 48.0236C338.425 46.9447 334.533 44.3402 329.238 44.6061ZM553.196 265.627C553.107 265.754 553.363 266.733 554.014 266.742C554.711 266.755 555.004 266.22 555.039 265.484C555.158 262.909 553.535 260.744 552.391 257.342C552.385 257.346 552.38 257.349 552.374 257.353C552.042 258.485 551.813 258.791 551.877 259.088C552.31 261.247 555.179 263.259 553.196 265.627ZM387.606 80.5495C386.343 79.0739 385.143 77.5356 383.923 76.0158C382.203 73.7523 380.307 71.6254 377.858 70.165C379.896 72.1024 381.837 74.1201 383.702 76.236C385.003 77.6743 386.304 79.1121 387.606 80.5495ZM392.756 86.6448C395.917 90.5199 398.897 94.5303 402.905 97.4664C399.587 93.7472 396.873 89.378 392.756 86.6448ZM473.291 174.572C475.576 176.48 475.695 179.856 477.039 180.423C481.593 182.359 483.47 186.839 486.616 190.004C483.148 184.179 479.459 178.523 473.291 174.572ZM413.19 109.27C416.027 112.21 415.708 115.606 419.31 118.714C419.889 115.013 415.975 112.216 413.19 109.27ZM494.932 201.535C495.08 201.667 495.241 201.786 495.366 201.894C499.646 205.35 503.085 209.647 506.548 213.873C508.01 215.672 509.515 216.031 510.27 215.509C511.164 214.894 509.474 213.508 508.676 212.582C503.624 206.59 497.654 201.469 492.659 195.326C491.097 193.405 488.803 191.945 486.843 190.28C485.647 191.254 487.733 192.203 488.339 193.215C489.862 195.793 492.057 196.349 493.886 197.875C496.378 199.949 496.49 200.862 494.932 201.535ZM543.951 257.518C543.05 258.775 544.085 258.344 544.468 258.045C544.912 257.697 545.64 258.77 545.924 257.721C545.62 257.329 545.24 256.937 544.966 256.468C544.713 256.066 544.244 255.633 544.557 255.108C544.562 255.114 544.566 255.121 544.57 255.127C549.162 258.431 548.942 264.966 552.7 268.848C549.596 260.523 545.029 252.497 538.652 246.012C536.526 243.86 534.367 241.737 532.168 239.652C531.333 238.856 530.239 238.365 529.727 237.247C526.803 231.037 520.909 226.912 516.621 221.693C515.277 220.055 514.107 219.874 512.255 219.723C517.901 224.934 522.785 229.835 526.379 235.749C526.943 236.675 527.88 237.556 528.674 238.394C531.552 241.383 534.458 244.343 537.33 247.334C539.609 249.75 541.686 252.35 543.411 255.166C543.887 255.956 544.675 256.52 543.951 257.518ZM244.525 71.8213C242.467 74.86 231.553 88.8613 219.391 104.511L224.337 84.7946C235.001 108.995 250.778 134.464 251.766 137.006C241.134 120.701 232.067 102.875 223.575 85.0251L218.828 103.948C219.699 102.785 220.567 101.62 221.43 100.454C228.233 91.2267 235.06 81.7437 243.403 72.844C243.737 72.4788 244.083 72.2183 244.525 71.8213ZM554.312 279.092C556.547 286.205 557.703 293.619 557.822 301.029C557.831 301.862 557.787 302.703 557.85 303.51C557.932 305.105 558.221 306.601 559.078 307.83C559.078 307.82 559.078 307.81 559.078 307.801C560.017 306.67 559.786 305.002 559.795 303.51C559.795 303.489 559.795 303.469 559.796 303.448C560.032 295.039 558.9 286.581 556.548 278.442C556.23 277.385 556.129 275.97 554.914 276.253C553.472 276.601 553.921 277.86 554.312 279.092ZM343.98 52.2481C335.677 49.4935 326.983 47.5107 317.98 46.2259C327.011 46.475 335.892 48.6697 343.98 52.2481ZM558.151 403.428C557.152 407.81 558.503 412.226 557.899 416.641C559.95 412.193 558.743 407.81 558.151 403.428ZM557.119 350.112C558.619 347.64 558.983 344.904 558.402 341.543C557.764 337.82 557.903 333.8 558.628 329.978C558.777 329.154 559.573 328.364 558.569 327.803C557.565 327.243 557.311 328.33 557.297 329.681C557.228 336.491 557.169 343.301 557.119 350.112ZM557 325.299C558.611 319.778 559.358 314.033 559.087 308.063C555.679 313.089 558.198 319.68 557 325.299ZM559.176 307.966C559.176 307.955 559.176 307.944 559.176 307.933C559.172 307.939 559.168 307.945 559.164 307.95C559.168 307.956 559.172 307.961 559.176 307.966ZM368.22 66.8281C368.335 66.656 368.45 66.4839 368.565 66.3118C373.387 69.7857 377.63 74.0005 381.328 78.6104C386.753 85.0277 392.102 91.521 397.686 97.8195C392.085 91.5656 386.493 85.3013 380.912 79.0266C377.097 74.577 372.854 70.4872 368.22 66.8281ZM483.988 194.724C465.199 175.952 448.242 155.488 430.292 135.925C430.296 135.921 430.299 135.918 430.303 135.914C430.566 135.697 430.819 135.445 431.059 135.204C448.645 155.133 466.269 174.976 483.988 194.724ZM402.382 104.233C402.521 104.14 402.65 104.011 402.778 103.883C411.438 113.538 420.122 123.168 428.832 132.773C428.684 132.874 428.502 132.962 428.366 133.099C419.679 123.502 411.018 113.88 402.382 104.233ZM383.353 292.668C377.871 288.627 373.305 283.609 366.715 280.637C371.981 285.03 377.312 289.29 382.717 293.43C382.929 293.176 383.141 292.922 383.353 292.668ZM312.705 48.897C311.453 48.7658 312.139 49.7887 310.996 49.4644C305.297 47.8843 299.608 49.6674 294.024 50.5088C290.971 50.9823 289.795 50.952 288.701 50.3076C295.248 48.8177 301.973 47.6553 308.55 48.2884C309.845 48.424 310.522 47.965 311.648 48.0253C313.406 48.1349 313.284 48.483 312.705 48.897ZM288.64 50.2814C288.639 50.2782 288.638 50.2751 288.637 50.272C288.645 50.2764 288.654 50.2803 288.661 50.2847C288.659 50.2873 288.657 50.2899 288.656 50.2924C288.651 50.2887 288.646 50.2851 288.64 50.2814ZM288.661 50.2847C288.663 50.2816 288.665 50.2785 288.667 50.2753C288.669 50.2809 288.671 50.2865 288.673 50.2922C288.669 50.2898 288.665 50.2872 288.661 50.2847ZM288.64 50.3138C288.645 50.3068 288.651 50.2996 288.656 50.2924C288.664 50.2991 288.672 50.3058 288.68 50.3125C288.666 50.3129 288.653 50.3134 288.64 50.3138ZM288.673 50.2922C288.682 50.2975 288.692 50.3024 288.701 50.3076C288.694 50.3092 288.687 50.3109 288.68 50.3125C288.677 50.3057 288.675 50.2989 288.673 50.2922ZM557.546 371.262C556.702 371.068 555.201 370.838 555.063 371.758C554.925 372.68 556.227 372.653 557.256 372.795C562.744 373.608 568.217 374.341 573.624 374.829C568.751 372.229 563.005 372.501 557.546 371.262ZM334.41 52.9463C327.748 51.1462 320.87 50.5341 313.831 49.5233C313.418 49.461 313.112 49.1231 312.764 48.9037C315.075 48.2855 317.687 48.2806 320.578 48.728C325.036 49.4238 329.441 50.2967 333.711 51.5531C334.56 51.7992 335.64 52.0688 335.573 52.6959C335.537 53.0211 335.051 53.1256 334.41 52.9463ZM286.188 193.949C289.473 196.298 295.827 204.115 298.93 209.638C293.708 204.396 290.484 198.729 286.188 193.949ZM431.365 323.543C429.223 320.564 426.972 318.88 423.217 317.859C425.03 321.138 427.844 322.237 431.365 323.543ZM393.993 297.492C393.219 296.867 392.379 296.321 391.903 296.77C391.312 297.313 392.117 298.59 392.958 298.845C397.215 300.112 399.932 304.185 405.199 306.192C405.19 306.186 405.182 306.18 405.173 306.174C400.711 302.805 397.324 300.163 393.993 297.492ZM378.73 82.4482C378.547 82.2178 378.364 81.9883 378.179 81.7595C374.896 77.3602 370.805 73.7879 366.767 70.1004C362.712 66.4228 357.646 64.0898 354.139 59.7644C363.043 66.3212 372.739 72.3016 378.235 81.7032C378.402 81.9508 378.567 82.199 378.73 82.4482ZM506.077 221.427C506.243 221.261 506.409 221.095 506.575 220.929C515.429 230.42 524.311 239.883 533.219 249.32C533.047 249.492 532.876 249.663 532.705 249.834C523.802 240.392 514.926 230.923 506.077 221.427ZM312.657 48.9327C312.635 48.9388 312.61 48.9439 312.588 48.9502C312.588 48.9502 312.652 48.9259 312.69 48.9079C312.695 48.9043 312.7 48.9005 312.705 48.897C312.707 48.8972 312.709 48.8974 312.711 48.8976C312.719 48.8928 312.722 48.8893 312.717 48.889C312.726 48.8893 312.734 48.8896 312.743 48.8899C312.751 48.8944 312.757 48.8992 312.764 48.9037C312.745 48.9089 312.725 48.9141 312.706 48.9194C312.676 48.9336 312.646 48.9478 312.616 48.962C312.63 48.9522 312.643 48.9423 312.657 48.9327ZM353.247 60.9511C350.377 58.7868 346.626 58.2492 343.908 55.6732C347.397 56.8281 351.052 57.941 353.247 60.9511ZM551.229 415.355C551.186 414.4 551.327 413.312 552.184 413.477C553 413.609 553.042 414.598 552.963 415.619C552.903 416.335 552.844 417.048 552.785 417.761L596.248 373.426C594.746 373.297 593.236 373.149 591.698 372.982C591.707 372.982 591.715 372.982 591.724 372.982C591.778 372.738 591.806 372.514 591.834 372.269C593.306 372.186 594.771 372.075 596.219 371.964L551.322 417.761C551.287 416.959 551.255 416.157 551.229 415.355ZM548.772 277.58C546.261 273.832 545.785 269.291 543.5 265.428C546.624 268.79 547.494 273.413 548.772 277.58ZM397.452 103.898C397.091 104.306 396.172 103.966 395.69 103.236C392.772 98.7448 389.026 94.9882 385.46 91.0041C385.059 90.5674 384.892 89.8486 384.33 88.6401C389.489 92.3352 392.685 97.6197 396.794 101.573C397.678 102.413 397.866 103.437 397.452 103.898ZM416.745 127.478C411.258 120.988 405.797 114.425 400.203 107.995C399.057 106.673 398.476 105.763 398.88 105.266C399.571 104.434 400.566 106.282 401.245 107.094C406.406 113.211 411.494 119.353 416.618 125.506C416.611 125.498 416.604 125.49 416.596 125.482C416.647 126.13 416.686 126.792 416.745 127.478ZM507.552 352.044C512.545 353.552 517.166 355.781 522.766 358.216C519.425 358.08 517.273 357.983 514.963 357.843C515.585 359.629 518.163 359.172 519.362 360.862C513.298 358.881 507.625 357.362 502.11 354.808C495.722 351.839 488.891 349.101 482.116 346.753C482.092 346.757 482.068 346.761 482.045 346.766C479.05 345.706 478.454 344.586 477.698 342.987C477.712 342.982 477.724 342.975 477.738 342.97C480.843 342.671 483.859 342.316 485.809 345.871C486.457 347.006 487.612 346.439 488.491 346.687C493.374 348.06 498.48 348.388 502.727 351.748C504.021 352.776 505.96 351.564 507.552 352.044ZM433.407 144.787C426.466 139.644 421.153 133.013 416.655 125.567C422.616 131.597 427.958 138.246 433.407 144.787ZM416.618 125.506C416.631 125.527 416.643 125.547 416.655 125.567C416.639 125.551 416.623 125.534 416.607 125.518C416.611 125.514 416.615 125.51 416.618 125.506ZM479.606 197.336C477.987 196.812 476.672 197.38 475.365 195.099C471.158 187.749 464.338 183.011 458.956 176.836C458.593 176.408 458.241 175.967 457.811 175.465C459.004 175.111 459.549 177.362 461.038 177.457C458.389 174.096 455.937 170.908 452.833 168.187C452.43 167.844 451.66 167.729 451.564 167.546C450.526 165.508 447.106 163.103 447.889 161.9C448.637 160.687 451.04 163.97 452.089 165.204C452.096 165.212 452.103 165.22 452.111 165.229C461.19 175.814 470.657 186.061 479.606 197.336ZM255.251 142.609C259.347 148.986 264.37 154.396 268.08 161.151C268.539 161.996 269.644 163.18 269.182 163.644C268.763 164.084 267.893 163.017 267.282 162.076C267.279 162.078 267.275 162.08 267.271 162.082C263.121 155.696 259.112 149.203 255.251 142.609ZM290.762 192.438C293.093 197.021 297.791 199.492 300.357 203.813C300.368 203.819 300.378 203.824 300.389 203.829C301.428 205.601 302.925 207.421 303.211 209.525C297.816 204.407 294.388 198.728 290.192 193.655C289.661 193.01 289.292 192.041 289.783 191.831C289.931 191.772 290.666 192.245 290.762 192.438ZM309.983 217.048C312.44 219.774 317.263 220.371 316.974 225.135C313.698 223.207 312.282 219.794 309.983 217.048ZM319.223 227.801C323.132 230.475 325.27 233.6 327.698 236.245C328.13 236.715 328.571 237.168 329.033 237.598C328.506 237.222 327.987 236.835 327.474 236.434C324.67 234.247 322.031 231.639 319.223 227.801ZM477.661 342.911C477.666 342.922 477.673 342.934 477.678 342.946C477.691 342.919 477.703 342.893 477.716 342.866C477.698 342.882 477.678 342.895 477.661 342.911ZM279.049 176.755C281.214 180.157 284.443 183.147 286.494 187.881C282.35 184.386 280.929 180.21 278.214 177.035C278.114 176.916 278.041 176.35 278.146 176.359C278.379 176.365 278.894 176.561 279.019 176.736C279.029 176.742 279.039 176.748 279.049 176.755ZM554.581 363.278C558.055 363.523 559.248 365.879 562.398 365.247C562.408 365.241 562.418 365.236 562.428 365.23C562.334 365.667 562.211 366.101 562.116 366.538C561.343 366.51 560.58 366.562 559.827 366.468C548.914 365.145 537.824 363.048 526.701 360.365C525.376 360.043 524.187 359.622 524.277 358.648C524.404 357.166 525.947 357.75 527.284 358.094C533.344 359.652 539.535 360.63 545.358 362.255C548.548 363.149 551.72 363.07 554.581 363.278ZM487.167 207.53C483.929 204.617 481.082 202.43 478.824 199.423C481.358 198.94 485.554 202.666 487.167 207.53ZM509.354 233.014C506.676 231.824 505.516 229.303 504.193 227.271C504.2 227.279 504.208 227.287 504.215 227.295C501.571 223.229 498.682 219.594 494.863 216.608C501.17 220.181 505.578 226.445 510.702 231.666C511.546 232.546 512.268 233.597 511.619 234.246C510.868 234.95 510.001 233.299 509.354 233.014ZM537.003 263.67C535.576 263.176 533.935 264.5 534.127 262.689C534.374 260.156 532.707 259.044 531.265 258.085C530.227 257.4 529.795 256.375 529.338 255.326C528.368 253.77 527.412 252.199 525.825 250.888C521.779 247.526 519.295 242.227 514.738 239.095C513.766 238.435 512.936 237.263 513.667 236.671C514.398 236.08 515.333 237.195 516.142 238.064C520.281 242.593 524.724 246.957 528.471 251.737C528.474 251.75 528.478 251.762 528.481 251.775C529.127 252.596 529.793 253.398 530.475 254.189C532.728 257.082 535.332 259.79 537.003 263.67ZM543.871 416.442C543.257 415.323 543.867 414.894 544.07 414.696C545.881 412.818 546.02 410.051 545.161 407.48C544.364 405.075 545.751 405.107 546.159 404.877C547.239 404.251 547.179 406.294 547.18 406.953C547.268 410.538 547.445 414.152 547.573 417.761L596.145 368.216C592.333 368.471 588.378 368.497 584.52 367.939C580.257 367.32 576.193 368.269 572.066 367.474C572.058 367.467 572.05 367.459 572.041 367.451C568.758 366.826 564.676 367.556 562.877 364.638C563.76 363.127 565.876 367.33 565.66 363.66C565.625 362.96 567.214 363.121 568.157 363.209C574.196 363.733 579.882 364.417 585.6 365.818C588.915 366.638 592.965 366.98 596.084 365.149L544.506 417.761C544.318 417.31 544.107 416.87 543.871 416.442ZM544.112 280.347C541.157 278.65 541.58 275.619 541.23 273.492C540.728 270.505 538.214 269.345 537.191 266.988C536.943 266.442 535.896 266.058 536.598 265.39C537.266 264.741 538.117 265.265 538.581 266.059C538.59 266.061 538.599 266.063 538.607 266.065C541.082 270.338 544.173 274.635 544.112 280.347ZM545.066 374.792C545.291 374.297 543.321 373.572 544.975 372.749C545.526 372.485 546.115 372.848 546.271 374.199C547.326 383.195 547.384 392.257 546.811 401.352C546.79 401.648 546.3 401.879 545.526 402.603C545.424 394.925 544.256 388.072 544.672 380.789C544.782 378.812 544.18 376.769 545.066 374.792ZM543.794 360.425C543.232 356.998 545.531 356.701 545.876 354.329C547.825 359.272 547.88 363.523 543.889 366.983C544.985 364.281 544.104 362.336 543.794 360.425ZM543.641 315.352C543.448 313.838 542.303 310.976 545.264 311.327C545.986 311.426 545.98 310.537 545.631 309.812C545.437 309.416 545.099 309.185 544.824 308.856C545.578 307.127 545.866 305.333 545.953 303.51C546.105 301.722 545.569 299.921 545.738 298.141C545.776 297.657 545.749 296.92 546.652 296.977C547.194 297.017 547.357 297.362 547.386 297.909C547.499 299.775 547.538 301.643 547.502 303.51C547.381 314.442 547.298 325.363 547.234 336.304C547.22 336.304 547.207 336.304 547.193 336.304C547.188 336.765 546.92 337.227 546.646 338.15C545.337 335.678 544.609 332.548 545.243 330.472C546.636 325.859 544.902 321.41 545.797 316.995C545.993 316.039 546.587 314.095 545.06 313.963C544.064 313.871 543.749 314.664 543.641 315.352ZM543.576 316.105C543.585 315.926 543.594 315.649 543.641 315.352C543.683 315.684 543.68 315.951 543.576 316.105Z" fill="var(--stroke-0, #C6EDD1)"/>
<path id="r" d="M218.506 346.452C213.261 347.826 207.769 348.437 202.079 348.715C207.41 347.566 212.929 346.931 218.506 346.452ZM218.506 346.452C218.594 346.429 218.684 346.406 218.772 346.383C218.772 346.383 218.696 346.424 218.655 346.428C218.656 346.432 218.657 346.435 218.658 346.439C218.607 346.443 218.557 346.448 218.506 346.452ZM218.737 346.419C218.782 346.425 218.83 346.43 218.876 346.436C218.804 346.444 218.733 346.452 218.662 346.46C218.687 346.446 218.712 346.433 218.737 346.419ZM99.1867 558.205C97.9992 562.058 103.013 564.886 106.049 567.418C111.153 571.747 116.748 575.27 122.627 578.219C128.658 581.249 135.391 583.068 142.037 583.596C143.213 583.678 144.103 583.589 142.922 584.696C142.91 584.702 142.899 584.708 142.887 584.713C142.889 584.717 142.892 584.72 142.894 584.723C142.882 584.734 142.871 584.746 142.859 584.757C142.861 584.746 142.863 584.735 142.865 584.724C142.848 584.733 142.831 584.741 142.814 584.75C142.816 584.739 142.818 584.728 142.82 584.716C140.872 587.935 137.832 584.9 135.622 584.62C130.523 584 125.817 580.766 121.019 579.662C115.71 578.381 112.165 573.826 105.512 572.433C120.115 585.12 138.31 591.478 156.234 590.003C156.288 588.862 154.614 589.815 154.258 588.571C154.979 588.625 155.704 588.671 156.434 588.709C184.749 589.651 212.801 592.314 241.065 589.121C230.779 587.674 220.415 590.16 209.937 588.556C214.735 587.995 219.533 587.013 224.33 586.981C238.877 586.904 253.499 586.171 268.007 586.959C273.073 587.235 277.295 585.178 282.362 585.766C283.897 585.943 286.316 585.526 287.045 585.972C294.03 590.162 302.819 587.778 310.993 588.178C313.823 588.319 316.644 588.391 319.461 588.418C330.665 588.523 341.787 587.906 352.982 588.013C370.292 588.158 387.64 587.847 404.911 588.416C415.043 588.755 425.676 589.717 435.348 589.538C446.477 589.318 457.569 589.68 468.545 589.957C472.726 590.069 476.939 590.032 481.158 590.001C488.225 589.913 494.88 588.959 502.145 589.55C508.506 585.573 515.967 584.326 522.45 580.392C537.407 571.393 550.573 557.856 557.328 540.783C560.464 532.886 562.368 524.436 562.934 515.665C563.807 496.683 564.772 477.702 565.869 458.747L576.973 482.642C576.213 481.912 575.446 481.182 574.671 480.454C560.601 467.255 544.547 455.532 527.616 444.914C526.948 444.506 526.369 443.931 525.627 443.348C527.192 443.091 528.904 445.286 530.401 445.315C528.572 443.693 525.962 441.672 524.456 441.663C521.969 441.644 519.815 439.993 517.695 438.756C508.267 433.189 498.528 428.032 488.589 423.148C472.922 415.457 456.389 409.231 439.685 403.585C425.26 398.719 410.572 394.342 395.658 390.881C379.659 387.17 363.32 384.389 346.866 382.47C367.939 385.301 388.676 389.482 408.964 395C408.895 395.162 408.824 395.335 408.719 395.487C385.039 389.616 360.586 384.076 336.108 382.596C336.102 382.74 336.097 382.885 336.091 383.029C346.779 384.341 357.422 385.99 367.918 388.035C371.145 388.659 374.537 389.023 377.494 390.1C375.918 390.704 372.859 389.514 370.633 389.382C371.215 389.821 373.449 389.72 373.82 390.335C373.56 390.343 373.294 390.399 373.005 390.343C363.563 388.736 354.067 387.209 344.614 385.5C342.418 385.108 340.752 385.035 339.007 385.079C333.909 385.205 325.837 384.241 321.697 383.033C319.586 382.416 320.442 381.852 321.971 381.57C324.318 381.12 324.295 380.564 321.726 379.823C320.198 379.382 320.124 379.118 321.437 378.834C325.032 378.061 324.833 377.921 317.463 377.328C325.17 377.177 322.777 376.28 321.317 374.942C319.27 373.014 313.372 370.922 321.707 369.144C322.777 368.922 323.747 367.812 322.417 366.827C320.974 365.752 319.276 364.279 322.648 363.028C323.151 362.846 324.468 362.645 325.355 362.646C334.235 362.729 332.945 361.291 331.996 360.339C329.534 357.886 331.881 355.637 335 353.178C336.661 351.862 336.832 350.437 338.472 349.059C340.281 347.519 347.443 347.272 352.619 347.08C362.803 346.677 373.097 347.182 383.247 348.227C387.82 348.69 392.749 349.023 397.421 349.219C405.505 349.531 412.555 351.435 420.479 352.339C423.451 352.676 425.834 352.833 428.187 352.711C431.202 354.817 436.79 354.512 441.064 355.489C445.346 356.466 450.004 357.581 454.369 357.55C457.472 357.522 458.384 359.037 461.108 359.662C475.807 363.021 490.316 367.621 504.746 372.015C512.388 374.343 519.627 377.089 526.508 380.167C550.032 390.696 574.06 401.596 596.042 416.548C603.515 421.638 610.922 427.652 618.742 433.133L631.405 445.082L630.644 458.747C630.886 461.154 631.218 463.553 631.677 465.932C632.5 470.192 632.169 475.068 632.09 479.635C631.969 487.157 631.881 494.564 632.861 502.279C633.421 506.699 633.213 511.162 633.1 515.665C633.024 519.658 632.842 523.61 632.819 527.668C632.753 540.832 629.913 553.984 625.582 566.532C623.555 572.455 621.001 578.251 620.604 583.879C620.328 587.603 618.192 585.718 616.696 589.242C613.768 596.027 609.929 602.623 605.695 608.826C596.997 621.603 585.718 632.253 573.03 640.603C566.859 644.672 560.233 649.192 553.834 653.193C549.434 655.957 543.915 656.934 540.248 660.342C537.521 660.137 533.185 660.272 530.751 662.316C526.802 665.629 522.08 666.286 517.217 667.656C507.623 670.36 497.816 672.756 487.83 671.912C485.562 671.712 485.401 673.263 482.586 673.238C482.115 673.234 481.638 673.23 481.158 673.226C477.57 673.18 473.725 673.312 470.581 673.563C461.715 674.289 452.618 671.85 443.982 674.765C441.066 675.766 437.342 674.716 433.888 674.839C425.406 675.127 416.694 676.116 408.403 674.644C399.346 673.015 390.173 674.301 381.345 674.768C376.356 675.026 370.176 674.207 365.647 676.407C363.114 674.183 357.127 676.266 354.364 673.772C352.637 672.21 348.722 673.302 346.841 673.939C340.086 676.261 335.326 676.151 327.957 675.893C325.177 675.796 322.336 675.508 319.461 675.344C314.715 675.073 309.873 675.138 305.045 676.945C302.013 678.082 295.68 676.193 290.652 676.074C287.39 676.003 283.359 676.048 280.519 674.509C279.598 673.996 278.562 673.91 277.641 674.577C273.227 677.691 268.161 675.708 263.632 674.807C259.603 673.99 256.186 672.285 252.732 675.281C251.619 676.226 248.357 675.998 246.322 675.576C240.834 674.456 240.911 674.378 235.729 675.523C234.923 675.697 233.887 675.667 233.004 675.577C223.447 674.719 213.853 676.036 203.989 674.184C196.966 672.872 187.447 672.429 181.075 673.864C173.515 675.557 166.836 673.994 159.851 674.346C158.717 674.404 157.578 674.453 156.434 674.491C146.649 674.743 136.544 673.661 127.081 671.314C103.079 665.461 79.3247 656.007 61.0079 639.625C59.2246 638.032 57.0826 635.789 55.0776 635.749C53.8598 635.742 51.6648 633.644 51.1517 632.817C44.9008 622.799 35.2207 615.059 28.7235 605.239C11.117 578.868 1.36147 546.982 2.33521 515.665C2.3443 515.417 2.35347 515.17 2.36272 514.922C2.86862 501.144 2.80741 487.442 3.54366 473.702C3.85423 467.92 4.06794 462.149 4.25306 456.385L5.32441 437.309L17.4632 428.42C25.5459 422.152 33.7914 416.268 42.3034 410.9C52.0714 404.74 62.3394 399.142 72.0865 393.251C75.6505 391.077 80.1273 387.417 84.354 388.122C84.4056 388.097 94.4567 382.138 94.7204 382.059C95.7623 381.525 96.7643 380.955 97.8209 380.565C113.68 374.488 128.918 368.014 144.767 363.14C167.273 356.209 190.335 351.494 213.349 348.102C220.44 347.062 227.747 346.908 235.461 345.803C229.823 345.457 223.641 347.041 218.876 346.436C230.02 345.182 241.379 344.222 252.209 344.386C262.08 344.49 273.5 343.808 281.696 345.813C282.919 346.1 284.521 345.868 285.751 345.808C289.779 345.627 291.778 346.277 291.004 346.838C289.351 348.101 292.316 348.191 296.777 348.274C298.326 348.3 300.513 348.285 301.085 348.752C301.573 349.117 300.025 349.184 298.6 349.235C296.033 349.314 292.045 349.333 293.598 350.178C294.705 350.779 297.218 351.487 301.438 351.175C301.636 351.166 302.153 351.297 302.67 351.388C301.698 352.006 298.849 351.835 296.328 351.871C299.842 352.948 302.341 353.935 299.126 355.16C298.431 355.419 299.028 355.703 296.837 355.708C292.283 355.729 292.336 356.065 294.378 356.912C296.987 357.986 301.317 359.097 296.564 360.482C296.219 360.58 296.19 360.807 296.504 360.911C299.529 361.952 299.816 362.82 296.637 364.162C294.562 365.034 300.193 365.691 303.972 366.034C312.405 366.788 317.379 368.831 317.378 370.752C317.378 370.752 317.378 370.752 317.378 370.752C317.378 371.4 316.825 372.047 315.668 372.669C312.93 374.108 307.896 375.941 314.067 377.243C269.717 381.722 227.362 392.722 187.072 408.176C147.185 423.555 108.894 443.006 77.3821 469.047C82.5018 465.968 86.9597 461.632 92.2454 458.807C92.6781 458.579 93.1092 458.61 94.5239 458.309C86.8483 463.634 79.4521 469.23 72.4094 475.092C71.7473 475.642 70.9959 476.295 71.1589 475.372C71.6109 472.705 69.6403 475.708 69.6129 475.946C69.2482 478.396 66.8749 480.099 64.5958 481.6C63.8474 482.096 63.1617 482.638 62.518 483.209L75.1887 456.385C75.2843 459.309 75.7803 462.125 75.9715 465.027C77.0974 481.882 78.0788 498.773 79.0158 515.665C79.0625 516.235 79.1151 516.802 79.1736 517.366C79.65 521.978 79.9953 526.689 81.9715 531.041C83.1437 533.556 84.4627 531.076 85.2554 533.156C86.2007 535.5 83.1113 534.69 84.1063 537.173C85.1591 539.725 85.7488 542.488 87.4391 545.029C87.7218 544.211 87.9399 543.587 88.4052 542.367C89.3405 549.679 94.1239 554.299 99.1867 558.205ZM231.891 672.295C224.291 670.934 216.73 672.007 209.131 671.718C216.692 673.03 224.33 672.247 231.891 672.295ZM178.619 670.944C186.372 672.768 194.394 671.964 202.339 671.798C194.471 671.203 186.487 671.914 178.619 670.944ZM254.037 672.248C266.997 672.336 279.956 672.398 292.916 672.433C292.877 672.169 292.84 671.904 292.802 671.639C279.88 671.604 266.959 671.543 254.037 671.457C254.037 671.721 254.037 671.984 254.037 672.248ZM318.631 671.491C312.26 671.491 305.889 671.851 299.519 671.981C305.928 672.3 312.375 672.877 318.631 671.491ZM219.44 375.511C237.688 373.673 253.065 370.168 268.325 367.714C252.282 367.937 236.455 370.979 219.44 375.511ZM466.964 407.612C472.397 410.393 476.383 412.541 481.42 412.754C476.562 410.603 472.459 408.686 466.964 407.612ZM537.822 442.733C545.084 449.372 552.145 453.594 559.463 457.327C552.982 451.929 546.015 447.331 537.822 442.733ZM487.552 421.145C488.633 421.683 489.734 422.254 490.273 422.087C490.719 421.953 490.559 421.387 490.502 420.945C490.429 420.643 489.759 420.158 489.174 420.143C484.706 420.06 481.295 416.481 477.148 415.173C479.432 415.421 481.846 417.361 484.993 417.796C476.315 413.476 468.27 412.633 460.391 408.506C460.381 408.497 460.371 408.489 460.361 408.481C462.558 410.742 465.495 411.09 468.014 412.172C474.623 415.024 481.152 417.968 487.552 421.145ZM432.281 398.892C438.686 401.38 444.204 403.04 449.743 404.674C444.223 403.018 439.219 399.759 432.281 398.892ZM494.65 595.951C494.546 595.83 493.371 595.791 493.111 596.411C492.827 597.076 493.295 597.516 494.086 597.766C496.861 598.632 499.845 597.683 503.977 597.459C503.976 597.453 503.974 597.446 503.972 597.44C502.87 596.817 502.625 596.512 502.277 596.496C499.773 596.346 496.466 598.55 494.65 595.951ZM517.974 436.257C512.852 433.203 507.902 429.645 502.101 427.825C507.479 430.53 512.764 433.337 517.974 436.257ZM525.382 440.84C529.936 443.835 534.244 447.087 539.209 449.144C534.717 446.155 530.51 442.459 525.382 440.84ZM566.483 522.758C566.54 525.342 563.964 527.153 564.34 528.334C565.585 532.498 562.938 535.914 561.872 539.478C565.026 534.674 567.539 529.069 566.483 522.758ZM552.935 459.002C556.543 461.492 557.001 464.984 561.269 467.605C561.155 463.789 556.485 461.479 552.935 459.002ZM555.671 549.603C555.614 549.755 555.573 549.915 555.527 550.043C554.163 554.375 551.366 558.063 548.421 561.42C547.163 562.838 547.169 564.171 547.812 564.823C548.573 565.594 549.483 563.99 550.136 563.194C554.442 558.126 557.032 551.974 560.174 546.071C561.166 544.205 561.339 541.878 561.753 539.756C560.323 539.192 560.575 541.132 559.994 541.95C558.524 543.984 559.034 545.883 558.469 547.812C557.684 550.43 556.881 550.729 555.671 549.603ZM507.006 589.117C505.992 587.917 506.064 589.045 506.242 589.497C506.45 590.023 505.011 590.472 506.038 591.015C506.578 590.813 507.145 590.536 507.754 590.38C508.283 590.23 508.929 589.868 509.376 590.306C509.368 590.309 509.36 590.312 509.351 590.314C504.048 594.077 497.041 592.099 491.322 594.524C504.028 593.976 517.036 590.227 527.54 582.359C528.299 581.795 528.784 580.918 529.793 580.698C535.467 579.362 539.095 574.364 543.252 570.64C544.573 569.456 544.556 568.374 544.353 566.72C540.65 571.781 536.433 575.841 531.185 577.961C530.364 578.293 529.577 578.956 528.817 579.485C522.959 583.662 516.594 587.214 509.747 589.153C508.717 589.438 507.807 590.08 507.006 589.117ZM313.417 380.488C302.819 379.363 205.977 403.857 201.643 407.349C224.166 398.435 248.393 392.026 272.472 386.48C284.965 383.592 297.902 380.992 311.7 380.435C312.259 380.406 312.746 380.462 313.417 380.488ZM478.525 592.789C465.476 592.657 452.426 592.492 439.376 592.372C435.993 592.331 432.501 592.078 429.978 593.589C429.989 593.588 430.001 593.589 430.012 593.588C431.356 594.546 433.351 594.286 435.116 594.306C449.547 594.547 463.978 594.778 478.371 595.116C479.295 595.13 480.322 595.232 481.158 595.185C481.762 595.136 482.219 594.921 482.303 594.291C482.414 593.419 481.905 593.066 481.158 592.911C480.392 592.804 479.452 592.796 478.525 592.789ZM451.944 409.195C440.44 405.316 428.794 401.509 417.131 397.611C429.05 400.509 440.652 404.496 451.944 409.195ZM318.631 592.661C313.526 591.663 308.383 593.013 303.24 592.409C308.421 594.46 313.526 593.253 318.631 592.661ZM380.731 591.63C383.609 593.13 386.796 593.493 390.711 592.913C395.047 592.275 399.73 592.414 404.182 593.138C405.141 593.288 406.062 594.083 406.714 593.079C407.367 592.075 406.101 591.822 404.528 591.808C396.595 591.739 388.663 591.68 380.731 591.63ZM409.631 591.51C416.062 593.122 422.754 593.869 429.707 593.598C423.853 590.19 416.176 592.708 409.631 591.51ZM429.819 593.686C429.832 593.686 429.845 593.687 429.858 593.687C429.851 593.683 429.845 593.678 429.838 593.674C429.832 593.678 429.826 593.682 429.819 593.686ZM488.36 425.347C488.438 425.156 488.516 424.964 488.594 424.772C504.727 431.791 519.579 441.207 534.015 450.672C519.547 441.303 504.216 432.854 488.36 425.347ZM556.55 539.127C558.883 531.573 560.431 523.77 560.934 515.665C561.755 496.691 562.941 477.733 563.664 458.747L575.551 484.327C575.387 484.176 575.223 484.025 575.059 483.875C575.062 483.871 575.066 483.867 575.069 483.862C575.313 483.625 575.543 483.351 575.762 483.091C575.916 483.237 576.07 483.383 576.223 483.53L564.707 458.747C563.69 477.731 562.706 496.701 561.766 515.665C561.189 523.856 559.412 531.743 556.55 539.127ZM540.619 456.005C540.735 455.883 540.829 455.728 540.924 455.573C552.371 463.391 563.192 471.784 573.229 480.806C573.092 480.92 572.918 481.024 572.795 481.174C562.801 472.182 552.021 463.807 540.619 456.005ZM78.788 531.375C77.3857 526.267 77.4582 521.039 75.9339 515.665C75.7646 514.804 75.5692 513.942 75.3439 513.08C75.3753 513.941 75.4066 514.803 75.4377 515.665C75.7159 521.092 76.5152 526.414 77.8152 531.57C78.1394 531.505 78.4637 531.44 78.788 531.375ZM409.409 398.543C407.761 397.997 408.385 399.21 406.935 398.506C399.799 395.041 391.755 394.489 384.167 392.749C380.051 391.812 378.578 391.208 377.573 390.123C386.517 391.904 395.528 393.581 404.04 396.527C405.711 397.116 406.756 396.912 408.242 397.351C410.56 398.047 410.308 398.337 409.409 398.543ZM377.512 390.071C377.513 390.068 377.513 390.065 377.514 390.062C377.52 390.069 377.529 390.077 377.536 390.084C377.532 390.086 377.529 390.087 377.525 390.088C377.521 390.083 377.517 390.077 377.512 390.071ZM377.536 390.084C377.54 390.082 377.544 390.08 377.549 390.079C377.548 390.085 377.547 390.09 377.546 390.096C377.543 390.092 377.54 390.088 377.536 390.084ZM377.494 390.1C377.504 390.096 377.515 390.093 377.525 390.088C377.531 390.098 377.537 390.108 377.544 390.118C377.527 390.112 377.51 390.106 377.494 390.1ZM377.546 390.096C377.554 390.105 377.564 390.114 377.573 390.123C377.563 390.121 377.553 390.119 377.544 390.118C377.545 390.11 377.545 390.103 377.546 390.096ZM247.09 588.241C245.9 588.19 243.828 588.227 243.866 589.158C243.904 590.089 245.631 589.833 247.051 589.801C254.612 589.682 262.174 589.673 269.735 589.633C262.596 587.516 254.728 588.545 247.09 588.241ZM438.774 408.364C429.508 405.222 420.058 402.81 410.758 399.519C410.215 399.323 409.895 398.897 409.488 398.57C412.777 398.746 416.256 399.549 420.107 400.81C426.014 402.753 431.956 404.683 437.838 406.813C439.005 407.233 440.492 407.708 440.395 408.333C440.344 408.657 439.666 408.672 438.774 408.364ZM129.914 435.5C126.583 438.652 116.659 444.525 110.02 447.362C116.783 442.333 123.701 439.477 129.914 435.5ZM104.866 571.156C103.719 568.216 102.279 566.475 99.3411 564.983C99.8565 568.198 102.095 569.649 104.866 571.156ZM84.1099 539.818C83.8553 539.03 83.5154 538.265 82.874 538.384C82.0839 538.514 81.9739 539.825 82.5025 540.382C85.1587 543.113 85.1741 547.34 88.6345 550.703C88.6303 550.695 88.626 550.688 88.6217 550.681C86.5237 546.516 85.2169 543.179 84.1099 539.818ZM509.812 440.724C502.732 436.316 495.216 432.843 487.861 428.952C480.813 425.243 472.992 422.709 467.067 417.94C481.315 425.554 497.071 431.254 509.812 440.724ZM541.507 561.317C541.694 561.459 541.881 561.6 542.068 561.742C535.688 569.419 527.86 575.808 519.241 580.452C519.118 580.243 518.995 580.035 518.872 579.826C527.413 575.236 535.175 568.916 541.507 561.317ZM409.335 398.562C409.303 398.56 409.269 398.557 409.237 398.555C409.237 398.556 409.33 398.553 409.387 398.549C409.395 398.547 409.401 398.545 409.409 398.543C409.412 398.544 409.415 398.545 409.417 398.546C409.43 398.544 409.435 398.542 409.428 398.54C409.439 398.543 409.451 398.546 409.463 398.549C409.472 398.556 409.479 398.563 409.488 398.57C409.46 398.568 409.432 398.567 409.405 398.565C409.36 398.569 409.315 398.572 409.27 398.576C409.292 398.571 409.313 398.566 409.335 398.562ZM466.123 419.142C461.642 416.7 456.27 415.761 452.17 412.723C457.182 414.387 462.359 415.844 466.123 419.142ZM304.738 585.739C305.851 585.697 307.117 585.838 306.926 586.694C306.772 587.51 305.62 587.553 304.431 587.473C301.36 587.254 298.328 587.037 295.258 586.821C295.271 586.821 295.283 586.821 295.295 586.821C295.372 586.576 295.411 586.352 295.45 586.107C298.52 585.976 301.629 585.826 304.738 585.739ZM483.257 588.054C488.396 586.906 493.544 587.805 498.617 586.631C493.765 588.759 488.373 588.21 483.257 588.054ZM535.561 456.751C535.313 457.236 534.296 457.107 533.601 456.496C529.398 452.738 524.466 449.991 519.546 447.078C519 446.765 518.594 446.111 517.615 445.092C524.05 447.241 528.977 451.647 534.228 454.595C535.368 455.226 535.847 456.202 535.561 456.751ZM560.254 476.784C553.677 471.015 546.743 465.4 539.431 460.204C537.938 459.139 537.107 458.37 537.376 457.788C537.844 456.812 539.345 458.425 540.241 459.09C547.065 464.087 553.574 469.352 559.797 474.825C559.788 474.817 559.779 474.81 559.77 474.803C559.933 475.447 560.083 476.105 560.254 476.784ZM175.05 582.794C182.035 582.486 188.867 583.084 197.042 583.74C192.744 584.606 189.903 585.189 186.948 585.794C188.483 587.286 191.553 586.042 193.779 587.288C185.259 587.252 177.544 587.712 169.599 587.295C165.264 587.065 160.853 586.966 156.434 586.995C153.274 587.027 150.16 587.022 147.047 586.976C147.029 586.987 147.012 586.999 146.994 587.01C144.424 586.943 143.73 586.024 142.894 584.723C142.904 584.714 142.912 584.705 142.922 584.696C145.314 583.53 147.408 582.252 149.708 584.943C150.465 585.793 151.2 584.863 151.918 584.786C153.447 584.621 154.932 584.271 156.434 583.966C160.513 583.469 164.622 583.215 168.909 584.217C171.02 584.713 172.824 582.895 175.05 582.794ZM559.631 467.851C559.241 464.807 559.058 461.773 559.052 458.747L572.577 487.852C568.035 484.039 563.855 479.624 559.844 474.88C564.701 478.492 569.223 482.618 573.417 486.856L560.356 458.747C560.119 461.782 559.867 464.817 559.631 467.851ZM559.797 474.825C559.812 474.843 559.829 474.862 559.844 474.88C559.825 474.866 559.806 474.852 559.787 474.837C559.79 474.833 559.793 474.829 559.797 474.825ZM552.096 536.776C551.667 535.477 550.494 534.773 551.608 533.165C555.162 527.93 554.52 521.643 555.013 515.665C555.02 515.54 555.027 515.415 555.034 515.29C555.08 514.637 555.143 513.985 555.194 513.217C555.855 513.636 555.676 514.644 555.648 515.665C555.63 516.1 555.673 516.536 556.057 516.878C556.126 516.473 556.193 516.069 556.255 515.665C556.689 511.396 557.056 507.318 556.82 503.123C556.778 502.509 556.314 501.78 556.376 501.55C557.083 499.017 556.365 494.22 557.769 493.874C559.156 493.49 558.534 498.173 558.403 500.053C558.402 500.066 558.402 500.079 558.401 500.092C558.062 505.275 557.772 510.462 557.483 515.665C556.87 523.024 555.221 530.186 552.096 536.776ZM194.47 410.056C186.269 413.289 178.968 417.639 170.532 420.561C169.48 420.92 167.881 421.899 167.473 421.376C167.079 420.901 168.488 420.145 169.689 419.642C169.687 419.638 169.686 419.634 169.685 419.63C177.81 416.215 186.084 413.021 194.47 410.056ZM130.589 440.323C125.041 442.303 121.346 446.928 116.108 449.249C116.1 449.259 116.092 449.27 116.084 449.28C113.928 450.225 111.671 451.627 109.308 451.788C115.922 446.568 122.901 443.475 129.368 439.632C130.194 439.144 131.348 438.85 131.473 439.372C131.506 439.529 130.823 440.241 130.589 440.323ZM99.8645 458.33C96.4611 460.729 95.0381 465.672 89.9272 465.187C92.561 461.848 96.4759 460.558 99.8645 458.33ZM86.7105 467.412C82.6035 472.088 78.2647 474.22 74.8508 477.339C77.8524 473.857 81.2971 470.709 86.7105 467.412ZM142.853 584.661C142.859 584.671 142.866 584.68 142.872 584.69C142.877 584.661 142.883 584.632 142.889 584.603C142.877 584.623 142.864 584.642 142.853 584.661ZM150.552 429.9C146.286 431.736 142.237 434.722 136.545 436.374C141.331 432.465 146.29 431.441 150.432 429.021C150.589 428.931 151.234 428.918 151.199 429.024C151.14 429.26 150.803 429.763 150.579 429.872C150.57 429.881 150.561 429.891 150.552 429.9ZM241.103 580.904C245.939 580.511 248.203 582.638 252.425 581.528C252.438 581.521 252.451 581.514 252.463 581.507C252.425 581.953 252.347 582.4 252.309 582.847C251.235 582.937 250.198 583.108 249.123 583.137C233.733 583.596 218.343 584.076 202.953 584.655C201.111 584.721 199.422 584.665 199.153 583.708C198.731 582.253 200.957 582.36 202.837 582.312C211.319 582.086 219.84 581.468 228.245 581.773C232.774 581.942 237.112 581.229 241.103 580.904ZM547.19 544.738C548.245 541.762 548.663 539.23 549.959 536.832C551.721 538.428 550.663 542.636 547.19 544.738ZM532.057 563.412C532.598 561.298 534.485 560.579 535.934 559.576C535.929 559.582 535.924 559.587 535.918 559.593C538.802 557.61 541.176 555.121 542.426 551.859C541.523 557.191 537.086 560.963 533.447 564.717C532.825 565.343 532.022 565.825 531.37 565.179C530.656 564.441 531.926 563.929 532.057 563.412ZM503.001 580.729C504.075 579.444 503.264 577.497 505.144 578.124C507.776 578.979 509.593 577.561 511.15 576.314C513.34 574.535 516.229 575.388 518.443 573.497C521.179 571.158 525.476 570.38 527.657 567.044C528.106 566.342 528.985 565.839 529.581 566.561C530.177 567.286 529.332 567.912 528.672 568.447C525.24 571.174 521.673 573.895 517.661 575.492C517.651 575.49 517.64 575.488 517.63 575.486C512.968 577.341 508.66 579.927 503.001 580.729ZM303.472 578.381C304.776 577.767 305.275 578.377 305.505 578.581C307.693 580.391 310.917 580.53 313.91 579.671C316.712 578.874 316.674 580.261 316.943 580.669C317.672 581.75 315.293 581.69 314.525 581.69C304.546 581.9 294.375 582.619 284.55 581.97C278.217 581.55 272.498 582.823 266.472 582.477C266.459 582.47 266.446 582.463 266.433 582.456C261.674 582.184 256.071 583.464 252.962 580.854C253.883 579.223 257.721 583.087 256.685 579.483C256.493 578.795 258.796 578.735 260.178 578.703C268.89 578.451 277.41 578.64 286.007 579.804C291.572 580.553 298.29 580.839 303.472 578.381ZM482.027 582.742C485.081 580.519 488.253 581.859 490.713 582.154C494.177 582.555 496.4 580.442 499.344 580.063C500.03 579.964 500.841 579.036 501.296 579.896C501.742 580.719 500.855 581.421 499.819 581.666C499.813 581.674 499.808 581.682 499.802 581.69C494.226 582.99 488.354 584.692 482.027 582.742ZM351.985 579.576C352.56 579.802 353.405 577.831 354.364 579.485C354.671 580.036 354.248 580.625 352.675 580.781C342.197 581.836 331.642 581.895 321.049 581.321C320.704 581.3 320.435 580.811 319.591 580.036C328.534 579.934 336.517 578.767 344.999 579.183C347.302 579.293 349.682 578.69 351.985 579.576ZM368.719 578.304C372.71 577.742 373.055 580.042 375.819 580.387C370.062 582.335 365.11 582.391 361.08 578.399C364.227 579.496 366.493 578.615 368.719 578.304ZM421.217 578.151C422.98 577.959 426.314 576.813 425.905 579.774C425.79 580.496 426.826 580.491 427.67 580.141C428.13 579.947 428.4 579.609 428.783 579.334C434.31 581.402 440.414 579.972 446.209 580.471C447.207 580.547 448.741 580.594 448.434 581.487C448.242 582.022 447.513 582.15 446.401 582.132C429.859 581.942 413.355 581.827 396.813 581.744C396.813 581.731 396.813 581.717 396.813 581.704C396.276 581.698 395.738 581.43 394.664 581.156C397.542 579.848 401.188 579.12 403.606 579.753C408.979 581.146 414.161 579.413 419.304 580.308C420.417 580.503 422.681 581.097 422.835 579.571C422.942 578.574 422.019 578.26 421.217 578.151ZM420.34 578.087C420.548 578.096 420.871 578.104 421.217 578.151C420.83 578.193 420.519 578.191 420.34 578.087Z" fill="var(--stroke-0, #C6EDD1)"/>
</g>
</svg>
