<svg preserveAspectRatio="none" width="100%" height="100%" overflow="visible" style="display: block;" viewBox="0 0 642.798 677.364" fill="none" xmlns="http://www.w3.org/2000/svg">
<g id="Group 43896">
<path id="l" d="M20.7527 252.56C19.4292 257.133 17.4688 261.556 15.2576 266.105C16.5342 261.455 18.498 256.932 20.7527 252.56ZM20.7527 252.56C20.7749 252.483 20.7979 252.405 20.8198 252.328C20.8198 252.328 20.8189 252.405 20.8033 252.437C20.8067 252.439 20.8101 252.44 20.8135 252.441C20.7932 252.481 20.773 252.52 20.7527 252.56ZM20.8347 252.372C20.8616 252.342 20.8887 252.309 20.9153 252.278C20.888 252.335 20.8608 252.392 20.8335 252.449C20.8339 252.423 20.8343 252.398 20.8347 252.372ZM85.1322 512.489C84.1876 513.32 83.696 514.438 83.4797 515.723C82.9525 517.718 84.1411 520.256 84.5138 522.325C85.416 527.237 86.8168 531.91 88.4432 536.518C90.1099 541.245 92.7054 545.759 95.865 549.652C96.4331 550.334 96.9713 550.766 95.4826 550.805C95.4719 550.802 95.4611 550.8 95.4504 550.797C95.4489 550.8 95.4477 550.803 95.4463 550.807C95.4316 550.807 95.4167 550.808 95.4016 550.808C95.4112 550.803 95.4207 550.797 95.4302 550.792C95.4145 550.788 95.3988 550.783 95.3831 550.779C95.3928 550.774 95.4026 550.768 95.4123 550.763C91.8752 551.682 92.5746 548.208 91.5181 546.891C89.0931 543.861 88.6551 539.576 86.3375 536.598C83.8239 533.261 84.6522 528.924 80.7417 524.993C82.769 539.154 88.5202 551.994 97.8982 561.536C98.8206 560.861 97.3018 560.486 98.1099 559.513C105.522 570.928 116.133 582.64 130.531 584.488C126.609 581.468 121.112 581.514 117.721 577.492C119.93 578.219 122.329 578.447 124.293 579.406C130.303 582.359 136.786 583.787 143.114 585.779C145.369 586.48 147.537 584.707 149.737 585.509C150.411 585.752 151.534 585.417 151.836 585.881C153.129 587.819 154.739 588.448 156.447 588.54C159.821 588.656 163.366 588.012 166.768 588.235C168.877 588.376 170.981 588.448 173.08 588.474C181.433 588.58 189.724 587.962 198.069 588.069C207.95 588.181 217.847 588.024 227.722 588.201L186.226 618.662C187 616.377 187.777 614.026 188.556 611.668C190.505 605.816 192.891 599.473 193.787 593.441C194.813 586.481 196.116 579.485 197.061 572.44C198.366 562.842 197.328 552.814 200.838 543.233C198.715 535.905 200.342 528.212 199.984 520.625C199.182 502.854 198.497 484.843 195.783 466.795C192.47 444.736 187.496 422.647 181.249 400.817C177.093 386.344 171.9 372.112 166.261 358.02C166.032 357.471 165.973 356.836 165.803 356.135C167.092 356.551 166.965 358.787 168.035 359.373C167.713 357.517 167.093 355.064 166.019 354.481C164.25 353.525 163.727 351.462 163.016 349.771C159.853 342.123 156.444 334.536 152.932 326.976C151.667 324.25 150.341 321.539 148.966 318.839C144.367 309.804 139.295 300.977 134.155 292.189C128.394 282.353 122.457 272.575 116.001 263.122C109.077 252.988 101.631 243.143 93.7791 233.604C103.571 246.082 112.679 258.969 121.118 272.233C120.966 272.317 120.805 272.408 120.637 272.47C110.396 257.398 100.182 241.679 87.7304 228.332C87.6277 228.434 87.525 228.535 87.4223 228.637C92.3978 234.943 97.2301 241.37 101.827 247.915C103.236 249.915 104.936 251.802 105.912 253.996C104.578 253.675 103.634 251.355 102.449 250.189C102.48 250.786 103.834 251.784 103.624 252.404C103.469 252.286 103.277 252.199 103.149 252.02C98.8261 246.339 94.5086 240.601 90.4314 234.674C89.4814 233.3 88.6087 232.417 87.6169 231.58C84.7026 229.123 80.9661 224.352 79.5585 221.357C78.8415 219.833 79.6918 219.861 80.715 220.438C82.298 221.307 82.6686 220.894 81.787 219.047C81.2632 217.948 81.4052 217.719 82.3122 218.183C84.798 219.456 84.7699 219.257 81.2073 215.063C85.4658 218.889 84.8045 217.018 84.9304 215.303C85.1505 212.861 83.4124 208.331 89.1393 211.303C89.8736 211.69 91.1647 211.379 91.1224 209.987C91.0794 208.471 91.1742 206.535 93.8669 207.354C94.2654 207.479 95.1194 208.005 95.6039 208.458C100.396 213.033 100.693 211.322 100.826 210.157C101.169 207.137 104.005 206.699 107.418 206.492C109.241 206.378 110.319 205.433 112.179 205.265C114.237 205.06 118.381 208.468 121.419 210.884C127.416 215.636 132.918 220.986 138.09 226.592C140.405 229.092 143.077 231.691 145.676 234.005C150.223 238.023 153.121 242.657 157.274 246.906C158.838 248.503 160.182 249.703 161.693 250.671C162.082 253.535 165.721 255.836 167.692 258.422C169.681 261.033 171.81 263.861 174.575 265.751C176.551 267.097 176.086 268.552 177.388 270.18C182.955 277.116 188.103 284.433 193.339 291.631C194.708 293.513 196.083 295.383 197.474 297.231C201.012 301.933 204.138 306.79 206.846 311.611C216.152 328.181 226.513 344.53 234.444 362.05C237.898 369.676 240.671 378.156 245.558 385.584C247.493 388.517 248.456 392.272 249.556 395.783C251.365 401.53 253.072 407.187 255.779 412.829C258.377 418.242 258.816 424.411 261.055 430.158C264.005 437.717 265.762 445.611 267.503 453.532C268.33 457.273 269.011 461.062 271.683 463.818C273.451 465.625 270.651 465.692 271.396 467.927C272.826 472.209 273.883 476.736 274.872 481.196C276.917 490.365 277.642 499.661 277.625 508.955C277.618 513.531 278.242 518.35 279.032 522.967C279.575 526.12 278.275 529.454 280.133 532.309C278.947 533.844 277.6 536.423 278.794 538.229C280.714 541.118 280.046 544.028 280.236 547.138C280.614 553.231 281.478 559.409 279.882 565.487C279.519 566.883 281.049 567.101 280.88 568.833C280.589 572.062 280.442 575.673 280.452 578.611C280.509 586.118 277.163 593.441 278.899 601.194C279.505 603.81 277.938 606.804 277.519 609.762C276.494 616.952 275.817 624.642 272.548 631.341C270.509 635.465 269.245 639.977 268.151 644.393L258.245 674.488L227.722 674.071C224.857 674.279 222.012 674.626 219.213 674.825C215.494 675.083 210.887 674.264 207.511 676.464C205.622 674.24 201.16 676.322 199.1 673.828C197.812 672.267 194.893 673.359 193.491 673.996C188.456 676.318 184.908 676.207 179.414 675.95C177.342 675.852 175.224 675.565 173.08 675.401C169.542 675.13 165.932 675.194 162.334 677.002C160.996 677.675 158.796 677.288 156.447 676.835C154.194 676.523 151.871 676.129 149.775 675.994C146.441 675.794 142.261 675.517 139.547 673.674C138.663 673.064 137.631 672.859 136.615 673.404C131.735 675.94 126.76 673.086 122.456 671.217C118.571 669.529 115.729 667.024 111.498 668.91C110.137 669.503 106.964 668.285 105.119 667.204C100.157 664.288 100.303 664.25 94.9362 663.305C94.1063 663.148 93.13 662.698 92.3336 662.251C83.722 657.545 74.3632 653.881 67.0619 646.65C61.8562 641.561 54.7477 635.262 49.0595 631.89C42.2469 627.881 38.6772 621.77 33.9043 616.538C28.2274 610.324 23.2568 603.028 19.5817 595.443C11.4987 578.897 3.90315 561.636 2.44587 543.291C2.30699 541.509 2.32663 539.162 0.910084 538.202C0.0423512 537.624 -0.115261 535.363 0.0678753 534.637C1.67629 528.325 0.898507 522.078 0.604512 515.723C0.484318 513.815 0.377945 511.918 0.465638 510.057C1.32568 492.26 1.4792 474.435 2.3765 456.639C2.8824 446.367 2.82119 436.153 3.55744 425.91C4.35579 414.781 4.52869 403.708 5.17781 392.635C5.63366 384.853 6.28795 376.898 5.9485 369.116C5.81529 366.255 4.72615 362.393 7.30606 360.046C7.34425 360.018 6.57277 351.977 6.58033 351.806C6.55909 351.005 6.48225 350.203 6.58773 349.431C7.96486 337.758 7.76885 326.285 8.45743 314.754C8.67884 310.954 8.93336 307.151 9.20778 303.347C10.1127 287.365 13.8515 271.708 19.7581 257.213C22.1348 251.39 25.5797 246 28.6883 239.98C25.4398 243.762 23.7128 249.047 20.9153 252.278C25.1741 243.379 30.3985 234.798 36.6306 227.756C42.244 221.283 48.6484 213.758 55.1759 210.47C56.1342 209.971 56.968 208.896 57.7059 208.152C58.4026 207.453 59.047 206.908 59.6047 206.505C60.7955 205.696 61.5499 205.614 61.5271 206.167C61.4863 207.865 63.1676 206.553 65.6178 204.472C66.4698 203.746 67.6239 202.673 68.2496 202.732C68.7605 202.758 67.9855 203.561 67.2565 204.288C65.9349 205.597 63.7918 207.5 65.2083 207.38C66.2143 207.293 68.0736 206.602 70.1114 204.311C70.2103 204.207 70.577 204.048 70.9144 203.86C70.8264 204.784 69.1863 206.057 67.8433 207.304C70.4846 206.385 72.5069 205.858 71.6184 208.328C71.4191 208.856 71.9408 208.771 70.751 209.847C68.284 212.073 68.5342 212.284 70.2326 211.918C72.3912 211.447 75.5327 210.096 73.8737 213.454C73.7507 213.696 73.8902 213.876 74.1342 213.796C76.5122 213.059 77.2745 213.538 76.4355 216.098C75.8772 217.765 79.468 215.447 81.758 213.772C86.8747 210.031 90.9174 208.809 92.2819 210.173C92.282 210.173 92.282 210.173 92.2821 210.173C92.7401 210.631 92.9052 211.383 92.7242 212.437C92.2804 214.907 90.8005 218.889 95.0831 216.536C91.3559 221.311 87.6536 226.089 83.9663 230.866C69.1053 250.738 63.0531 274.704 64.5286 296.865C64.667 299.042 64.8733 301.202 65.1463 303.347C68.2758 334.179 70.0663 365.115 72.9415 395.954C73.3827 391.004 72.23 385.997 72.6289 381.104C72.6632 380.704 72.9192 380.417 73.4043 379.301C73.9241 386.95 74.4261 394.599 74.9103 402.248C74.9556 402.963 75.0233 403.793 74.3842 403.221C72.524 401.59 73.7403 404.394 73.9088 404.537C75.6386 406.025 75.5291 408.485 75.2659 410.774C74.9333 413.778 75.729 416.554 75.9853 419.443C77.1672 432.633 78.1896 445.852 79.1692 459.071C79.5493 464.221 79.3752 469.457 80.4372 474.75C81.0544 477.84 82.8809 475.38 83.1785 477.983C83.5137 480.958 80.7446 479.099 81.0204 482.16C81.3027 485.336 80.9343 488.541 81.494 492.003C82.0737 491.26 82.5163 490.687 83.3973 489.542C81.5727 497.954 83.3958 504.964 85.1322 512.489ZM92.6232 658.79C86.2173 654.438 79.0614 651.804 72.7566 647.453C78.4702 652.646 85.708 655.653 92.6232 658.79ZM49.2574 628.069C53.6066 634.747 60.4427 639.331 67.0458 643.738C60.9418 638.748 54.2793 634.205 49.2574 628.069ZM113.615 666.364C126.167 670.023 139.196 672.053 152.191 672.433C152.16 672.167 152.13 671.902 152.099 671.636C139.207 671.25 126.283 669.231 113.831 665.603C113.759 665.856 113.687 666.11 113.615 666.364ZM172.461 671.548C167.712 671.547 162.963 671.908 158.214 672.038C162.992 672.357 167.798 672.934 172.461 671.548ZM46.4846 265.811C52.5897 253.556 57.12 242.856 63.3337 233.008C55.026 241.774 49.6875 253.059 46.4846 265.811ZM148.884 306.864C150.377 310.67 151.486 313.604 153.942 315.788C154.263 316.074 154.608 316.347 154.979 316.608C154.788 316.232 154.602 315.862 154.417 315.496C152.856 312.4 151.454 309.652 148.884 306.864ZM175.055 360.328C176.277 367.803 179.046 373.428 182.451 378.713C180.669 372.526 178.221 366.692 175.055 360.328ZM153.551 325.126C153.924 325.951 154.292 326.807 154.766 326.908C155.157 326.995 155.42 326.526 155.672 326.189C155.82 325.944 155.686 325.325 155.302 325.076C152.691 323.421 152.45 320.109 151.117 317.519C150.945 317.181 150.754 316.856 150.539 316.548C150.824 316.789 151.064 317.085 151.282 317.419C152.096 318.662 152.594 320.411 154.037 321.687C153.324 320.066 152.493 318.598 151.616 317.214C148.892 312.932 145.792 309.472 144.025 304.703C144.024 304.692 144.023 304.682 144.022 304.672C143.925 307.228 145.594 308.716 146.524 310.564C147.772 313.06 149.011 315.556 150.227 318.066C151.365 320.414 152.478 322.764 153.551 325.126ZM132.719 285.555C135.005 290.186 137.356 293.796 139.775 297.37C137.383 293.788 136.438 289.263 132.719 285.555ZM205.369 551.85C205.229 551.926 204.978 553.031 205.547 553.384C206.154 553.763 206.664 553.39 207.051 552.697C208.4 550.254 208.07 547.392 208.949 543.574C208.943 543.574 208.936 543.574 208.93 543.574C208.037 544.417 207.682 544.571 207.577 544.885C206.781 547.182 208.248 550.602 205.369 551.85ZM164.804 348.1C163.118 343.935 161.919 339.398 159.114 335.804C161.054 339.86 162.971 343.997 164.804 348.1ZM167.202 354.249C168.599 358.145 169.716 362.099 172.129 365.442C170.636 361.608 169.876 357.383 167.202 354.249ZM196.74 447.133C197.604 449.408 195.85 451.904 196.642 452.828C199.32 455.971 198.363 459.994 199.111 463.487C199.611 457.967 199.715 452.372 196.74 447.133ZM176.471 377.579C177.748 380.684 176.033 383.346 177.851 386.794C179.953 383.961 177.702 380.659 176.471 377.579ZM199.141 474.998C199.182 475.151 199.24 475.301 199.277 475.428C200.669 479.664 200.808 484.045 200.946 488.448C200.994 490.308 201.946 491.226 202.858 491.226C203.938 491.227 203.469 489.533 203.408 488.549C203.106 482.228 201.404 476.104 200.945 469.738C200.802 467.742 199.777 465.73 199.138 463.774C197.612 463.979 198.761 465.482 198.672 466.454C198.425 468.9 199.87 470.198 200.45 472.031C201.238 474.522 200.782 475.195 199.141 474.998ZM201.845 538.441C200.386 539.03 201.484 539.316 201.969 539.284C202.531 539.25 202.526 540.736 203.352 539.932C203.322 539.367 203.234 538.751 203.279 538.132C203.305 537.591 203.175 536.871 203.737 536.599C203.737 536.607 203.737 536.616 203.737 536.625C205.526 542.625 201.889 548.78 203.391 554.786C204.823 542.443 205.626 529.796 204.205 517.187C204.106 516.275 203.608 515.422 203.955 514.468C205.836 509.181 203.984 503.633 203.949 498.239C203.937 496.536 203.138 495.857 201.793 494.905C202.94 500.951 203.548 506.437 202.411 511.891C202.234 512.744 202.364 513.743 202.41 514.654C202.85 521.777 203.271 528.83 202.775 535.872C202.693 536.933 203.011 537.984 201.845 538.441ZM97.0104 219.191C95.941 220.876 91.9383 226.294 86.5845 233.484C71.8608 251.147 68.1656 286.445 68.5859 288.505C67.9979 273.576 72.2358 257.88 79.4641 243.322C81.2592 239.701 83.2834 236.078 85.7255 232.625C88.8985 228.346 92.2761 224.131 96.0295 220.072C96.3173 219.753 96.6238 219.533 97.0104 219.191ZM200.423 566.18C199.678 574.739 198.529 583.157 197.022 591.384C196.618 593.537 195.965 595.679 197.14 597.543C197.141 597.536 197.143 597.528 197.144 597.521C198.248 596.863 198.232 595.551 198.453 594.431C200.342 585.313 201.716 575.941 202.736 566.447C202.854 565.215 203.34 563.712 202.116 563.458C200.659 563.166 200.546 564.705 200.423 566.18ZM138.134 301.557C133.392 293.805 128.717 285.917 124.279 277.831C129.556 285.316 134.079 293.311 138.134 301.557ZM172.461 592.718C168.656 591.719 164.822 593.07 160.988 592.466C164.851 594.517 168.656 593.31 172.461 592.718ZM218.755 591.687C220.901 593.186 223.277 593.55 226.195 592.97C226.698 592.87 227.208 592.79 227.722 592.727L190.545 620.018C190.906 617.739 191.776 615.469 192.993 613.343C193.295 612.81 194.213 612.459 193.347 611.807C192.481 611.157 192.035 611.854 191.767 612.785C191.088 615.142 190.372 617.468 189.631 619.731L227.722 591.769C224.733 591.739 221.744 591.712 218.755 591.687ZM192.289 609.65C194.853 606.137 196.525 602.149 197.116 597.714C193.062 600.721 194.485 605.933 192.289 609.65ZM197.216 597.661C197.218 597.653 197.22 597.645 197.221 597.637C197.217 597.64 197.212 597.643 197.207 597.647C197.21 597.652 197.213 597.656 197.216 597.661ZM151.333 328.447C151.511 328.343 151.69 328.238 151.868 328.133C158.192 339.779 162.578 352.327 167.358 364.58C162.497 352.386 157.152 340.331 151.333 328.447ZM194.284 465.743C189.824 445.1 186.176 424.006 179.706 403.478C179.711 403.477 179.716 403.475 179.721 403.473C180.048 403.379 180.382 403.254 180.701 403.134C186.694 423.857 191.242 444.812 194.284 465.743ZM168.987 370.895C169.147 370.85 169.312 370.774 169.477 370.698C173.273 380.593 176.735 390.532 179.893 400.59C179.719 400.628 179.522 400.646 179.341 400.715C176.202 390.683 172.76 380.767 168.987 370.895ZM77.251 474.407C76.837 468.027 77.6112 461.674 75.3577 455.265C75.6695 461.646 75.9699 468.027 76.2588 474.407C76.5895 474.407 76.9202 474.407 77.251 474.407ZM118.959 274.976C118.341 273.831 117.885 274.986 117.498 273.819C115.574 268.047 111.194 263.909 107.962 259.067C106.204 256.444 105.775 255.309 105.941 254.05C109.879 259.584 114.046 265.035 117.115 271.063C117.714 272.259 118.484 272.596 119.073 273.588C119.99 275.146 119.643 275.24 118.959 274.976ZM105.942 253.984C105.945 253.982 105.947 253.98 105.95 253.978C105.948 253.986 105.948 253.996 105.947 254.005C105.944 254.004 105.941 254.003 105.938 254.003C105.939 253.996 105.941 253.99 105.942 253.984ZM105.947 254.005C105.951 254.006 105.954 254.006 105.958 254.007C105.954 254.011 105.949 254.015 105.945 254.018C105.945 254.014 105.946 254.009 105.947 254.005ZM105.912 253.996C105.92 253.998 105.929 254.001 105.938 254.003C105.935 254.013 105.932 254.022 105.928 254.032C105.923 254.02 105.917 254.008 105.912 253.996ZM105.945 254.018C105.943 254.029 105.943 254.04 105.941 254.05C105.937 254.045 105.933 254.038 105.928 254.032C105.934 254.028 105.939 254.023 105.945 254.018ZM133.478 584.6C132.969 584.379 132.053 584.095 131.755 584.976C131.458 585.859 132.318 585.893 132.967 586.075C136.406 587.096 139.887 587.969 143.424 588.554C140.499 585.891 136.784 586.024 133.478 584.6ZM130.343 295.203C126.656 288.882 122.474 282.905 119.105 276.293C118.911 275.904 119.01 275.452 118.988 275.031C120.852 276.664 122.418 278.832 123.908 281.467C126.203 285.538 128.569 289.573 130.807 293.681C131.253 294.496 131.869 295.492 131.385 295.897C131.134 296.106 130.695 295.817 130.343 295.203ZM69.9645 345.282C71.461 348.744 72.3698 358.072 71.6595 363.908C70.4509 357.156 70.9588 351.147 69.9645 345.282ZM81.1328 523.944C82.2679 521.702 82.3326 520 81.0315 517.758C79.3704 519.867 80.1095 521.774 81.1328 523.944ZM80.2285 485.051C80.2375 484.106 80.1383 483.162 79.4901 483.076C78.6978 482.962 78.2035 484.307 78.5253 485.079C80.1785 488.971 78.6237 493.348 80.1539 498.469C80.1535 498.46 80.153 498.45 80.1526 498.441C80.1931 493.148 80.2042 489.085 80.2285 485.051ZM156.182 348.078C154.002 342.11 151.072 336.618 148.629 330.81C147.331 327.728 145.632 324.765 144.277 321.714C143.212 319.318 142.364 316.875 142.056 314.277C142.942 316.647 143.931 318.975 144.977 321.284C148.982 330.168 153.872 338.705 156.182 348.078ZM195.925 493.217C196.157 493.183 196.389 493.15 196.622 493.116C197.645 503.305 198.293 513.449 198.543 523.542C198.301 523.557 198.059 523.572 197.818 523.587C197.576 513.514 196.937 503.388 195.925 493.217ZM118.902 274.955C118.883 274.94 118.865 274.922 118.847 274.906C118.847 274.906 118.904 274.947 118.942 274.97C118.947 274.972 118.953 274.974 118.959 274.976C118.96 274.978 118.961 274.98 118.962 274.982C118.971 274.987 118.976 274.987 118.973 274.982C118.977 274.99 118.982 274.998 118.987 275.005C118.988 275.014 118.988 275.022 118.988 275.031C118.973 275.017 118.957 275.004 118.941 274.99C118.912 274.972 118.882 274.954 118.853 274.936C118.869 274.943 118.885 274.949 118.902 274.955ZM140.635 314.733C139.324 311.081 136.479 308.111 135.9 304.171C137.989 307.526 140.365 310.774 140.635 314.733ZM162.105 585.796C162.934 585.754 163.879 585.894 163.736 586.751C163.622 587.567 162.763 587.609 161.876 587.53C160.058 587.356 158.257 587.183 156.447 587.011C156.153 586.967 155.86 586.92 155.568 586.873C155.573 586.873 155.579 586.873 155.585 586.873C155.623 586.628 155.644 586.404 155.664 586.16C155.924 586.139 156.185 586.115 156.447 586.09C158.322 585.98 160.214 585.867 162.105 585.796ZM195.977 562.007C195.287 556.585 197.027 551.361 197.113 545.978C197.999 551.387 196.579 556.73 195.977 562.007ZM164.766 369.532C164.285 369.787 163.61 369.311 163.472 368.611C162.656 364.29 160.781 360.452 159.081 356.452C158.885 356.011 159.003 355.381 158.944 354.265C162.202 358.345 163.013 363.336 165.103 367.483C165.556 368.364 165.315 369.245 164.766 369.532ZM171.791 393.121C169.885 386.553 167.884 379.968 165.551 373.476C165.077 372.148 164.927 371.279 165.482 370.961C166.425 370.434 166.564 372.163 166.832 372.975C168.919 379.135 170.782 385.296 172.548 391.526C172.545 391.518 172.542 391.509 172.54 391.501C172.299 392.029 172.042 392.563 171.791 393.121ZM109.008 563.217C111.367 565.13 113.156 567.523 115.631 570.212C113.601 569.766 112.247 569.405 110.838 568.997C110.402 570.591 112.274 570.528 112.305 572.131C109.245 569.681 106.289 567.565 104.076 564.59C101.505 561.118 98.7317 557.738 95.8452 554.463C95.8272 554.461 95.8093 554.458 95.7914 554.455C94.5297 552.987 94.8765 552.062 95.4463 550.807C95.4585 550.806 95.4706 550.805 95.4826 550.805C97.6599 551.381 99.7451 551.746 98.7695 554.69C98.4784 555.641 99.5666 555.481 99.9728 555.839C102.264 557.863 105.25 558.951 106.118 562.266C106.395 563.295 108.261 562.613 109.008 563.217ZM178.236 411.282C174.726 405.246 173.196 398.658 172.554 391.584C175.091 397.911 176.669 404.607 178.236 411.282ZM172.548 391.526C172.55 391.545 172.552 391.565 172.554 391.584C172.547 391.567 172.54 391.549 172.533 391.532C172.538 391.53 172.543 391.528 172.548 391.526ZM189.241 465.824C188.229 464.826 186.844 464.715 187.076 462.621C187.813 455.826 184.805 449.908 183.636 443.565C183.563 443.127 183.505 442.683 183.414 442.167C184.595 442.326 183.849 444.155 185.031 444.749C184.637 441.384 184.256 438.148 183.073 435.113C182.914 434.724 182.328 434.382 182.342 434.214C182.529 432.359 180.873 429.437 182.139 428.791C183.386 428.125 183.747 431.385 183.989 432.653C183.991 432.661 183.993 432.67 183.995 432.678C186.18 443.602 188.441 454.436 189.241 465.824ZM68.706 293.185C68.9286 296.68 69.807 300.03 70.5022 303.347C70.8716 305.732 71.1339 308.149 71.1499 310.634C71.153 311.521 71.5548 312.98 70.9259 313.152C70.3481 313.323 70.0976 312.065 70.0083 311.035C70.004 311.035 69.9997 311.035 69.9954 311.035C69.773 308.472 69.5484 305.909 69.3217 303.347C68.9275 299.996 68.7199 296.603 68.706 293.185ZM74.6218 346.428C74.0621 351.177 76.5654 355.555 76.1878 360.247C76.1934 360.256 76.1991 360.266 76.2047 360.276C76.0395 362.192 76.2035 364.395 75.2035 366.141C73.8203 359.331 74.2002 353.179 73.4781 347.085C73.3884 346.312 73.6074 345.369 74.1334 345.455C74.29 345.483 74.6472 346.227 74.6218 346.428ZM76.1858 375.553C76.5043 378.958 79.9536 382.192 76.771 385.539C75.3987 382.22 76.3664 378.901 76.1858 375.553ZM76.8673 388.8C78.4833 393.807 77.7001 397.842 78.171 401.733C77.1611 397.928 76.609 394.065 76.8673 388.8ZM95.4727 550.746C95.4685 550.755 95.4649 550.765 95.4608 550.774C95.4861 550.759 95.5115 550.745 95.5369 550.73C95.5155 550.736 95.4937 550.74 95.4727 550.746ZM72.9904 328.259C73.1094 332.007 74.3093 335.956 73.5033 340.705C71.8784 335.899 72.8393 331.921 72.1293 328.087C72.1043 327.943 72.331 327.457 72.4161 327.515C72.6137 327.629 72.9568 328.03 72.9744 328.231C72.9797 328.24 72.985 328.25 72.9904 328.259ZM133.446 576.806C135.449 577.131 135.705 579.452 137.742 578.904C137.749 578.899 137.756 578.894 137.763 578.889C137.622 579.312 137.463 579.732 137.321 580.155C136.854 580.111 136.379 580.144 135.926 580.031C129.462 578.453 123.16 575.902 117.211 572.481C116.5 572.069 115.923 571.579 116.393 570.737C117.106 569.456 117.814 570.107 118.506 570.527C121.636 572.426 125.063 573.694 128.136 575.491C129.801 576.469 131.779 576.524 133.446 576.806ZM189.399 475.857C188.531 472.571 187.508 469.922 187.411 466.96C189.736 467.602 190.987 471.917 189.399 475.857ZM191.191 502.122C189.889 500.16 190.578 498.032 190.821 496.142C190.822 496.15 190.823 496.159 190.823 496.167C191.316 492.416 191.283 488.728 190.083 485.148C192.897 490.211 192.457 496.234 193.083 501.889C193.173 502.831 193.055 503.821 192.144 503.928C191.119 504.024 191.507 502.597 191.191 502.122ZM192.63 539.702C191.736 538.146 189.631 538.27 190.841 536.501C192.522 534.03 191.875 531.643 191.353 529.47C190.598 526.383 192.625 523.909 192.01 520.803C191.245 516.842 192.858 512.465 191.412 508.386C191.099 507.524 191.218 506.407 192.156 506.38C193.094 506.352 193.092 507.489 193.146 508.409C193.369 513.151 193.835 517.945 193.407 522.6C193.401 522.609 193.394 522.617 193.388 522.626C192.897 528.102 193.588 533.51 192.63 539.702ZM161.161 578.438C162.133 577.824 162.505 578.434 162.677 578.637C164.308 580.448 166.711 580.587 168.942 579.728C171.031 578.931 171.003 580.318 171.203 580.726C171.747 581.806 169.973 581.746 169.401 581.747C165.105 581.868 160.761 582.159 156.447 582.258C154.596 582.331 152.781 582.226 151.024 581.811C148.383 581.176 145.781 582.093 143.3 581.25C143.296 581.242 143.292 581.235 143.288 581.227C141.367 580.576 138.677 581.2 138.147 578.321C138.949 576.862 139.481 581.006 139.994 577.412C140.097 576.728 141.009 576.906 141.557 577.004C145.035 577.58 148.331 578.282 151.8 579.697C153.215 580.268 154.862 580.617 156.447 580.164C158.108 579.894 159.715 579.358 161.161 578.438ZM190.58 562.869C188.605 559.343 190.374 555.93 191.089 553.323C192.089 549.611 190.531 546.753 190.948 543.391C191.034 542.617 190.374 541.432 191.33 541.229C192.246 541.021 192.66 542.18 192.619 543.361C192.625 543.37 192.632 543.378 192.638 543.386C192.392 549.758 193.028 556.203 190.58 562.869ZM197.326 579.633C197.755 579.859 198.384 577.888 199.1 579.542C199.328 580.093 199.013 580.682 197.84 580.838C190.029 581.893 182.161 581.951 174.264 581.378C174.007 581.357 173.807 580.867 173.177 580.093C179.844 579.991 185.795 578.824 192.118 579.24C193.835 579.349 195.609 578.747 197.326 579.633ZM209.801 578.361C212.776 577.799 213.034 580.098 215.093 580.443C210.802 582.392 207.11 582.447 204.106 578.456C206.452 579.552 208.141 578.671 209.801 578.361ZM180.926 599.705C180.966 598.644 180.249 596.464 183.099 597.3C183.792 597.516 183.915 596.892 183.672 596.329C183.536 596.021 183.236 595.797 183.01 595.519C185.685 592.672 184.926 588.704 185.942 585.289C186.109 584.694 186.291 583.761 187.147 584.077C187.66 584.271 187.722 584.739 187.602 585.418C185.898 595.509 183.661 605.27 180.809 614.501C180.796 614.497 180.783 614.494 180.77 614.49C180.675 614.788 180.328 615.011 179.884 615.523C179.123 613.552 179.007 611.333 179.996 610.128C182.168 607.494 181.246 604.027 182.784 601.283C183.122 600.683 183.992 599.477 182.519 599.065C181.558 598.793 181.135 599.265 180.926 599.705ZM180.752 600.197C180.787 600.079 180.837 599.894 180.926 599.705C180.918 599.937 180.876 600.116 180.752 600.197Z" fill="var(--stroke-0, #DADAF5)"/>
<path id="t" d="M190.455 135.414C192.504 139.616 193.828 144.196 194.833 149.018C193.029 144.687 191.679 140.089 190.455 135.414ZM190.455 135.414C190.421 135.344 190.386 135.272 190.351 135.202C190.351 135.202 190.402 135.258 190.411 135.292C190.415 135.29 190.418 135.289 190.422 135.288C190.433 135.33 190.444 135.372 190.455 135.414ZM190.392 135.224C190.392 135.184 190.39 135.142 190.389 135.102C190.407 135.161 190.424 135.221 190.441 135.28C190.425 135.261 190.408 135.242 190.392 135.224ZM420.066 310.727C420.652 315.058 427.19 316.999 431.495 319.446C438.743 323.56 446.005 327.372 453.353 331.248C460.849 335.201 468.893 338.694 476.875 341.564C478.29 342.06 479.402 342.312 477.739 342.973C477.724 342.974 477.708 342.976 477.693 342.977C477.695 342.981 477.697 342.986 477.699 342.99C477.683 342.996 477.667 343.004 477.65 343.01C477.655 343 477.66 342.99 477.664 342.98C477.642 342.982 477.619 342.984 477.597 342.987C477.602 342.977 477.606 342.966 477.611 342.956C474.65 345.449 471.664 341.487 468.976 340.573C463.006 338.552 457.381 334.275 451.574 332.588C445.305 330.737 440.283 325.734 432.448 324.831C452.04 336.78 471.347 346.695 491.548 353.505C492.043 352.473 489.852 352.608 489.898 351.292C510.259 360.844 530.996 370.572 553.036 371.35C545.932 368.543 537.788 369.192 530.643 365.552C534.26 365.971 537.956 365.907 541.413 366.691C551.91 369.096 562.498 370.203 572.669 372.049C576.195 372.688 579.387 370.879 582.818 371.657C583.887 371.894 585.582 371.55 586.066 372.012C589.014 374.79 592.711 374.85 596.271 374.531L553.887 417.764C553.746 415.168 553.523 412.543 553.668 409.987C553.809 407.558 553.881 405.135 553.908 402.717C554.013 393.097 553.396 383.549 553.503 373.937C553.648 359.076 553.337 344.182 553.906 329.354C554.241 320.755 555.185 311.736 555.034 303.51C555.032 303.448 555.03 303.387 555.028 303.326C554.793 297.245 554.387 291.186 553.17 285.257C551.492 277.089 546.885 270.201 545.419 261.498C541.149 258.132 538.699 253.515 535.277 249.388C534.142 248.102 532.992 246.834 531.809 245.606C516.043 229.217 501.37 211.875 486.059 195.032C467.29 174.377 448.618 153.577 430.277 132.54C418.113 118.607 405.704 104.873 393.51 90.9711C393.024 90.4311 392.674 89.7561 392.183 89.0355C393.68 89.1688 394.576 91.6285 395.935 91.9932C394.747 90.06 393.01 87.5569 391.656 87.1865C389.422 86.5779 387.986 84.4714 386.507 82.7818C385.06 81.1126 383.612 79.4444 382.164 77.7762C378.24 73.0683 373.841 68.741 369.035 64.8185C359.331 56.8936 347.505 51.4072 334.988 48.1219C324.184 45.2816 312.694 44.1091 301.216 45.2037C288.913 46.3699 276.67 50.0487 265.445 56.0251C280.02 48.6806 296.041 45.1948 311.653 45.572C311.639 45.7458 311.626 45.9303 311.584 46.1037C293.652 46.1665 274.41 50.3316 259.049 61.2205C259.136 61.3361 259.223 61.4517 259.31 61.5674C266.367 57.3965 273.876 54.1391 281.545 51.9513C283.889 51.2776 286.256 50.3664 288.64 50.3139C287.846 51.4128 285.375 51.422 283.885 52.1341C284.448 52.3104 285.843 51.4051 286.342 51.83C286.178 51.9308 286.031 52.0771 285.821 52.1308C279.076 54.0905 272.429 56.6298 265.821 59.5315C264.284 60.2129 263.265 60.9279 262.275 61.7841C259.368 64.262 254.252 67.531 251.154 68.8621C249.574 69.5294 249.644 68.6758 250.299 67.6568C251.293 66.0907 250.915 65.681 248.959 66.5197C247.799 67.0251 247.57 66.8812 248.114 65.9597C249.63 63.4721 249.41 63.3927 244.821 67.0797C249.08 62.6838 247.144 63.3721 245.359 63.2108C242.864 62.9349 237.826 64.9608 241.589 58.7932C242.081 58.014 241.924 56.6367 240.428 56.6978C238.806 56.7608 236.699 56.7404 237.964 53.799C238.158 53.363 238.855 52.431 239.435 51.8971C245.263 46.7266 243.571 46.4471 242.29 46.2569C239.04 45.8381 239.105 42.7658 239.778 38.9965C240.132 36.9904 239.357 35.7828 239.71 33.7254C240.078 31.4224 245.397 26.9765 249.433 23.9933C257.339 18.0337 266.364 13.3876 275.789 10.0488C279.997 8.54449 284.595 6.91658 288.922 5.43506C296.465 2.83737 303.697 2.50958 311.445 1.4118C314.368 1.00125 316.708 0.619063 318.951 2.38419e-07C322.293 1.40926 327.663 0.0714819 332.012 0.420565C336.378 0.753853 341.054 1.32783 345.411 0.952559C348.525 0.687916 349.511 2.14199 352.257 2.63548C367.082 5.31893 381.457 10.9631 394.95 17.9176C402.085 21.5854 408.596 26.0569 414.327 30.9855C416.962 33.2474 419.492 35.5319 422.008 37.9322C435.079 50.2784 449.072 61.8098 462.118 74.1825C468.674 80.3951 475.147 87.5764 483.188 92.6771C486.356 94.6811 489.082 97.875 491.799 100.704C496.28 105.356 500.714 109.915 506.091 113.905C511.254 117.736 514.945 123.179 520.093 127.304C526.851 132.71 532.87 138.854 539.039 144.894C541.938 147.727 544.836 150.7 548.717 151.572C551.278 152.134 548.995 153.766 550.986 155.27C554.811 158.155 558.487 161.376 562.124 164.541C569.607 171.039 576.235 178.159 582.569 185.618C584.999 188.487 587.92 191.242 590.909 193.756C591.955 194.676 592.99 195.589 594.008 196.493C597.344 199.455 599.302 203.904 603.191 205.936C603.545 208.34 604.558 211.985 606.981 213.375C610.896 215.623 612.557 219.371 614.973 222.974C619.736 230.07 624.49 237.314 626.479 245.736C626.928 247.656 628.432 247.269 629.212 249.562C630.684 253.838 632.3 258.579 633.61 262.409C637.038 272.328 636.34 283.098 639.905 292.953C641.003 295.962 640.413 299.838 640.326 303.509C640.316 303.833 640.316 304.155 640.33 304.475C640.617 311.757 641.606 319.237 640.134 326.355C638.505 334.131 639.791 342.007 640.258 349.586C640.516 353.87 639.698 359.175 641.897 363.063C639.674 365.238 641.756 370.378 639.262 372.751C637.7 374.233 638.792 377.595 639.429 379.21C641.752 385.009 641.641 389.095 641.383 395.422C641.286 397.809 640.998 400.248 640.834 402.717C640.563 406.792 640.628 410.949 642.435 415.094C642.744 415.801 642.83 416.717 642.788 417.764L642.661 462.655L598.035 463.414C594.667 463.375 590.124 462.345 586.39 462.164C583.086 462.019 578.908 461.877 576.159 460.163C575.268 459.595 574.241 459.442 573.27 460.042C568.578 462.834 563.644 460.375 559.266 458.947C555.317 457.655 552.323 455.518 548.463 457.962C547.211 458.73 544.062 457.996 542.162 457.236C537.03 455.194 537.097 455.122 531.919 455.255C531.111 455.268 530.12 455.031 529.291 454.764C520.308 451.983 510.947 450.971 502.289 446.509C496.162 443.368 487.692 440.143 481.46 439.446C474.093 438.637 468.667 434.886 462.378 432.707C454.96 430.147 447.541 426.785 440.739 422.876C425.82 414.334 410.184 407.259 396.641 396.95C395.33 395.944 393.706 394.496 392.122 395.005C391.165 395.321 389.469 394.095 389.062 393.525C384.152 386.538 375.864 383.532 369.417 378.63C351.684 365.16 334.495 351.182 318.731 335.651C309.662 326.729 300.522 317.891 292.325 308.238C285.361 300.039 278.426 291.968 271.817 283.565C269.947 281.189 268.123 278.809 266.322 276.383C260.595 268.668 255.125 260.533 249.195 253.003C247.011 250.251 243.344 246.987 243.808 243.146C243.801 243.106 237.573 235.396 237.478 235.2C236.91 234.394 236.3 233.618 235.863 232.769C229.068 220.046 221.601 208.118 215.345 195.383C206.466 177.333 199.127 158.481 192.755 139.484C190.795 133.626 189.639 127.413 187.465 121.043C187.933 125.944 190.329 130.89 190.389 135.102C187.652 125.82 185.091 116.303 183.657 107.029C183.182 103.98 182.542 100.783 181.974 97.6124L178.752 80.7803L188.095 73.2137C192.382 69.8642 196.7 66.6207 200.842 64.7671C201.803 64.33 202.645 63.3065 203.377 62.594C205.773 60.2838 207.435 59.662 207.34 60.4991C207.167 62.3299 209.075 60.7903 211.869 58.3653C212.841 57.5197 214.164 56.2785 214.833 56.2946C215.38 56.2832 214.486 57.2061 213.646 58.0441C212.125 59.552 209.675 61.7623 211.208 61.525C212.297 61.3557 214.35 60.4717 216.716 57.8516C216.83 57.7324 217.237 57.534 217.614 57.3061C217.449 58.3063 215.588 59.801 214.049 61.244C216.96 60.0545 219.176 59.3346 218.032 62.0592C217.778 62.6429 218.346 62.5117 216.984 63.7593C214.161 66.3418 214.414 66.5488 216.269 66.0273C218.627 65.3563 222.109 63.6651 220.07 67.4038C219.919 67.6725 220.055 67.856 220.324 67.7518C222.938 66.7781 223.722 67.2356 222.625 70.0531C221.898 71.8888 225.937 69.1235 228.528 67.1475C234.317 62.7346 238.759 61.1135 240.123 62.4777C240.123 62.4777 240.123 62.4778 240.123 62.4779C240.581 62.936 240.702 63.7321 240.427 64.88C239.762 67.5705 237.868 71.9674 242.654 69.1111C233.886 79.9793 225.227 90.849 216.588 101.706L220.542 85.9435C230.195 108.059 241.686 129.077 254.295 149.383C273.768 180.64 295.509 210.386 321.039 236.226C317.973 231.849 313.698 228.362 310.779 223.945C310.542 223.582 310.554 223.181 310.207 221.934C315.093 227.524 320.094 233 325.206 238.357C325.774 238.953 326.343 239.546 326.913 240.138C327.448 240.693 328.081 241.324 327.195 241.275C324.639 241.154 327.532 242.655 327.76 242.658C330.115 242.738 331.76 244.787 333.189 246.787C335.089 249.421 337.687 251.095 339.969 253.182C350.432 262.734 361.194 271.898 372.289 280.546C376.597 283.906 380.707 287.697 385.674 290.457C388.576 292.064 387.744 289.004 390.051 290.52C392.688 292.244 389.42 293.156 392.107 294.973C394.885 296.846 397.327 299.238 400.565 301.017C400.297 300.08 400.088 299.361 399.677 297.927C405.543 304.782 412.613 307.676 420.066 310.727ZM528.911 451.326C521.99 448.446 514.684 447.736 507.729 445.499C514.37 448.713 521.746 449.737 528.911 451.326ZM480.246 435.914C486.55 440.119 494.113 441.769 501.449 443.774C494.4 441.06 486.942 439.352 480.246 435.914ZM550.194 455.155C562.775 457.112 575.633 458.33 588.764 458.57C588.729 458.304 588.695 458.039 588.66 457.773C575.609 457.53 562.823 456.318 550.31 454.373C550.272 454.634 550.233 454.894 550.194 455.155ZM636.981 403.43C636.981 408.208 637.256 412.986 637.412 417.764L637.3 457.369L597.928 458.039C597.115 458.078 596.3 458.11 595.484 458.135C596.3 458.167 597.116 458.199 597.932 458.226L637.486 457.553L637.599 417.764C637.904 412.948 638.193 408.126 636.981 403.43ZM218.594 128.502C214.619 114.166 209.374 102.411 204.874 90.6839L204.801 90.3025L205.013 90.1311C205.508 89.5563 206.003 88.9827 206.498 88.4105C205.911 88.8927 205.329 89.3792 204.751 89.8698L204.399 90.1555L204.52 90.7909C207.255 103.527 212.291 115.667 218.594 128.502ZM355.598 49.8118C359.512 52.375 362.163 54.4296 366.092 54.7823C362.72 52.5913 359.787 50.717 355.598 49.8118ZM403.462 91.1783C408.129 98.8606 413.663 104.092 419.686 108.646C414.806 102.622 409.569 97.1415 403.462 91.1783ZM368.805 62.9126C369.486 63.4658 370.164 64.0567 370.625 63.9365C371.007 63.8403 371.049 63.3091 371.132 62.8976C371.162 62.6143 370.782 62.1239 370.331 62.0738C366.933 61.752 365.189 58.2823 362.249 56.9899C363.969 57.2552 365.383 59.1298 367.713 59.6738C362.015 55.2441 355.941 54.5183 350.404 50.9566C350.397 50.949 350.39 50.9415 350.383 50.9339C351.825 53.0072 353.997 53.2114 355.77 54.1919C360.385 56.7597 364.772 59.6432 368.805 62.9126ZM329.239 44.6061C334.221 46.0158 338.377 46.9613 342.536 48.0236C338.426 46.9446 334.533 44.3402 329.239 44.6061ZM553.196 265.628C553.108 265.755 553.364 266.734 554.015 266.743C554.712 266.756 555.005 266.221 555.04 265.485C555.159 262.91 553.536 260.746 552.392 257.343C552.386 257.347 552.381 257.35 552.375 257.354C552.042 258.486 551.814 258.792 551.878 259.09C552.311 261.248 555.179 263.261 553.196 265.628ZM387.607 80.5492C386.345 79.0737 385.145 77.5355 383.924 76.0158C382.205 73.7523 380.308 71.6252 377.859 70.1649C379.897 72.1023 381.838 74.12 383.704 76.236C385.004 77.6741 386.305 79.1119 387.607 80.5492ZM392.757 86.6445C395.919 90.5197 398.899 94.5301 402.906 97.4663C399.588 93.747 396.874 89.3778 392.757 86.6445ZM473.292 174.572C475.577 176.481 475.696 179.856 477.04 180.423C481.594 182.359 483.471 186.839 486.617 190.004C483.149 184.18 479.459 178.523 473.292 174.572ZM413.191 109.27C416.028 112.21 415.709 115.606 419.311 118.714C419.89 115.013 415.977 112.216 413.191 109.27ZM494.933 201.536C495.081 201.667 495.242 201.787 495.367 201.894C499.647 205.35 503.085 209.648 506.549 213.873C508.011 215.672 509.516 216.031 510.27 215.51C511.165 214.895 509.475 213.509 508.677 212.583C503.625 206.591 497.654 201.47 492.66 195.327C491.098 193.405 488.804 191.946 486.844 190.281C485.647 191.255 487.734 192.203 488.34 193.215C489.863 195.794 492.058 196.35 493.887 197.876C496.379 199.95 496.491 200.863 494.933 201.536ZM543.951 257.52C543.051 258.777 544.086 258.345 544.469 258.046C544.913 257.698 545.641 258.771 545.925 257.722C545.621 257.331 545.241 256.938 544.966 256.47C544.714 256.067 544.245 255.634 544.558 255.109C544.562 255.116 544.567 255.122 544.571 255.128C549.163 258.432 548.943 264.967 552.7 268.849C549.597 260.525 545.03 252.498 538.652 246.013C536.526 243.861 534.368 241.738 532.169 239.653C531.334 238.857 530.24 238.366 529.727 237.248C526.804 231.038 520.91 226.913 516.622 221.694C515.278 220.056 514.107 219.875 512.255 219.723C517.902 224.935 522.786 229.836 526.379 235.75C526.944 236.676 527.881 237.557 528.674 238.395C531.552 241.384 534.459 244.344 537.331 247.335C539.609 249.751 541.687 252.351 543.412 255.167C543.888 255.957 544.676 256.521 543.951 257.52ZM244.526 71.8212C242.467 74.8599 231.555 88.8611 219.392 104.511L224.339 84.7947C235.002 108.995 250.779 134.465 251.767 137.008C241.136 120.702 232.068 102.876 223.577 85.0253L218.83 103.948C219.701 102.785 220.568 101.62 221.431 100.455C228.234 91.2269 235.061 81.7437 243.404 72.8439C243.737 72.4787 244.084 72.2182 244.526 71.8212ZM554.313 279.094C556.548 286.206 557.704 293.62 557.823 301.03C557.832 301.863 557.788 302.703 557.85 303.51C557.933 305.106 558.222 306.603 559.079 307.831C559.078 307.822 559.079 307.812 559.078 307.802C560.017 306.672 559.786 305.003 559.796 303.51C559.796 303.49 559.796 303.469 559.796 303.449C560.033 295.04 558.901 286.582 556.548 278.443C556.23 277.386 556.13 275.971 554.914 276.255C553.473 276.603 553.922 277.861 554.313 279.094ZM343.982 52.248C335.678 49.4935 326.984 47.5107 317.981 46.2259C327.012 46.475 335.893 48.6697 343.982 52.248ZM558.152 403.43C557.153 407.812 558.503 412.228 557.9 416.643C559.951 412.195 558.744 407.812 558.152 403.43ZM557.12 350.113C558.62 347.642 558.983 344.906 558.403 341.545C557.765 337.822 557.904 333.802 558.628 329.979C558.778 329.156 559.573 328.365 558.569 327.805C557.565 327.245 557.312 328.332 557.298 329.682C557.229 336.493 557.17 343.303 557.12 350.113ZM557 325.301C558.612 319.78 559.359 314.034 559.088 308.065C555.68 313.09 558.198 319.681 557 325.301ZM559.176 307.968C559.177 307.957 559.177 307.946 559.177 307.935C559.173 307.941 559.169 307.946 559.165 307.952C559.168 307.957 559.173 307.963 559.176 307.968ZM368.221 66.828C368.336 66.6559 368.451 66.4838 368.566 66.3117C373.389 69.7856 377.632 74.0004 381.33 78.6104C386.754 85.0276 392.104 91.5208 397.688 97.8193C392.086 91.5654 386.494 85.3011 380.913 79.0265C377.098 74.5769 372.855 70.4871 368.221 66.828ZM483.989 194.724C465.2 175.953 448.243 155.489 430.293 135.925C430.297 135.922 430.3 135.918 430.304 135.914C430.567 135.698 430.82 135.445 431.06 135.205C448.645 155.133 466.27 174.977 483.989 194.724ZM402.383 104.233C402.523 104.14 402.651 104.011 402.78 103.883C411.439 113.538 420.123 123.168 428.833 132.773C428.685 132.874 428.503 132.962 428.367 133.099C419.68 123.502 411.019 113.88 402.383 104.233ZM383.354 292.67C377.871 288.629 373.306 283.612 366.716 280.64C371.982 285.032 377.313 289.293 382.718 293.432C382.93 293.178 383.142 292.924 383.354 292.67ZM312.705 48.897C311.454 48.7658 312.14 49.7887 310.996 49.4644C305.298 47.8843 299.609 49.6674 294.025 50.5088C290.972 50.9823 289.796 50.952 288.702 50.3076C295.249 48.8177 301.974 47.6553 308.551 48.2884C309.845 48.424 310.522 47.965 311.649 48.0253C313.407 48.1349 313.285 48.483 312.705 48.897ZM288.641 50.2814C288.64 50.2783 288.639 50.2751 288.638 50.272C288.645 50.2765 288.654 50.2803 288.662 50.2848C288.66 50.2873 288.658 50.2899 288.656 50.2925C288.651 50.2888 288.646 50.2851 288.641 50.2814ZM288.662 50.2848C288.664 50.2816 288.666 50.2785 288.668 50.2753C288.67 50.2809 288.672 50.2866 288.674 50.2922C288.669 50.2898 288.666 50.2872 288.662 50.2848ZM288.64 50.3139C288.645 50.3068 288.651 50.2996 288.656 50.2925C288.664 50.2991 288.672 50.3058 288.68 50.3125C288.667 50.3129 288.654 50.3134 288.64 50.3139ZM288.674 50.2922C288.682 50.2975 288.693 50.3024 288.702 50.3076C288.695 50.3092 288.687 50.3109 288.68 50.3125C288.678 50.3057 288.676 50.299 288.674 50.2922ZM557.547 371.265C556.703 371.071 555.203 370.841 555.064 371.761C554.927 372.682 556.228 372.655 557.258 372.798C562.745 373.611 568.218 374.343 573.625 374.832C568.753 372.232 563.006 372.504 557.547 371.265ZM334.411 52.9462C327.749 51.1462 320.871 50.5341 313.832 49.5233C313.419 49.461 313.113 49.1232 312.765 48.9038C315.076 48.2855 317.688 48.2806 320.579 48.728C325.037 49.4237 329.442 50.2966 333.712 51.5531C334.561 51.7991 335.641 52.0687 335.574 52.6959C335.538 53.0211 335.052 53.1256 334.411 52.9462ZM286.189 193.951C289.474 196.3 295.828 204.117 298.931 209.64C293.708 204.398 290.485 198.731 286.189 193.951ZM431.366 323.546C429.224 320.566 426.973 318.882 423.218 317.862C425.031 321.14 427.845 322.239 431.366 323.546ZM393.993 297.494C393.22 296.869 392.38 296.324 391.904 296.772C391.313 297.315 392.118 298.592 392.958 298.848C397.216 300.115 399.933 304.187 405.2 306.194C405.191 306.188 405.183 306.182 405.174 306.177C400.712 302.807 397.325 300.166 393.993 297.494ZM378.732 82.4479C378.549 82.2176 378.365 81.9881 378.18 81.7594C374.897 77.3602 370.806 73.7878 366.768 70.1003C362.713 66.4227 357.647 64.0897 354.14 59.7643C363.045 66.3212 372.74 72.3016 378.237 81.7033C378.403 81.9506 378.568 82.1988 378.732 82.4479ZM506.078 221.428C506.244 221.262 506.41 221.096 506.576 220.93C515.43 230.42 524.311 239.884 533.219 249.322C533.048 249.493 532.877 249.664 532.706 249.835C523.802 240.393 514.926 230.924 506.078 221.428ZM312.658 48.9327C312.636 48.9388 312.611 48.9439 312.589 48.9502C312.589 48.9502 312.653 48.9259 312.691 48.9079C312.696 48.9043 312.7 48.9005 312.705 48.897C312.708 48.8972 312.71 48.8974 312.712 48.8976C312.72 48.8928 312.723 48.8893 312.718 48.889C312.726 48.8893 312.735 48.8896 312.744 48.8899C312.751 48.8944 312.758 48.8992 312.765 48.9038C312.746 48.909 312.726 48.9141 312.707 48.9194C312.677 48.9336 312.647 48.9478 312.616 48.962C312.631 48.9522 312.644 48.9423 312.658 48.9327ZM353.248 60.9511C350.378 58.7867 346.628 58.2492 343.91 55.6731C347.398 56.828 351.054 57.9409 353.248 60.9511ZM551.23 415.357C551.187 414.402 551.328 413.314 552.184 413.479C553 413.611 553.043 414.6 552.963 415.621C552.904 416.337 552.844 417.051 552.785 417.764L596.249 373.429C594.747 373.3 593.238 373.152 591.7 372.985C591.708 372.985 591.717 372.985 591.725 372.985C591.779 372.741 591.808 372.516 591.835 372.272C593.307 372.189 594.772 372.078 596.22 371.967L551.323 417.764C551.288 416.962 551.256 416.16 551.23 415.357ZM548.773 277.581C546.262 273.833 545.786 269.292 543.501 265.429C546.625 268.792 547.494 273.414 548.773 277.581ZM397.453 103.898C397.092 104.306 396.173 103.965 395.691 103.236C392.773 98.7445 389.027 94.9879 385.462 91.0038C385.06 90.5671 384.893 89.8483 384.331 88.6398C389.49 92.335 392.687 97.6194 396.795 101.573C397.679 102.412 397.867 103.437 397.453 103.898ZM416.746 127.478C411.259 120.988 405.798 114.425 400.205 107.995C399.058 106.673 398.477 105.763 398.881 105.265C399.572 104.434 400.567 106.282 401.246 107.094C406.407 113.211 411.495 119.353 416.619 125.506C416.612 125.498 416.605 125.49 416.597 125.482C416.648 126.13 416.687 126.792 416.746 127.478ZM507.553 352.046C512.546 353.555 517.167 355.784 522.768 358.219C519.426 358.083 517.274 357.985 514.964 357.846C515.586 359.632 518.165 359.175 519.363 360.864C513.299 358.884 507.626 357.365 502.111 354.81C495.723 351.842 488.892 349.104 482.117 346.755C482.093 346.76 482.07 346.764 482.046 346.768C479.051 345.709 478.456 344.589 477.699 342.99C477.713 342.984 477.726 342.978 477.739 342.973C480.844 342.674 483.86 342.319 485.81 345.874C486.458 347.009 487.613 346.442 488.492 346.689C493.376 348.063 498.481 348.39 502.728 351.751C504.022 352.779 505.961 351.567 507.553 352.046ZM433.408 144.787C426.467 139.645 421.154 133.013 416.656 125.567C422.617 131.597 427.959 138.246 433.408 144.787ZM416.619 125.506C416.632 125.527 416.644 125.547 416.656 125.567C416.64 125.551 416.624 125.534 416.608 125.518C416.612 125.514 416.616 125.51 416.619 125.506ZM479.607 197.336C477.987 196.812 476.673 197.381 475.366 195.1C471.159 187.75 464.339 183.012 458.957 176.836C458.593 176.408 458.242 175.967 457.812 175.465C459.005 175.111 459.55 177.363 461.039 177.458C458.389 174.096 455.938 170.908 452.834 168.187C452.431 167.844 451.661 167.729 451.565 167.546C450.527 165.508 447.107 163.103 447.89 161.901C448.638 160.687 451.04 163.97 452.09 165.204C452.097 165.212 452.104 165.221 452.112 165.229C461.191 175.815 470.658 186.061 479.607 197.336ZM255.253 142.611C259.348 148.987 264.371 154.398 268.082 161.153C268.541 161.998 269.645 163.182 269.183 163.646C268.765 164.085 267.894 163.018 267.284 162.077C267.28 162.079 267.276 162.081 267.272 162.084C263.122 155.697 259.113 149.205 255.253 142.611ZM290.763 192.44C293.094 197.023 297.792 199.494 300.358 203.815C300.369 203.821 300.379 203.826 300.39 203.831C301.429 205.603 302.926 207.423 303.212 209.528C297.817 204.41 294.388 198.73 290.193 193.657C289.662 193.012 289.293 192.043 289.784 191.833C289.932 191.774 290.667 192.247 290.763 192.44ZM309.984 217.05C312.441 219.776 317.263 220.373 316.974 225.137C313.699 223.21 312.282 219.796 309.984 217.05ZM319.224 227.803C323.132 230.477 325.27 233.602 327.698 236.247C328.131 236.717 328.572 237.17 329.033 237.6C328.507 237.224 327.988 236.837 327.474 236.436C324.67 234.249 322.031 231.641 319.224 227.803ZM477.662 342.913C477.667 342.925 477.674 342.937 477.679 342.948C477.692 342.922 477.704 342.895 477.717 342.869C477.699 342.884 477.679 342.898 477.662 342.913ZM279.05 176.756C281.215 180.159 284.444 183.149 286.495 187.883C282.351 184.388 280.93 180.212 278.215 177.037C278.115 176.918 278.042 176.352 278.147 176.361C278.38 176.367 278.895 176.563 279.02 176.738C279.03 176.744 279.04 176.75 279.05 176.756ZM554.583 363.281C558.056 363.526 559.249 365.882 562.4 365.25C562.41 365.244 562.42 365.239 562.43 365.233C562.335 365.67 562.213 366.104 562.117 366.541C561.344 366.513 560.581 366.565 559.828 366.471C548.915 365.148 537.826 363.051 526.703 360.368C525.377 360.046 524.189 359.625 524.278 358.651C524.405 357.169 525.948 357.753 527.285 358.097C533.345 359.654 539.536 360.633 545.36 362.258C548.549 363.151 551.722 363.073 554.583 363.281ZM487.168 207.53C483.93 204.617 481.083 202.431 478.825 199.423C481.358 198.94 485.554 202.667 487.168 207.53ZM509.355 233.015C506.676 231.825 505.517 229.303 504.194 227.271C504.201 227.28 504.209 227.288 504.216 227.296C501.572 223.23 498.682 219.594 494.864 216.609C501.17 220.182 505.579 226.446 510.703 231.666C511.547 232.547 512.268 233.598 511.619 234.247C510.868 234.951 510.001 233.3 509.355 233.015ZM537.004 263.671C535.577 263.177 533.936 264.502 534.128 262.69C534.375 260.158 532.707 259.045 531.265 258.086C530.227 257.401 529.795 256.376 529.339 255.327C528.369 253.771 527.412 252.199 525.826 250.889C521.779 247.527 519.295 242.228 514.739 239.096C513.767 238.436 512.936 237.263 513.667 236.672C514.398 236.081 515.333 237.196 516.142 238.065C520.281 242.594 524.725 246.958 528.472 251.738C528.475 251.751 528.478 251.763 528.481 251.776C529.127 252.597 529.794 253.398 530.476 254.19C532.729 257.083 535.333 259.791 537.004 263.671ZM543.871 416.444C543.257 415.325 543.867 414.896 544.071 414.698C545.881 412.82 546.02 410.053 545.162 407.482C544.364 405.077 545.752 405.109 546.159 404.879C547.24 404.253 547.18 406.296 547.18 406.955C547.268 410.54 547.445 414.154 547.574 417.764L596.145 368.219C592.334 368.474 588.379 368.499 584.521 367.942C580.259 367.322 576.194 368.272 572.067 367.477C572.059 367.47 572.051 367.462 572.043 367.454C568.76 366.829 564.677 367.559 562.878 364.641C563.761 363.13 565.878 367.333 565.662 363.663C565.627 362.963 567.215 363.124 568.158 363.212C574.198 363.736 579.883 364.42 585.601 365.821C588.916 366.641 592.966 366.983 596.084 365.152L544.507 417.764C544.319 417.313 544.108 416.873 543.871 416.444ZM544.113 280.349C541.158 278.651 541.581 275.62 541.231 273.493C540.729 270.506 538.215 269.347 537.192 266.989C536.943 266.444 535.897 266.059 536.599 265.392C537.267 264.743 538.118 265.266 538.582 266.06C538.591 266.062 538.599 266.064 538.608 266.066C541.083 270.339 544.174 274.636 544.113 280.349ZM545.066 374.794C545.292 374.299 543.322 373.574 544.975 372.751C545.527 372.487 546.115 372.85 546.271 374.201C547.326 383.197 547.385 392.259 546.811 401.353C546.79 401.65 546.301 401.88 545.526 402.605C545.425 394.927 544.257 388.073 544.673 380.791C544.783 378.814 544.181 376.771 545.066 374.794ZM543.794 360.426C543.233 357 545.532 356.703 545.877 354.331C547.825 359.273 547.881 363.525 543.89 366.985C544.986 364.283 544.105 362.338 543.794 360.426ZM543.641 315.354C543.449 313.84 542.303 310.978 545.264 311.329C545.986 311.428 545.981 310.538 545.631 309.813C545.437 309.418 545.1 309.187 544.824 308.858C545.578 307.128 545.867 305.333 545.954 303.51C546.105 301.723 545.57 299.921 545.739 298.142C545.777 297.658 545.75 296.921 546.652 296.978C547.194 297.018 547.358 297.363 547.386 297.91C547.5 299.776 547.539 301.643 547.503 303.51C547.381 314.442 547.298 325.364 547.234 336.306C547.221 336.306 547.207 336.306 547.194 336.306C547.188 336.767 546.92 337.229 546.647 338.151C545.338 335.68 544.61 332.55 545.243 330.474C546.636 325.861 544.903 321.412 545.798 316.996C545.994 316.041 546.587 314.096 545.061 313.964C544.064 313.872 543.75 314.665 543.641 315.354ZM543.577 316.107C543.586 315.928 543.594 315.651 543.641 315.354C543.683 315.686 543.681 315.953 543.577 316.107Z" fill="var(--stroke-0, #DADAF5)"/>
<path id="r" d="M218.508 346.45C213.262 347.824 207.771 348.435 202.08 348.714C207.412 347.564 212.931 346.929 218.508 346.45ZM218.508 346.45C218.596 346.427 218.686 346.404 218.774 346.381C218.774 346.381 218.698 346.422 218.657 346.427C218.658 346.43 218.658 346.434 218.659 346.437C218.609 346.442 218.558 346.446 218.508 346.45ZM218.739 346.418C218.784 346.424 218.832 346.428 218.877 346.434C218.806 346.442 218.735 346.45 218.663 346.458C218.688 346.445 218.714 346.431 218.739 346.418ZM99.1882 558.202C98.0007 562.054 103.015 564.883 106.051 567.415C111.154 571.743 116.75 575.266 122.629 578.215C128.659 581.246 135.392 583.065 142.038 583.593C143.214 583.675 144.104 583.586 142.923 584.693C142.912 584.698 142.9 584.704 142.889 584.71C142.891 584.713 142.893 584.717 142.895 584.72C142.883 584.731 142.872 584.742 142.86 584.753C142.862 584.743 142.864 584.732 142.867 584.721C142.849 584.729 142.832 584.738 142.815 584.746C142.817 584.735 142.819 584.724 142.822 584.713C140.873 587.932 137.834 584.897 135.624 584.616C130.524 583.997 125.819 580.763 121.02 579.659C115.712 578.377 112.167 573.822 105.514 572.43C120.116 585.117 138.312 591.475 156.236 589.999C156.29 588.859 154.616 589.812 154.26 588.568C154.98 588.621 155.705 588.667 156.435 588.706C184.751 589.648 212.802 592.31 241.066 589.118C230.78 587.671 220.417 590.156 209.939 588.552C214.736 587.992 219.534 587.01 224.332 586.977C238.878 586.9 253.501 586.167 268.008 586.956C273.074 587.232 277.297 585.175 282.363 585.763C283.898 585.939 286.317 585.523 287.046 585.968C294.031 590.158 302.82 587.775 310.994 588.175C313.824 588.316 316.645 588.388 319.462 588.414C330.666 588.52 341.788 587.902 352.983 588.009C370.293 588.155 387.64 587.844 404.912 588.412C415.044 588.752 425.676 589.714 435.348 589.534C446.478 589.314 457.57 589.676 468.546 589.954C472.727 590.066 476.941 590.029 481.161 589.998C488.227 589.909 494.882 588.955 502.146 589.546C508.507 585.57 515.968 584.323 522.451 580.39C537.408 571.39 550.574 557.854 557.33 540.781C560.466 532.883 562.369 524.433 562.935 515.661C563.809 496.68 564.773 477.7 565.87 458.745L576.974 482.64C576.215 481.91 575.447 481.181 574.672 480.452C560.601 467.253 544.548 455.53 527.617 444.913C526.949 444.504 526.37 443.929 525.628 443.347C527.193 443.09 528.905 445.285 530.402 445.314C528.573 443.691 525.963 441.67 524.457 441.662C521.97 441.642 519.816 439.991 517.696 438.754C508.268 433.187 498.529 428.03 488.591 423.147C472.923 415.456 456.39 409.23 439.687 403.583C425.261 398.717 410.573 394.341 395.659 390.88C379.66 387.169 363.321 384.388 346.867 382.469C367.941 385.3 388.677 389.481 408.965 394.999C408.896 395.161 408.825 395.333 408.72 395.486C385.04 389.615 360.587 384.075 336.109 382.595C336.104 382.739 336.098 382.883 336.092 383.028C346.78 384.34 357.424 385.988 367.92 388.033C371.146 388.657 374.539 389.021 377.495 390.098C375.92 390.703 372.86 389.512 370.634 389.381C371.217 389.82 373.451 389.718 373.821 390.333C373.561 390.342 373.295 390.398 373.006 390.342C363.564 388.735 354.069 387.207 344.616 385.499C342.42 385.106 340.754 385.033 339.008 385.077C333.91 385.204 325.838 384.24 321.699 383.031C319.588 382.414 320.443 381.851 321.972 381.569C324.319 381.118 324.296 380.563 321.727 379.821C320.199 379.381 320.125 379.117 321.438 378.832C325.033 378.06 324.834 377.919 317.464 377.326C325.172 377.175 322.778 376.279 321.318 374.941C319.271 373.013 313.373 370.921 321.709 369.143C322.778 368.921 323.748 367.811 322.418 366.826C320.975 365.751 319.277 364.277 322.649 363.027C323.153 362.845 324.469 362.644 325.356 362.644C334.236 362.728 332.946 361.29 331.997 360.337C329.535 357.885 331.882 355.635 335.002 353.176C336.662 351.861 336.833 350.436 338.473 349.058C340.282 347.518 347.444 347.271 352.62 347.079C362.804 346.675 373.099 347.181 383.248 348.225C387.821 348.689 392.75 349.022 397.422 349.217C405.507 349.529 412.557 351.433 420.48 352.338C423.452 352.674 425.836 352.832 428.188 352.709C431.203 354.816 436.791 354.511 441.066 355.488C445.348 356.464 450.005 357.579 454.37 357.549C457.474 357.521 458.385 359.036 461.109 359.66C475.808 363.019 490.317 367.619 504.747 372.013C512.389 374.341 519.628 377.088 526.509 380.165C550.033 390.694 574.06 401.594 596.043 416.546C603.516 421.637 610.923 427.65 618.743 433.131L631.406 445.08L630.646 458.745C630.888 461.153 631.219 463.551 631.678 465.93C632.502 470.19 632.171 475.066 632.091 479.633C631.971 487.155 631.882 494.562 632.863 502.276C633.422 506.697 633.214 511.159 633.101 515.661C633.025 519.655 632.843 523.608 632.821 527.666C632.754 540.83 629.914 553.982 625.583 566.53C623.556 572.453 621.002 578.249 620.605 583.877C620.328 587.601 618.193 585.716 616.697 589.24C613.769 596.025 609.93 602.62 605.696 608.824C596.998 621.601 585.718 632.25 573.03 640.6C566.859 644.67 560.234 649.19 553.834 653.19C549.434 655.954 543.916 656.931 540.248 660.339C537.522 660.134 533.185 660.269 530.752 662.313C526.802 665.626 522.08 666.283 517.218 667.653C507.624 670.357 497.816 672.752 487.83 671.908C485.562 671.709 485.402 673.259 482.586 673.234C482.116 673.231 481.64 673.227 481.161 673.222C477.572 673.177 473.727 673.309 470.581 673.559C461.715 674.286 452.619 671.847 443.983 674.762C441.066 675.763 437.343 674.712 433.889 674.836C425.407 675.124 416.695 676.113 408.404 674.641C399.347 673.012 390.174 674.297 381.346 674.765C376.357 675.023 370.177 674.204 365.648 676.404C363.115 674.18 357.129 676.262 354.365 673.768C352.638 672.207 348.723 673.299 346.842 673.936C340.087 676.258 335.328 676.147 327.959 675.89C325.178 675.792 322.338 675.505 319.462 675.341C314.716 675.069 309.874 675.134 305.046 676.942C302.014 678.079 295.681 676.189 290.653 676.071C287.391 675.999 283.361 676.044 280.521 674.505C279.599 673.993 278.563 673.907 277.642 674.574C273.229 677.687 268.162 675.705 263.634 674.804C259.604 673.986 256.188 672.281 252.733 675.278C251.62 676.223 248.358 675.994 246.324 675.572C240.835 674.453 240.912 674.375 235.731 675.52C234.925 675.694 233.888 675.663 233.005 675.574C223.449 674.716 213.854 676.033 203.991 674.181C196.967 672.869 187.448 672.426 181.077 673.861C173.516 675.554 166.838 673.991 159.852 674.342C158.719 674.401 157.579 674.449 156.435 674.488C146.65 674.74 136.545 673.658 127.082 671.311C103.081 665.457 79.3264 656.003 61.0096 639.622C59.2262 638.029 57.0843 635.786 55.0793 635.746C53.8614 635.739 51.6665 633.641 51.1533 632.814C44.9024 622.796 35.2224 615.056 28.7251 605.236C11.1184 578.865 1.36283 546.979 2.33658 515.661C2.34567 515.414 2.35483 515.166 2.36407 514.919C2.86998 501.141 2.80877 487.439 3.54502 473.699C3.85558 467.917 4.06928 462.147 4.25441 456.383L5.32575 437.307L17.4645 428.417C25.5473 422.15 33.793 416.265 42.3051 410.897C52.073 404.738 62.3411 399.14 72.0883 393.249C75.6522 391.074 80.129 387.414 84.3558 388.12C84.4073 388.094 94.4585 382.135 94.7222 382.056C95.764 381.523 96.766 380.952 97.8227 380.562C113.682 374.485 128.92 368.012 144.769 363.138C167.275 356.207 190.336 351.492 213.351 348.101C220.442 347.061 227.749 346.906 235.463 345.802C229.825 345.455 223.642 347.04 218.877 346.434C230.021 345.18 241.381 344.22 252.211 344.385C262.082 344.488 273.502 343.806 281.698 345.811C282.921 346.099 284.522 345.866 285.752 345.806C289.781 345.626 291.779 346.275 291.006 346.837C289.352 348.099 292.317 348.189 296.778 348.272C298.327 348.299 300.515 348.284 301.086 348.751C301.574 349.115 300.026 349.182 298.601 349.233C296.034 349.312 292.046 349.331 293.599 350.177C294.707 350.778 297.219 351.485 301.439 351.174C301.637 351.164 302.155 351.296 302.671 351.387C301.699 352.004 298.85 351.833 296.329 351.87C299.843 352.947 302.343 353.933 299.128 355.159C298.432 355.417 299.029 355.701 296.838 355.706C292.284 355.727 292.337 356.064 294.379 356.91C296.989 357.985 301.318 359.096 296.565 360.48C296.22 360.578 296.191 360.806 296.505 360.909C299.53 361.951 299.817 362.818 296.639 364.161C294.563 365.033 300.194 365.69 303.973 366.033C312.406 366.787 317.38 368.83 317.379 370.751C317.379 370.751 317.379 370.751 317.379 370.751C317.379 371.399 316.826 372.046 315.669 372.667C312.931 374.107 307.897 375.94 314.068 377.242C269.719 381.721 227.364 392.72 187.074 408.174C147.187 423.553 108.896 443.003 77.3836 469.045C82.5033 465.965 86.9612 461.63 92.2469 458.805C92.6796 458.576 93.1107 458.607 94.5254 458.307C86.8498 463.632 79.4537 469.228 72.411 475.089C71.7488 475.64 70.9975 476.293 71.1604 475.369C71.6124 472.702 69.6418 475.705 69.6145 475.944C69.2498 478.394 66.8765 480.096 64.5974 481.597C63.8489 482.094 63.163 482.636 62.5194 483.207L75.1901 456.383C75.2857 459.306 75.7817 462.122 75.9728 465.024C77.0987 481.879 78.0801 498.77 79.0172 515.661C79.0638 516.232 79.1164 516.799 79.1749 517.363C79.6514 521.974 79.9967 526.686 81.9729 531.038C83.1451 533.553 84.4642 531.073 85.2569 533.153C86.2021 535.497 83.1127 534.687 84.1078 537.169C85.1606 539.722 85.7503 542.485 87.4406 545.026C87.7233 544.208 87.9413 543.584 88.4066 542.363C89.342 549.676 94.1253 554.296 99.1882 558.202ZM231.892 672.291C224.293 670.931 216.732 672.003 209.133 671.715C216.693 673.027 224.331 672.244 231.892 672.291ZM178.62 670.941C186.373 672.764 194.395 671.961 202.34 671.795C194.472 671.2 186.488 671.911 178.62 670.941ZM254.038 672.244C266.998 672.332 279.957 672.394 292.917 672.43C292.879 672.165 292.841 671.9 292.803 671.635C279.881 671.6 266.96 671.54 254.038 671.454C254.038 671.717 254.038 671.981 254.038 672.244ZM318.632 671.488C312.261 671.487 305.891 671.848 299.52 671.978C305.929 672.297 312.376 672.874 318.632 671.488ZM219.442 375.509C237.689 373.671 253.067 370.166 268.327 367.713C252.284 367.936 236.457 370.977 219.442 375.509ZM466.965 407.61C472.398 410.392 476.384 412.54 481.421 412.752C476.563 410.601 472.46 408.684 466.965 407.61ZM537.823 442.731C545.085 449.371 552.146 453.593 559.464 457.325C552.983 451.927 546.016 447.329 537.823 442.731ZM487.553 421.143C488.634 421.681 489.735 422.252 490.274 422.086C490.72 421.951 490.56 421.385 490.503 420.943C490.43 420.641 489.76 420.156 489.175 420.141C484.707 420.058 481.296 416.48 477.149 415.171C479.433 415.42 481.847 417.36 484.994 417.795C476.316 413.475 468.271 412.632 460.392 408.504C460.382 408.496 460.372 408.488 460.362 408.479C462.559 410.741 465.496 411.088 468.015 412.171C474.624 415.022 481.153 417.966 487.553 421.143ZM432.282 398.891C438.687 401.378 444.205 403.038 449.744 404.673C444.224 403.016 439.22 399.758 432.282 398.891ZM494.651 595.948C494.547 595.827 493.372 595.788 493.113 596.408C492.828 597.072 493.296 597.512 494.087 597.762C496.862 598.628 499.846 597.68 503.978 597.456C503.977 597.449 503.975 597.443 503.973 597.437C502.872 596.814 502.626 596.509 502.278 596.492C499.774 596.343 496.467 598.547 494.651 595.948ZM517.975 436.256C512.853 433.201 507.903 429.643 502.102 427.823C507.48 430.529 512.765 433.335 517.975 436.256ZM525.383 440.838C529.937 443.833 534.245 447.085 539.21 449.142C534.718 446.154 530.511 442.457 525.383 440.838ZM566.484 522.756C566.541 525.34 563.965 527.15 564.342 528.331C565.586 532.495 562.939 535.911 561.873 539.475C565.027 534.671 567.541 529.066 566.484 522.756ZM552.936 459C556.544 461.49 557.002 464.982 561.27 467.603C561.156 463.787 556.486 461.477 552.936 459ZM555.672 549.601C555.615 549.753 555.574 549.913 555.528 550.041C554.164 554.372 551.367 558.061 548.422 561.417C547.164 562.835 547.17 564.168 547.813 564.82C548.574 565.592 549.484 563.987 550.137 563.191C554.443 558.123 557.033 551.972 560.175 546.068C561.167 544.203 561.34 541.875 561.754 539.753C560.324 539.189 560.576 541.13 559.995 541.947C558.525 543.981 559.035 545.88 558.47 547.809C557.686 550.428 556.882 550.726 555.672 549.601ZM507.007 589.114C505.993 587.914 506.065 589.042 506.243 589.494C506.451 590.02 505.012 590.469 506.039 591.011C506.579 590.81 507.147 590.533 507.755 590.377C508.284 590.227 508.93 589.865 509.377 590.303C509.369 590.306 509.361 590.309 509.352 590.311C504.049 594.074 497.042 592.096 491.324 594.521C504.029 593.973 517.037 590.224 527.541 582.356C528.3 581.792 528.785 580.915 529.794 580.695C535.468 579.359 539.096 574.361 543.253 570.637C544.574 569.453 544.557 568.371 544.354 566.717C540.651 571.779 536.434 575.838 531.186 577.958C530.365 578.29 529.578 578.953 528.818 579.482C522.96 583.659 516.596 587.211 509.748 589.15C508.718 589.435 507.808 590.077 507.007 589.114ZM313.419 380.487C302.82 379.362 205.978 403.856 201.645 407.347C224.167 398.433 248.394 392.025 272.473 386.479C284.966 383.591 297.904 380.991 311.702 380.433C312.261 380.405 312.747 380.461 313.419 380.487ZM478.526 592.786C465.477 592.653 452.427 592.488 439.377 592.369C435.994 592.328 432.501 592.075 429.979 593.585C429.99 593.585 430.002 593.585 430.013 593.585C431.356 594.543 433.352 594.283 435.117 594.303C449.548 594.544 463.979 594.775 478.372 595.113C479.296 595.127 480.324 595.229 481.161 595.181C481.764 595.132 482.22 594.917 482.304 594.287C482.415 593.416 481.907 593.063 481.161 592.908C480.395 592.8 479.454 592.793 478.526 592.786ZM451.945 409.193C440.442 405.314 428.796 401.507 417.132 397.609C429.051 400.507 440.653 404.495 451.945 409.193ZM318.632 592.658C313.527 591.659 308.384 593.01 303.241 592.406C308.422 594.457 313.527 593.25 318.632 592.658ZM380.732 591.626C383.61 593.126 386.797 593.49 390.711 592.909C395.048 592.271 399.731 592.41 404.183 593.135C405.142 593.284 406.063 594.08 406.715 593.076C407.368 592.072 406.102 591.818 404.529 591.804C396.596 591.735 388.664 591.676 380.732 591.626ZM409.632 591.507C416.063 593.118 422.755 593.865 429.708 593.594C423.854 590.186 416.177 592.705 409.632 591.507ZM429.82 593.683C429.833 593.683 429.846 593.683 429.859 593.683C429.852 593.679 429.846 593.675 429.839 593.671C429.833 593.675 429.826 593.679 429.82 593.683ZM488.361 425.346C488.439 425.154 488.517 424.962 488.595 424.771C504.728 431.79 519.579 441.205 534.016 450.67C519.548 441.301 504.217 432.852 488.361 425.346ZM556.551 539.124C558.884 531.57 560.432 523.767 560.935 515.661C561.757 496.688 562.942 477.731 563.666 458.745L575.552 484.325C575.389 484.175 575.224 484.024 575.06 483.873C575.063 483.869 575.067 483.865 575.07 483.861C575.314 483.623 575.544 483.35 575.763 483.089C575.917 483.235 576.071 483.382 576.225 483.528L564.709 458.745C563.691 477.729 562.707 496.698 561.768 515.661C561.191 523.853 559.414 531.74 556.551 539.124ZM540.62 456.003C540.736 455.881 540.83 455.726 540.925 455.571C552.372 463.389 563.193 471.783 573.23 480.804C573.093 480.919 572.919 481.023 572.796 481.172C562.802 472.18 552.022 463.805 540.62 456.003ZM78.7894 531.372C77.3871 526.263 77.4596 521.036 75.9352 515.661C75.7658 514.801 75.5705 513.939 75.3452 513.077C75.3766 513.938 75.4079 514.8 75.4391 515.661C75.7172 521.089 76.5166 526.411 77.8166 531.567C78.1409 531.502 78.4651 531.437 78.7894 531.372ZM409.41 398.542C407.763 397.995 408.386 399.208 406.936 398.505C399.801 395.04 391.756 394.487 384.169 392.747C380.052 391.811 378.579 391.207 377.574 390.122C386.518 391.902 395.529 393.58 404.041 396.525C405.713 397.115 406.757 396.91 408.243 397.35C410.561 398.045 410.309 398.335 409.41 398.542ZM377.514 390.07C377.514 390.067 377.514 390.063 377.515 390.06C377.521 390.068 377.53 390.075 377.537 390.083C377.534 390.084 377.53 390.086 377.526 390.087C377.522 390.081 377.518 390.076 377.514 390.07ZM377.537 390.083C377.542 390.081 377.545 390.079 377.55 390.077C377.549 390.083 377.548 390.089 377.548 390.095C377.544 390.091 377.541 390.087 377.537 390.083ZM377.495 390.098C377.505 390.095 377.516 390.091 377.526 390.087C377.532 390.097 377.539 390.106 377.545 390.116C377.528 390.11 377.512 390.104 377.495 390.098ZM377.548 390.095C377.556 390.104 377.566 390.113 377.574 390.122C377.564 390.12 377.554 390.118 377.545 390.116C377.546 390.109 377.547 390.102 377.548 390.095ZM247.091 588.238C245.901 588.186 243.829 588.224 243.867 589.154C243.905 590.085 245.632 589.829 247.052 589.798C254.613 589.678 262.175 589.669 269.736 589.629C262.597 587.513 254.729 588.542 247.091 588.238ZM438.776 408.362C429.51 405.22 420.059 402.808 410.76 399.518C410.216 399.322 409.896 398.895 409.489 398.568C412.778 398.744 416.257 399.548 420.108 400.808C426.015 402.751 431.957 404.681 437.839 406.811C439.006 407.231 440.493 407.706 440.396 408.331C440.345 408.655 439.667 408.671 438.776 408.362ZM129.916 435.497C126.584 438.65 116.66 444.523 110.022 447.359C116.785 442.331 123.702 439.475 129.916 435.497ZM104.868 571.153C103.721 568.213 102.281 566.472 99.3426 564.98C99.858 568.195 102.097 569.646 104.868 571.153ZM84.1114 539.815C83.8567 539.027 83.5169 538.262 82.8754 538.381C82.0854 538.511 81.9753 539.821 82.5039 540.379C85.1602 543.11 85.1755 547.337 88.636 550.7C88.6317 550.692 88.6275 550.685 88.6232 550.678C86.5252 546.513 85.2184 543.176 84.1114 539.815ZM509.813 440.722C502.733 436.315 495.217 432.842 487.862 428.95C480.814 425.241 472.993 422.708 467.068 417.939C481.316 425.552 497.072 431.252 509.813 440.722ZM541.508 561.314C541.695 561.456 541.882 561.598 542.069 561.74C535.689 569.416 527.861 575.805 519.242 580.449C519.119 580.24 518.996 580.032 518.873 579.823C527.414 575.234 535.176 568.913 541.508 561.314ZM409.336 398.56C409.304 398.559 409.27 398.555 409.238 398.554C409.238 398.554 409.331 398.552 409.388 398.548C409.396 398.546 409.402 398.544 409.41 398.542C409.413 398.543 409.416 398.544 409.419 398.545C409.431 398.543 409.436 398.54 409.429 398.538C409.441 398.541 409.453 398.545 409.464 398.548C409.473 398.555 409.48 398.561 409.489 398.568C409.461 398.567 409.433 398.565 409.406 398.564C409.361 398.567 409.316 398.571 409.272 398.574C409.294 398.57 409.314 398.565 409.336 398.56ZM466.124 419.14C461.643 416.698 456.271 415.759 452.171 412.722C457.183 414.385 462.36 415.842 466.124 419.14ZM304.739 585.736C305.852 585.693 307.119 585.834 306.927 586.691C306.774 587.507 305.622 587.549 304.432 587.47C301.362 587.251 298.33 587.033 295.259 586.818C295.272 586.818 295.284 586.818 295.297 586.818C295.373 586.573 295.413 586.348 295.451 586.104C298.521 585.973 301.63 585.823 304.739 585.736ZM483.258 588.051C488.397 586.902 493.546 587.802 498.618 586.628C493.766 588.756 488.375 588.206 483.258 588.051ZM535.562 456.749C535.313 457.234 534.297 457.105 533.602 456.494C529.399 452.736 524.467 449.989 519.547 447.076C519.001 446.763 518.595 446.109 517.616 445.091C524.051 447.24 528.978 451.645 534.229 454.593C535.369 455.225 535.848 456.2 535.562 456.749ZM560.255 476.782C553.678 471.013 546.744 465.398 539.432 460.202C537.939 459.137 537.108 458.368 537.377 457.786C537.845 456.81 539.346 458.423 540.242 459.088C547.066 464.086 553.575 469.35 559.798 474.823C559.789 474.816 559.78 474.808 559.771 474.801C559.934 475.445 560.084 476.103 560.255 476.782ZM175.052 582.79C182.037 582.483 188.869 583.081 197.043 583.737C192.745 584.602 189.905 585.186 186.949 585.791C188.485 587.282 191.555 586.038 193.781 587.284C185.26 587.249 177.545 587.709 169.601 587.291C165.265 587.061 160.855 586.963 156.435 586.991C153.275 587.023 150.162 587.019 147.048 586.972C147.031 586.984 147.013 586.995 146.996 587.007C144.425 586.94 143.731 586.021 142.895 584.72C142.905 584.711 142.914 584.701 142.923 584.693C145.315 583.526 147.409 582.249 149.709 584.94C150.467 585.79 151.202 584.86 151.92 584.782C153.448 584.617 154.933 584.267 156.435 583.963C160.514 583.465 164.624 583.212 168.91 584.213C171.021 584.709 172.826 582.891 175.052 582.79ZM559.632 467.849C559.242 464.805 559.06 461.771 559.053 458.745L572.578 487.851C568.036 484.038 563.856 479.623 559.845 474.879C564.702 478.49 569.224 482.616 573.419 486.854L560.357 458.745C560.12 461.78 559.868 464.815 559.632 467.849ZM559.798 474.823C559.813 474.841 559.83 474.86 559.845 474.879C559.826 474.864 559.807 474.85 559.788 474.836C559.791 474.831 559.794 474.827 559.798 474.823ZM552.097 536.773C551.668 535.475 550.495 534.77 551.61 533.163C555.163 527.927 554.521 521.64 555.015 515.661C555.021 515.537 555.028 515.412 555.035 515.287C555.081 514.635 555.144 513.983 555.195 513.215C555.856 513.633 555.677 514.641 555.649 515.661C555.631 516.097 555.674 516.533 556.058 516.876C556.128 516.47 556.195 516.066 556.257 515.661C556.69 511.393 557.058 507.316 556.821 503.121C556.779 502.507 556.316 501.778 556.377 501.548C557.085 499.015 556.367 494.218 557.77 493.872C559.158 493.488 558.535 498.171 558.404 500.051C558.404 500.064 558.403 500.077 558.403 500.09C558.063 505.272 557.774 510.459 557.485 515.661C556.871 523.021 555.222 530.183 552.097 536.773ZM194.472 410.054C186.271 413.287 178.969 417.637 170.533 420.559C169.481 420.918 167.882 421.897 167.474 421.374C167.08 420.899 168.49 420.143 169.69 419.64C169.689 419.636 169.688 419.632 169.686 419.628C177.811 416.213 186.085 413.019 194.472 410.054ZM130.59 440.321C125.043 442.301 121.348 446.926 116.109 449.247C116.101 449.257 116.094 449.268 116.086 449.278C113.929 450.222 111.672 451.625 109.31 451.786C115.924 446.566 122.902 443.473 129.369 439.63C130.195 439.142 131.349 438.848 131.474 439.37C131.507 439.527 130.824 440.239 130.59 440.321ZM99.866 458.327C96.4626 460.726 95.0396 465.669 89.9287 465.184C92.5625 461.846 96.4774 460.556 99.866 458.327ZM86.712 467.409C82.605 472.085 78.2662 474.218 74.8523 477.337C77.8539 473.855 81.2987 470.706 86.712 467.409ZM142.854 584.658C142.86 584.668 142.867 584.677 142.873 584.686C142.879 584.658 142.884 584.629 142.89 584.6C142.879 584.62 142.865 584.639 142.854 584.658ZM150.553 429.898C146.287 431.734 142.238 434.72 136.546 436.372C141.333 432.462 146.292 431.439 150.433 429.019C150.59 428.929 151.236 428.916 151.201 429.022C151.141 429.258 150.805 429.761 150.581 429.87C150.572 429.879 150.563 429.889 150.553 429.898ZM241.104 580.901C245.94 580.508 248.204 582.635 252.426 581.524C252.439 581.517 252.452 581.51 252.465 581.503C252.426 581.95 252.349 582.397 252.31 582.843C251.236 582.934 250.199 583.104 249.125 583.134C233.735 583.593 218.345 584.073 202.955 584.651C201.112 584.717 199.423 584.662 199.154 583.705C198.732 582.25 200.958 582.356 202.839 582.308C211.321 582.082 219.841 581.464 228.246 581.769C232.775 581.939 237.113 581.225 241.104 580.901ZM547.191 544.735C548.247 541.76 548.664 539.227 549.96 536.83C551.722 538.426 550.664 542.634 547.191 544.735ZM532.058 563.409C532.599 561.295 534.486 560.576 535.935 559.573C535.93 559.579 535.925 559.585 535.92 559.591C538.803 557.608 541.177 555.118 542.428 551.856C541.524 557.188 537.087 560.96 533.448 564.714C532.826 565.34 532.023 565.822 531.371 565.176C530.657 564.438 531.927 563.927 532.058 563.409ZM503.002 580.726C504.076 579.441 503.265 577.494 505.145 578.121C507.777 578.976 509.594 577.558 511.151 576.311C513.342 574.532 516.23 575.385 518.444 573.494C521.18 571.155 525.477 570.377 527.658 567.041C528.107 566.339 528.986 565.836 529.582 566.559C530.178 567.284 529.333 567.909 528.673 568.444C525.241 571.171 521.674 573.892 517.662 575.489C517.652 575.487 517.641 575.485 517.631 575.484C512.969 577.338 508.661 579.923 503.002 580.726ZM303.473 578.378C304.777 577.764 305.276 578.374 305.507 578.577C307.694 580.388 310.918 580.527 313.911 579.668C316.713 578.871 316.675 580.258 316.944 580.666C317.673 581.746 315.294 581.686 314.526 581.687C304.547 581.897 294.376 582.616 284.551 581.966C278.218 581.547 272.499 582.82 266.473 582.473C266.46 582.467 266.448 582.46 266.435 582.453C261.676 582.18 256.072 583.46 252.964 580.851C253.885 579.219 257.723 583.083 256.686 579.48C256.495 578.791 258.798 578.731 260.179 578.7C268.891 578.447 277.412 578.637 286.008 579.801C291.574 580.549 298.291 580.836 303.473 578.378ZM482.028 582.739C485.082 580.516 488.255 581.856 490.715 582.15C494.178 582.552 496.401 580.439 499.346 580.06C500.032 579.96 500.842 579.033 501.297 579.893C501.743 580.715 500.857 581.418 499.82 581.663C499.815 581.671 499.809 581.679 499.803 581.687C494.228 582.986 488.355 584.688 482.028 582.739ZM351.986 579.573C352.561 579.799 353.406 577.828 354.365 579.482C354.672 580.033 354.249 580.622 352.676 580.778C342.198 581.833 331.643 581.891 321.05 581.318C320.705 581.297 320.436 580.807 319.592 580.033C328.535 579.931 336.518 578.763 345 579.179C347.303 579.289 349.683 578.687 351.986 579.573ZM368.72 578.301C372.711 577.739 373.056 580.038 375.82 580.383C370.063 582.332 365.111 582.387 361.081 578.396C364.228 579.492 366.494 578.611 368.72 578.301ZM421.218 578.148C422.981 577.955 426.315 576.81 425.906 579.771C425.791 580.493 426.827 580.487 427.671 580.138C428.131 579.944 428.401 579.606 428.784 579.331C434.311 581.399 440.415 579.968 446.21 580.467C447.208 580.544 448.742 580.59 448.435 581.483C448.243 582.019 447.514 582.147 446.401 582.129C429.86 581.939 413.356 581.823 396.814 581.741C396.814 581.727 396.814 581.714 396.814 581.7C396.277 581.695 395.739 581.427 394.665 581.153C397.543 579.844 401.189 579.116 403.607 579.75C408.98 581.143 414.162 579.409 419.305 580.304C420.418 580.5 422.682 581.094 422.836 579.567C422.943 578.571 422.02 578.256 421.218 578.148ZM420.341 578.083C420.549 578.092 420.872 578.101 421.218 578.148C420.831 578.19 420.52 578.187 420.341 578.083Z" fill="var(--stroke-0, #DADAF5)"/>
</g>
</svg>
