<svg preserveAspectRatio="none" width="100%" height="100%" overflow="visible" style="display: block;" viewBox="0 0 642.802 681.167" fill="none" xmlns="http://www.w3.org/2000/svg">
<g id="Group 43896">
<path id="l" d="M20.7538 252.554C19.4302 257.127 17.4696 261.55 15.2583 266.099C16.5351 261.449 18.499 256.927 20.7538 252.554ZM20.7538 252.554C20.776 252.477 20.799 252.4 20.8209 252.323C20.8209 252.323 20.82 252.399 20.8044 252.432C20.8078 252.433 20.8112 252.434 20.8146 252.436C20.7943 252.475 20.7741 252.515 20.7538 252.554ZM20.8358 252.367C20.8626 252.337 20.8898 252.303 20.9164 252.273C20.8891 252.33 20.8618 252.386 20.8346 252.443C20.835 252.418 20.8354 252.392 20.8358 252.367ZM85.1323 512.485C84.1877 513.317 83.6961 514.434 83.4798 515.719C82.9526 517.714 84.1411 520.252 84.5139 522.322C85.416 527.233 86.8168 531.907 88.4432 536.514C90.1099 541.242 92.7055 545.755 95.8651 549.649C96.4331 550.331 96.9714 550.762 95.4827 550.802C95.472 550.799 95.4611 550.796 95.4504 550.794C95.449 550.797 95.4478 550.8 95.4464 550.803C95.4317 550.804 95.4168 550.805 95.4017 550.805C95.4112 550.799 95.4207 550.794 95.4303 550.788C95.4146 550.784 95.3989 550.78 95.3832 550.776C95.3929 550.77 95.4026 550.765 95.4124 550.759C91.8752 551.678 92.5746 548.205 91.5182 546.888C89.0932 543.857 88.6551 539.572 86.3375 536.595C83.8239 533.258 84.6523 528.921 80.7418 524.989C82.769 539.151 88.5203 551.991 97.8984 561.532C98.8208 560.858 97.3019 560.483 98.11 559.509C105.522 570.925 116.134 582.637 130.532 584.485C126.609 581.465 121.112 581.512 117.721 577.489C119.93 578.216 122.33 578.445 124.294 579.403C130.304 582.356 136.787 583.784 143.114 585.777C145.369 586.477 147.538 584.704 149.737 585.506C150.411 585.749 151.534 585.415 151.836 585.878C153.13 587.816 154.739 588.445 156.448 588.537C159.821 588.654 163.366 588.009 166.769 588.232C168.878 588.373 170.981 588.445 173.081 588.472C181.434 588.577 189.725 587.96 198.07 588.067C207.951 588.178 217.848 588.021 227.724 588.198L186.228 618.659C187.002 616.374 187.779 614.024 188.557 611.666C190.506 605.814 192.893 599.471 193.788 593.439C194.815 586.479 196.118 579.483 197.063 572.438C198.368 562.84 197.331 552.812 200.84 543.231C198.717 535.902 200.344 528.21 199.986 520.622C199.184 502.851 198.499 484.841 195.785 466.792C192.472 444.734 187.498 422.644 181.251 400.814C177.095 386.341 171.902 372.109 166.263 358.017C166.034 357.468 165.975 356.833 165.805 356.132C167.093 356.548 166.967 358.784 168.037 359.369C167.715 357.514 167.095 355.061 166.02 354.478C164.251 353.522 163.729 351.458 163.018 349.768C159.854 342.12 156.445 334.533 152.934 326.972C151.669 324.247 150.343 321.536 148.968 318.836C144.368 309.801 139.297 300.974 134.156 292.185C128.395 282.349 122.459 272.571 116.003 263.117C109.079 252.983 101.632 243.138 93.781 233.6C103.573 246.078 112.68 258.965 121.12 272.228C120.967 272.313 120.806 272.404 120.639 272.466C110.398 257.394 100.184 241.675 87.7324 228.327C87.6297 228.429 87.527 228.531 87.4242 228.632C92.3997 234.938 97.232 241.365 101.829 247.91C103.237 249.91 104.938 251.798 105.913 253.991C104.58 253.671 103.636 251.35 102.451 250.184C102.482 250.781 103.836 251.779 103.626 252.4C103.47 252.281 103.279 252.194 103.151 252.015C98.8279 246.334 94.5105 240.597 90.4334 234.67C89.4833 233.296 88.6106 232.412 87.6189 231.575C84.7046 229.118 80.9681 224.347 79.5605 221.353C78.8435 219.828 79.6938 219.857 80.717 220.433C82.3 221.302 82.6706 220.889 81.7891 219.042C81.2652 217.943 81.4072 217.714 82.3142 218.178C84.8 219.451 84.7719 219.252 81.2094 215.059C85.4678 218.884 84.8065 217.014 84.9324 215.298C85.1525 212.856 83.4144 208.326 89.1413 211.298C89.8757 211.685 91.1667 211.374 91.1244 209.983C91.0814 208.466 91.1762 206.53 93.8689 207.349C94.2674 207.475 95.1214 208 95.606 208.453C100.398 213.028 100.695 211.317 100.828 210.153C101.171 207.132 104.007 206.694 107.42 206.488C109.243 206.374 110.321 205.429 112.181 205.26C114.239 205.055 118.383 208.464 121.421 210.879C127.419 215.632 132.92 220.982 138.092 226.588C140.407 229.088 143.079 231.687 145.679 234.001C150.225 238.019 153.123 242.653 157.276 246.903C158.84 248.5 160.184 249.699 161.695 250.667C162.084 253.532 165.723 255.832 167.694 258.418C169.682 261.03 171.812 263.858 174.577 265.747C176.553 267.093 176.088 268.548 177.39 270.177C182.956 277.113 188.104 284.43 193.341 291.628C194.71 293.51 196.084 295.379 197.476 297.228C201.013 301.929 204.14 306.787 206.847 311.607C216.154 328.177 226.515 344.527 234.446 362.047C237.9 369.673 240.673 378.153 245.56 385.58C247.495 388.514 248.458 392.268 249.558 395.78C251.367 401.528 253.074 407.184 255.781 412.826C258.379 418.239 258.818 424.408 261.057 430.155C264.007 437.715 265.764 445.608 267.505 453.529C268.332 457.271 269.013 461.06 271.685 463.815C273.453 465.623 270.653 465.689 271.399 467.925C272.828 472.207 273.885 476.733 274.874 481.194C276.919 490.362 277.644 499.658 277.627 508.953C277.62 513.529 278.244 518.348 279.034 522.964C279.577 526.118 278.277 529.452 280.135 532.307C278.949 533.842 277.602 536.421 278.796 538.227C280.716 541.116 280.048 544.026 280.238 547.136C280.616 553.229 281.48 559.407 279.884 565.485C279.521 566.881 281.051 567.099 280.882 568.831C280.591 572.06 280.444 575.672 280.454 578.609C280.511 586.116 277.165 593.439 278.901 601.192C279.506 603.808 277.94 606.803 277.521 609.76C276.496 616.95 275.819 624.64 272.55 631.339C270.511 635.463 269.246 639.975 268.153 644.391L258.247 674.485L227.724 674.069C224.858 674.276 222.013 674.624 219.214 674.822C215.495 675.08 210.888 674.261 207.512 676.461C205.623 674.237 201.16 676.32 199.1 673.826C197.813 672.264 194.894 673.356 193.492 673.993C188.456 676.315 184.908 676.205 179.415 675.947C177.342 675.85 175.225 675.562 173.081 675.398C169.543 675.127 165.933 675.192 162.334 676.999C160.997 677.672 158.797 677.285 156.448 676.832C154.195 676.521 151.872 676.126 149.775 675.991C146.442 675.791 142.261 675.515 139.548 673.671C138.663 673.062 137.631 672.856 136.615 673.401C131.736 675.937 126.761 673.083 122.456 671.214C118.571 669.526 115.73 667.021 111.499 668.907C110.137 669.501 106.964 668.282 105.119 667.201C100.157 664.285 100.303 664.247 94.9363 663.302C94.1064 663.145 93.1301 662.695 92.3337 662.248C83.7221 657.542 74.3633 653.878 67.062 646.647C61.8563 641.558 54.7478 635.259 49.0596 631.887C42.247 627.878 38.6773 621.767 33.9044 616.535C28.2275 610.321 23.2569 603.025 19.5818 595.44C11.4988 578.894 3.90315 561.633 2.44587 543.287C2.30698 541.505 2.32663 539.159 0.910084 538.199C0.0423508 537.621 -0.115261 535.36 0.0678787 534.633C1.67631 528.321 0.898518 522.074 0.604546 515.719C0.484352 513.811 0.377987 511.914 0.465675 510.053C1.32572 492.256 1.47923 474.431 2.37653 456.635C2.88244 446.363 2.82123 436.149 3.55748 425.906C4.35582 414.776 4.52873 403.703 5.17785 392.63C5.6337 384.848 6.28799 376.894 5.94854 369.112C5.81533 366.251 4.72619 362.388 7.3061 360.042C7.34429 360.013 6.57281 351.973 6.58036 351.801C6.55913 351 6.48229 350.199 6.58777 349.426C7.9649 337.753 7.76888 326.28 8.45747 314.749C8.67883 310.95 8.9333 307.148 9.20767 303.344C10.1126 287.361 13.8518 271.704 19.7591 257.208C22.1359 251.385 25.5809 245.994 28.6897 239.974C25.4411 243.756 23.7139 249.042 20.9164 252.273C25.1754 243.374 30.4 234.792 36.6322 227.751C42.2458 221.278 48.6505 213.753 55.178 210.464C56.1363 209.966 56.9702 208.891 57.7081 208.147C58.4037 207.45 59.0473 206.905 59.6044 206.502C60.7965 205.691 61.5518 205.609 61.529 206.162C61.4882 207.861 63.1695 206.548 65.6198 204.467C66.4718 203.741 67.6258 202.669 68.2515 202.728C68.7625 202.753 67.9874 203.556 67.2584 204.284C65.9368 205.592 63.7937 207.496 65.2102 207.375C66.2162 207.288 68.0755 206.598 70.1134 204.306C70.2123 204.202 70.579 204.044 70.9164 203.856C70.8284 204.779 69.1882 206.053 67.8452 207.299C70.4866 206.38 72.5089 205.853 71.6204 208.323C71.421 208.852 71.9427 208.766 70.753 209.842C68.286 212.069 68.5361 212.279 70.2345 211.914C72.3931 211.442 75.5347 210.092 73.8756 213.45C73.7526 213.691 73.8921 213.871 74.1361 213.792C76.5142 213.054 77.2765 213.533 76.4375 216.093C75.8791 217.76 79.4699 215.443 81.76 213.767C86.8767 210.026 90.9194 208.804 92.2839 210.168C92.284 210.168 92.284 210.168 92.2841 210.168C92.7421 210.626 92.9072 211.378 92.7262 212.432C92.2824 214.902 90.8025 218.885 95.085 216.531C91.3573 221.307 87.6545 226.085 83.9666 230.863C69.106 250.735 63.0537 274.7 64.5288 296.861C64.6671 299.038 64.8735 301.198 65.1465 303.344C68.2759 334.176 70.0664 365.111 72.9416 395.949C73.3827 390.999 72.23 385.992 72.6289 381.1C72.6633 380.699 72.9192 380.413 73.4043 379.297C73.9241 386.946 74.4261 394.595 74.9103 402.244C74.9557 402.959 75.0234 403.789 74.3842 403.216C72.524 401.586 73.7403 404.39 73.9088 404.533C75.6387 406.021 75.5291 408.481 75.266 410.77C74.9334 413.774 75.729 416.55 75.9853 419.439C77.1673 432.629 78.1897 445.848 79.1692 459.067C79.5493 464.217 79.3752 469.453 80.4372 474.746C81.0544 477.836 82.8809 475.376 83.1785 477.979C83.5137 480.954 80.7447 479.095 81.0204 482.156C81.3028 485.332 80.9343 488.538 81.4941 492C82.0737 491.256 82.5164 490.683 83.3973 489.539C81.5727 497.95 83.3959 504.96 85.1323 512.485ZM92.6234 658.787C86.2174 654.435 79.0615 651.801 72.7567 647.45C78.4703 652.643 85.7081 655.65 92.6234 658.787ZM49.2575 628.066C53.6066 634.743 60.4428 639.328 67.0459 643.735C60.9419 638.745 54.2794 634.202 49.2575 628.066ZM113.616 666.361C126.167 670.02 139.196 672.051 152.192 672.43C152.16 672.165 152.13 671.899 152.099 671.633C139.207 671.247 126.283 669.229 113.831 665.6C113.759 665.854 113.687 666.107 113.616 666.361ZM172.462 671.545C167.713 671.545 162.964 671.905 158.215 672.035C162.992 672.354 167.799 672.931 172.462 671.545ZM46.4854 265.806C52.5908 253.551 57.1214 242.852 63.3353 233.003C55.0273 241.769 49.6886 253.054 46.4854 265.806ZM148.886 306.861C150.379 310.667 151.487 313.601 153.944 315.785C154.265 316.071 154.61 316.344 154.981 316.604C154.79 316.229 154.603 315.859 154.419 315.494C152.858 312.397 151.456 309.648 148.886 306.861ZM175.057 360.324C176.279 367.8 179.048 373.425 182.453 378.71C180.671 372.523 178.223 366.689 175.057 360.324ZM153.552 325.122C153.925 325.947 154.294 326.804 154.768 326.905C155.158 326.992 155.421 326.523 155.673 326.186C155.821 325.941 155.687 325.322 155.303 325.072C152.693 323.418 152.451 320.106 151.119 317.517C150.946 317.178 150.756 316.852 150.54 316.545C150.826 316.786 151.066 317.082 151.284 317.416C152.098 318.659 152.596 320.408 154.038 321.684C153.326 320.063 152.495 318.595 151.618 317.211C148.894 312.929 145.793 309.469 144.026 304.699C144.025 304.689 144.024 304.678 144.023 304.668C143.927 307.224 145.596 308.712 146.526 310.561C147.773 313.057 149.013 315.553 150.229 318.063C151.367 320.411 152.48 322.761 153.552 325.122ZM132.72 285.552C135.007 290.182 137.358 293.792 139.776 297.366C137.385 293.784 136.439 289.259 132.72 285.552ZM205.371 551.848C205.231 551.924 204.98 553.029 205.549 553.381C206.156 553.761 206.666 553.388 207.053 552.695C208.402 550.251 208.072 547.39 208.951 543.572C208.945 543.572 208.938 543.572 208.932 543.572C208.039 544.414 207.684 544.569 207.579 544.883C206.783 547.18 208.25 550.599 205.371 551.848ZM164.805 348.097C163.12 343.932 161.921 339.395 159.115 335.8C161.056 339.857 162.973 343.994 164.805 348.097ZM167.204 354.246C168.601 358.142 169.717 362.096 172.131 365.438C170.637 361.604 169.878 357.379 167.204 354.246ZM196.742 447.13C197.606 449.405 195.852 451.902 196.644 452.825C199.322 455.969 198.365 459.992 199.113 463.484C199.613 457.964 199.717 452.369 196.742 447.13ZM176.473 377.576C177.75 380.681 176.035 383.343 177.852 386.791C179.955 383.958 177.703 380.656 176.473 377.576ZM199.143 474.996C199.184 475.148 199.242 475.298 199.279 475.425C200.671 479.661 200.81 484.042 200.949 488.446C200.996 490.305 201.948 491.223 202.861 491.223C203.941 491.225 203.472 489.53 203.411 488.546C203.108 482.226 201.406 476.102 200.947 469.735C200.804 467.739 199.779 465.727 199.14 463.772C197.614 463.976 198.763 465.479 198.674 466.452C198.427 468.897 199.872 470.196 200.452 472.028C201.24 474.519 200.784 475.193 199.143 474.996ZM201.847 538.439C200.389 539.028 201.486 539.314 201.971 539.282C202.533 539.248 202.528 540.734 203.354 539.929C203.324 539.365 203.236 538.749 203.281 538.13C203.307 537.589 203.177 536.868 203.739 536.596C203.739 536.605 203.739 536.614 203.739 536.622C205.528 542.623 201.891 548.778 203.393 554.784C204.825 542.441 205.628 529.793 204.207 517.185C204.108 516.272 203.61 515.419 203.958 514.465C205.838 509.178 203.986 503.63 203.951 498.237C203.939 496.533 203.14 495.855 201.795 494.902C202.942 500.949 203.55 506.434 202.413 511.889C202.236 512.742 202.366 513.741 202.412 514.651C202.852 521.775 203.273 528.828 202.778 535.869C202.695 536.931 203.013 537.982 201.847 538.439ZM97.0124 219.186C95.9429 220.872 91.9395 226.29 86.5848 233.481C71.8612 251.145 68.1661 286.441 68.5862 288.5C67.9985 273.571 72.2368 257.875 79.4655 243.317C81.2603 239.698 83.2842 236.075 85.7258 232.623C88.8993 228.342 92.2774 224.127 96.0315 220.068C96.3192 219.748 96.6258 219.528 97.0124 219.186ZM200.425 566.178C199.68 574.737 198.531 583.155 197.024 591.382C196.62 593.535 195.967 595.677 197.142 597.54C197.143 597.534 197.145 597.526 197.146 597.519C198.25 596.861 198.234 595.549 198.455 594.429C200.344 585.311 201.718 575.939 202.738 566.445C202.857 565.213 203.342 563.71 202.118 563.456C200.661 563.164 200.548 564.703 200.425 566.178ZM138.135 301.553C133.393 293.801 128.718 285.913 124.281 277.827C129.557 285.312 134.081 293.307 138.135 301.553ZM172.462 592.715C168.657 591.717 164.823 593.067 160.989 592.463C164.851 594.514 168.657 593.307 172.462 592.715ZM218.756 591.684C220.902 593.184 223.277 593.547 226.196 592.967C226.699 592.867 227.209 592.787 227.724 592.724L190.547 620.016C190.908 617.736 191.778 615.467 192.995 613.341C193.296 612.808 194.214 612.457 193.349 611.805C192.482 611.155 192.037 611.852 191.768 612.783C191.09 615.14 190.374 617.465 189.633 619.729L227.724 591.767C224.735 591.737 221.745 591.709 218.756 591.684ZM192.29 609.648C194.855 606.135 196.527 602.147 197.118 597.712C193.063 600.719 194.487 605.931 192.29 609.648ZM197.218 597.659C197.22 597.651 197.222 597.643 197.223 597.635C197.219 597.638 197.214 597.641 197.209 597.645C197.212 597.649 197.215 597.654 197.218 597.659ZM151.335 328.444C151.513 328.339 151.691 328.235 151.87 328.13C158.194 339.776 162.579 352.324 167.36 364.577C162.498 352.383 157.153 340.328 151.335 328.444ZM194.286 465.74C189.826 445.098 186.178 424.003 179.708 403.475C179.713 403.474 179.718 403.472 179.723 403.47C180.049 403.376 180.384 403.251 180.703 403.131C186.696 423.854 191.244 444.809 194.286 465.74ZM168.988 370.892C169.149 370.847 169.314 370.771 169.479 370.695C173.275 380.59 176.737 390.529 179.895 400.587C179.721 400.625 179.524 400.642 179.343 400.712C176.204 390.68 172.762 380.763 168.988 370.892ZM77.251 474.403C76.8371 468.023 77.6113 461.67 75.3577 455.261C75.6696 461.642 75.97 468.023 76.2588 474.403C76.5895 474.403 76.9203 474.403 77.251 474.403ZM118.96 274.972C118.343 273.827 117.887 274.982 117.499 273.815C115.575 268.042 111.196 263.904 107.963 259.062C106.206 256.439 105.777 255.304 105.943 254.046C109.881 259.579 114.048 265.03 117.117 271.059C117.715 272.255 118.485 272.591 119.075 273.584C119.992 275.142 119.644 275.235 118.96 274.972ZM105.944 253.98C105.946 253.978 105.949 253.975 105.951 253.973C105.95 253.982 105.95 253.992 105.949 254C105.946 254 105.942 253.999 105.939 253.998C105.941 253.992 105.942 253.986 105.944 253.98ZM105.949 254C105.952 254.001 105.956 254.002 105.96 254.002C105.955 254.006 105.951 254.01 105.946 254.014C105.947 254.009 105.948 254.005 105.949 254ZM105.913 253.991C105.922 253.993 105.931 253.996 105.939 253.998C105.936 254.008 105.933 254.018 105.93 254.028C105.925 254.016 105.919 254.004 105.913 253.991ZM105.946 254.014C105.945 254.024 105.944 254.036 105.943 254.046C105.939 254.04 105.934 254.034 105.93 254.028C105.936 254.023 105.941 254.019 105.946 254.014ZM133.478 584.598C132.969 584.376 132.053 584.092 131.756 584.973C131.459 585.856 132.319 585.89 132.968 586.072C136.406 587.093 139.888 587.966 143.425 588.551C140.499 585.888 136.784 586.021 133.478 584.598ZM130.345 295.199C126.658 288.878 122.475 282.901 119.107 276.289C118.912 275.9 119.011 275.447 118.99 275.027C120.853 276.66 122.42 278.828 123.909 281.463C126.205 285.534 128.57 289.569 130.809 293.678C131.255 294.492 131.871 295.488 131.387 295.893C131.135 296.102 130.696 295.813 130.345 295.199ZM69.9646 345.278C71.4611 348.74 72.3698 358.067 71.6596 363.904C70.4509 357.152 70.9588 351.143 69.9646 345.278ZM81.1329 523.94C82.2679 521.698 82.3326 519.997 81.0316 517.754C79.3705 519.864 80.1096 521.77 81.1329 523.94ZM80.2285 485.047C80.2376 484.103 80.1383 483.158 79.4901 483.073C78.6978 482.958 78.2036 484.303 78.5253 485.076C80.1785 488.967 78.6237 493.344 80.1539 498.466C80.1535 498.456 80.1531 498.446 80.1527 498.437C80.1931 493.144 80.2043 489.081 80.2285 485.047ZM156.184 348.074C154.003 342.107 151.074 336.614 148.631 330.806C147.333 327.725 145.634 324.763 144.279 321.711C143.214 319.315 142.366 316.872 142.057 314.274C142.944 316.643 143.933 318.972 144.979 321.282C148.984 330.165 153.874 338.702 156.184 348.074ZM195.927 493.215C196.159 493.181 196.391 493.147 196.624 493.113C197.647 503.302 198.295 513.447 198.545 523.539C198.303 523.554 198.061 523.569 197.82 523.584C197.578 513.512 196.939 503.386 195.927 493.215ZM118.903 274.951C118.885 274.936 118.867 274.918 118.848 274.902C118.848 274.902 118.906 274.943 118.943 274.966C118.949 274.968 118.955 274.97 118.96 274.972C118.961 274.974 118.963 274.976 118.964 274.978C118.973 274.982 118.977 274.983 118.974 274.978C118.979 274.986 118.984 274.993 118.989 275.001C118.989 275.01 118.989 275.018 118.99 275.027C118.974 275.013 118.958 274.999 118.943 274.986C118.913 274.968 118.884 274.95 118.855 274.932C118.871 274.939 118.887 274.945 118.903 274.951ZM140.637 314.729C139.326 311.078 136.481 308.107 135.902 304.167C137.99 307.522 140.366 310.77 140.637 314.729ZM162.105 585.793C162.935 585.751 163.879 585.892 163.737 586.748C163.622 587.564 162.763 587.607 161.876 587.527C160.058 587.353 158.258 587.18 156.448 587.008C156.154 586.964 155.861 586.918 155.568 586.87C155.574 586.87 155.58 586.87 155.585 586.87C155.624 586.626 155.645 586.401 155.665 586.157C155.925 586.136 156.186 586.112 156.448 586.088C158.323 585.977 160.214 585.864 162.105 585.793ZM195.979 562.005C195.29 556.583 197.029 551.358 197.116 545.976C198.001 551.385 196.581 556.728 195.979 562.005ZM164.768 369.529C164.287 369.784 163.612 369.308 163.473 368.607C162.657 364.287 160.783 360.449 159.083 356.449C158.887 356.008 159.004 355.378 158.945 354.262C162.204 358.342 163.014 363.333 165.104 367.48C165.557 368.361 165.316 369.242 164.768 369.529ZM171.792 393.118C169.887 386.55 167.886 379.965 165.552 373.473C165.079 372.145 164.929 371.276 165.484 370.958C166.427 370.431 166.565 372.16 166.834 372.972C168.92 379.132 170.784 385.293 172.55 391.523C172.547 391.514 172.544 391.506 172.541 391.498C172.301 392.026 172.043 392.56 171.792 393.118ZM109.008 563.214C111.368 565.127 113.156 567.52 115.631 570.209C113.602 569.763 112.247 569.402 110.838 568.994C110.402 570.587 112.274 570.525 112.305 572.128C109.245 569.678 106.289 567.562 104.076 564.587C101.505 561.115 98.7319 557.734 95.8453 554.46C95.8273 554.457 95.8094 554.455 95.7915 554.452C94.5297 552.984 94.8766 552.059 95.4464 550.803C95.4586 550.803 95.4707 550.802 95.4827 550.802C97.66 551.378 99.7452 551.743 98.7696 554.687C98.4785 555.637 99.5667 555.478 99.973 555.836C102.264 557.859 105.25 558.948 106.118 562.263C106.396 563.292 108.261 562.61 109.008 563.214ZM178.238 411.279C174.728 405.242 173.198 398.655 172.555 391.581C175.093 397.908 176.671 404.604 178.238 411.279ZM172.55 391.523C172.552 391.542 172.554 391.561 172.555 391.581C172.549 391.563 172.542 391.546 172.535 391.529C172.54 391.527 172.545 391.525 172.55 391.523ZM189.243 465.822C188.231 464.823 186.846 464.712 187.078 462.618C187.815 455.823 184.807 449.905 183.638 443.562C183.565 443.124 183.507 442.68 183.416 442.164C184.597 442.323 183.851 444.152 185.033 444.746C184.639 441.381 184.258 438.145 183.075 435.11C182.916 434.722 182.33 434.379 182.344 434.211C182.531 432.356 180.875 429.434 182.141 428.789C183.388 428.122 183.749 431.382 183.991 432.65C183.993 432.658 183.995 432.667 183.997 432.676C186.182 443.6 188.443 454.433 189.243 465.822ZM68.7062 293.18C68.9288 296.676 69.8074 300.026 70.5025 303.344C70.8718 305.729 71.1339 308.145 71.1499 310.63C71.1531 311.517 71.5548 312.975 70.926 313.147C70.3481 313.319 70.0977 312.06 70.0083 311.03C70.0041 311.03 69.9998 311.03 69.9955 311.03C69.7731 308.468 69.5486 305.906 69.3219 303.344C68.9277 299.993 68.7201 296.599 68.7062 293.18ZM74.6218 346.423C74.0621 351.172 76.5654 355.55 76.1878 360.242C76.1935 360.252 76.1991 360.261 76.2048 360.271C76.0396 362.188 76.2035 364.391 75.2035 366.136C73.8203 359.326 74.2003 353.175 73.4782 347.08C73.3884 346.308 73.6074 345.365 74.1334 345.45C74.2901 345.479 74.6472 346.223 74.6218 346.423ZM76.1858 375.549C76.5044 378.954 79.9536 382.187 76.771 385.535C75.3988 382.216 76.3665 378.896 76.1858 375.549ZM76.8674 388.796C78.4834 393.803 77.7002 397.838 78.171 401.729C77.1612 397.924 76.6091 394.061 76.8674 388.796ZM95.4728 550.743C95.4685 550.752 95.465 550.762 95.4608 550.771C95.4862 550.756 95.5116 550.742 95.537 550.727C95.5156 550.733 95.4938 550.737 95.4728 550.743ZM72.9904 328.255C73.1095 332.003 74.3093 335.951 73.5033 340.701C71.8785 335.894 72.8394 331.916 72.1293 328.082C72.1044 327.938 72.331 327.453 72.4162 327.51C72.6137 327.624 72.9569 328.026 72.9744 328.226C72.9797 328.235 72.9851 328.245 72.9904 328.255ZM133.446 576.803C135.449 577.128 135.706 579.449 137.743 578.901C137.75 578.896 137.757 578.891 137.764 578.886C137.622 579.31 137.464 579.729 137.321 580.152C136.854 580.108 136.379 580.141 135.927 580.028C129.463 578.45 123.16 575.899 117.212 572.478C116.501 572.066 115.923 571.576 116.394 570.734C117.106 569.453 117.814 570.104 118.506 570.524C121.636 572.423 125.063 573.691 128.136 575.488C129.801 576.466 131.78 576.522 133.446 576.803ZM189.401 475.854C188.534 472.569 187.51 469.919 187.413 466.957C189.738 467.599 190.989 471.915 189.401 475.854ZM191.193 502.119C189.891 500.158 190.58 498.029 190.823 496.139C190.824 496.148 190.825 496.156 190.825 496.165C191.318 492.413 191.285 488.725 190.085 485.145C192.899 490.209 192.46 496.232 193.085 501.886C193.175 502.829 193.057 503.819 192.146 503.926C191.122 504.021 191.509 502.594 191.193 502.119ZM192.632 539.7C191.739 538.144 189.633 538.268 190.843 536.499C192.524 534.028 191.878 531.64 191.355 529.468C190.6 526.381 192.627 523.906 192.012 520.8C191.247 516.84 192.86 512.462 191.414 508.384C191.102 507.522 191.221 506.405 192.158 506.377C193.096 506.35 193.094 507.487 193.148 508.406C193.371 513.149 193.837 517.943 193.409 522.597C193.403 522.606 193.396 522.615 193.39 522.624C192.899 528.1 193.59 533.508 192.632 539.7ZM161.161 578.435C162.134 577.821 162.506 578.431 162.677 578.635C164.308 580.445 166.711 580.584 168.943 579.725C171.032 578.928 171.004 580.315 171.204 580.723C171.747 581.804 169.974 581.743 169.401 581.744C165.105 581.865 160.762 582.157 156.448 582.256C154.597 582.328 152.782 582.224 151.024 581.808C148.383 581.173 145.782 582.09 143.301 581.247C143.297 581.239 143.293 581.232 143.289 581.224C141.368 580.573 138.678 581.198 138.148 578.318C138.949 576.859 139.481 581.003 139.994 577.409C140.098 576.725 141.01 576.903 141.557 577.001C145.036 577.578 148.332 578.28 151.8 579.694C153.215 580.266 154.863 580.615 156.448 580.161C158.109 579.891 159.716 579.355 161.161 578.435ZM190.582 562.867C188.607 559.34 190.376 555.928 191.091 553.32C192.091 549.609 190.533 546.751 190.95 543.389C191.036 542.615 190.376 541.43 191.332 541.226C192.248 541.019 192.662 542.178 192.621 543.359C192.628 543.367 192.634 543.376 192.64 543.384C192.394 549.755 193.031 556.201 190.582 562.867ZM197.327 579.63C197.756 579.856 198.385 577.885 199.1 579.539C199.329 580.09 199.014 580.679 197.841 580.835C190.03 581.89 182.162 581.949 174.265 581.375C174.007 581.354 173.807 580.865 173.178 580.09C179.845 579.988 185.796 578.821 192.119 579.237C193.836 579.347 195.61 578.744 197.327 579.63ZM209.801 578.358C212.777 577.796 213.034 580.096 215.094 580.441C210.802 582.389 207.111 582.445 204.107 578.453C206.453 579.55 208.142 578.669 209.801 578.358ZM180.928 599.703C180.968 598.642 180.251 596.462 183.101 597.298C183.794 597.514 183.917 596.89 183.674 596.327C183.538 596.019 183.238 595.795 183.012 595.517C185.687 592.67 184.928 588.702 185.944 585.287C186.111 584.692 186.293 583.759 187.149 584.074C187.662 584.269 187.724 584.737 187.604 585.416C185.9 595.507 183.663 605.268 180.81 614.499C180.797 614.495 180.784 614.492 180.771 614.488C180.676 614.786 180.33 615.009 179.886 615.521C179.125 613.55 179.009 611.331 179.997 610.126C182.17 607.492 181.248 604.025 182.786 601.281C183.123 600.681 183.994 599.475 182.521 599.063C181.56 598.791 181.137 599.263 180.928 599.703ZM180.753 600.195C180.789 600.077 180.838 599.892 180.928 599.703C180.92 599.935 180.878 600.114 180.753 600.195Z" fill="var(--stroke-0, #FDEEC2)"/>
<path id="t" d="M190.456 135.413C192.505 139.615 193.829 144.195 194.833 149.017C193.029 144.686 191.679 140.088 190.456 135.413ZM190.456 135.413C190.421 135.343 190.387 135.271 190.352 135.201C190.352 135.201 190.402 135.257 190.412 135.291C190.416 135.289 190.419 135.288 190.422 135.287C190.433 135.329 190.445 135.371 190.456 135.413ZM190.392 135.223C190.392 135.183 190.39 135.141 190.39 135.101C190.407 135.16 190.425 135.22 190.442 135.279C190.426 135.26 190.409 135.241 190.392 135.223ZM420.069 310.726C420.655 315.057 427.193 316.998 431.497 319.445C438.746 323.559 446.008 327.372 453.355 331.248C460.851 335.201 468.895 338.694 476.878 341.563C478.292 342.059 479.405 342.312 477.741 342.972C477.726 342.974 477.711 342.976 477.696 342.977C477.698 342.981 477.7 342.985 477.702 342.989C477.685 342.996 477.67 343.003 477.653 343.01C477.657 343 477.662 342.99 477.667 342.98C477.644 342.982 477.622 342.984 477.599 342.986C477.604 342.976 477.609 342.966 477.614 342.956C474.653 345.448 471.667 341.487 468.978 340.573C463.009 338.551 457.383 334.275 451.577 332.588C445.307 330.736 440.286 325.733 432.451 324.83C452.042 336.78 471.349 346.695 491.551 353.505C492.046 352.473 489.854 352.608 489.9 351.292C510.262 360.843 530.999 370.572 553.038 371.35C545.935 368.543 537.79 369.192 530.646 365.552C534.262 365.971 537.958 365.907 541.415 366.691C551.913 369.096 562.501 370.203 572.671 372.049C576.198 372.688 579.39 370.879 582.821 371.657C583.89 371.894 585.584 371.55 586.069 372.012C589.017 374.79 592.715 374.85 596.275 374.53L553.891 417.764C553.751 415.169 553.527 412.544 553.673 409.988C553.814 407.559 553.886 405.137 553.912 402.719C554.018 393.099 553.4 383.55 553.507 373.939C553.652 359.078 553.342 344.183 553.91 329.355C554.246 320.756 555.19 311.737 555.038 303.51C555.036 303.449 555.034 303.388 555.032 303.327C554.798 297.246 554.391 291.187 553.175 285.257C551.497 277.089 546.89 270.201 545.424 261.498C541.154 258.132 538.704 253.514 535.282 249.387C534.147 248.102 532.997 246.834 531.815 245.607C516.049 229.218 501.376 211.875 486.065 195.032C467.295 174.377 448.623 153.578 430.283 132.54C418.119 118.608 405.709 104.873 393.515 90.9716C393.029 90.4316 392.679 89.7566 392.188 89.036C393.685 89.1693 394.581 91.629 395.94 91.9937C394.752 90.0604 393.015 87.5574 391.661 87.187C389.427 86.5784 387.991 84.4719 386.511 82.7823C385.064 81.1129 383.616 79.4446 382.168 77.7762C378.245 73.0684 373.845 68.7411 369.039 64.8187C359.335 56.8938 347.51 51.4073 334.993 48.1219C324.189 45.2816 312.698 44.1091 301.221 45.2037C288.918 46.3699 276.675 50.0487 265.45 56.0251C280.025 48.6805 296.046 45.1948 311.658 45.572C311.643 45.7457 311.63 45.9303 311.589 46.1036C293.657 46.1664 274.414 50.3316 259.054 61.2204C259.141 61.3361 259.227 61.4517 259.314 61.5673C266.371 57.3965 273.88 54.1391 281.55 51.9513C283.894 51.2775 286.261 50.3664 288.645 50.3138C287.85 51.4128 285.379 51.4219 283.889 52.1341C284.453 52.3103 285.848 51.405 286.347 51.83C286.183 51.9308 286.035 52.0771 285.826 52.1308C279.081 54.0905 272.434 56.6298 265.825 59.5315C264.288 60.2129 263.269 60.9279 262.279 61.784C259.373 64.262 254.257 67.531 251.159 68.8621C249.579 69.5294 249.649 68.6758 250.303 67.6568C251.297 66.0907 250.92 65.681 248.964 66.5197C247.803 67.0251 247.574 66.8812 248.119 65.9597C249.634 63.4721 249.415 63.3927 244.825 67.0797C249.085 62.6838 247.148 63.3721 245.363 63.2108C242.868 62.9349 237.831 64.9608 241.593 58.7932C242.086 58.014 241.929 56.6367 240.432 56.6978C238.81 56.7608 236.704 56.7404 237.968 53.799C238.163 53.363 238.86 52.431 239.44 51.8971C245.267 46.7266 243.576 46.4471 242.294 46.2569C239.044 45.838 239.11 42.7658 239.783 38.9965C240.137 36.9903 239.362 35.7827 239.714 33.7254C240.083 31.4224 245.402 26.9764 249.437 23.9932C257.344 18.0336 266.369 13.3876 275.794 10.0488C280.002 8.54443 284.6 6.91652 288.926 5.43501C296.47 2.83732 303.702 2.50955 311.45 1.41178C314.373 1.00124 316.712 0.619057 318.956 2.38419e-07C322.298 1.40927 327.668 0.0715048 332.016 0.420601C336.383 0.753906 341.059 1.32789 345.416 0.952643C348.529 0.688013 349.516 2.14209 352.262 2.63559C367.087 5.31911 381.462 10.9633 394.955 17.9179C402.09 21.5857 408.601 26.0573 414.332 30.986C416.967 33.2477 419.497 35.5321 422.012 37.9322C435.083 50.2785 449.076 61.81 462.123 74.1829C468.679 80.3955 475.152 87.5767 483.193 92.6775C486.362 94.6814 489.087 97.8753 491.804 100.704C496.285 105.356 500.719 109.916 506.096 113.905C511.259 117.736 514.951 123.179 520.098 127.305C526.856 132.71 532.875 138.855 539.044 144.895C541.944 147.727 544.842 150.701 548.723 151.573C551.283 152.134 549 153.766 550.991 155.271C554.816 158.155 558.492 161.376 562.13 164.542C569.612 171.039 576.24 178.159 582.574 185.619C585.004 188.486 587.925 191.241 590.914 193.755C591.96 194.675 592.996 195.589 594.015 196.494C597.351 199.456 599.308 203.906 603.197 205.937C603.552 208.341 604.564 211.986 606.987 213.377C610.902 215.625 612.563 219.373 614.979 222.975C619.741 230.071 624.496 237.316 626.484 245.738C626.934 247.658 628.438 247.27 629.217 249.564C630.689 253.84 632.305 258.581 633.615 262.411C637.043 272.33 636.345 283.1 639.909 292.955C641.007 295.964 640.417 299.839 640.331 303.51C640.321 303.834 640.321 304.156 640.334 304.476C640.622 311.758 641.611 319.239 640.139 326.356C638.51 334.133 639.795 342.008 640.263 349.587C640.521 353.871 639.702 359.177 641.902 363.065C639.678 365.24 641.76 370.38 639.266 372.752C637.705 374.235 638.797 377.597 639.434 379.211C641.756 385.011 641.645 389.097 641.388 395.424C641.29 397.811 641.003 400.25 640.839 402.719C640.567 406.793 640.632 410.951 642.44 415.095C642.748 415.802 642.834 416.718 642.793 417.764L642.665 462.655L598.039 463.414C594.671 463.375 590.127 462.345 586.392 462.164C583.089 462.019 578.91 461.877 576.161 460.163C575.27 459.595 574.244 459.442 573.272 460.042C568.581 462.834 563.647 460.375 559.269 458.947C555.32 457.655 552.325 455.518 548.466 457.962C547.214 458.73 544.065 457.996 542.164 457.236C537.032 455.194 537.1 455.122 531.921 455.255C531.113 455.268 530.123 455.031 529.293 454.764C520.311 451.982 510.949 450.971 502.291 446.509C496.165 443.367 487.694 440.143 481.462 439.446C474.095 438.637 468.669 434.886 462.381 432.707C454.962 430.147 447.543 426.785 440.741 422.876C425.822 414.333 410.186 407.259 396.643 396.949C395.332 395.944 393.708 394.495 392.124 395.004C391.168 395.321 389.471 394.095 389.064 393.525C384.154 386.537 375.866 383.531 369.42 378.629C351.686 365.16 334.497 351.181 318.733 335.65C309.664 326.728 300.524 317.889 292.327 308.237C285.363 300.038 278.429 291.968 271.82 283.566C269.95 281.189 268.125 278.808 266.324 276.382C260.598 268.667 255.127 260.532 249.198 253.002C247.013 250.25 243.346 246.986 243.81 243.144C243.803 243.105 237.576 235.395 237.48 235.199C236.913 234.393 236.302 233.617 235.865 232.768C229.07 220.045 221.603 208.117 215.347 195.382C206.467 177.332 199.128 158.48 192.756 139.484C190.795 133.625 189.64 127.412 187.465 121.042C187.933 125.943 190.33 130.889 190.39 135.101C187.652 125.819 185.092 116.302 183.658 107.028C183.183 103.98 182.543 100.784 181.976 97.6146L178.753 80.7819L188.097 73.215C192.384 69.8649 196.703 66.6206 200.846 64.7666C201.807 64.3295 202.649 63.306 203.381 62.5935C205.777 60.2834 207.439 59.6616 207.344 60.4987C207.171 62.3294 209.08 60.7899 211.874 58.365C212.845 57.5194 214.168 56.2782 214.837 56.2943C215.385 56.2829 214.49 57.2058 213.65 58.0438C212.129 59.5516 209.679 61.7619 211.212 61.5247C212.301 61.3553 214.354 60.4713 216.72 57.8513C216.835 57.7321 217.241 57.5337 217.618 57.3058C217.454 58.3061 215.592 59.8007 214.053 61.2437C216.964 60.0542 219.18 59.3344 218.037 62.0589C217.782 62.6426 218.35 62.5114 216.988 63.759C214.165 66.3415 214.418 66.5485 216.273 66.027C218.631 65.3561 222.114 63.6649 220.074 67.4035C219.923 67.6723 220.06 67.8558 220.328 67.7516C222.943 66.7779 223.726 67.2354 222.629 70.0529C221.902 71.8887 225.941 69.1234 228.532 67.1474C234.321 62.7346 238.763 61.1135 240.127 62.4777C240.127 62.4778 240.128 62.4779 240.128 62.4779C240.586 62.936 240.706 63.7322 240.431 64.8801C239.766 67.5705 237.872 71.9675 242.658 69.1111C233.89 79.9802 225.23 90.8506 216.589 101.708L220.544 85.9453C230.196 108.06 241.687 129.076 254.296 149.381C273.769 180.638 295.511 210.384 321.041 236.225C317.976 231.847 313.7 228.361 310.781 223.943C310.544 223.581 310.556 223.179 310.209 221.932C315.095 227.523 320.098 232.999 325.21 238.357C325.777 238.952 326.346 239.546 326.916 240.137C327.45 240.692 328.083 241.323 327.198 241.274C324.642 241.153 327.534 242.653 327.763 242.657C330.118 242.736 331.762 244.786 333.192 246.786C335.092 249.42 337.689 251.094 339.972 253.181C350.434 262.733 361.197 271.897 372.291 280.545C376.6 283.905 380.709 287.696 385.677 290.456C388.578 292.064 387.746 289.003 390.053 290.519C392.691 292.243 389.422 293.155 392.11 294.973C394.888 296.845 397.33 299.238 400.568 301.016C400.299 300.079 400.09 299.361 399.679 297.927C405.545 304.782 412.615 307.676 420.069 310.726ZM528.914 451.326C521.993 448.445 514.687 447.736 507.731 445.498C514.372 448.712 521.749 449.737 528.914 451.326ZM480.249 435.914C486.552 440.118 494.115 441.769 501.452 443.774C494.402 441.06 486.944 439.352 480.249 435.914ZM550.197 455.155C562.777 457.112 575.636 458.33 588.767 458.57C588.732 458.304 588.698 458.039 588.663 457.773C575.611 457.53 562.826 456.318 550.313 454.373C550.274 454.634 550.235 454.894 550.197 455.155ZM636.986 403.431C636.985 408.209 637.26 412.986 637.417 417.764L637.304 457.369L597.933 458.039C597.118 458.078 596.303 458.11 595.486 458.135C596.303 458.167 597.12 458.199 597.936 458.226L637.491 457.553L637.604 417.764C637.909 412.948 638.198 408.127 636.986 403.431ZM218.595 128.501C214.62 114.166 209.375 102.412 204.876 90.6858L204.803 90.3046L205.014 90.1332C205.511 89.5576 206.006 88.9831 206.502 88.4101C205.914 88.8931 205.332 89.3802 204.753 89.8716L204.4 90.1573L204.522 90.7929C207.257 103.528 212.292 115.667 218.595 128.501ZM355.602 49.8119C359.517 52.3752 362.168 54.4298 366.097 54.7825C362.725 52.5915 359.792 50.7172 355.602 49.8119ZM403.467 91.1788C408.134 98.861 413.668 104.092 419.691 108.647C414.811 102.623 409.574 97.142 403.467 91.1788ZM368.809 62.9128C369.491 63.466 370.169 64.0569 370.63 63.9367C371.012 63.8405 371.054 63.3093 371.137 62.8978C371.166 62.6146 370.787 62.1242 370.336 62.074C366.938 61.7522 365.194 58.2825 362.254 56.9901C363.974 57.2554 365.387 59.13 367.718 59.674C362.02 55.2443 355.946 54.5185 350.409 50.9567C350.402 50.9492 350.395 50.9416 350.388 50.9341C351.83 53.0074 354.001 53.2116 355.775 54.1921C360.389 56.7598 364.777 59.6434 368.809 62.9128ZM329.244 44.6061C334.225 46.0158 338.381 46.9614 342.54 48.0236C338.431 46.9447 334.538 44.3402 329.244 44.6061ZM553.201 265.629C553.113 265.756 553.369 266.734 554.02 266.743C554.717 266.756 555.01 266.222 555.045 265.486C555.164 262.911 553.541 260.746 552.397 257.344C552.391 257.347 552.386 257.351 552.38 257.354C552.048 258.487 551.819 258.792 551.883 259.09C552.316 261.249 555.184 263.261 553.201 265.629ZM387.612 80.5496C386.349 79.074 385.149 77.5356 383.929 76.0158C382.209 73.7524 380.313 71.6255 377.864 70.1651C379.902 72.1025 381.843 74.1201 383.708 76.2359C385.009 77.6743 386.31 79.1122 387.612 80.5496ZM392.762 86.645C395.924 90.5202 398.904 94.5305 402.911 97.4667C399.593 93.7476 396.879 89.3783 392.762 86.645ZM473.297 174.573C475.582 176.481 475.702 179.857 477.045 180.424C481.599 182.36 483.477 186.84 486.622 190.005C483.154 184.18 479.465 178.524 473.297 174.573ZM413.196 109.27C416.034 112.211 415.714 115.607 419.317 118.715C419.895 115.014 415.982 112.216 413.196 109.27ZM494.938 201.536C495.086 201.668 495.247 201.787 495.373 201.895C499.652 205.351 503.091 209.648 506.554 213.874C508.017 215.673 509.522 216.032 510.276 215.511C511.171 214.895 509.481 213.51 508.683 212.583C503.631 206.591 497.66 201.47 492.665 195.327C491.104 193.406 488.81 191.946 486.85 190.282C485.653 191.255 487.74 192.204 488.346 193.216C489.869 195.794 492.063 196.35 493.892 197.876C496.384 199.95 496.496 200.864 494.938 201.536ZM543.957 257.52C543.056 258.777 544.091 258.345 544.474 258.046C544.918 257.698 545.646 258.771 545.93 257.723C545.626 257.331 545.246 256.938 544.972 256.47C544.719 256.067 544.25 255.634 544.563 255.11C544.568 255.116 544.572 255.122 544.577 255.128C549.168 258.432 548.948 264.967 552.705 268.849C549.602 260.524 545.035 252.497 538.657 246.012C536.531 243.86 534.373 241.738 532.175 239.654C531.34 238.858 530.246 238.367 529.733 237.249C526.81 231.038 520.915 226.914 516.628 221.694C515.283 220.056 514.113 219.876 512.261 219.724C517.908 224.935 522.792 229.837 526.385 235.75C526.95 236.677 527.887 237.558 528.68 238.395C531.558 241.384 534.464 244.344 537.335 247.334C539.614 249.75 541.692 252.35 543.417 255.167C543.893 255.957 544.681 256.521 543.957 257.52ZM244.53 71.8213C242.472 74.8602 231.557 88.8626 219.394 104.513L224.34 84.7965C235.004 108.996 250.78 134.464 251.768 137.006C241.137 120.702 232.07 102.876 223.579 85.027L218.831 103.95C219.703 102.786 220.571 101.621 221.435 100.455C228.238 91.2269 235.065 81.7437 243.408 72.844C243.742 72.4788 244.088 72.2183 244.53 71.8213ZM554.318 279.094C556.553 286.206 557.709 293.621 557.827 301.031C557.836 301.864 557.792 302.704 557.855 303.51C557.937 305.106 558.226 306.604 559.083 307.833C559.083 307.823 559.083 307.813 559.083 307.804C560.022 306.673 559.791 305.003 559.8 303.51C559.8 303.49 559.8 303.47 559.801 303.45C560.038 295.041 558.906 286.583 556.553 278.444C556.235 277.387 556.134 275.971 554.919 276.255C553.478 276.603 553.927 277.862 554.318 279.094ZM343.986 52.2481C335.683 49.4935 326.989 47.5108 317.986 46.2259C327.017 46.475 335.897 48.6698 343.986 52.2481ZM558.156 403.431C557.157 407.814 558.508 412.23 557.904 416.645C559.955 412.197 558.748 407.814 558.156 403.431ZM557.124 350.115C558.624 347.644 558.988 344.908 558.407 341.547C557.769 337.823 557.908 333.803 558.633 329.981C558.782 329.157 559.578 328.367 558.574 327.807C557.57 327.246 557.316 328.333 557.302 329.684C557.233 336.494 557.174 343.305 557.124 350.115ZM557.005 325.302C558.616 319.781 559.363 314.036 559.092 308.066C555.684 313.092 558.203 319.683 557.005 325.302ZM559.181 307.969C559.181 307.958 559.181 307.947 559.181 307.936C559.177 307.942 559.173 307.948 559.169 307.953C559.173 307.959 559.177 307.964 559.181 307.969ZM368.226 66.8282C368.341 66.6561 368.456 66.484 368.571 66.3119C373.393 69.7857 377.636 74.0005 381.334 78.6103C386.759 85.0277 392.108 91.5212 397.693 97.8197C392.091 91.5657 386.499 85.3013 380.918 79.0265C377.103 74.577 372.86 70.4873 368.226 66.8282ZM483.995 194.725C465.206 175.953 448.249 155.489 430.298 135.926C430.302 135.922 430.306 135.918 430.31 135.914C430.572 135.698 430.825 135.446 431.066 135.205C448.651 155.134 466.275 174.977 483.995 194.725ZM402.388 104.233C402.528 104.14 402.656 104.012 402.785 103.883C411.444 113.538 420.129 123.169 428.838 132.774C428.69 132.875 428.509 132.962 428.372 133.099C419.685 123.503 411.024 113.88 402.388 104.233ZM383.356 292.669C377.874 288.628 373.308 283.611 366.718 280.639C371.984 285.031 377.315 289.292 382.72 293.431C382.932 293.177 383.144 292.923 383.356 292.669ZM312.71 48.897C311.458 48.7658 312.144 49.7887 311.001 49.4644C305.303 47.8843 299.614 49.6673 294.03 50.5087C290.977 50.9822 289.8 50.9519 288.706 50.3076C295.253 48.8177 301.978 47.6553 308.555 48.2884C309.85 48.424 310.527 47.965 311.653 48.0253C313.411 48.1349 313.29 48.483 312.71 48.897ZM288.646 50.2813C288.645 50.2782 288.644 50.2751 288.643 50.272C288.65 50.2764 288.659 50.2803 288.666 50.2847C288.665 50.2873 288.663 50.2899 288.661 50.2924C288.656 50.2887 288.651 50.285 288.646 50.2813ZM288.666 50.2847C288.669 50.2816 288.67 50.2784 288.673 50.2753C288.674 50.2809 288.676 50.2865 288.678 50.2922C288.674 50.2897 288.67 50.2871 288.666 50.2847ZM288.645 50.3138C288.65 50.3068 288.656 50.2996 288.661 50.2924C288.669 50.2991 288.677 50.3058 288.685 50.3124C288.672 50.3129 288.658 50.3134 288.645 50.3138ZM288.678 50.2922C288.687 50.2975 288.697 50.3023 288.706 50.3076C288.699 50.3092 288.692 50.3108 288.685 50.3124C288.683 50.3057 288.68 50.2989 288.678 50.2922ZM557.55 371.265C556.706 371.071 555.205 370.841 555.067 371.761C554.929 372.682 556.231 372.655 557.26 372.798C562.748 373.611 568.221 374.343 573.628 374.832C568.756 372.232 563.009 372.504 557.55 371.265ZM334.416 52.9463C327.753 51.1462 320.876 50.5341 313.836 49.5233C313.424 49.4609 313.118 49.1231 312.77 48.9037C315.081 48.2855 317.693 48.2806 320.584 48.728C325.042 49.4238 329.447 50.2967 333.717 51.5531C334.566 51.7992 335.646 52.0688 335.578 52.6959C335.542 53.0212 335.056 53.1256 334.416 52.9463ZM286.19 193.949C289.476 196.299 295.83 204.115 298.933 209.638C293.71 204.396 290.487 198.729 286.19 193.949ZM431.369 323.545C429.226 320.566 426.975 318.882 423.22 317.861C425.034 321.139 427.847 322.239 431.369 323.545ZM393.996 297.494C393.222 296.868 392.382 296.323 391.906 296.772C391.315 297.314 392.12 298.591 392.961 298.847C397.219 300.114 399.935 304.186 405.202 306.193C405.193 306.187 405.185 306.182 405.177 306.176C400.714 302.807 397.327 300.165 393.996 297.494ZM378.737 82.4483C378.553 82.2179 378.37 81.9883 378.185 81.7595C374.902 77.3602 370.811 73.7879 366.773 70.1005C362.718 66.4229 357.652 64.0899 354.145 59.7644C363.049 66.3213 372.745 72.3017 378.241 81.7032C378.408 81.9507 378.573 82.1991 378.737 82.4483ZM506.084 221.428C506.25 221.262 506.415 221.096 506.581 220.93C515.436 230.421 524.317 239.885 533.225 249.322C533.054 249.493 532.883 249.664 532.712 249.836C523.808 240.394 514.932 230.925 506.084 221.428ZM312.663 48.9327C312.64 48.9388 312.616 48.9439 312.594 48.9502C312.594 48.9502 312.657 48.9259 312.696 48.9079C312.701 48.9043 312.705 48.9005 312.71 48.897C312.712 48.8972 312.714 48.8974 312.716 48.8976C312.725 48.8928 312.728 48.8893 312.722 48.889C312.731 48.8893 312.74 48.8896 312.749 48.8899C312.756 48.8944 312.763 48.8992 312.77 48.9037C312.75 48.9089 312.731 48.9141 312.712 48.9193C312.681 48.9335 312.651 48.9478 312.621 48.962C312.635 48.9522 312.649 48.9423 312.663 48.9327ZM353.253 60.9512C350.383 58.7869 346.632 58.2493 343.914 55.6732C347.403 56.8281 351.058 57.941 353.253 60.9512ZM551.234 415.359C551.191 414.404 551.332 413.316 552.189 413.481C553.005 413.612 553.047 414.601 552.968 415.623C552.908 416.338 552.849 417.052 552.79 417.764L596.253 373.429C594.751 373.3 593.241 373.152 591.702 372.985C591.711 372.985 591.719 372.985 591.728 372.985C591.782 372.741 591.811 372.516 591.838 372.272C593.31 372.189 594.775 372.078 596.224 371.967L551.327 417.764C551.292 416.963 551.26 416.161 551.234 415.359ZM548.778 277.582C546.266 273.834 545.791 269.292 543.506 265.429C546.63 268.792 547.499 273.415 548.778 277.582ZM397.458 103.899C397.097 104.306 396.178 103.966 395.696 103.236C392.778 98.745 389.032 94.9884 385.467 91.0043C385.065 90.5676 384.898 89.8488 384.336 88.6403C389.495 92.3354 392.692 97.6199 396.8 101.573C397.685 102.413 397.872 103.438 397.458 103.899ZM416.751 127.478C411.264 120.989 405.803 114.426 400.21 107.996C399.063 106.673 398.482 105.763 398.886 105.266C399.577 104.435 400.572 106.282 401.251 107.095C406.412 113.211 411.501 119.354 416.625 125.507C416.617 125.499 416.61 125.49 416.603 125.482C416.653 126.131 416.692 126.792 416.751 127.478ZM507.556 352.046C512.549 353.555 517.17 355.784 522.77 358.219C519.429 358.083 517.276 357.985 514.967 357.846C515.589 359.632 518.167 359.175 519.366 360.864C513.301 358.884 507.629 357.364 502.114 354.81C495.725 351.841 488.895 349.103 482.119 346.755C482.096 346.759 482.072 346.764 482.048 346.768C479.054 345.709 478.458 344.589 477.702 342.989C477.715 342.984 477.728 342.978 477.741 342.972C480.846 342.673 483.862 342.319 485.812 345.874C486.46 347.009 487.616 346.442 488.494 346.689C493.378 348.062 498.484 348.39 502.731 351.75C504.025 352.779 505.963 351.567 507.556 352.046ZM433.414 144.787C426.472 139.645 421.16 133.014 416.662 125.567C422.622 131.598 427.964 138.246 433.414 144.787ZM416.625 125.507C416.637 125.527 416.649 125.547 416.662 125.567C416.646 125.551 416.629 125.534 416.613 125.518C416.617 125.514 416.621 125.511 416.625 125.507ZM479.613 197.337C477.993 196.813 476.678 197.381 475.371 195.1C471.164 187.75 464.344 183.012 458.963 176.837C458.599 176.408 458.247 175.967 457.817 175.466C459.011 175.112 459.555 177.363 461.044 177.458C458.395 174.097 455.943 170.909 452.839 168.188C452.437 167.845 451.666 167.73 451.57 167.546C450.533 165.508 447.113 163.104 447.895 161.901C448.643 160.687 451.046 163.97 452.095 165.205C452.102 165.213 452.11 165.221 452.117 165.229C461.197 175.815 470.663 186.062 479.613 197.337ZM255.254 142.609C259.349 148.986 264.372 154.396 268.083 161.152C268.542 161.996 269.646 163.18 269.184 163.645C268.766 164.084 267.895 163.017 267.285 162.076C267.281 162.078 267.277 162.08 267.274 162.082C263.124 155.696 259.114 149.203 255.254 142.609ZM290.765 192.438C293.096 197.022 297.794 199.492 300.36 203.814C300.37 203.819 300.381 203.824 300.392 203.829C301.431 205.602 302.928 207.422 303.214 209.526C297.819 204.408 294.39 198.728 290.195 193.655C289.664 193.01 289.295 192.042 289.786 191.832C289.934 191.772 290.669 192.245 290.765 192.438ZM309.986 217.048C312.443 219.774 317.266 220.372 316.977 225.136C313.701 223.208 312.284 219.794 309.986 217.048ZM319.226 227.801C323.135 230.476 325.273 233.602 327.702 236.247C328.134 236.716 328.574 237.169 329.036 237.599C328.51 237.223 327.991 236.837 327.478 236.436C324.673 234.249 322.034 231.64 319.226 227.801ZM477.664 342.913C477.67 342.925 477.676 342.936 477.682 342.948C477.694 342.921 477.707 342.895 477.719 342.869C477.702 342.884 477.682 342.898 477.664 342.913ZM279.051 176.755C281.216 180.157 284.446 183.147 286.497 187.881C282.353 184.386 280.932 180.211 278.216 177.036C278.116 176.916 278.044 176.35 278.149 176.359C278.382 176.366 278.897 176.561 279.022 176.736C279.032 176.742 279.041 176.749 279.051 176.755ZM554.585 363.281C558.059 363.526 559.252 365.882 562.402 365.249C562.412 365.244 562.422 365.239 562.433 365.233C562.338 365.67 562.215 366.104 562.12 366.541C561.347 366.513 560.584 366.565 559.831 366.471C548.918 365.148 537.828 363.051 526.705 360.368C525.38 360.046 524.191 359.624 524.281 358.651C524.408 357.169 525.951 357.753 527.288 358.097C533.348 359.654 539.539 360.633 545.362 362.258C548.552 363.151 551.724 363.072 554.585 363.281ZM487.174 207.531C483.936 204.618 481.089 202.431 478.83 199.424C481.364 198.941 485.56 202.667 487.174 207.531ZM509.361 233.015C506.682 231.826 505.522 229.304 504.199 227.272C504.207 227.28 504.214 227.288 504.222 227.296C501.577 223.23 498.688 219.595 494.87 216.61C501.176 220.182 505.584 226.446 510.709 231.667C511.553 232.547 512.274 233.598 511.625 234.247C510.874 234.952 510.007 233.301 509.361 233.015ZM537.009 263.671C535.582 263.177 533.941 264.501 534.133 262.69C534.38 260.157 532.713 259.045 531.271 258.086C530.232 257.401 529.8 256.376 529.343 255.326C528.374 253.77 527.418 252.2 525.832 250.89C521.785 247.527 519.301 242.229 514.744 239.096C513.773 238.437 512.942 237.264 513.673 236.673C514.404 236.082 515.339 237.197 516.148 238.066C520.287 242.594 524.731 246.958 528.478 251.739C528.481 251.751 528.484 251.764 528.487 251.776C529.133 252.597 529.799 253.398 530.48 254.189C532.733 257.082 535.338 259.79 537.009 263.671ZM543.876 416.446C543.262 415.327 543.872 414.898 544.075 414.7C545.886 412.822 546.025 410.054 545.166 407.484C544.369 405.079 545.756 405.111 546.164 404.88C547.244 404.255 547.184 406.297 547.185 406.957C547.273 410.541 547.45 414.155 547.578 417.764L596.149 368.219C592.338 368.474 588.382 368.499 584.524 367.942C580.262 367.322 576.197 368.272 572.07 367.477C572.062 367.47 572.054 367.462 572.045 367.454C568.763 366.829 564.68 367.559 562.881 364.641C563.764 363.13 565.88 367.333 565.664 363.663C565.629 362.963 567.218 363.124 568.161 363.212C574.201 363.736 579.886 364.42 585.604 365.821C588.92 366.641 592.97 366.983 596.088 365.151L544.511 417.764C544.323 417.314 544.112 416.874 543.876 416.446ZM544.117 280.349C541.163 278.651 541.586 275.62 541.235 273.493C540.734 270.506 538.22 269.347 537.197 266.989C536.948 266.443 535.902 266.059 536.604 265.392C537.272 264.742 538.123 265.266 538.587 266.06C538.596 266.062 538.604 266.064 538.613 266.066C541.088 270.339 544.179 274.636 544.117 280.349ZM545.071 374.795C545.296 374.301 543.326 373.576 544.98 372.752C545.531 372.489 546.12 372.852 546.276 374.203C547.331 383.198 547.389 392.261 546.816 401.355C546.795 401.652 546.305 401.882 545.531 402.607C545.429 394.929 544.261 388.075 544.677 380.793C544.787 378.816 544.185 376.772 545.071 374.795ZM543.799 360.428C543.237 357.002 545.536 356.705 545.881 354.332C547.83 359.275 547.885 363.527 543.894 366.986C544.99 364.284 544.109 362.339 543.799 360.428ZM543.646 315.355C543.453 313.841 542.308 310.979 545.269 311.33C545.991 311.429 545.985 310.54 545.636 309.815C545.442 309.42 545.104 309.188 544.829 308.859C545.583 307.129 545.871 305.334 545.958 303.51C546.11 301.723 545.574 299.922 545.743 298.142C545.781 297.659 545.754 296.921 546.657 296.979C547.199 297.019 547.362 297.364 547.391 297.911C547.504 299.776 547.543 301.644 547.507 303.51C547.386 314.443 547.302 325.365 547.239 336.307C547.225 336.307 547.212 336.307 547.198 336.307C547.193 336.769 546.925 337.23 546.651 338.153C545.342 335.681 544.614 332.551 545.248 330.475C546.641 325.862 544.907 321.413 545.802 316.998C545.998 316.042 546.592 314.098 545.065 313.966C544.069 313.874 543.754 314.667 543.646 315.355ZM543.581 316.108C543.59 315.929 543.599 315.652 543.646 315.355C543.688 315.687 543.685 315.954 543.581 316.108Z" fill="var(--stroke-0, #FDEEC2)"/>
<path id="r" d="M217.969 346.552C212.705 347.935 207.17 348.562 201.46 348.852C206.809 347.692 212.371 347.041 217.969 346.552ZM217.969 346.552C218.057 346.529 218.147 346.506 218.236 346.482C218.236 346.482 218.159 346.524 218.119 346.528C218.119 346.532 218.12 346.535 218.121 346.539C218.07 346.543 218.019 346.548 217.969 346.552ZM218.201 346.519C218.246 346.525 218.294 346.53 218.34 346.535C218.268 346.543 218.196 346.552 218.125 346.56C218.15 346.546 218.175 346.533 218.201 346.519ZM99.8618 561.566C98.6479 565.419 103.657 568.312 106.689 570.882C111.785 575.275 117.387 578.861 123.279 581.864C129.325 584.951 136.086 586.822 142.762 587.388C143.947 587.477 144.839 587.392 143.649 588.493C143.637 588.499 143.626 588.505 143.614 588.511C143.616 588.514 143.619 588.517 143.621 588.52C143.609 588.531 143.598 588.543 143.586 588.554C143.588 588.543 143.59 588.532 143.592 588.521C143.575 588.53 143.557 588.538 143.54 588.546C143.542 588.535 143.545 588.524 143.547 588.513C141.574 591.721 138.531 588.667 136.313 588.372C131.19 587.718 126.472 584.443 121.658 583.296C116.332 581.966 112.793 577.369 106.126 575.905C120.71 588.773 138.993 595.275 157.009 593.861C157.067 592.721 155.382 593.667 155.029 592.422C155.839 592.485 156.655 592.538 157.476 592.582C185.808 593.536 213.88 596.157 242.163 592.98C231.82 591.533 221.4 594.019 210.864 592.415C215.688 591.855 220.512 590.872 225.336 590.84C239.963 590.763 254.666 590.03 269.253 590.818C274.347 591.094 278.593 589.037 283.687 589.625C285.23 589.802 287.663 589.385 288.396 589.831C295.419 594.021 304.256 591.638 312.476 592.037C315.321 592.178 318.158 592.25 320.99 592.277C332.256 592.382 343.439 591.765 354.696 591.872C372.1 592.017 389.544 591.706 406.91 592.275C417.098 592.614 427.789 593.576 437.514 593.397C448.705 593.177 459.858 593.539 470.895 593.816C474.644 593.916 478.419 593.897 482.202 593.871C489.609 593.779 496.565 592.618 504.17 593.123C510.518 589.049 517.998 587.678 524.457 583.624C539.366 574.342 552.365 560.511 558.827 543.214C561.633 535.731 563.343 527.768 563.868 519.524C564.774 499.548 565.779 479.573 566.928 459.625L577.913 483.412C577.215 482.735 576.511 482.058 575.799 481.382C561.736 468.05 545.645 456.205 528.658 445.482C527.989 445.069 527.408 444.49 526.664 443.903C528.236 443.654 529.95 445.86 531.456 445.899C529.618 444.263 527.003 442.227 525.49 442.21C522.994 442.178 520.831 440.512 518.704 439.263C509.242 433.642 499.463 428.434 489.481 423.506C473.744 415.742 457.132 409.455 440.344 403.758C425.846 398.849 411.08 394.437 396.087 390.949C380.002 387.209 363.575 384.407 347.031 382.477C368.219 385.322 389.068 389.532 409.464 395.095C409.394 395.256 409.323 395.429 409.217 395.581C385.412 389.659 360.825 384.087 336.213 382.597C336.208 382.741 336.202 382.886 336.196 383.03C346.943 384.347 357.645 386.004 368.198 388.061C371.442 388.689 374.853 389.057 377.825 390.138C376.241 390.741 373.165 389.546 370.927 389.411C371.512 389.851 373.759 389.753 374.131 390.368C373.87 390.376 373.603 390.432 373.312 390.376C363.819 388.756 354.271 387.22 344.766 385.505C342.558 385.111 340.883 385.038 339.128 385.081C334.002 385.205 325.886 384.238 321.724 383.03C319.601 382.413 320.461 381.849 321.999 381.567C324.359 381.117 324.336 380.562 321.752 379.82C320.216 379.379 320.141 379.115 321.461 378.83C325.076 378.059 324.876 377.918 317.466 377.325C325.216 377.174 322.809 376.277 321.341 374.939C319.283 373.011 313.352 370.919 321.733 369.141C322.809 368.919 323.784 367.809 322.447 366.824C320.996 365.749 319.289 364.275 322.679 363.025C323.186 362.844 324.509 362.643 325.401 362.643C334.33 362.728 333.033 361.291 332.079 360.338C329.603 357.885 331.963 355.635 335.1 353.178C336.77 351.863 336.941 350.438 338.59 349.061C340.409 347.521 347.611 347.278 352.815 347.09C363.054 346.694 373.405 347.211 383.61 348.269C388.208 348.74 393.163 349.08 397.861 349.284C405.988 349.609 413.076 351.528 421.041 352.449C424.029 352.793 426.425 352.956 428.79 352.839C431.821 354.953 437.438 354.662 441.735 355.65C446.039 356.638 450.721 357.767 455.108 357.749C458.228 357.731 459.144 359.249 461.882 359.882C476.655 363.289 491.235 367.943 505.735 372.401C513.412 374.763 520.685 377.544 527.597 380.658C551.226 391.311 575.352 402.366 597.397 417.512C604.808 422.613 612.15 428.622 619.887 434.135L632.41 446.058L631.658 459.625C631.903 462.143 632.242 464.652 632.719 467.14C633.543 471.423 633.212 476.325 633.132 480.918C633.012 488.481 632.923 495.929 633.904 503.686C634.562 508.908 634.157 514.188 634.098 519.524C634.073 522.509 634.027 525.467 634.07 528.482C634.259 541.731 631.671 554.97 627.549 567.686C625.626 573.669 623.163 579.553 622.854 585.216C622.64 588.954 620.47 587.112 619.026 590.683C616.201 597.553 612.456 604.25 608.301 610.562C599.77 623.553 588.6 634.445 575.977 643.037C569.84 647.223 563.242 651.868 556.867 655.98C552.486 658.819 546.959 659.887 543.31 663.359C540.572 663.196 536.214 663.401 533.794 665.484C529.875 668.856 525.139 669.585 520.255 671.029C510.644 673.874 500.801 676.402 490.753 675.68C488.463 675.509 488.329 677.061 485.501 677.069C484.422 677.073 483.318 677.076 482.202 677.076C479.005 677.075 475.704 677.203 472.941 677.422C464.026 678.148 454.88 675.709 446.197 678.624C443.264 679.625 439.52 678.575 436.047 678.699C427.518 678.986 418.758 679.975 410.422 678.503C401.314 676.874 392.091 678.16 383.215 678.627C378.198 678.885 371.984 678.067 367.431 680.266C364.883 678.042 358.864 680.125 356.085 677.631C354.349 676.069 350.412 677.161 348.521 677.798C341.729 680.12 336.943 680.01 329.533 679.752C326.738 679.655 323.881 679.367 320.99 679.203C316.218 678.932 311.349 678.997 306.495 680.804C303.446 681.941 297.078 680.052 292.023 679.933C288.743 679.862 284.69 679.907 281.834 678.368C280.908 677.855 279.866 677.769 278.94 678.436C274.502 681.55 269.408 679.567 264.855 678.666C260.803 677.849 257.368 676.144 253.894 679.14C252.775 680.085 249.495 679.857 247.449 679.435C241.931 678.315 242.008 678.237 236.798 679.382C235.988 679.556 234.945 679.526 234.058 679.436C224.449 678.578 214.801 679.895 204.883 678.043C197.821 676.731 188.25 676.289 181.844 677.723C174.241 679.416 167.526 677.853 160.502 678.205C159.498 678.256 158.489 678.3 157.476 678.336C147.463 678.609 137.1 677.485 127.414 675.038C103.296 669.047 79.4779 659.395 61.1686 642.799C59.3871 641.186 57.2473 638.916 55.2368 638.857C54.0152 638.837 51.8237 636.713 51.3129 635.878C45.0913 625.772 35.4295 617.902 28.9811 607.97C11.8532 581.821 2.4026 550.401 3.32683 519.524C3.35232 518.804 3.3784 518.085 3.40512 517.365C3.91103 503.511 3.84982 489.734 4.58607 475.918C4.94977 469.109 5.18085 462.315 5.38831 455.53L6.46464 436.399L18.6911 427.532C25.9392 421.949 33.3397 416.68 40.9651 411.821C50.7634 405.579 61.0752 399.901 70.8541 393.947C74.412 391.759 78.9408 388.05 83.1642 388.745C83.2009 388.726 93.3165 382.695 93.5668 382.622C94.6078 382.085 95.6381 381.497 96.6962 381.103C112.605 374.948 127.941 368.392 143.856 363.46C166.483 356.436 189.642 351.658 212.789 348.213C219.909 347.159 227.257 346.989 235.017 345.87C229.34 345.535 223.144 347.128 218.34 346.535C229.544 345.257 240.973 344.277 251.853 344.428C261.778 344.518 273.266 343.824 281.502 345.823C282.732 346.11 284.341 345.876 285.581 345.815C289.63 345.632 291.639 346.281 290.862 346.842C289.2 348.106 292.178 348.194 296.667 348.275C298.224 348.301 300.423 348.285 300.998 348.752C301.488 349.116 299.932 349.183 298.499 349.235C295.92 349.315 291.907 349.336 293.469 350.181C294.582 350.782 297.111 351.487 301.352 351.175C301.551 351.165 302.072 351.296 302.591 351.387C301.614 352.005 298.75 351.835 296.215 351.873C299.748 352.948 302.261 353.934 299.029 355.16C298.329 355.419 298.93 355.703 296.727 355.709C292.145 355.732 292.201 356.068 294.253 356.914C296.88 357.987 301.231 359.097 296.453 360.483C296.106 360.581 296.076 360.809 296.392 360.912C299.433 361.952 299.722 362.82 296.527 364.164C294.437 365.037 300.102 365.691 303.9 366.033C312.38 366.785 317.381 368.828 317.38 370.749C317.38 370.749 317.38 370.749 317.38 370.749C317.38 371.397 316.824 372.044 315.661 372.665C312.908 374.105 307.846 375.939 314.051 377.24C269.461 381.722 226.861 392.792 186.383 408.374C146.296 423.883 107.817 443.539 76.2703 469.834C81.428 466.695 85.8494 462.353 91.1777 459.473C91.61 459.243 92.0415 459.272 93.4562 458.965C85.7592 464.345 78.3478 470 71.2995 475.922C70.6403 476.475 69.8927 477.132 70.0508 476.208C70.4887 473.539 68.5346 476.551 68.5085 476.789C68.1451 479.249 65.759 480.981 63.4972 482.487C63.4906 482.492 63.484 482.496 63.4774 482.501L76.2923 455.53C75.9655 459.571 76.7582 463.307 77.0139 467.196C78.171 484.613 79.1754 502.068 80.1361 519.524C80.1567 519.777 80.1785 520.03 80.2014 520.283C80.6232 524.928 80.9173 529.679 82.8507 534.081C83.9965 536.615 85.3413 534.144 86.1142 536.246C87.0373 538.614 83.9534 537.757 84.9268 540.269C85.9553 542.843 86.5219 545.629 88.1934 548.202C88.4834 547.386 88.7061 546.76 89.1817 545.539C90.0577 552.899 94.8128 557.589 99.8618 561.566ZM232.938 676.154C225.297 674.793 217.695 675.866 210.054 675.577C217.656 676.889 225.336 676.106 232.938 676.154ZM179.373 674.803C187.169 676.627 195.235 675.823 203.224 675.658C195.312 675.062 187.285 675.773 179.373 674.803ZM255.206 676.107C268.237 676.195 281.268 676.257 294.299 676.292C294.26 676.028 294.223 675.763 294.184 675.498C281.192 675.463 268.199 675.402 255.206 675.316C255.206 675.58 255.206 675.843 255.206 676.107ZM320.155 675.35C313.75 675.35 307.344 675.711 300.938 675.84C307.383 676.159 313.865 676.736 320.155 675.35ZM218.912 375.614C237.249 373.738 252.721 370.207 268.06 367.737C251.934 367.977 236.01 371.046 218.912 375.614ZM467.758 407.875C473.217 410.678 477.22 412.842 482.282 413.074C477.401 410.902 473.28 408.97 467.758 407.875ZM538.908 443.355C546.19 450.045 553.27 454.318 560.607 458.106C554.114 452.655 547.127 448.006 538.908 443.355ZM488.44 421.496C489.525 422.039 490.631 422.615 491.172 422.451C491.621 422.318 491.46 421.751 491.403 421.308C491.329 421.006 490.657 420.518 490.069 420.5C485.581 420.399 482.156 416.804 477.989 415.478C480.284 415.736 482.708 417.687 485.869 418.135C477.154 413.777 469.068 412.903 461.152 408.747C461.142 408.738 461.132 408.73 461.121 408.721C463.33 410.992 466.28 411.349 468.812 412.442C475.452 415.319 482.01 418.29 488.44 421.496ZM432.902 399.044C439.34 401.549 444.885 403.226 450.452 404.879C444.905 403.204 439.876 399.93 432.902 399.044ZM496.717 599.633C496.611 599.513 495.434 599.49 495.175 600.114C494.895 600.783 495.375 601.216 496.174 601.455C498.965 602.285 501.953 601.295 506.107 601.008C506.106 601.001 506.104 600.995 506.102 600.989C504.989 600.382 504.739 600.08 504.389 600.069C501.865 599.958 498.568 602.208 496.717 599.633ZM518.987 436.764C513.845 433.679 508.876 430.094 503.052 428.245C508.451 430.978 513.756 433.813 518.987 436.764ZM526.421 441.39C530.989 444.413 535.31 447.693 540.292 449.783C535.786 446.763 531.567 443.038 526.421 441.39ZM567.648 524.899C567.755 527.514 565.215 529.366 565.613 530.558C566.938 534.708 564.349 538.216 563.348 541.81C566.418 536.917 568.828 531.229 567.648 524.899ZM554.051 459.74C557.665 462.256 558.12 465.759 562.395 468.413C562.289 464.589 557.608 462.242 554.051 459.74ZM557.317 552.108C557.262 552.262 557.224 552.424 557.18 552.553C555.886 556.929 553.144 560.688 550.243 564.115C549.006 565.56 549.029 566.9 549.683 567.541C550.456 568.301 551.346 566.671 551.987 565.861C556.223 560.694 558.721 554.462 561.764 548.467C562.722 546.581 562.858 544.231 563.234 542.092C561.793 541.556 562.08 543.501 561.514 544.33C560.075 546.413 560.622 548.298 560.086 550.254C559.347 552.894 558.545 553.215 557.317 552.108ZM509.049 592.617C508.015 591.432 508.103 592.559 508.286 593.009C508.501 593.531 507.063 594.002 508.1 594.53C508.64 594.32 509.204 594.035 509.817 593.868C510.349 593.709 510.993 593.337 511.447 593.768C511.439 593.771 511.43 593.774 511.422 593.777C506.144 597.625 499.065 595.752 493.354 598.251C506.117 597.535 519.146 593.574 529.592 585.503C530.346 584.925 530.822 584.038 531.832 583.798C537.51 582.356 541.082 577.279 545.197 573.464C546.505 572.25 546.471 571.167 546.245 569.511C542.607 574.66 538.432 578.809 533.193 581.031C532.375 581.378 531.594 582.057 530.838 582.6C525.01 586.893 518.661 590.559 511.805 592.609C510.775 592.91 509.868 593.567 509.049 592.617ZM313.398 380.485C302.74 379.331 205.37 403.972 201.022 407.505C223.659 398.527 248.017 392.071 272.228 386.5C284.789 383.599 297.798 380.991 311.672 380.432C312.234 380.403 312.723 380.459 313.398 380.485ZM480.929 596.649C467.808 596.516 454.686 596.351 441.565 596.232C438.164 596.191 434.652 595.937 432.116 597.448C432.127 597.447 432.139 597.448 432.15 597.447C433.5 598.405 435.506 598.146 437.281 598.165C451.792 598.407 466.302 598.637 480.774 598.975C481.237 598.982 481.725 599.011 482.202 599.032C483.228 599.099 484.18 599.069 484.294 598.131C484.43 596.93 483.414 596.725 482.202 596.668C481.787 596.655 481.357 596.652 480.929 596.649ZM452.664 409.408C441.103 405.49 429.397 401.65 417.673 397.724C429.654 400.65 441.315 404.671 452.664 409.408ZM320.155 596.52C315.023 595.522 309.851 596.872 304.68 596.269C309.89 598.32 315.023 597.113 320.155 596.52ZM382.597 595.489C385.491 596.989 388.695 597.352 392.632 596.772C396.992 596.134 401.7 596.273 406.177 596.997C407.142 597.147 408.067 597.942 408.723 596.938C409.379 595.934 408.107 595.681 406.525 595.667C398.549 595.598 390.573 595.539 382.597 595.489ZM411.656 595.369C418.122 596.981 424.851 597.728 431.842 597.457C425.956 594.049 418.237 596.567 411.656 595.369ZM431.956 597.545C431.969 597.546 431.982 597.546 431.995 597.546C431.988 597.542 431.981 597.538 431.974 597.533C431.968 597.537 431.962 597.541 431.956 597.545ZM489.25 425.705C489.328 425.514 489.406 425.322 489.484 425.131C505.689 432.224 520.598 441.723 535.076 451.282C520.566 441.818 505.175 433.284 489.25 425.705ZM558.018 541.569C560.073 534.438 561.426 527.115 561.876 519.524C562.701 499.555 563.966 479.606 564.718 459.625L576.48 485.095C576.378 485 576.276 484.906 576.174 484.812C576.178 484.807 576.181 484.803 576.185 484.799C576.43 484.563 576.661 484.291 576.882 484.031C576.974 484.12 577.067 484.209 577.159 484.298L565.765 459.625C564.7 479.604 563.671 499.567 562.692 519.524C562.155 527.194 560.569 534.587 558.018 541.569ZM541.696 456.661C541.813 456.539 541.908 456.385 542.003 456.23C553.482 464.13 564.318 472.609 574.353 481.724C574.214 481.838 574.039 481.941 573.916 482.09C563.923 473.003 553.131 464.545 541.696 456.661ZM79.6633 534.376C78.3934 529.542 78.4333 524.589 77.2303 519.524C77.0105 518.188 76.7342 516.851 76.3863 515.513C76.4347 516.85 76.4829 518.187 76.5308 519.524C76.7911 524.648 77.516 529.677 78.6884 534.561C79.0133 534.499 79.3383 534.438 79.6633 534.376ZM409.91 398.639C408.254 398.089 408.881 399.304 407.424 398.597C400.25 395.116 392.163 394.549 384.534 392.797C380.396 391.854 378.915 391.248 377.904 390.162C386.897 391.955 395.957 393.648 404.513 396.611C406.193 397.204 407.243 397.002 408.738 397.445C411.067 398.145 410.814 398.435 409.91 398.639ZM377.844 390.11C377.844 390.107 377.844 390.103 377.845 390.1C377.851 390.108 377.861 390.115 377.867 390.123C377.864 390.124 377.86 390.125 377.856 390.127C377.852 390.121 377.848 390.116 377.844 390.11ZM377.867 390.123C377.872 390.121 377.876 390.119 377.88 390.117C377.879 390.123 377.879 390.129 377.878 390.135C377.874 390.131 377.871 390.127 377.867 390.123ZM377.825 390.138C377.835 390.134 377.846 390.131 377.856 390.127C377.863 390.137 377.869 390.146 377.875 390.156C377.858 390.15 377.842 390.144 377.825 390.138ZM377.878 390.135C377.886 390.144 377.896 390.153 377.904 390.162C377.895 390.16 377.885 390.158 377.875 390.156C377.876 390.149 377.877 390.142 377.878 390.135ZM248.221 592.1C247.025 592.049 244.941 592.086 244.979 593.017C245.018 593.948 246.754 593.692 248.182 593.66C255.785 593.541 263.388 593.532 270.991 593.492C263.813 591.375 255.901 592.404 248.221 592.1ZM439.427 408.537C430.114 405.366 420.615 402.93 411.267 399.618C410.721 399.421 410.399 398.994 409.99 398.666C413.296 398.849 416.794 399.661 420.665 400.931C426.603 402.889 432.574 404.835 438.487 406.982C439.66 407.406 441.153 407.885 441.056 408.51C441.004 408.834 440.323 408.848 439.427 408.537ZM128.956 435.942C125.64 439.099 115.644 445.045 108.991 447.918C115.765 442.852 122.754 439.936 128.956 435.942ZM105.484 574.617C104.348 571.658 102.913 569.897 99.9768 568.368C100.476 571.599 102.712 573.078 105.484 574.617ZM84.906 542.926C84.6573 542.128 84.3268 541.363 83.6832 541.472C82.8923 541.596 82.7679 542.904 83.2928 543.473C85.9261 546.251 85.9067 550.498 89.3453 553.915C89.3411 553.907 89.3369 553.9 89.3327 553.892C87.264 549.686 85.9839 546.317 84.906 542.926ZM510.786 441.194C503.679 436.746 496.134 433.237 488.746 429.31C481.666 425.568 473.811 423.003 467.858 418.21C482.173 425.88 498 431.651 510.786 441.194ZM543.317 564.146C543.506 564.285 543.695 564.424 543.885 564.562C537.605 572.387 529.835 578.939 521.236 583.74C521.11 583.533 520.983 583.327 520.857 583.12C529.38 578.374 537.084 571.892 543.317 564.146ZM409.836 398.658C409.804 398.656 409.769 398.653 409.738 398.651C409.738 398.651 409.831 398.649 409.888 398.645C409.896 398.643 409.903 398.641 409.91 398.639C409.913 398.64 409.916 398.641 409.919 398.642C409.932 398.64 409.937 398.638 409.929 398.636C409.941 398.639 409.953 398.642 409.965 398.646C409.974 398.652 409.981 398.659 409.99 398.666C409.962 398.664 409.934 398.663 409.906 398.661C409.861 398.665 409.816 398.668 409.771 398.672C409.793 398.667 409.814 398.662 409.836 398.658ZM466.909 419.409C462.408 416.949 457.009 415.991 452.89 412.939C457.926 414.619 463.129 416.095 466.909 419.409ZM306.186 589.599C307.305 589.556 308.579 589.697 308.386 590.553C308.232 591.369 307.074 591.412 305.877 591.332C302.79 591.113 299.741 590.896 296.654 590.68C296.667 590.68 296.679 590.68 296.692 590.68C296.769 590.435 296.808 590.211 296.847 589.966C299.934 589.836 303.06 589.685 306.186 589.599ZM485.175 591.884C490.322 590.673 495.504 591.505 500.588 590.257C495.737 592.456 490.315 591.978 485.175 591.884ZM536.619 457.378C536.37 457.862 535.349 457.727 534.653 457.112C530.438 453.323 525.492 450.547 520.555 447.604C520.006 447.287 519.599 446.631 518.618 445.606C525.079 447.792 530.017 452.229 535.285 455.212C536.428 455.851 536.908 456.83 536.619 457.378ZM561.353 477.599C554.772 471.775 547.825 466.104 540.499 460.86C538.999 459.782 538.169 459.009 538.439 458.427C538.911 457.453 540.412 459.075 541.314 459.749C548.15 464.792 554.674 470.109 560.9 475.634C560.891 475.627 560.882 475.619 560.873 475.612C561.035 476.259 561.183 476.918 561.353 477.599ZM175.785 586.653C182.809 586.345 189.678 586.943 197.898 587.599C193.576 588.465 190.72 589.048 187.748 589.654C189.292 591.145 192.379 589.901 194.617 591.147C186.05 591.111 178.293 591.571 170.304 591.154C166.079 590.931 161.783 590.832 157.476 590.851C154.214 590.875 151.002 590.858 147.787 590.795C147.769 590.806 147.751 590.818 147.733 590.829C145.146 590.748 144.457 589.826 143.621 588.52C143.631 588.511 143.64 588.502 143.649 588.493C146.055 587.34 148.165 586.073 150.469 588.775C151.227 589.628 151.968 588.701 152.69 588.627C154.314 588.46 155.883 588.086 157.476 587.776C161.443 587.312 165.443 587.108 169.61 588.076C171.733 588.572 173.547 586.754 175.785 586.653ZM560.673 469.069C560.271 465.911 560.089 462.764 560.094 459.625L573.482 488.615C569.019 484.799 564.903 480.404 560.948 475.69C565.742 479.292 570.204 483.392 574.342 487.605L561.42 459.625C561.177 462.773 560.917 465.921 560.673 469.069ZM560.9 475.634C560.916 475.653 560.932 475.672 560.948 475.69C560.929 475.676 560.91 475.661 560.89 475.647C560.894 475.643 560.897 475.638 560.9 475.634ZM553.522 539.296C553.071 537.995 551.884 537.319 552.97 535.678C556.139 530.804 555.767 525.039 555.967 519.524C555.989 518.605 556.023 517.687 556.076 516.769C556.122 516.113 556.185 515.456 556.236 514.685C557.33 515.38 556.123 517.695 557.109 519.007C557.613 514.029 558.133 509.359 557.862 504.535C557.82 503.918 557.357 503.185 557.418 502.953C558.126 500.406 557.408 495.583 558.811 495.235C560.199 494.849 559.576 499.557 559.445 501.449C559.445 501.461 559.444 501.474 559.444 501.487C559.053 507.488 558.728 513.494 558.394 519.524C557.822 526.395 556.318 533.081 553.522 539.296ZM193.81 410.234C185.589 413.487 178.228 417.869 169.756 420.822C168.696 421.187 167.096 422.17 166.685 421.648C166.29 421.174 167.703 420.413 168.907 419.906C168.906 419.902 168.904 419.898 168.903 419.894C177.068 416.448 185.402 413.22 193.81 410.234ZM129.64 440.765C124.089 442.764 120.367 447.421 115.109 449.772C115.102 449.782 115.094 449.793 115.086 449.803C112.941 450.75 110.637 452.187 108.285 452.352C114.936 447.079 121.903 443.966 128.416 440.079C129.242 439.587 130.398 439.289 130.524 439.811C130.558 439.968 129.875 440.682 129.64 440.765ZM98.8198 458.952C95.3941 461.382 93.9676 466.345 88.8559 465.88C91.475 462.532 95.4086 461.211 98.8198 458.952ZM85.6272 468.133C81.5298 472.833 77.1945 474.989 73.7515 478.157C76.7805 474.628 80.2174 471.46 85.6272 468.133ZM143.58 588.458C143.586 588.468 143.593 588.477 143.599 588.487C143.605 588.458 143.61 588.429 143.616 588.4C143.605 588.42 143.591 588.439 143.58 588.458ZM149.691 430.242C145.39 432.105 141.345 435.101 135.622 436.783C140.434 432.846 145.397 431.808 149.57 429.363C149.727 429.273 150.374 429.258 150.339 429.364C150.28 429.6 149.943 430.105 149.719 430.214C149.709 430.224 149.7 430.233 149.691 430.242ZM242.201 584.763C247.064 584.37 249.34 586.497 253.585 585.387C253.598 585.38 253.611 585.373 253.624 585.366C253.586 585.812 253.508 586.259 253.469 586.706C252.389 586.796 251.346 586.967 250.266 586.997C234.791 587.455 219.316 587.935 203.842 588.514C201.989 588.58 200.291 588.524 200.02 587.567C199.596 586.112 201.834 586.219 203.725 586.171C212.254 585.945 220.821 585.327 229.272 585.632C233.826 585.801 238.188 585.088 242.201 584.763ZM548.751 547.394C549.756 544.388 550.133 541.827 551.385 539.398C553.178 540.96 552.191 545.215 548.751 547.394ZM533.877 566.429C534.39 564.299 536.271 563.542 537.709 562.507C537.704 562.513 537.699 562.519 537.694 562.525C540.553 560.482 542.896 557.935 544.096 554.638C543.274 560.008 538.885 563.878 535.288 567.711C534.673 568.351 533.875 568.849 533.212 568.213C532.486 567.487 533.753 566.95 533.877 566.429ZM504.924 584.286C505.984 582.985 505.154 581.047 507.047 581.646C509.701 582.46 511.508 581.011 513.06 579.736C515.237 577.918 518.152 578.72 520.35 576.789C523.068 574.396 527.371 573.538 529.514 570.154C529.955 569.441 530.83 568.921 531.438 569.634C532.044 570.349 531.206 570.992 530.551 571.54C527.144 574.339 523.599 577.129 519.589 578.799C519.579 578.798 519.569 578.796 519.559 578.795C514.901 580.733 510.598 583.397 504.924 584.286ZM304.913 582.24C306.224 581.626 306.726 582.236 306.958 582.44C309.157 584.25 312.399 584.389 315.409 583.53C318.226 582.733 318.188 584.12 318.458 584.528C319.191 585.609 316.799 585.549 316.027 585.549C305.993 585.759 295.766 586.478 285.887 585.829C279.519 585.409 273.769 586.682 267.71 586.336C267.697 586.329 267.684 586.322 267.671 586.316C262.886 586.043 257.252 587.323 254.126 584.713C255.052 583.082 258.911 586.946 257.869 583.342C257.676 582.654 259.992 582.594 261.381 582.562C270.141 582.31 278.708 582.499 287.352 583.663C292.948 584.412 299.703 584.698 304.913 582.24ZM483.881 586.586C486.919 584.328 490.126 585.626 492.593 585.889C496.081 586.244 498.285 584.099 501.241 583.675C501.927 583.567 502.736 582.625 503.202 583.478C503.663 584.294 502.772 585.013 501.738 585.272C501.732 585.28 501.727 585.288 501.721 585.296C496.14 586.679 490.247 588.462 483.881 586.586ZM353.693 583.435C354.272 583.661 355.121 581.691 356.085 583.344C356.394 583.896 355.969 584.484 354.387 584.64C343.851 585.695 333.238 585.754 322.587 585.18C322.24 585.159 321.97 584.67 321.121 583.895C330.113 583.794 338.14 582.626 346.668 583.042C348.984 583.152 351.377 582.549 353.693 583.435ZM370.519 582.163C374.532 581.601 374.879 583.901 377.658 584.246C371.869 586.194 366.89 586.25 362.838 582.259C366.002 583.355 368.28 582.474 370.519 582.163ZM423.306 582.01C425.079 581.818 428.431 580.672 428.02 583.633C427.904 584.355 428.945 584.35 429.794 584C430.257 583.806 430.528 583.469 430.914 583.193C436.471 585.261 442.608 583.831 448.436 584.33C449.439 584.407 450.982 584.453 450.673 585.346C450.48 585.881 449.747 586.009 448.628 585.991C431.995 585.801 415.401 585.686 398.768 585.603C398.768 585.59 398.768 585.576 398.768 585.563C398.227 585.557 397.687 585.289 396.606 585.015C399.501 583.707 403.167 582.979 405.598 583.612C411.001 585.005 416.211 583.272 421.382 584.167C422.501 584.363 424.778 584.956 424.933 583.43C425.041 582.433 424.112 582.119 423.306 582.01ZM422.424 581.946C422.633 581.955 422.958 581.963 423.306 582.01C422.917 582.052 422.605 582.05 422.424 581.946Z" fill="var(--stroke-0, #FDEEC2)"/>
</g>
</svg>
