<svg preserveAspectRatio="none" width="100%" height="100%" overflow="visible" style="display: block;" viewBox="0 0 179.095 10.1723" fill="none" xmlns="http://www.w3.org/2000/svg">
<path id="Vector 45" d="M4.17784 0.114886C7.95046 -0.318119 10.4431 0.588861 13.8899 0.917677C21.4857 1.64593 31.5483 1.88751 39.3452 2.17496C45.2475 2.39809 51.2453 2.61129 57.1169 2.76755C57.4179 2.77548 57.596 2.85559 57.7324 2.8592C59.0165 2.89344 61.1766 2.86143 62.4509 2.89078C65.1319 2.95532 69.8001 2.99569 72.2603 3.08408C73.3045 3.12244 74.3745 3.14145 74.7789 3.32612C75.16 3.33752 75.3688 3.17368 75.4683 3.16521C75.4695 3.16538 75.4706 3.16555 75.4718 3.16572C75.7921 3.13956 76.6011 3.25871 76.7807 3.25216C76.8075 3.25113 76.6432 3.13111 77.0774 3.16884C77.116 3.17208 77.08 3.25318 77.4457 3.25562C77.541 3.25637 78.7636 3.13551 79.1125 3.1285C80.274 3.10697 83.0455 3.2056 84.4372 3.20052C84.6497 3.20011 84.772 3.15236 84.9963 3.151C85.1121 3.15025 85.286 3.20137 85.3216 3.20099C85.4778 3.19881 86.1592 2.96265 85.9158 3.4254C86.6279 3.39388 86.4175 3.24173 86.4333 3.1425C87.2058 3.12551 87.5788 3.34136 87.7793 3.10989C91.5898 3.12088 95.3956 3.1155 99.1936 3.09435C99.1943 3.05674 99.1949 3.01913 99.1956 2.98152C100.319 3.11708 100.703 2.85744 101.347 3.06634C101.741 3.01261 102.136 2.95871 102.529 2.90465C112.666 2.89713 122.804 2.4529 132.81 2.08078C133.232 2.06502 133.344 2.14097 134.044 2.11491C134.817 2.08603 135.898 1.95089 136.911 1.91124C137.795 1.8766 139.115 1.89787 140.112 1.86718C140.337 1.86016 140.497 1.80257 140.522 1.80177C140.671 1.79738 140.682 1.8772 140.826 1.87328C140.998 1.86839 141.204 1.80003 141.402 1.79504C142.146 1.77601 142.951 1.71957 143.044 1.71675C143.495 1.70415 143.598 1.77799 143.635 1.77719C144.142 1.76386 143.949 1.70167 144.075 1.70005C144.731 1.69188 145.202 1.84723 146.087 1.63591C146.066 1.70256 146.045 1.76922 146.023 1.83588C146.708 1.84063 146.249 1.68775 146.387 1.64966C146.444 1.63545 147.91 1.58669 148.023 1.58416C148.416 1.57638 148.43 1.66289 148.464 1.66242C148.544 1.66141 149.536 1.51374 150.052 1.56407C150.661 1.62388 149.958 1.83657 150.11 1.86231C150.135 1.8667 150.767 1.81679 150.854 1.8679C150.951 1.92283 150.405 1.94911 150.414 1.97368C150.421 1.99062 151.335 2.06769 151.165 2.15922C151.03 2.24942 149.792 2.20489 149.531 2.25675C149.489 2.26535 149.575 2.36375 149.537 2.3694C149.373 2.39209 146.565 2.53093 146.429 2.51969C146.574 2.46608 146.719 2.41244 146.864 2.35879C146.668 2.36337 146.472 2.36793 146.276 2.37244C146.553 2.32193 146.83 2.27134 147.106 2.22068C146.675 1.85636 145.445 2.30431 145.402 2.49838C145.384 2.58811 146.159 2.78064 145.453 2.94665C145.563 2.96438 145.672 2.98211 145.781 2.99982C146.002 2.95202 146.223 2.90417 146.444 2.85628C146.294 2.8397 146.145 2.8231 145.996 2.80647C146.049 2.77725 146.102 2.74803 146.156 2.7188C146.57 2.6565 146.983 2.59404 147.395 2.53142C147.609 2.54091 147.569 2.62174 147.716 2.62991C149.551 2.73304 148.34 2.54749 149.549 2.5233C149.723 2.55703 149.897 2.59074 150.072 2.62441C150.002 2.45264 150.542 2.53583 151.181 2.42777C151.107 2.48823 151.033 2.5487 150.959 2.60915C151.892 2.53219 153.785 2.71912 153.261 2.43349C153.475 2.44904 153.688 2.46454 153.902 2.48001C154.077 2.41955 154.255 2.35897 154.434 2.29826C154.685 2.29076 154.936 2.28321 155.186 2.27561C155.189 2.30317 155.191 2.33074 155.194 2.35831C154.995 2.3692 154.795 2.38006 154.595 2.39088C154.75 2.46707 154.904 2.54324 155.058 2.61938C155.205 2.59749 155.351 2.57559 155.498 2.55367C154.876 2.50733 155.683 2.33342 155.873 2.21156C156.39 2.14226 156.729 2.26829 156.903 2.26523C156.985 2.26389 157.93 1.95607 157.57 2.25667C158.062 2.19524 158.552 2.13361 159.041 2.07176C159.233 2.08237 159.43 2.09265 159.626 2.10295C159.211 2.25744 160.445 2.34416 159.546 2.44991C158.875 2.52884 158.71 2.41587 158.393 2.43461C158.108 2.45123 157.962 2.54171 157.651 2.56268C155.561 2.70203 153.837 2.77884 151.854 2.8442C151.461 2.85705 151.104 2.91546 150.839 2.9232C150.54 2.93179 150.91 2.81 150.53 2.85423C150.13 2.90082 150.048 2.9891 149.942 2.99607C149.876 3.00031 149.663 2.93513 149.471 2.94466C148.677 2.98404 147.542 3.11196 147.428 3.11693C147.304 3.12249 145.075 3.15889 144.966 3.15103C144.909 3.14687 145.014 2.86241 144.535 3.18255C144.382 3.19511 144.228 3.20765 144.075 3.22017C144.097 3.16327 144.119 3.10637 144.142 3.04947C143.24 3.30215 143.552 3.16959 142.682 3.22506C140.6 3.35814 137.5 3.44075 135.219 3.54872C134.707 3.57311 134.515 3.64745 133.908 3.67536C133.34 3.7014 131.874 3.5559 132.201 3.82025C130.947 3.62676 130.76 4.04589 130.126 3.81094C130.051 3.85102 129.977 3.8911 129.902 3.93117C129.217 3.79443 129.011 3.94279 128.268 3.98756C127.947 4.00685 128.311 3.82367 127.669 4.03556C127.544 4.02558 127.423 4.01547 127.299 4.0054C127.326 3.96314 127.353 3.92088 127.381 3.87861C126.669 3.93607 126.621 3.91591 126.708 4.0679C126.362 4.05106 126.016 4.0341 125.67 4.01702C125.629 4.06915 125.588 4.12127 125.546 4.1734C125.711 4.27017 133.553 3.85176 134.656 3.75668C135.952 3.82241 138.497 3.57552 139.549 3.55796C139.966 3.5514 140.155 3.6584 140.759 3.64628C141.364 3.63415 142.117 3.49674 142.436 3.47884C143.487 3.42168 148.587 3.20562 145.135 3.50983C145.237 3.56116 145.339 3.61249 145.441 3.6638C146.804 3.40889 146.313 3.54967 147.449 3.51532C147.927 3.50098 149.052 3.32088 149.001 3.5779C148.121 3.66852 147.176 3.6325 146.403 3.67256C146.327 3.67662 145.416 3.83552 144.942 3.8257C144.513 3.81651 144.797 3.56102 143.879 3.87518C143.183 3.64053 142.8 3.89891 142.62 3.93257C142.31 3.99082 142.269 3.86123 141.956 3.85969C141.615 3.85776 141.384 3.95496 141.337 3.95755C140.872 3.98033 138.423 4.09527 138.31 4.04645C138.407 4.01919 138.504 3.99188 138.602 3.96454C137.967 3.95326 138.107 4.08173 137.941 4.10461C137.818 4.10917 137.694 4.11371 137.571 4.11824C137.618 4.08845 137.666 4.05864 137.714 4.02885C136.969 4.06495 137.544 4.13867 136.485 4.17855C135.812 4.20369 135.111 4.1246 135.045 4.13498C135.026 4.13799 135.241 4.20132 134.967 4.22159C134.512 4.25507 133.722 4.28326 133.63 4.18918C133.407 4.21141 133.429 4.30597 133.4 4.30926C133.264 4.32408 131.054 4.43776 130.653 4.45719C129.552 4.51197 128.31 4.53437 127.116 4.58988C126.994 4.59553 127.07 4.53179 126.947 4.53781C126.751 4.54754 125.74 4.6764 125.588 4.68794C125.21 4.71675 124.212 4.70986 124.055 4.74244C124.033 4.74708 124.364 4.8196 123.981 4.85709C123.555 4.89856 123.781 4.78031 123.758 4.77992C122.889 4.76845 122.337 4.8621 121.749 4.89426C121.558 4.90463 121.203 4.83116 120.933 4.8636C120.902 4.8673 120.966 4.94287 120.936 4.94755C120.529 4.99979 120.143 4.86698 119.966 4.86262C119.533 4.85194 119.771 4.9513 119.749 4.95268C119.46 4.96407 119.071 4.93654 118.632 4.95343C116.668 5.0287 115.082 5.07496 113 5.11582C112.739 5.12097 112.426 5.05325 112.386 5.05404C112.263 5.05738 112.3 5.14443 111.942 5.1504C111.186 5.16261 110.489 5.18174 109.746 5.19532C109.596 5.19804 109.531 5.11798 109.416 5.11855C109.034 5.12143 107.73 5.35998 107.703 5.09516C106.945 5.34435 106.434 5.15131 105.82 5.16447C104.365 5.19569 102.101 5.27936 100.648 5.2688C100.343 5.26653 100.198 5.20054 100.028 5.19918C99.72 5.1969 97.9891 5.25664 97.8972 5.24677C97.7186 5.22827 97.8224 4.92807 96.908 5.19912C96.3702 5.22368 96.4323 5.10013 96.3209 5.09473C95.453 5.0548 94.61 5.3368 94.7656 5.08422C93.7531 5.16211 93.1023 5.30618 92.6889 5.07477C92.6951 5.18928 92.2217 5.26189 91.6493 5.22241C92.2333 5.0255 92.1605 4.90355 93.5746 4.92669C93.5969 4.92706 93.5551 5.01028 93.5774 5.01065C93.7788 5.0145 94.2029 4.96886 94.5484 4.97008C94.8941 4.97129 94.7027 5.02976 94.841 5.02734C94.9677 5.02498 94.9627 4.94574 95.1459 4.94281C95.7403 4.93383 96.2654 4.90635 96.6029 4.90123C96.8156 4.89808 97.0543 4.96506 97.2193 4.96317C97.8584 4.95544 99.2021 4.88449 100.019 4.88093C100.188 4.8804 100.118 4.95956 100.489 4.96093C100.533 4.96108 100.689 4.87742 101.014 4.85591C101.338 4.83439 101.59 4.87118 101.799 4.85967C101.973 4.85004 101.899 4.77875 102.256 4.76884C102.555 4.76171 105.915 4.75817 106.104 4.76532C106.368 4.77724 106.495 4.87663 106.656 4.86129C106.684 4.85811 106.73 4.75903 106.828 4.75019C108.444 4.6054 112.015 4.66509 113.865 4.61955C117.714 4.52724 121.27 4.37147 125.17 4.22543C125.239 4.20615 125.308 4.18687 125.376 4.16758C124.983 4.17944 124.59 4.19113 124.196 4.20268C124.192 4.15655 124.188 4.11043 124.185 4.06431C123.652 4.07344 123.726 4.18047 123.743 4.24596C123.545 4.22402 123.347 4.20204 123.148 4.18003C122.983 4.34631 121.663 4.27844 120.991 4.29776C120.553 4.31035 120.032 4.3864 119.8 4.38807C119.31 4.39181 119.32 4.29203 119.281 4.29152C119.216 4.29108 118.533 4.39741 118.039 4.40711C117.308 4.42157 117.222 4.27127 116.226 4.4262C114.949 4.37925 113.533 4.45294 112.15 4.49671C112.411 4.34983 111.172 4.51092 110.615 4.52032C107.221 4.57918 103.037 4.59115 99.5817 4.58009C99.1384 4.57888 98.8047 4.49996 98.5582 4.50578C98.4247 4.50884 98.3676 4.60754 98.1819 4.59683C98.1493 4.59473 98.1255 4.50343 97.7799 4.49374C96.9204 4.46974 94.7753 4.64478 94.229 4.47354C91.292 4.52784 88.3368 4.57262 85.4009 4.60748C85.3269 4.57025 85.2529 4.533 85.1789 4.49575C84.6218 4.68885 82.4038 4.5795 81.3293 4.58745C79.4362 4.60299 77.0084 4.65519 75.3484 4.65286C74.9876 4.65242 74.6921 4.59653 74.3504 4.59563C74.2034 4.59533 74.02 4.66458 73.867 4.66398C72.1485 4.65894 69.8186 4.56664 68.0887 4.54925C64.154 4.51 60.4519 4.44229 56.4683 4.36466C43.0484 4.10207 29.7037 3.71013 16.4245 2.90185C16.2463 2.89098 16.2599 2.81073 16.1218 2.80215C15.3064 2.75126 13.4836 2.70896 12.5656 2.64802C11.8352 2.6002 10.6776 2.40264 10.4173 2.5106C13.01 2.86615 15.7608 3.01692 18.4704 3.2203C18.6628 3.23471 18.6825 3.31281 18.7062 3.31554C19.1435 3.36643 18.8722 3.2455 19.5088 3.27554C19.7212 3.28604 21.6747 3.6359 21.4537 3.37919C21.9206 3.50307 25.2369 3.71929 25.879 3.71625C26.074 3.71575 25.9397 3.63681 25.9785 3.635C26.147 3.62708 26.2179 3.73042 26.3677 3.74014C26.767 3.76551 27.7875 3.73204 27.9807 3.74138C28.4255 3.76294 29.7542 3.90413 30.3412 3.9104C30.8795 3.9164 30.7833 3.80782 31.2486 3.81825C31.6153 3.82661 31.2123 3.89737 32.0294 3.95847C32.4344 3.98877 33.8562 3.98434 34.2013 3.99791C34.546 4.01172 34.9279 4.08934 35.403 4.10306C36.0878 4.12323 37.5789 4.14457 38.2768 4.14961C38.3184 4.15 38.4228 4.0726 38.5252 4.07799C38.7375 4.08904 38.6701 4.18687 38.8302 4.20278C38.9902 4.2195 41.7709 4.30305 42.2426 4.31862C42.568 4.32982 42.7946 4.27739 42.9744 4.28368C43.1154 4.28876 43.1279 4.37266 43.2718 4.37817C43.3164 4.37959 43.698 4.31918 44.077 4.33263C44.435 4.34568 45.7928 4.45547 45.9504 4.46055C46.053 4.46384 45.9423 4.40128 46.2455 4.41154C46.5218 4.42104 46.7011 4.50322 46.8586 4.50886C47.2242 4.52182 47.6346 4.46766 48.0225 4.47803C49.1375 4.50772 49.0776 4.60113 49.1444 4.6061C49.3297 4.61964 49.4063 4.53425 49.4673 4.53405C49.7246 4.53354 50.355 4.53366 50.5843 4.53604C50.8698 4.53903 50.9886 4.62508 51.2919 4.63288C51.518 4.63842 51.9763 4.56869 52.492 4.57696C53.655 4.59532 55.0386 4.61062 56.1801 4.63713C56.5206 4.64497 56.5713 4.72177 56.6753 4.72585C57.222 4.74726 57.5298 4.66841 57.6858 4.67254C58.7977 4.70203 60.7851 4.86985 61.8179 4.89717C62.2393 4.90867 64.0803 4.875 65.121 4.89934C65.24 4.90205 65.1278 4.96001 65.2603 4.95245C65.5775 4.93428 65.5496 4.81288 65.7103 4.8186C65.7878 4.82173 65.9638 4.89219 66.1895 4.90177C67.3601 4.95141 68.1653 4.90686 68.6989 4.91607C73.8276 5.0047 79.0569 5.0569 83.847 5.06034C84.3815 5.06069 85.0439 4.98744 85.8497 5.05495C85.8747 5.09247 85.8996 5.13 85.9244 5.16752C85.9525 5.13049 85.9806 5.09346 86.0087 5.05642C86.9215 5.03348 87.2638 4.98461 88.1971 5.02737C88.2777 5.03094 88.5243 5.20138 88.6752 4.98743C89.6014 5.13698 89.0929 4.98404 89.7793 4.96573C90.4655 4.94731 91.1321 4.99044 91.7964 4.99623C92.1612 5.07001 90.6341 5.25709 90.534 5.25695C90.3734 5.25731 90.2058 5.15238 90.051 5.14769C89.5926 5.13365 89.1494 5.22016 89.046 5.12612C88.4535 5.22926 89.1915 5.1754 89.1179 5.26586C88.7219 5.23074 88.3257 5.19543 87.9294 5.15996C87.7304 5.46774 85.5484 5.07579 85.7004 5.30831C85.5267 5.26209 85.3529 5.21584 85.1792 5.16956C84.4183 5.46403 83.9696 5.25885 82.9523 5.17265C83.0257 5.21003 83.0991 5.2474 83.1726 5.28476C83.1518 5.30048 82.2536 5.36084 82.5747 5.2012C81.6534 5.41159 81.695 5.06205 80.8713 5.31418C80.3823 5.3461 80.6766 5.19981 79.801 5.20104C79.282 5.20161 78.6372 5.27689 78.0565 5.28049C77.9227 5.28108 77.8649 5.19592 77.7458 5.19554C77.6269 5.19519 77.5685 5.27831 77.4243 5.27991C77.1264 5.28339 76.7403 5.2234 76.554 5.22825C76.3869 5.23236 76.1484 5.30484 75.7474 5.31449C74.3463 5.34829 74.7698 5.24524 74.5488 5.20859C74.3112 5.16945 74.1394 5.30675 73.6651 5.2877C73.6175 5.2857 73.7411 5.20034 73.5864 5.20272C73.4616 5.20455 73.3983 5.29784 72.9848 5.31246C72.821 5.31899 70.2612 5.3185 69.8739 5.31585C69.278 5.31297 67.9507 5.2199 67.3332 5.21323C67.0953 5.21052 66.8401 5.28273 66.5872 5.27919C65.7496 5.26754 64.4066 5.24358 63.3461 5.22425C62.3903 5.20717 60.7141 5.01384 60.1875 5.15437C58.8436 5.15044 58.5194 5.01571 58.4185 5.01221C58.1451 5.00229 58.0168 5.08471 57.6718 5.082C53.2015 5.04732 47.3171 4.84004 43.0857 4.70932C33.2706 4.41232 23.4 4.01446 13.567 3.38255C13.5384 3.41847 13.5097 3.4544 13.4811 3.49033C14.6414 3.58531 16.0049 3.731 17.1542 3.81131C18.6847 3.91883 20.9656 3.88496 22.0786 4.19948C21.6207 4.19838 20.8825 4.06065 20.8889 4.19328C21.704 4.246 22.5202 4.29776 23.336 4.34849C23.3148 4.2863 23.2936 4.22412 23.2723 4.16193C24.1235 4.1873 24.9932 4.24357 25.8479 4.27594C25.9964 4.28164 25.894 4.22125 26.0232 4.22716C26.1679 4.23389 26.0671 4.28552 26.0942 4.28727C26.4597 4.30531 26.5727 4.2535 26.6173 4.25645C26.7316 4.26411 26.6401 4.31418 26.9694 4.34491C27.5803 4.40208 28.0256 4.27803 27.8707 4.51152C28.0684 4.52064 28.2662 4.5297 28.464 4.53871C28.5182 4.47568 28.5724 4.41265 28.6266 4.34962C29.8311 4.66856 30.4104 4.22974 31.0663 4.62608C31.2902 4.57952 31.5141 4.53288 31.7379 4.48616C31.86 4.55683 31.9821 4.62747 32.1042 4.69809C32.1309 4.64301 32.1576 4.58793 32.1843 4.53285C33.3758 4.62434 34.6517 4.60815 35.7919 4.65856C36.5867 4.69362 36.7764 4.72291 37.4809 4.74487C39.0484 4.7927 37.4879 4.84736 38.7861 5.01469C38.7207 4.94346 38.6554 4.87222 38.59 4.80098C38.8066 4.78353 39.0232 4.76602 39.2398 4.74844C39.388 4.80987 39.5362 4.87127 39.6844 4.93265C40.3608 4.66487 40.7843 4.91438 40.8751 4.91747C40.9484 4.9194 41.2058 4.75291 41.9891 4.92732C41.6701 4.67701 42.5904 4.94563 42.6647 4.94934C42.7353 4.95267 43.6408 4.92804 44.0075 4.94158C44.296 4.95229 44.9099 5.02273 45.3398 5.03302C45.7193 5.0421 45.6832 4.95957 45.7109 4.95955C46.1782 4.96656 45.8836 5.02116 46.2212 5.03413C46.5587 5.04706 46.8227 4.98521 46.8954 4.99349C46.9319 4.99783 46.8072 5.07011 46.9748 5.08221C47.425 5.11507 48.242 5.07134 48.7579 5.08714C48.9408 5.09267 49.1697 5.16311 49.3733 5.17045C49.6856 5.18148 49.8337 5.09987 50.0151 5.1071C50.0782 5.10984 50.4777 5.25216 50.9789 5.24441C51.0743 5.24272 51.361 4.9706 51.7231 5.3751C51.7531 5.32015 51.7831 5.26521 51.8131 5.21026C53.4952 5.1129 53.9534 5.57473 54.709 5.19005C55.9277 5.26116 55.0871 5.39939 55.2204 5.42623C55.3066 5.44323 55.7052 5.40867 55.7489 5.41201C55.8261 5.41842 55.8118 5.46831 55.8966 5.4698C57.4514 5.49237 56.763 5.38337 57.2565 5.33323C58.4296 5.21313 59.3367 5.54747 57.3028 5.41325C57.3022 5.44124 57.3017 5.46923 57.3011 5.49721C57.8029 5.48051 59.0753 5.51678 58.6476 5.65084C58.3111 5.7574 55.2924 5.62385 56.9997 5.81505C57.3874 5.85822 57.5905 5.75721 58.2592 5.96688C58.7036 5.98588 58.7728 5.73197 59.3737 5.84523C59.2761 5.75444 59.1786 5.66365 59.0812 5.57283C59.9051 5.4718 60.9161 5.6446 61.5478 5.60483C61.7625 5.59136 62.5411 5.17897 62.3546 5.60047C62.7155 5.57991 64.4102 5.68258 64.7267 5.64851C64.8028 5.64026 64.9049 5.41609 66.0022 5.50884C66.0782 5.53811 66.1541 5.56738 66.2301 5.59663C65.2245 5.66646 66.9976 5.77203 66.5132 5.98047C66.3506 5.88221 65.5545 5.81345 65.4268 5.76325C65.209 5.67699 65.8625 5.57803 65.0311 5.59643C64.5023 5.94784 66.0027 5.80258 65.7694 6.13973C66.8626 5.99459 66.9695 6.14702 67.2165 6.15626C68.2717 6.19395 68.9359 6.16474 69.9303 6.21386C70.1735 6.14646 68.3733 6.02793 68.1496 6.05532C68.9736 5.81636 67.5603 5.79026 66.9615 5.93014C66.9122 5.85469 66.863 5.77924 66.8138 5.70378C67.5903 5.75356 68.3478 5.78267 69.1172 5.72893C69.167 5.75743 69.2168 5.78591 69.2666 5.8144C69.0937 5.85485 68.9208 5.89526 68.7478 5.93564C69.3867 6.01113 69.0053 5.7891 69.8553 5.98854C69.8825 5.90448 69.9097 5.82043 69.9369 5.73637C70.7527 5.77199 71.5727 5.80685 72.39 5.8409C72.8172 5.67529 74.3892 5.74822 74.0999 5.96521C74.7345 5.98443 73.9517 5.86334 74.5467 5.81355C74.8057 5.79195 75.3113 5.78811 75.4358 5.84762C75.3811 6.05582 74.6241 6.07767 74.3941 6.2194C74.5321 6.26758 78.0563 6.13391 77.742 6.37567C78.0235 6.40586 77.8945 6.27995 78.4024 6.24923C79.8268 6.16391 82.0203 6.41351 83.1706 6.10066C81.8226 5.92836 81.4289 6.11157 80.399 6.11788C79.743 6.12363 75.7264 6.13939 76.6243 5.92188C76.4767 5.94927 76.3286 5.97663 76.1814 6.00397C76.033 5.93772 75.8846 5.87145 75.7362 5.80515C76.1549 5.79771 76.5754 5.79008 76.9957 5.78224C77.0958 5.84805 77.1959 5.91385 77.296 5.97963C77.3425 5.93309 77.3889 5.88654 77.4353 5.83999C77.6123 5.83133 77.7892 5.82263 77.9661 5.81389C77.9162 5.86989 77.8664 5.92589 77.8165 5.98188C78.0891 5.99235 78.3616 6.00273 78.634 6.01303C78.5609 5.93781 78.4877 5.86259 78.4146 5.78736C79.6976 5.77167 79.2629 5.81751 79.9738 5.95911C80.5046 5.97417 79.6084 5.82888 80.7311 5.79353C82.037 5.75176 81.1766 5.9811 82.8721 5.93147C82.8965 5.89402 82.9208 5.85657 82.9452 5.81912C83.3179 5.85627 83.6905 5.89326 84.063 5.9301C84.0137 5.88363 83.9644 5.83716 83.9151 5.79068C84.6839 5.80768 85.7415 5.71599 85.9963 5.89775C85.2181 5.81212 85.2264 6.13078 85.429 6.18891C85.8437 6.31153 92.0255 6.16806 93.2158 6.14609C94.745 6.12289 95.9085 6.21322 97.3026 6.04038C96.3568 5.92369 93.0176 6.06076 92.3912 5.97558C92.3287 5.96732 92.3441 5.67495 91.9452 6.00684C90.652 5.96082 89.1004 6.06364 87.4822 6.06081C87.5311 5.97646 87.5801 5.89211 87.629 5.80775C88.6239 5.98248 89.5452 5.58401 89.4169 5.91166C89.6151 5.91054 89.8132 5.90938 90.0112 5.90818C90.0109 5.85187 90.0105 5.79555 90.0102 5.73924C90.3087 5.73743 90.6071 5.73551 90.9053 5.7335C90.9057 5.78981 90.9061 5.84612 90.9065 5.90243C91.1536 5.90077 91.4005 5.89903 91.6474 5.89723C91.6727 5.84089 91.698 5.78455 91.7233 5.72822C92.4626 5.84007 94.9811 5.50551 93.8745 5.8508C94.223 5.84768 94.5713 5.84443 94.9194 5.84104C94.9179 5.79988 94.9163 5.75871 94.9148 5.71755C95.0643 5.71056 95.2139 5.70355 95.3634 5.69651C95.3146 5.73427 95.2657 5.77204 95.2168 5.8098C95.9016 5.73621 96.5528 5.92537 97.0007 5.79136C96.704 5.76655 96.4072 5.74163 96.1103 5.71663C96.68 5.76419 97.7252 5.64127 97.8187 5.63981C98.104 5.63585 98.2554 5.71727 98.5644 5.71767C98.8433 5.71781 98.804 5.65431 98.856 5.65591C100.361 5.70164 99.795 6.05515 100.494 5.63572C100.57 5.69066 100.645 5.7456 100.721 5.80053C100.821 5.75243 100.92 5.70431 101.019 5.65619C101.465 5.65425 101.91 5.65209 102.356 5.64973C102.206 5.582 102.057 5.51426 101.907 5.44649C102.574 5.40531 102.887 5.54065 102.952 5.54288C103.134 5.54819 103.217 5.45879 103.273 5.45774C105.988 5.42098 104.336 5.52568 105.703 5.83312C106.187 5.6947 105.693 5.57328 105.622 5.44241C106.269 5.49295 106.47 5.45275 107.151 5.44743C107.328 5.44612 107.52 5.51376 107.631 5.5126C107.728 5.51161 108.029 5.43011 108.261 5.42527C108.648 5.41718 109.163 5.4521 109.692 5.44014C110.13 5.43014 111.477 5.34823 112.421 5.32629C112.822 5.31723 112.731 5.38263 112.834 5.38041C112.878 5.37943 113.189 5.29643 113.446 5.29014C115.543 5.2398 117.698 5.23289 119.808 5.17279C121.29 5.13074 122.798 5.02536 124.292 4.98523C124.609 4.97678 124.443 5.03767 124.581 5.03533C124.629 5.03432 124.683 4.93546 125.174 4.95904C125.351 4.96752 125.15 5.04191 125.324 5.03977C125.409 5.03868 125.442 4.95244 125.936 4.91713C126.832 4.85271 127.317 4.95006 127.397 4.94405C127.548 4.93248 127.5 4.86354 127.702 4.85425C128.688 4.8088 129.509 4.76846 130.384 4.73155C130.796 4.71491 133.599 4.59757 133.764 4.60335C134.113 4.61831 133.794 4.77776 134.24 4.75576C134.364 4.71374 134.487 4.67171 134.61 4.62967C134.411 4.609 134.212 4.58829 134.012 4.56754C134.56 4.59408 135.176 4.50321 135.579 4.48993C135.654 4.48762 136.341 4.52736 136.69 4.50608C136.542 4.53966 136.395 4.57321 136.248 4.60674C136.301 4.62824 136.355 4.64974 136.408 4.67123C137.105 4.60771 137.84 4.57884 138.555 4.55437C138.815 4.54534 138.729 4.60627 138.992 4.59729C140.523 4.54514 140.127 4.32337 141.612 4.70703C141.117 4.68834 139.309 4.82214 139.043 4.81801C138.858 4.81534 138.132 4.46685 138.408 4.84384C136.952 4.90175 138.209 4.63641 136.849 4.73817C136.878 4.7844 136.907 4.83063 136.936 4.87686C136.462 4.9258 136.11 4.96364 135.817 4.89154C135.729 5.1251 134.101 5.05398 133.206 5.1027C131.926 5.17267 130.48 5.28078 129.204 5.3347C128.764 5.35323 128.511 5.27169 128.456 5.27386C128.375 5.27725 128.151 5.36377 127.99 5.36976C127.386 5.39267 125.569 5.31842 125.12 5.55137C128.678 5.4389 132.242 5.31263 135.825 5.17172C135.377 5.08247 138.963 4.92764 139.158 4.92365C139.329 4.92134 139.189 5.00283 139.24 5.00529C139.618 5.02192 139.934 4.89887 140.053 4.89381C140.144 4.88996 140.33 4.93353 140.653 4.91856C140.712 4.91586 140.726 4.86084 140.79 4.85794C141.211 4.83985 141.627 4.82258 142.048 4.8038C142.074 4.8032 142.184 4.87787 142.29 4.87332C142.397 4.86862 142.499 4.7847 142.525 4.78327C142.862 4.76897 143.44 4.79478 143.759 4.78091C143.87 4.77588 143.79 4.72127 143.916 4.71615C144.302 4.70004 144.18 4.81956 144.656 4.76848C144.815 4.75129 144.801 4.66483 145.107 4.6622C145.324 4.66038 145.308 4.81641 145.342 4.82045C145.39 4.8251 146.13 4.668 146.378 4.75791C145.859 5.05072 146.961 4.74445 146.901 4.63393C147.197 4.6484 147.493 4.66279 147.788 4.6771C147.887 4.64366 147.986 4.61022 148.084 4.57676C149.268 4.64861 150.006 4.53448 151.178 4.51501C151.235 4.51418 152.224 4.5274 152.18 4.56995C151.594 4.66949 151.004 4.70252 150.619 4.59357C150.008 4.86881 149.986 4.67515 148.98 4.75707C148.646 4.7844 148.626 4.85173 148.587 4.85446C147.291 4.95105 145.195 5.07765 144.299 4.92407C144.053 4.98777 144.947 4.96778 144.601 5.02221C144.4 5.0544 139.897 5.31386 141.328 5.02776C141.178 5.04045 141.029 5.05312 140.878 5.06576C140.737 5.28288 139.987 5.26661 140.063 5.05321C139.993 5.09915 139.924 5.14509 139.855 5.19102C139.716 5.23327 139.551 5.25973 139.318 5.28104C138.427 5.36516 133.144 5.49894 132.858 5.53736C132.853 5.58737 132.849 5.63737 132.844 5.68738C135.198 5.65617 137.435 5.4439 140.003 5.47798C139.927 5.43445 139.851 5.39092 139.774 5.34738C140.797 5.36971 141.816 5.39105 142.831 5.41142C141.764 5.54368 140.054 5.68837 138.915 5.66585C138.713 5.66183 138.858 5.5906 138.811 5.58464C138.69 5.56917 138.562 5.68761 138.133 5.71623C137.703 5.74497 136.614 5.70853 136.515 5.71467C136.323 5.72697 135.81 5.87669 135.482 5.88783C135.051 5.90236 135.337 5.81114 135.25 5.81281C134.892 5.81886 134.573 5.87085 134.292 5.87566C133.876 5.88283 133 5.77487 132.722 5.99191C133.017 5.99043 133.315 5.98872 133.614 5.9869C132.006 6.12158 130.749 5.90256 129.165 6.16121C128.812 6.42379 130.125 6.34459 129.018 6.4897C129.219 6.47919 129.421 6.46863 129.622 6.45804C129.668 6.40402 129.713 6.35 129.758 6.29597C130.107 6.32127 130.455 6.34644 130.802 6.3715C130.702 6.32835 130.601 6.28518 130.501 6.242C131.729 6.1633 132.956 6.06969 133.398 6.30431C133.421 6.24269 133.444 6.18107 133.468 6.11945C134.618 6.15038 136.318 5.82575 136.012 6.17584C136.065 6.15582 136.118 6.1358 136.172 6.11578C136.863 6.15745 136.563 6.02952 136.821 6.00344C136.895 5.99618 138.233 6.01408 137.645 6.1383C138.948 6.16179 138.536 5.86247 138.897 5.83375C139.745 5.95527 141.241 5.65615 140.618 5.93022C140.743 5.93415 140.868 5.93807 140.994 5.94197C141.395 5.73006 141.807 5.93232 142.253 5.98634C142.403 5.98414 142.553 5.98191 142.703 5.97966C142.801 5.90985 142.898 5.84003 142.995 5.77021C144.414 6.01836 143.935 5.1872 144.615 5.87255C144.516 5.91994 144.416 5.96731 144.317 6.01468C144.078 6.04593 143.838 6.07716 143.603 6.1081C144.566 6.08368 145.539 6.05778 146.501 6.03132C147.735 6.17376 148.405 5.9237 149.778 6.01469C149.904 5.98933 150.031 5.96396 150.158 5.93858C150.036 6.10688 149.539 6.10784 150.465 6.1344C150.55 6.2449 149.928 6.29085 149.639 6.2171C149.569 6.19908 150.148 6.08256 149.492 6.1119C149.049 6.13147 149.854 6.22999 148.532 6.24353C148.582 6.26911 148.632 6.29469 148.683 6.32026C148.539 6.32643 148.396 6.33257 148.253 6.3387C148.122 6.28017 147.992 6.22162 147.861 6.16306C147.538 6.27225 147.36 6.41215 146.607 6.41982C146.809 6.36965 146.526 6.25283 146.154 6.27248C146.156 6.31931 146.158 6.36613 146.161 6.41295C145.26 6.4852 145.565 6.33332 144.818 6.4752C144.741 6.44142 144.664 6.40764 144.587 6.37385C144.179 6.5465 142.691 6.71762 142.953 6.4754C142.544 6.71767 141.655 6.65554 141.319 6.49094C141.295 6.53854 141.272 6.58614 141.249 6.63373C141.074 6.65074 140.899 6.66772 140.724 6.68467C140.625 6.66073 140.526 6.63679 140.427 6.61283C140.303 6.64627 140.18 6.67969 140.057 6.7131C139.98 6.66962 139.902 6.62613 139.825 6.58263C139.627 6.64702 139.429 6.71138 139.231 6.77569C139.107 6.74358 138.982 6.71145 138.858 6.67931C138.845 6.77747 137.644 6.84858 137.304 6.79815C137.204 6.8305 137.105 6.86284 137.006 6.89517C136.955 6.85079 136.904 6.80641 136.853 6.76203C136.78 6.8021 136.706 6.84217 136.633 6.88224C136.459 6.85203 136.285 6.8218 136.111 6.79154C135.415 7.04652 135.384 6.84792 135.224 6.85562C134.925 6.86992 133.912 7.05118 133.741 7.05023C133.57 7.04929 133.485 6.97081 133.347 6.96831C131.092 6.92371 132.025 7.10789 131.575 7.15918C131.332 7.18687 131.156 7.11698 130.941 7.13313C130.573 7.16072 128.709 7.32632 128.601 7.31987C128.443 7.31097 128.8 6.93959 128.294 7.04937C128.283 7.24275 127.189 7.08464 127.705 7.33641C127.259 7.3277 126.813 7.31877 126.367 7.30966C126.425 7.53644 125.87 7.40743 125.27 7.43909C124.422 7.48417 122.504 7.69231 122.567 7.45567C122.364 7.51559 122.159 7.57553 121.959 7.63529C120.568 7.60219 119.203 7.71749 117.815 7.75685C113.706 7.87412 109.253 7.92015 105.151 7.94405C104.955 7.94513 104.982 7.86807 104.841 7.86878C104.1 7.87322 102.169 7.958 101.125 7.95562C100.791 7.95503 100.627 7.88257 100.521 7.88061C100.16 7.87345 100.247 7.97068 100.081 7.97012C99.8165 7.96934 98.4396 7.89568 97.9643 7.89158C97.7292 7.88965 97.4519 7.97111 97.1762 7.95009C97.1524 7.9484 97.1953 7.8673 97.1752 7.86612C96.673 7.86192 96.9757 7.92818 96.8058 7.92642C95.5954 7.91367 94.2915 7.92485 92.9809 7.91906C92.6551 7.91755 92.1558 7.86464 91.8757 7.86136C91.7689 7.86025 91.961 7.92001 91.5917 7.91764C91.4653 7.91683 91.4215 7.83761 91.2786 7.83345C90.6632 7.81602 90.4587 8.0729 89.928 7.87057C88.9053 7.89053 87.127 7.96423 86.1975 7.96835C85.9773 7.96929 85.8699 7.92264 85.6599 7.92407C85.511 7.92506 85.2489 7.99852 85.0164 7.99994C84.7838 8.00133 84.4166 7.93283 83.9689 7.93605C83.4977 7.93935 82.9113 7.98097 82.805 7.98077C82.6766 7.98085 82.6166 7.89336 82.4882 7.89452C82.0982 7.89759 81.0646 7.98337 80.5649 7.99203C80.0288 8.00131 79.7068 7.95826 79.5235 7.95878C79.3537 7.95964 79.1555 8.03308 79.0779 8.03355C78.9572 8.03441 78.9289 7.94803 78.7756 7.94838C78.5251 7.94918 78.2667 8.00278 77.8909 8.00306C71.1288 8.00869 64.4971 7.88821 57.9195 7.69995C57.1866 7.67882 56.7711 7.73135 55.6911 7.68125C55.2532 7.66077 55.4397 7.57561 55.0983 7.58518C54.9461 7.58952 54.9831 7.66039 54.7907 7.65962C53.9406 7.65592 52.9517 7.56795 52.5835 7.56033C52.4375 7.55722 52.2688 7.63282 51.9694 7.62677C49.7383 7.58229 47.0985 7.48869 44.6971 7.42921C43.4253 7.39814 41.5002 7.37659 40.0404 7.33116C36.0081 7.20733 31.6724 7.01319 27.9973 6.85177C22.4495 6.60872 16.9168 6.3838 11.3943 5.94905C13.9645 6.30458 17.5008 6.49528 20.3796 6.66912C28.7075 7.17551 37.5877 7.42508 46.1305 7.67706C49.1034 7.76578 52.8509 7.85542 56.1055 7.96627C56.253 7.97129 56.5602 7.91637 56.879 7.92921C56.9467 7.93213 57.7848 8.0602 58.0678 8.0666C57.8032 7.86321 58.9088 8.06087 59.2525 8.0621C59.6854 8.06365 60.5895 7.98044 61.6007 8.0527C62.5183 8.118 62.2638 8.19016 62.3144 8.19579C62.6388 8.23172 62.754 8.11044 63.0029 8.10173C64.0175 8.07011 69.2525 8.20484 70.7096 8.21896C71.0874 8.22336 71.0974 8.30158 71.1825 8.30258C71.4079 8.30498 71.7292 8.23038 72.0901 8.23366C72.7407 8.23979 73.489 8.31856 73.8468 8.32104C74.7033 8.32745 76.3235 8.24865 77.4393 8.25059C77.7525 8.25115 77.733 8.33242 77.8748 8.33259C78.499 8.33336 80.123 8.24087 80.8956 8.24038C82.1485 8.24 83.4474 8.29177 84.7248 8.2623C84.8058 8.29842 84.8869 8.33454 84.968 8.37065C85.0957 8.33227 85.2233 8.29388 85.3509 8.25546C87.5074 8.27896 89.7126 8.18611 91.8589 8.17545C92.1064 8.17432 93.3302 8.23387 93.5339 8.23225C93.7031 8.23077 93.8702 8.1394 94.1229 8.15034C94.4769 8.16545 94.1456 8.33979 94.7231 8.28536C94.8783 8.27062 94.727 8.1988 95.0387 8.17292C95.1423 8.16466 97.1396 8.11378 97.2464 8.11727C97.4252 8.12377 97.5864 8.27891 97.6327 8.28175C97.8726 8.29666 97.8609 8.17628 98.0216 8.16337C98.4955 8.12482 99.1156 8.198 99.1925 8.19521C100.125 8.16122 101.874 8.04028 102.853 8.08175C102.989 8.08759 102.974 8.17756 102.998 8.1801C103.151 8.19629 103.245 8.09264 103.391 8.08795C104.176 8.06402 105.401 8.11208 106.197 8.11516C106.288 8.11543 106.48 8.06282 106.642 8.06461C107.563 8.07528 107.266 8.15953 107.318 8.16198C107.442 8.16802 107.658 8.07697 107.987 8.06526C108.837 8.03475 110.455 8.01422 111.368 8.00097C112.052 7.99144 112.043 8.09112 112.088 8.09213C112.184 8.09357 112.448 8.00818 112.897 7.98895C113.761 7.95142 113.664 8.03178 114.018 8.0201C114.048 8.01939 113.995 7.94409 114.388 7.92684C115.148 7.89377 116.849 7.92658 117.669 7.90086C117.983 7.89121 118.055 7.81546 118.376 7.80549C118.885 7.7895 120.033 7.83769 120.123 7.83487C120.149 7.83416 120.203 7.74765 120.352 7.74347C120.515 7.73888 120.678 7.77803 120.8 7.77427C121.493 7.75352 122.685 7.56988 122.362 7.88281C122.584 7.80134 122.805 7.71983 123.027 7.63827C124.49 7.60923 125.904 7.53448 127.341 7.47163C127.663 7.45757 127.939 7.50579 128.214 7.49372C128.49 7.48173 129.699 7.34504 129.9 7.33605C130.262 7.32069 132.307 7.23701 132.56 7.23406C133.054 7.2288 133.545 7.33576 133.747 7.30356C133.91 7.27768 133.756 7.21284 134.067 7.18103C134.604 7.12606 135.521 7.18122 135.684 7.17334C135.754 7.17 135.621 7.12024 136.276 7.09041C136.629 7.07418 136.82 7.12719 136.948 7.12178C136.988 7.11985 136.924 7.0241 137.621 7.0091C138.102 6.99887 138.31 7.06621 138.36 7.06443C138.436 7.06183 138.615 6.97344 138.923 6.96348C139.641 6.94087 140.953 6.97795 141.63 6.95541C141.761 6.9511 141.712 6.8554 142.234 6.8415C142.607 6.83156 142.545 6.91214 142.685 6.90908C142.906 6.90407 143.231 6.79428 143.719 6.77542C144.342 6.75339 148.927 6.63556 149.155 6.64813C149.316 6.65747 149.503 6.64934 149.584 6.68765C149.518 6.73149 149.452 6.77532 149.386 6.81916C148.677 6.7116 148.969 6.85991 148.784 6.87944C148.517 6.90752 147.504 6.93561 147.26 6.98325C147.173 7.00042 147.378 7.07733 146.91 7.1441C146.407 7.21552 146.175 7.07217 145.984 7.29179C145.255 7.09193 144.575 7.37129 145.411 7.39906C145.883 7.41606 150.416 7.28113 151.356 7.2443C152.11 7.21661 153.512 7.08141 154.431 7.0486C154.981 7.02927 156.325 6.96738 156.274 7.08209C156.758 7.06979 156.241 6.98648 156.341 6.96547C156.553 6.92177 158.062 6.91546 158.345 6.89632C159.73 6.80421 161.529 6.57488 162.893 6.63483C162.832 6.6685 162.77 6.70217 162.709 6.73584C162.407 6.80906 160.976 6.81422 160.822 6.96691C162.913 6.84567 164.978 6.72098 167.073 6.58917C167.031 6.46989 169.595 6.30759 169.725 6.35382C169.683 6.41591 169.641 6.47801 169.599 6.5401C168.135 6.40961 168.284 6.69747 167.296 6.60202C166.897 6.62494 167.023 6.71503 166.828 6.74595C164.877 7.05271 166.786 6.54771 165.286 6.72823C165.75 6.84193 164.51 6.97021 163.972 7.02062C163.849 7.03227 162.209 7.09415 162.012 7.10769C160.916 7.18523 159.025 7.37145 157.942 7.35358C157.085 7.39191 156.618 7.5188 155.837 7.58452C155.244 7.63431 155.41 7.55412 155.13 7.56828C154.542 7.59777 154.36 7.82402 153.973 7.54218C153.582 7.60046 153.189 7.65859 152.796 7.71659C152.794 7.66978 152.792 7.62297 152.789 7.57616C152.541 7.589 152.293 7.60179 152.044 7.61452C151.973 7.66492 151.902 7.71531 151.832 7.76569C151.038 7.74202 151.362 7.61247 151.208 7.48743C151.037 7.48697 150.865 7.48648 150.694 7.48597C150.566 7.59437 150.439 7.70276 150.311 7.81114C149.543 7.84115 148.783 7.8701 148.025 7.89833C147.974 7.85403 147.922 7.80974 147.871 7.76545C147.872 7.81218 147.872 7.85891 147.873 7.90565C146.588 7.97705 145.296 8.04694 143.997 8.11525C143.656 8.20596 145.737 8.16778 145.892 8.16463C146.768 8.14923 149.067 7.96292 149.077 8.12881C149.612 7.97848 151.253 7.92732 151.766 8.05017C150.996 8.08046 150.223 8.11022 149.448 8.13943C149.476 8.19396 149.503 8.24848 149.531 8.303C148.56 8.12528 148.427 8.14416 147.453 8.40384C147.449 8.32911 147.444 8.25437 147.44 8.17963C146.767 8.47255 145.529 8.08813 145.508 8.41073C145.14 8.40172 144.771 8.39258 144.402 8.38331C143.61 8.45799 144.85 8.65142 141.759 8.69062C141.546 8.69313 141.587 8.60942 141.266 8.62891C141.174 8.63455 140.65 8.77662 139.633 8.80699C139.474 8.81167 139.459 8.74121 139.294 8.73908C138.911 8.73371 138.164 8.905 138.496 8.66222C137 8.65659 137.626 8.81889 137.165 8.9123C136.858 8.97424 136.915 8.8364 136.648 8.87778C136.318 8.92894 136.568 9.05612 135.234 9.04528C135.383 9.03021 135.532 9.01512 135.681 9C135.604 8.96586 135.528 8.93172 135.451 8.89757C134.694 9.01607 134.761 8.88319 134.41 9.10535C133.854 9.0335 133.367 9.04448 132.62 9.08902C131.159 9.17542 131.918 9.37307 130.234 9.13008C129.964 9.18208 129.694 9.23401 129.424 9.28587C128.974 9.21201 129.332 9.08793 128.664 9.08822C129.195 9.29095 127.779 9.25856 127.551 9.46276C127.525 9.41674 127.499 9.37071 127.472 9.32469C127.324 9.3296 127.176 9.33449 127.028 9.33936C127.029 9.37695 127.03 9.41454 127.031 9.45213C126.833 9.43048 126.634 9.40878 126.436 9.38705C126.289 9.42912 126.142 9.47117 125.994 9.51319C125.747 9.44248 125.5 9.3717 125.253 9.30086C125.1 9.30035 124.946 9.29981 124.792 9.29925C124.842 9.35369 124.893 9.40812 124.943 9.46256C124.745 9.45005 124.547 9.4375 124.349 9.42492C124.581 9.50959 124.44 9.62185 123.824 9.63792C123.315 9.65112 123.883 9.44224 122.791 9.55484C122.716 9.56269 122.578 9.70394 121.554 9.75485C120.322 9.81562 120.918 9.69933 120.698 9.7022C120.655 9.70286 120.28 9.78233 119.926 9.802C119.726 9.8132 119.531 9.76297 119.504 9.76384C119.381 9.76978 119.347 9.84935 119.175 9.85687C118.739 9.87553 118.152 9.85269 117.724 9.86781C117.53 9.8746 117.348 9.92591 117.261 9.92872C117.126 9.93275 116.953 9.86605 116.817 9.86981C116.314 9.88421 115.564 10.1389 115.322 9.81686C114.849 10.1301 113.831 9.78962 113.909 9.98995C112.618 9.94525 109.184 10.2654 109.28 9.92292C108.557 10.2279 108.618 10.0162 108.312 10.0266C107.971 10.038 108.149 10.0909 107.877 10.0936C107.242 10.0998 106.635 10.0868 106.001 10.0969C106.1 10.0486 106.198 10.0003 106.297 9.95198C105.632 9.94891 105.862 10.0532 105.185 10.0858C103.946 10.1449 104.467 10.0495 104.282 9.93061C104.333 10.0477 102.869 10.053 102.719 10.0396C102.63 10.0315 103.018 9.8738 102.121 9.93634C102.17 9.98231 102.22 10.0283 102.27 10.0742C101.86 10.0167 100.748 10.1136 100.559 10.1004C100.472 10.0943 100.003 9.72403 99.5813 10.0277C99.5292 9.98164 99.4778 9.93559 99.4261 9.88955C98.9576 9.9518 98.4886 10.0138 98.0192 10.0756C97.9431 9.99235 97.8671 9.9091 97.791 9.82585C97.6419 9.82761 97.4926 9.82935 97.3434 9.83106C97.4433 9.90462 97.5432 9.97818 97.6431 10.0517C96.7215 10.0288 95.5946 10.1582 95.4016 9.90812C95.2043 9.95682 95.0069 10.0055 94.8093 10.0541C94.6797 9.97151 94.55 9.88892 94.4204 9.8063C93.5026 9.83588 93.4908 9.89188 92.8667 9.98642C92.8906 9.92079 92.9144 9.85517 92.9383 9.78954C92.4788 9.88524 91.6383 9.97725 90.9725 9.99326C90.656 10.0008 90.1117 9.91402 90.037 9.92262C89.9617 9.93175 89.2204 10.2902 89.1379 9.98394C88.0431 10.1256 87.5621 9.98866 87.1197 9.99383C86.8321 9.99722 86.7012 10.0713 86.3761 10.08C85.9108 10.0926 85.4421 10.0582 85.1734 10.064C85.0196 10.0674 84.991 10.1393 84.885 10.1418C84.3836 10.1538 84.6773 10.0799 84.1485 10.0856C84.0997 10.0865 83.7133 10.1747 83.2773 10.1639C83.0336 10.158 82.4026 10.0598 82.347 10.06C82.1003 10.0617 82.2966 10.2588 81.456 10.0312C81.4804 10.0686 81.5048 10.1061 81.5292 10.1435C80.4884 10.238 80.3238 10.0706 80.1135 10.0588C80.0867 10.0578 79.8329 10.122 79.6812 10.1128C79.4248 10.0972 79.3215 10.0086 79.2648 10.0046C79.0648 9.9907 78.3906 10.028 77.95 9.94118C78.0422 10.193 76.4957 10.277 76.1548 9.99059C75.8818 10.0455 75.6087 10.1004 75.3354 10.1551C75.2122 10.1076 75.089 10.0601 74.9658 10.0126C74.8904 10.0589 74.8151 10.1052 74.7397 10.1515C74.3424 10.0464 73.945 9.94116 73.5475 9.83573C73.5215 9.93858 73.4955 10.0414 73.4695 10.1443C73.3581 10.1318 73.2466 10.1194 73.1352 10.1069C73.0487 10.0245 72.9622 9.94199 72.8758 9.85952C72.7362 9.87417 72.5968 9.88879 72.4572 9.90339C72.4223 9.96238 72.3874 10.0214 72.3524 10.0804C71.602 10.1429 71.9923 9.5813 70.559 10.0658C70.3367 10.0171 70.1158 9.9684 69.8943 9.91962C69.6417 10.1446 69.1734 10.0024 68.7941 10.0241C68.5268 10.0394 68.5404 10.1299 68.1764 10.128C67.812 10.126 67.826 10.0398 67.7976 10.0389C67.5007 10.0303 67.2759 10.1039 67.0581 10.0862C67.0253 10.0836 66.9442 9.98008 66.6666 9.97027C66.3888 9.96047 66.22 10.0675 65.8063 10.0418C65.5943 10.0287 65.5342 9.94146 65.3461 9.93137C64.4492 9.88256 63.5422 10.3073 62.8779 9.77822C62.7257 9.84182 61.6236 10.055 61.1534 10.0339C60.4223 10.0007 60.7059 9.90353 60.4154 9.88C60.3736 9.87645 60.1503 9.90717 59.5366 9.89015C59.4267 9.88709 59.4512 9.94501 59.4354 9.94549C58.7191 9.93181 57.3322 9.86018 56.5469 9.83596C56.4768 9.83368 56.106 9.98654 55.4878 9.75794C54.5618 9.89792 52.83 9.51697 51.6082 9.72698C51.4394 9.72794 51.236 9.6656 51.1613 9.6657C50.5173 9.6673 50.7486 9.84776 49.3009 9.55518C49.4163 9.64698 49.0739 9.71819 48.5934 9.69849C47.8708 9.66875 48.3888 9.51731 47.8075 9.51488C47.8062 9.56157 47.8049 9.60827 47.8036 9.65496C46.4708 9.49209 46.1993 9.68404 44.8581 9.645C44.3757 9.63077 43.6665 9.50513 43.5515 9.50121C43.5071 9.50015 42.976 9.59602 42.9256 9.59522C42.6418 9.58954 42.4833 9.53246 42.2385 9.52422C41.4293 9.4969 40.4588 9.61039 40.6424 9.35047C40.418 9.39903 40.1934 9.44751 39.9689 9.49593C39.1379 9.18296 38.4954 9.5515 38.3291 9.26944C38.1767 9.32095 38.0243 9.37242 37.8719 9.42386C34.2686 9.26354 30.664 9.08535 27.0595 8.88815C26.9118 8.97043 25.3412 8.86408 25.2614 8.84609C24.8945 8.76559 25.2946 8.59139 24.5377 8.59859C24.45 8.67917 24.3623 8.75974 24.2746 8.84031C23.3246 8.82077 23.7851 8.75912 23.4137 8.68297C23.2568 8.68554 23.304 8.75382 23.0921 8.7479C21.9398 8.71647 19.5815 8.59484 18.3262 8.52988C18.0729 8.51695 18.1146 8.45763 18.036 8.4531C17.8196 8.44161 17.3897 8.49516 16.955 8.47046C14.2645 8.31818 10.4688 8.04033 7.76858 7.79343C7.58547 7.77668 7.56768 7.70195 7.4442 7.68999C7.27305 7.67375 6.88616 7.70706 6.70636 7.68861C6.53696 7.67144 6.43204 7.60843 6.25091 7.58951C5.42453 7.50253 4.29328 7.51774 3.41481 7.28993C3.34069 7.27085 2.42921 6.90877 2.4097 6.88781C2.29454 6.76404 3.13526 6.64457 1.78799 6.37716C3.01403 6.31956 2.65196 6.0338 1.08521 5.79045C1.87798 5.81672 2.6716 5.84195 3.46603 5.86616C3.46937 5.83556 3.47271 5.80496 3.47605 5.77436C2.76607 5.5705 2.05511 5.46811 0.962756 5.37248C0.998972 5.34662 1.03519 5.32076 1.0714 5.2949C2.04749 5.22512 3.21612 5.28353 3.96719 5.14227C2.89632 4.9219 1.82763 4.69967 0.761272 4.47557C0.816751 4.4572 0.87223 4.43884 0.927709 4.42046C1.44827 4.40112 2.57989 4.44995 3.01362 4.42663C4.66947 4.33837 1.58907 4.16766 2.10396 4.07781C3.83278 4.20942 5.57292 4.33657 7.29899 4.4577C7.36959 4.37494 0.719408 3.64312 0.814691 3.36222C1.35881 3.38412 1.90336 3.40553 2.44831 3.42646C2.21125 3.33748 1.97434 3.24841 1.73758 3.15925C1.80594 3.14162 1.8743 3.12399 1.94266 3.10634C2.86304 3.11857 3.78453 3.1294 4.70704 3.13886C1.91081 2.99673 0.623072 2.85607 0 2.24495C0.0764121 2.2364 0.152829 2.22784 0.229252 2.21927C0.80354 2.61685 3.65928 2.71391 5.18288 2.74892C4.88054 2.62467 3.53992 2.60909 3.26274 2.52663C3.18416 2.50313 3.46782 2.45187 3.28544 2.40197C2.80801 2.2727 0.760411 1.99784 1.06823 1.9035C1.26495 1.84458 4.58444 1.98332 5.2329 2.03488C3.72444 1.7942 2.16691 1.64192 0.664433 1.36442C1.638 1.20865 2.50503 0.99366 4.2561 1.10633C4.79672 1.02619 1.10828 0.591796 1.02947 0.518354C1.67368 0.496353 2.31838 0.473664 2.96356 0.450292C2.4208 0.429552 1.87845 0.408329 1.33654 0.38662C1.3367 0.36313 1.33687 0.33964 1.33703 0.31615C2.7454 0.312136 4.04267 0.206079 5.65034 0.331859C5.60696 0.204637 4.64397 0.149467 4.17784 0.114886ZM158.608 7.60094C158.646 7.70178 158.055 7.71807 157.721 7.73456C157.772 7.75047 157.823 7.76638 157.875 7.78228C157.164 7.80257 155.832 7.83546 155.793 8.03727C155.283 8.08957 155.5 7.90413 155.334 7.89328C155.271 7.88877 154.6 8.02582 154.071 7.93064C153.946 7.93774 153.82 7.94482 153.695 7.95189C153.674 8.0185 153.653 8.08511 153.632 8.15172C153.453 8.08157 153.274 8.01139 153.095 7.94118C154.909 7.83287 156.784 7.71747 158.605 7.60109C158.606 7.60104 158.607 7.60099 158.608 7.60094ZM140.289 8.58819C139.616 8.57992 138.582 8.56438 138.798 8.73478C139.223 8.70773 139.648 8.68051 140.072 8.65312C140.144 8.63148 140.216 8.60984 140.289 8.58819ZM73.6267 9.66876C73.0682 9.48872 72.5517 9.63784 71.6854 9.59916C71.6862 9.63644 71.6871 9.67372 71.6879 9.711C72.043 9.62438 72.979 9.69089 73.6267 9.66876ZM175.163 5.88516C175.287 5.89034 175.412 5.89549 175.537 5.90063C175.048 6.13568 174.948 6.00112 174.378 6.06C174.343 6.0636 174.359 6.10851 174.347 6.10961C174.21 6.12215 174.079 6.07581 173.955 6.08517C173.716 6.10327 173.525 6.17247 173.099 6.1994C172.77 6.22002 172.761 6.13247 172.645 6.14255C172.547 6.15142 171.584 6.45868 170.943 6.39627C169.737 6.27799 174.779 5.89601 175.163 5.88516ZM178.728 5.79718C178.61 5.80655 178.493 5.81591 178.375 5.82526C178.719 5.66474 178.006 5.73714 177.48 5.77767C177.487 5.64726 178.603 5.62246 179.095 5.54767C178.972 5.63085 178.85 5.71402 178.728 5.79718ZM163.702 6.51644C164.163 6.4754 164.096 6.64151 164.079 6.69078C163.933 6.69967 163.786 6.70854 163.638 6.7174C163.66 6.65041 163.681 6.58343 163.702 6.51644ZM167.197 6.24474C167.06 6.36359 166.053 6.47482 165.573 6.5134C165.552 6.51471 165.68 6.44638 165.34 6.47293C165.238 6.48109 164.246 6.7615 164.453 6.49934C165.369 6.41544 166.286 6.33038 167.196 6.24483C167.196 6.2448 167.197 6.24477 167.197 6.24474ZM168.217 6.24508C168.03 6.2916 167.843 6.33809 167.655 6.38455C167.554 6.33927 167.453 6.29399 167.352 6.24869C167.567 6.22205 167.782 6.19537 167.996 6.16866C168.07 6.19414 168.143 6.21961 168.217 6.24508ZM25.0605 7.50227C25.1021 7.55954 25.1436 7.6168 25.1852 7.67406C25.355 7.71626 26.2 7.51628 25.9383 7.45717C25.6457 7.47233 25.3531 7.48736 25.0605 7.50227ZM21.5469 7.20902C21.375 7.17216 21.203 7.13526 21.0311 7.09832C20.8268 7.18125 20.6225 7.26412 20.4181 7.34693C21.2808 7.45628 22.1995 7.57643 22.065 7.29316C22.2634 7.30342 22.4618 7.31362 22.6602 7.32377C22.4873 7.42915 22.5078 7.46794 23.0236 7.56669C23.1453 7.41388 23.6766 7.52184 24.292 7.51733C23.8461 7.48597 23.4009 7.45435 22.9547 7.42238C22.9561 7.39442 22.9575 7.36647 22.959 7.33851C23.9534 7.39892 22.7258 7.15934 22.0707 7.23674C22.0215 7.19687 21.9723 7.157 21.9231 7.11713C21.7977 7.14778 21.6723 7.17841 21.5469 7.20902ZM93.5278 8.71814C93.4045 8.69105 93.2811 8.66395 93.1576 8.63683C92.6842 9.0075 93.6495 8.65172 94.3498 8.93537C94.1181 8.7171 95.1777 8.71627 95.238 8.70075C95.1154 8.62775 94.9929 8.55473 94.8703 8.4817C94.4232 8.56073 93.9735 8.63957 93.5278 8.71814ZM90.0297 8.49104C90.4599 8.67151 88.3527 8.69499 87.6474 8.65722C87.4762 8.64806 87.1706 8.54887 87.0471 8.56202C86.9723 8.59941 86.8975 8.6368 86.8227 8.67419C86.7336 8.54641 85.3578 8.69504 84.8148 8.76502C84.7636 8.71842 84.7124 8.67182 84.6611 8.62522C84.4633 8.64418 84.2654 8.66309 84.0674 8.68196C84.0922 8.63538 84.117 8.58879 84.1418 8.5422C83.9922 8.59843 83.8424 8.65465 83.6926 8.71083C83.1043 8.77382 83.4669 8.51964 83.0248 8.59924C82.5333 8.68755 83.3389 8.83804 83.3241 8.93636C83.723 8.91066 84.6293 8.85235 85.0335 8.84851C85.2655 8.84639 85.0032 9.02349 86.0025 8.81806C86.2218 8.86459 86.4411 8.91106 86.6603 8.95748C87.0621 8.88102 87.4637 8.80438 87.8649 8.72756C87.9399 8.79249 88.0158 8.85741 88.0913 8.92232C88.1346 8.93242 89.0668 8.77954 89.0166 8.73071C89.395 8.85347 90.1706 8.87134 90.9861 8.87209C91.0644 8.83607 91.1426 8.80005 91.2208 8.76403C90.4327 8.84604 90.9696 8.7282 90.7341 8.66186C90.5981 8.62361 90.1823 8.54931 90.0297 8.49104ZM30.5602 7.6123C29.2299 7.71342 30.0557 7.61857 28.6245 7.55437C28.7207 7.64312 28.817 7.73185 28.9132 7.82057C29.6233 7.6985 30.7759 7.85107 30.5616 7.61236C30.5611 7.61234 30.5607 7.61232 30.5602 7.6123ZM16.5453 7.18821C17.3063 7.18058 16.9343 7.02826 17.8948 7.04023C17.8952 7.04026 17.8957 7.04028 17.8961 7.04031C17.4015 7.00316 16.9055 6.96555 16.4091 6.92753C16.4545 7.01443 16.4999 7.10132 16.5453 7.18821ZM60.8323 8.68913C61.5583 8.73775 61.4163 8.66982 62.0735 8.81124C63.0573 8.66749 62.2262 8.67714 62.2285 8.53286C62.0035 8.57169 61.7785 8.61046 61.5535 8.64917C61.0118 8.50546 61.5287 8.4459 61.5289 8.43293C61.5285 8.43292 61.528 8.43292 61.5275 8.43291C61.5283 8.3896 61.546 8.38078 61.3378 8.35122C61.1694 8.46389 61.0009 8.57653 60.8323 8.68913ZM63.9433 8.55877C63.693 8.65102 63.5793 8.77252 64.2328 8.84312C64.2333 8.84312 64.2338 8.84313 64.2342 8.84313C64.2894 8.62977 64.9156 8.81119 65.2024 8.80053C65.2779 8.77825 65.3533 8.75595 65.4288 8.73365C64.9334 8.67565 64.4374 8.61735 63.9433 8.55877ZM74.8995 8.46879C74.901 8.70535 74.3517 8.72489 75.1234 8.94703C75.2734 8.94359 75.4235 8.94012 75.5735 8.93662C75.6722 8.88519 75.771 8.83374 75.8696 8.78228C77.7747 9.21817 78.3433 8.49267 75.1244 8.75026C75.124 8.75042 75.1235 8.75058 75.123 8.75074C75.0485 8.65677 74.974 8.56278 74.8995 8.46879ZM71.545 8.4662C71.5198 8.59018 71.4946 8.71417 71.4693 8.83815C71.0511 8.53516 70.5029 8.81645 69.6817 8.59728C69.6068 8.63433 69.5318 8.67137 69.4569 8.70841C69.1502 8.6233 66.1226 8.56526 66.7762 8.76352C67.0618 8.85037 67.687 8.74412 67.7407 8.74722C67.9225 8.7586 68.1586 8.86788 68.4658 8.8649C68.6433 8.86304 69.0186 8.74151 69.3806 8.74526C70.1883 8.75388 71.6678 9.1034 72.7353 8.79213C72.8117 8.8301 72.8882 8.86808 72.9646 8.90604C73.7553 8.88855 73.4922 8.76822 74.2265 8.91417C74.7384 8.32821 71.2697 8.92318 71.9946 8.44972C71.9941 8.44972 71.9937 8.44972 71.9932 8.44971C71.8438 8.45524 71.6944 8.46073 71.545 8.4662ZM49.784 8.27591C49.739 8.16887 48.8182 8.30804 49.0403 8.06001C48.7388 8.1404 48.4373 8.22067 48.1357 8.30083C48.1373 8.32448 48.139 8.34813 48.1406 8.37179C48.4385 8.36138 48.7363 8.35086 49.0342 8.34022C49.0343 8.37767 49.0345 8.41512 49.0346 8.45257C49.4814 8.32941 51.3288 8.43516 51.2693 8.56602C51.3695 8.51248 51.4697 8.45894 51.5698 8.40538C52.4504 8.57934 53.2156 8.43511 54.1762 8.60531C54.2518 8.5606 54.3275 8.51587 54.4032 8.47114C54.451 8.50963 54.4988 8.54813 54.5466 8.58662C54.8975 8.59902 55.2485 8.61127 55.5994 8.62336C56.7464 8.4966 54.5282 8.25497 54.2583 8.27063C54.2224 8.27294 54.2258 8.36997 54.0017 8.38019C53.6033 8.39853 51.3815 8.24972 50.6924 8.29571C50.6881 8.23129 50.6838 8.16687 50.6795 8.10246C50.381 8.16039 50.0825 8.2182 49.784 8.27591ZM79.1496 8.73779C79.1997 8.80333 79.2497 8.86886 79.2998 8.93439C80.1665 8.87078 80.7113 8.92822 80.4896 8.71166C80.4892 8.71165 80.4887 8.71165 80.4883 8.71165C80.0423 8.7206 79.596 8.72931 79.1496 8.73779ZM143.518 7.40614C143.49 7.27722 143.076 7.24715 142.547 7.36384C142.575 7.40042 142.602 7.43701 142.629 7.4736C142.903 7.3506 143.255 7.52836 144.113 7.46388C144.11 7.39852 144.107 7.33316 144.104 7.2678C143.906 7.3141 143.713 7.36008 143.518 7.40614ZM78.4018 8.70765C78.1379 8.62984 77.3952 8.86148 77.8834 8.87459C78.2566 8.88449 78.5435 8.74945 78.4018 8.70765ZM13.5736 6.88634C13.7683 6.91182 13.963 6.93724 14.1578 6.96261C14.2631 6.91315 14.3683 6.86368 14.4735 6.81419C14.4731 6.81416 14.4726 6.81413 14.4722 6.8141C14.1726 6.83832 13.8731 6.8624 13.5736 6.88634ZM58.3476 8.65594C59.0118 8.66023 59.677 8.66398 60.3414 8.66718C60.3487 8.631 60.3559 8.59483 60.3632 8.55865C59.6953 8.6797 59.4301 8.53206 59.2751 8.52057C59.2757 8.52058 59.2764 8.52059 59.2771 8.52061C58.7791 8.48293 58.305 8.45298 57.8349 8.40059C58.0058 8.48574 58.1767 8.57086 58.3476 8.65594ZM56.0764 8.38225C56.1829 8.64087 56.3286 8.67409 57.3521 8.51384C57.3124 8.48148 57.2726 8.44912 57.2328 8.41676C56.704 8.42524 56.3945 8.47808 56.49 8.34626C56.3521 8.35829 56.2143 8.37028 56.0764 8.38225ZM66.475 8.63393C66.3535 8.55092 65.3802 8.62065 65.4324 8.66241C65.4532 8.67917 66.7119 8.79698 66.475 8.63393ZM150.89 6.99846C150.665 6.99106 150.439 6.98361 150.214 6.97612C150.511 6.93342 150.808 6.89065 151.105 6.84779C151.033 6.89802 150.961 6.94825 150.89 6.99846ZM153.323 6.50844C153.483 6.53277 152.98 6.7901 153.931 6.79976C153.242 6.84093 152.551 6.88167 151.858 6.92198C152.181 6.86814 152.504 6.81421 152.826 6.76018C152.766 6.69697 152.706 6.63374 152.646 6.57051C152.872 6.54987 153.098 6.52918 153.323 6.50844ZM154.072 6.63829C153.686 6.48341 155.66 6.36524 155.845 6.37629C155.886 6.37916 156.088 6.50127 156.161 6.52588C155.864 6.54223 155.566 6.5585 155.267 6.57468C155.369 6.61109 155.471 6.64748 155.573 6.68387C155.225 6.71699 154.876 6.75 154.527 6.78291C154.674 6.73302 154.822 6.68312 154.969 6.6332C154.669 6.63505 154.367 6.63693 154.072 6.63829ZM146.192 7.07334C146.441 7.06606 146.69 7.05873 146.938 7.05134C146.885 6.98834 146.833 6.92534 146.78 6.86233C146.631 6.86936 146.482 6.87638 146.334 6.88338C146.286 6.9467 146.239 7.01002 146.192 7.07334ZM151.254 6.74198C150.907 7.075 149.883 6.43682 151.052 6.63339C151.17 6.65341 151.287 6.70985 151.254 6.74198ZM156.586 6.37365C157.346 6.10188 157.2 6.61784 156.461 6.50954C156.424 6.50365 156.529 6.39376 156.586 6.37365ZM162.379 6.03635C162.442 6.03433 162.562 6.19184 163.148 6.00042C163.247 6.01323 163.346 6.02602 163.445 6.03881C163.222 6.12906 161.251 6.29088 161.514 6.11228C161.816 6.09202 162.067 6.04978 162.379 6.03635ZM160.429 5.54197C160.131 5.5637 159.833 5.58536 159.535 5.60694C159.636 5.65267 159.737 5.69839 159.839 5.7441C159.693 5.76646 159.545 5.78892 159.402 5.81111C159.149 5.73662 158.897 5.66207 158.644 5.58746C159.281 5.53743 159.929 5.48627 160.575 5.4347C160.526 5.47046 160.478 5.50621 160.429 5.54197ZM152.548 5.84564C153.122 5.88059 153.805 5.77623 154.736 5.73762C154.737 5.73775 154.737 5.73789 154.738 5.73803C154.784 5.7363 154.871 5.80246 155.02 5.79727C155.15 5.79316 157.65 5.57891 157.46 5.70889C156.5 5.86953 156.127 5.72606 155.909 6.00464C155.859 5.95113 155.808 5.89762 155.758 5.84411C154.82 5.79737 154.555 6.00593 154.043 6.10446C154.043 6.06209 154.042 6.01972 154.042 5.97736C153.695 5.99143 153.348 6.00539 153 6.01924C153.051 6.04448 153.101 6.06972 153.151 6.09496C153.029 6.10137 152.905 6.10776 152.782 6.11414C152.476 6.00446 152.094 5.99486 152.548 5.84564ZM161.78 5.53319C162.041 5.19687 164.696 5.2586 165.929 5.11375C165.299 5.34657 164.29 5.27491 163.601 5.31432C162.258 5.39121 163.193 5.45362 162.968 5.51905C162.857 5.55142 162.082 5.39134 161.78 5.53319ZM150.467 6.00772C151.143 5.99976 151.516 5.90679 152.104 5.99462C152.057 6.02053 152.009 6.04643 151.962 6.07233C151.762 6.06133 150.129 6.07581 150.467 6.00772ZM167.721 5.08536C166.417 5.05237 167.075 5.30195 166.385 5.12694C166.83 5.08531 167.273 5.04351 167.715 5.00155C167.717 5.02948 167.719 5.05742 167.721 5.08536ZM76.9145 7.49527C76.3648 7.48582 75.754 7.4244 75.4259 7.54382C75.7983 7.56441 76.1688 7.58483 76.5428 7.6051C76.6667 7.56851 76.7907 7.5319 76.9145 7.49527ZM92.541 6.27957C92.4159 6.25156 91.9226 6.34101 91.8705 6.34138C91.7738 6.3421 91.7999 6.2997 91.7985 6.28869C91.1652 6.30096 91.7505 6.42761 91.282 6.45941C91.202 6.46477 90.0998 6.40741 89.6511 6.4152C88.9609 6.42741 88.2709 6.42224 88.0126 6.42566C87.578 6.43138 86.7734 6.53286 86.059 6.54012C85.7646 6.54294 85.6616 6.46464 85.3655 6.46739C83.4623 6.48693 79.7206 6.59349 78.0322 6.53722C77.6151 6.52358 77.2174 6.41921 76.9967 6.42676C76.8225 6.46369 76.6482 6.50059 76.4739 6.53745C75.9401 6.19672 75.7614 6.49691 75.1853 6.52552C74.8194 6.54355 74.6489 6.44228 74.5998 6.44226C74.274 6.44237 74.1129 6.48913 73.8569 6.49544C73.5695 6.5024 73.1569 6.4544 73.054 6.46185C72.9909 6.46682 73.1917 6.60184 72.0759 6.59098C70.9382 6.57964 69.8162 6.55548 68.6617 6.5373C69.0429 6.94364 69.3775 6.67158 69.849 6.66134C69.9755 6.65858 69.8947 6.72172 70.0048 6.71993C70.3153 6.71523 70.9131 6.6577 71.1707 6.67504C71.4491 6.69376 71.3527 6.84106 71.7063 6.78927C71.7242 6.78659 71.6682 6.72499 71.7514 6.7154C72.5868 6.6207 72.8592 6.72916 73.9135 6.73896C74.6104 6.74747 78.856 6.70332 79.0014 6.74192C79.7621 6.95905 75.2845 6.94602 74.7651 6.92413C74.5823 6.91717 74.7744 6.85073 74.6078 6.83683C74.5372 6.83126 73.9012 6.95639 73.2728 6.96285C72.5132 6.97094 70.9854 6.87102 70.2609 6.8673C64.0393 6.8374 57.9027 6.65878 51.6866 6.50586C51.5541 6.50262 51.3777 6.57552 50.9459 6.56476C42.8856 6.36249 34.5362 6.00628 26.3779 5.65434C24.5992 5.5777 22.8344 5.56188 21.0408 5.40952C20.8151 5.45398 20.5894 5.49837 20.3638 5.54268C20.9356 5.52862 21.9733 5.71036 22.0684 5.71706C22.1026 5.71939 22.3221 5.6672 22.6705 5.68842C23.1607 5.71801 23.3722 5.78373 23.4124 5.78577C23.5367 5.79222 23.4582 5.72963 23.577 5.73589C24.4629 5.78293 25.1497 5.79993 25.9638 5.83842C26.8834 5.88185 27.3449 6.01246 28.0207 5.92367C28.0944 5.97382 28.1682 6.02396 28.242 6.07409C28.754 5.89626 31.7287 6.04965 32.9369 6.10889C33.3178 6.12796 33.2476 6.20715 33.3757 6.21239C33.4575 6.21554 33.4294 6.10726 34.4259 6.1682C34.9276 6.19885 35.056 6.28212 35.3076 6.28941C35.4443 6.29324 35.4251 6.21484 35.6215 6.22244C36.7569 6.26628 37.6835 6.32591 38.7954 6.38011C39.108 6.39521 39.1091 6.46003 39.1792 6.46167C39.437 6.46789 39.8891 6.3741 40.5443 6.39678C41.6224 6.43471 43.7707 6.50408 44.6509 6.58369C44.7803 6.59553 44.8853 6.67645 44.9806 6.6782C45.125 6.68057 45.1841 6.60122 45.2094 6.60155C45.692 6.61456 45.3995 6.68126 45.7232 6.67253C45.8978 6.66779 46.0821 6.58074 46.4874 6.582C47.0225 6.58357 46.9141 6.69021 47.1379 6.68558C47.1615 6.68452 47.1707 6.60845 47.3903 6.61209C48.2232 6.62657 49.4314 6.6413 50.2192 6.66164C50.4455 6.66743 50.6125 6.72307 50.9281 6.73184C51.5636 6.75096 55.1805 6.80077 55.4763 6.83526C55.5075 6.83902 55.1836 6.94481 55.6961 6.95222C55.8459 6.90847 55.9957 6.8647 56.1455 6.82089C56.3928 6.90103 56.6401 6.98108 56.8874 7.06106C56.8838 6.80191 58.3479 6.79019 58.3283 7.05476C58.4882 7.0685 58.6482 7.08221 58.8085 7.0959C59.1457 6.91887 59.3668 6.99058 60.0139 6.89424C60.1134 6.95213 60.213 7.01001 60.3126 7.06787C60.3386 7.03087 60.3645 6.99388 60.3905 6.95688C60.7313 7.16562 61.2993 6.97123 61.3678 6.97119C61.6314 6.97098 61.8287 7.02567 61.9523 7.02596C62.4142 7.02799 63.4144 6.97195 63.9528 7.01241C63.9781 7.01445 63.952 7.10082 64.1052 7.11368C64.3815 7.13688 64.4098 7.01031 64.7775 7.16442C64.8526 7.128 64.9277 7.09156 65.0028 7.05513C65.0817 7.07554 65.1606 7.09595 65.2395 7.11636C65.7069 7.11255 66.1741 7.10847 66.6412 7.10413C66.2147 7.24581 66.7026 7.3338 67.1659 7.22358C67.3227 7.18621 67.185 7.09524 67.2373 7.08231C67.3092 7.06524 69.403 7.13295 69.5406 7.19161C69.64 7.16441 69.7393 7.1372 69.8386 7.10998C69.8882 7.16676 69.9378 7.22354 69.9873 7.28032C70.0422 7.26113 70.097 7.24194 70.1518 7.22275C70.6959 7.32716 72.1154 7.11112 72.3715 7.1308C72.5086 7.14137 72.3835 7.3806 73.041 7.36068C73.0643 7.29492 73.0875 7.22917 73.1108 7.16341C73.2613 7.155 73.4118 7.14656 73.5623 7.13809C73.8445 7.14582 74.2546 7.26252 74.2673 7.34071C74.3557 7.29436 74.4442 7.248 74.5326 7.20163C74.7689 7.35585 76.0299 7.3082 76.5396 7.2135C76.6883 7.26017 76.837 7.30683 76.9856 7.35345C77.1858 7.29823 77.386 7.24296 77.5861 7.18764C78.0492 7.1723 77.5597 7.26378 77.6584 7.27186C77.8673 7.28874 78.9311 7.13435 78.8606 7.32995C79.0056 7.33078 79.1506 7.33159 79.2956 7.33237C79.3702 7.27654 79.4449 7.2207 79.5195 7.16485C79.7679 7.35831 80.1987 7.29107 81.0807 7.36212C81.1547 7.31774 81.2288 7.27335 81.3028 7.22896C81.5754 7.29224 81.8479 7.35544 82.1207 7.41855C82.1769 7.34498 82.2331 7.27141 82.2892 7.19783C82.4083 7.18722 82.5272 7.17659 82.6462 7.16595C82.888 7.33063 83.3219 7.15217 83.5428 7.21986C83.865 7.31862 83.6162 7.43727 83.0177 7.46061C83.0628 7.58086 84.8447 7.52319 85.2547 7.51305C85.2275 7.48968 85.2003 7.46631 85.1731 7.44294C84.7535 7.46252 84.3336 7.4819 83.9135 7.50108C83.5611 7.19981 84.7019 7.27906 85.2246 7.23872C85.2723 7.23486 85.5431 7.11991 86.0698 7.12893C86.2738 7.13259 87.0695 7.29687 87.2212 7.3055C88.4466 7.3766 87.5436 7.1419 88.7475 7.34542C88.4958 7.18633 89.188 7.3162 89.9066 7.28086C90.0291 7.27494 91.0652 7.13823 91.135 7.13426C91.5711 7.11034 91.0972 7.25547 91.7281 7.21401C91.8037 7.17619 91.8792 7.13835 91.9548 7.10051C92.1016 7.09941 92.2484 7.09828 92.3952 7.09713C93.2888 7.42219 93.4929 7.1756 93.8099 7.14143C93.9383 7.1276 93.7737 7.21576 94.1067 7.19442C94.232 7.18646 94.3705 7.11311 94.7077 7.10482C95.7624 7.07883 96.1236 7.38363 97.088 7.05165C97.2371 7.09651 97.3861 7.14135 97.5351 7.18617C97.6347 7.12918 97.7342 7.07218 97.8337 7.01517C98.6015 7.16797 98.3229 7.00534 98.5995 7.00392C99.3263 7.00021 100.83 7.01138 100.963 7.14293C101.591 6.82723 102.351 7.16194 102.6 7.14612C102.747 7.10659 102.895 7.06703 103.042 7.02745C103.216 7.06215 103.39 7.09683 103.565 7.13147C103.475 6.83161 104.379 7.11322 104.465 7.11623C104.564 7.11925 105.948 7.00629 106.466 6.99834C106.982 6.99074 107.882 7.05531 107.96 7.05391C108.051 7.05219 108.926 6.95332 109.61 6.94012C110.202 6.9302 113.769 6.96711 113.539 6.83719C113.306 6.80541 112.974 6.78079 112.687 6.76981C111.788 6.73912 106.594 6.7757 105.25 6.77473C102.591 6.77822 99.7879 6.82632 97.1155 6.82721C96.9578 6.8273 96.9329 6.74948 96.7975 6.74923C96.5921 6.74929 96.0711 6.83306 95.8683 6.83345C95.1111 6.83465 94.1882 6.83052 93.7818 6.83211C92.8781 6.83614 92.258 6.79393 91.5733 6.79132C91.3591 6.79069 90.2757 6.89497 89.5311 6.85826C89.3961 6.83706 89.2611 6.81584 89.1261 6.7946C89.5095 6.76698 90.5142 6.69455 90.9801 6.68367C91.6737 6.66795 92.0355 6.72845 92.2913 6.72538C92.5063 6.72296 93.5963 6.64183 94.0981 6.63541C94.2534 6.63343 94.286 6.71503 94.4189 6.71351C95.14 6.70485 96.0883 6.6929 96.7112 6.60565C96.4571 6.63483 98.047 6.66694 98.1299 6.66542C98.2726 6.66367 98.4265 6.58517 98.7177 6.58153C99.2782 6.57448 99.206 6.73576 99.9083 6.5661C100.083 6.61048 100.258 6.65482 100.432 6.69913C100.441 6.48582 102.641 6.74452 103.26 6.47464C103.277 6.44574 100.424 6.40494 100.186 6.40316C98.771 6.39707 96.6917 6.47392 95.3176 6.44991C94.9053 6.44296 93.6027 6.32506 93.5071 6.32817C93.3498 6.33319 93.4926 6.40622 93.4246 6.40945C92.0334 6.47632 92.7264 6.32118 92.541 6.27957ZM154.018 5.62808C153.596 5.64151 153.175 5.65477 152.752 5.66788C152.78 5.61948 152.808 5.57108 152.836 5.52268C153.031 5.53085 153.225 5.53899 153.419 5.54709C153.566 5.51137 153.713 5.47563 153.859 5.43987C153.912 5.50261 153.965 5.56535 154.018 5.62808ZM155.053 5.37644C155.421 5.33307 155.445 5.43077 155.53 5.43102C155.785 5.43194 156.002 5.38014 156.248 5.36813C155.978 5.61804 155.367 5.54328 155.053 5.37644ZM147.468 5.67649C147.551 5.68376 148.114 5.90985 148.728 5.64442C149.196 5.69639 149.679 5.74738 150.154 5.79848C149.34 5.72487 148.249 5.89676 147.858 5.91098C147.709 5.91639 147.677 5.84025 147.559 5.84467C146.876 5.87122 146.218 6.07807 146.136 5.82462C146.787 5.86885 147.362 5.66774 147.468 5.67649ZM151.605 5.56352C151.717 5.61157 151.829 5.65962 151.942 5.70765C151.546 5.72791 151.15 5.74802 150.753 5.76798C150.858 5.70829 150.962 5.64859 151.067 5.58888C151.246 5.58046 151.426 5.572 151.605 5.56352ZM121.138 6.59666C121.382 6.59032 121.625 6.58391 121.869 6.57745C121.854 6.53872 121.576 6.54699 121.472 6.52353C121.473 6.52351 121.473 6.5235 121.474 6.52349C121.359 6.49693 121.406 6.44515 121.198 6.42888C121.178 6.48481 121.158 6.54073 121.138 6.59666ZM20.0771 5.35908C19.6679 5.33621 15.8942 5.12322 16.2061 5.28278C16.3643 5.36357 17.6615 5.37535 18.0408 5.39744C18.5533 5.42785 19.9311 5.65761 20.0771 5.35908ZM13.3911 4.94795C13.3165 5.08658 15.6753 5.25014 15.9083 5.23812C15.8604 5.21502 15.7875 5.16554 15.7227 5.1515C15.4068 5.08425 13.8968 5.01803 13.3911 4.94795ZM107.453 6.51174C107.645 6.58007 107.837 6.64836 108.029 6.7166C107.977 6.624 107.925 6.5314 107.873 6.4388C107.733 6.46313 107.593 6.48745 107.453 6.51174ZM88.973 6.83888C85.8014 6.85115 82.6201 6.85212 79.4524 6.84149C79.7316 6.80312 80.0107 6.76467 80.2897 6.72612C83.0186 6.74359 85.9433 6.77712 88.5798 6.7037C88.7109 6.74878 88.8419 6.79384 88.973 6.83888ZM146.555 5.29799C145.743 5.33489 145.066 5.43512 144.172 5.36633C145.014 5.22192 145.44 5.36635 146.252 5.172C146.252 5.17198 146.253 5.17196 146.253 5.17194C146.354 5.21396 146.455 5.25598 146.555 5.29799ZM128.41 6.00533C128.655 5.93151 128.901 5.85764 129.146 5.78371C128.849 5.79398 128.55 5.80417 128.252 5.81428C128.304 5.87796 128.357 5.94165 128.41 6.00533ZM61.2948 6.32736C60.4424 6.45683 58.2698 6.15928 57.5768 6.31718C57.5319 6.32757 57.9412 6.40807 57.2746 6.53544C57.7767 6.51655 58.1313 6.49387 58.1707 6.38422C58.3189 6.42446 58.4671 6.46467 58.6154 6.50485C58.8633 6.48112 59.1112 6.45731 59.359 6.43342C59.3302 6.54282 59.35 6.53737 59.7312 6.46884C59.904 6.49972 60.0767 6.53056 60.2495 6.56136C60.3237 6.51608 60.3978 6.47079 60.472 6.42549C60.6209 6.49313 60.7697 6.56075 60.9186 6.62833C61.5042 6.56736 61.1503 6.43535 61.2948 6.32736ZM64.2695 6.39913C64.1324 6.37448 60.1896 6.39181 61.9776 6.63912C62.4434 6.63946 62.909 6.63952 63.3746 6.63933C62.9945 6.27083 64.258 6.61371 64.362 6.62259C64.8604 6.66496 65.4981 6.58697 65.86 6.59598C66.1714 6.60384 66.3556 6.6712 66.5746 6.67216C67.3207 6.67566 68.4982 6.6859 68.6617 6.5373C68.0825 6.52818 67.4938 6.52007 66.891 6.51674C66.2534 6.51309 65.6948 6.36472 64.4936 6.54285C64.1981 6.51789 64.3051 6.40582 64.2695 6.39913ZM129.892 5.77293C129.868 5.92491 131.37 5.83541 131.377 5.77532C131.379 5.74031 130.89 5.75871 130.819 5.74795C130.819 5.74796 130.819 5.74798 130.818 5.748C130.789 5.74325 130.935 5.68027 130.704 5.67243C130.434 5.706 130.163 5.7395 129.892 5.77293ZM25.9687 5.32099C25.7697 5.22934 21.128 5.02559 20.9882 5.05617C20.9505 5.06544 21.0003 5.10526 20.9846 5.12589C22.0739 5.06417 23.6077 5.28396 24.6335 5.3436C24.9198 5.36021 24.8371 5.29608 24.8534 5.29575C24.8541 5.29578 24.8548 5.29581 24.8554 5.29585C25.0179 5.30374 25.7447 5.48571 25.9687 5.32099ZM56.088 6.35625C56.285 6.38392 56.482 6.41154 56.679 6.43911C56.7301 6.39341 56.7811 6.34772 56.8322 6.30202C56.8317 6.30201 56.8313 6.302 56.8308 6.30199C56.5832 6.32016 56.3357 6.33824 56.088 6.35625ZM49.2492 6.04147C49.2964 6.07561 49.3435 6.10974 49.3907 6.14387C49.8878 6.16152 50.3849 6.17885 50.882 6.19587C50.8314 6.21316 50.7809 6.23045 50.7303 6.24774C51.4809 6.31619 51.795 6.20813 52.195 6.23437C52.1946 6.23436 52.1941 6.23435 52.1937 6.23434C52.2367 6.2373 52.2872 6.30704 52.4474 6.31316C52.8147 6.32736 53.8685 6.37696 53.9973 6.31079C54.2701 6.17012 52.1476 6.19124 51.7528 6.17438C51.5743 6.16694 51.3609 6.10173 51.2523 6.09763C51.1333 6.09337 50.9691 6.17029 50.6791 6.16048C50.5943 6.15758 49.656 6.03829 49.2492 6.04147ZM40.4712 5.87348C40.622 5.95282 40.9446 5.89214 41.0617 5.9082C41.0897 5.912 40.8692 5.96665 41.1334 5.99415C41.2097 5.95438 41.286 5.9146 41.3623 5.87481C41.0654 5.87449 40.7684 5.87405 40.4712 5.87348ZM132.412 5.61101C132.369 5.59676 131.564 5.63197 131.526 5.6434C131.049 5.79615 132.715 5.72071 132.412 5.61101ZM152.775 4.55387C152.388 4.37854 156.81 4.33707 157.234 4.30128C157.22 4.42591 156.165 4.35936 156.724 4.4986C156.196 4.43439 154.745 4.56215 154.4 4.55319C154.19 4.54795 154.135 4.44397 154.103 4.44226C153.981 4.43678 152.91 4.61641 152.775 4.55387ZM160.875 4.17898C160.453 4.17998 160.032 4.18082 159.609 4.1815C160.105 4.13911 160.601 4.0965 161.095 4.05368C161.021 4.09545 160.948 4.13722 160.875 4.17898ZM161.399 4.09216C161.379 3.9735 162.804 3.98085 163.172 3.93084C162.766 4.15934 162.054 4.00924 161.399 4.09216ZM137.755 5.09445C137.1 5.04181 136.834 5.41787 137.621 5.22696C137.644 5.22073 137.782 5.09753 137.755 5.09445ZM61.101 5.81046C60.9894 5.80657 59.6023 5.6644 59.5208 5.72138C59.2632 5.90384 60.1763 5.84501 60.4806 5.9207C60.9715 6.04335 60.2452 6.1257 61.4493 6.07643C61.3995 6.11306 61.3497 6.14969 61.2999 6.18632C62.0037 6.21011 61.7774 5.94704 61.9042 5.91573C61.9431 5.90622 62.3827 5.93489 62.4623 5.91954C63.4571 5.72592 61.2047 5.8144 61.101 5.81046ZM121.546 5.63188C120.243 5.55939 120.808 5.70477 119.471 5.73211C119.429 5.81588 121.38 5.70924 121.546 5.63188ZM73.7965 6.10249C72.4482 6.12632 71.3378 6.00995 70.0784 6.14296C70.1576 6.36786 74.1473 6.16345 73.7965 6.10249ZM10.4856 3.75234C15.6921 4.48466 21.7541 4.68964 27.33 4.942C27.9385 4.96975 27.9929 5.06048 28.2136 5.06102C28.3582 5.06142 28.3362 4.98925 28.528 4.99765C35.4535 5.30046 42.0914 5.44153 48.7288 5.6632C49.1468 5.67776 51.1775 5.88264 51.6177 5.66265C51.9506 5.49621 50.4861 5.59625 50.2426 5.58819C50.0596 5.58237 50.0539 5.50011 49.9319 5.49667C49.8025 5.49303 49.908 5.55186 49.7577 5.5488C49.1208 5.53618 48.4265 5.49556 47.8506 5.48438C42.2018 5.37362 36.7121 5.16816 31.0968 4.91916C30.4175 4.88902 30.5601 4.82924 30.5259 4.82751C30.5254 4.82765 30.525 4.82779 30.5245 4.82793C26.8817 4.66368 22.7145 4.60786 18.8608 4.33829C16.1501 4.14349 13.4343 3.93695 10.7249 3.71872C10.6451 3.72993 10.5654 3.74114 10.4856 3.75234ZM63.9761 6.0864C63.6405 5.83354 63.5613 6.08292 62.3455 5.96316C62.2458 6.00394 62.1461 6.04471 62.0464 6.08546C62.6905 6.0863 63.3345 6.08662 63.9782 6.08643C63.9775 6.08642 63.9768 6.08641 63.9761 6.0864ZM55.9364 5.85595C55.738 5.51745 53.0096 5.6949 51.7859 5.60032C51.5571 5.76324 53.3407 5.7302 53.7609 5.75701C53.9705 5.77056 55.091 5.96854 55.9473 5.89036C55.9437 5.87889 55.94 5.86742 55.9364 5.85595ZM148.142 4.29338C147.946 4.31267 147.749 4.33192 147.552 4.35114C148.048 4.36452 148.542 4.37768 149.036 4.39061C148.25 4.40521 147.462 4.41924 146.671 4.4327C146.815 4.35632 146.959 4.27993 147.102 4.20351C147.449 4.23358 147.796 4.26353 148.142 4.29338ZM145.584 4.45048C146.968 4.35956 145.531 4.61316 145.18 4.54642C144.97 4.50645 145.442 4.4599 145.584 4.45048ZM141.979 4.49355C142.619 4.34357 143.914 4.27686 143.464 4.54101C142.766 4.45809 142.322 4.57281 141.309 4.55111C141.455 4.49805 141.6 4.44496 141.745 4.39186C141.746 4.39183 141.747 4.3918 141.748 4.39177C141.825 4.4257 141.902 4.45962 141.979 4.49355ZM146.21 4.2736C147.124 4.37103 144.493 4.44584 145.315 4.31531C145.354 4.30934 146.174 4.26998 146.21 4.2736ZM16.2887 3.85358C16.1749 3.92679 16.8722 3.96553 17.104 3.98402C18.1069 4.065 19.3944 4.1015 20.4387 4.1683C20.3615 4.13792 20.2842 4.10754 20.207 4.07714C18.8996 4.00519 17.5988 3.931 16.2887 3.85358ZM23.7081 4.3384C24.4251 4.37442 25.1426 4.40969 25.8604 4.44421C25.9272 4.44743 26.2443 4.3942 26.0118 4.36642C25.2435 4.35794 24.4756 4.3486 23.7081 4.3384ZM68.5212 5.66472C67.9709 5.61445 69.5591 5.40221 69.4853 5.64613C69.164 5.65245 68.8426 5.65865 68.5212 5.66472ZM73.6507 5.61036C73.305 5.63141 72.9592 5.65233 72.6133 5.6731C72.613 5.64494 72.6128 5.61678 72.6126 5.58862C72.9587 5.59601 73.3048 5.60326 73.6507 5.61036ZM13.4712 3.63012C13.8304 3.74859 14.7028 3.78617 15.2466 3.8201C14.8768 3.71547 13.9821 3.7028 13.4712 3.63012ZM60.2658 5.45213C60.3094 5.519 58.1164 5.46286 58.8779 5.36109C59.3406 5.39171 59.8032 5.42205 60.2658 5.45213ZM55.816 5.27033C56.2863 5.26578 56.6499 5.29563 56.5511 5.39679C56.302 5.38735 56.0529 5.37783 55.8037 5.36823C55.8078 5.3356 55.8119 5.30296 55.816 5.27033ZM139.512 4.40302C138.715 4.44581 137.927 4.48753 137.139 4.52859C137.167 4.49928 137.195 4.46997 137.224 4.44065C137.983 4.40087 138.743 4.36041 139.512 4.319C139.512 4.34701 139.512 4.37501 139.512 4.40302ZM13.04 3.35038C12.4963 3.33546 11.9541 3.32015 11.41 3.30425C11.9522 3.35738 12.4926 3.40991 13.0345 3.46206C13.0368 3.4247 13.0391 3.38734 13.0414 3.34997C13.0409 3.35011 13.0404 3.35024 13.04 3.35038ZM150.338 3.53945C147.902 3.529 150.997 3.23676 151.641 3.39631C151.642 3.39611 151.643 3.39591 151.643 3.39572C151.7 3.4099 151.586 3.4983 151.681 3.52678C151.433 3.50213 151.185 3.47741 150.937 3.45264C150.714 3.51033 150.491 3.56797 150.268 3.62557C150.193 3.61107 150.118 3.59657 150.043 3.58207C150.142 3.56787 150.24 3.55367 150.338 3.53945ZM160.084 2.94185C162.286 2.82935 160.042 3.1669 158.949 3.06533C158.952 3.02749 159.88 2.95227 160.084 2.94185ZM154.341 3.3041C153.995 3.3412 153.656 3.37783 153.313 3.41454C153.268 3.39326 153.222 3.37199 153.177 3.35072C153.44 3.31353 153.702 3.27629 153.964 3.23898C154.089 3.26072 154.213 3.28252 154.341 3.3041ZM142.971 3.49467C142.417 3.49332 141.723 3.78708 143.496 3.63881C143.494 3.61073 143.491 3.58264 143.489 3.55455C143.419 3.56223 143.212 3.59792 143.201 3.59633C143.168 3.59075 143.202 3.49511 142.971 3.49467ZM164.09 1.96187C164.152 1.94735 164.165 1.64917 164.838 1.91574C165.034 1.88495 165.23 1.85413 165.425 1.82327C165.48 1.88543 165.535 1.94758 165.59 2.00974C164.825 2.00625 164.751 2.1432 164.696 2.14943C164.443 2.17735 164.627 2.09788 164.463 2.10697C164.041 2.13058 163.099 2.2331 163.516 2.01324C163.667 1.93443 164.029 1.97632 164.09 1.96187ZM162.605 1.88198C162.699 1.90126 162.408 2.00559 162.479 2.02597C162.541 2.0438 163.457 2.07774 163.219 2.23901C163.07 2.24181 162.92 2.24459 162.77 2.24735C162.717 2.21024 162.663 2.17314 162.61 2.13603C162.468 2.18171 162.325 2.22737 162.182 2.27301C161.931 2.18849 161.403 2.0909 162.017 1.97366C161.79 1.99555 161.563 2.01739 161.335 2.03919C161.22 2.09355 161.105 2.14789 160.989 2.20223C161.047 2.12631 161.105 2.0504 161.162 1.97448C161.645 1.94385 162.126 1.91301 162.605 1.88198ZM169.652 1.46996C169.626 1.50914 169.601 1.54831 169.575 1.58749C170.414 1.46324 171.714 1.34993 170.989 1.6334C169.853 1.7284 168.72 1.8216 167.598 1.91256C167.521 1.88923 167.444 1.86589 167.367 1.84254C168.216 1.89728 167.927 1.45316 168.665 1.53843C168.789 1.55289 168.443 1.73709 169.208 1.58399C169.178 1.54828 169.148 1.51253 169.118 1.47679C169.294 1.47471 169.474 1.47226 169.652 1.46996ZM176.841 1.03495C175.409 1.08261 176.973 0.834508 177.243 0.928801C177.243 0.928832 177.242 0.928866 177.242 0.928898C177.985 1.18715 176.424 1.14858 176.328 1.15712C176.202 1.1688 175.924 1.41167 175.212 1.13643C175.757 1.10285 176.3 1.06902 176.841 1.03495ZM172.17 1.30338C172.289 1.28799 172.226 1.34883 172.278 1.34451C172.279 1.34447 172.279 1.34445 172.28 1.34441C173.04 1.28136 174.851 1.10545 175.068 1.27282C174.487 1.32944 171.978 1.54 171.812 1.42629C171.931 1.38533 172.051 1.34436 172.17 1.30338ZM166.793 1.78982C166.315 1.70159 167.372 1.61932 167.652 1.65619C167.704 1.66468 167.287 1.88122 166.793 1.78982ZM130.694 3.25532C129.661 3.36307 131.024 3.38558 130.557 3.51328C130.754 3.49681 130.951 3.48031 131.148 3.46377C130.997 3.39431 130.845 3.32483 130.694 3.25532ZM83.4616 3.90804C83.2198 3.89519 83.3344 3.96284 83.3134 3.96386C83.1546 3.96214 83.0047 3.90704 82.9438 3.91293C81.8164 4.02502 82.5662 4.08154 82.5776 4.09479C82.6015 4.16183 82.305 4.24045 82.7158 4.31688C82.9651 4.29297 83.2142 4.26899 83.4633 4.24494C83.587 4.28207 83.7107 4.31918 83.8344 4.35627C84.3291 4.27556 83.6815 4.25462 83.608 4.14858C83.5797 4.10691 84.045 4.05638 83.4616 3.90804ZM128.829 3.09587C128.664 3.21938 128.256 3.38197 128.666 3.48642C128.666 3.48641 128.667 3.48639 128.667 3.48637C128.743 3.50546 129.049 3.50687 129.143 3.534C129.806 3.35398 129.545 3.20089 128.829 3.09587ZM87.92 3.68444C88.3223 3.71013 88.7243 3.73563 89.1261 3.76096C89.1197 3.83163 89.1132 3.9023 89.1068 3.97297C88.8917 3.9551 88.6765 3.93717 88.4613 3.91918C88.386 3.95178 88.3107 3.98437 88.2354 4.01696C88.503 4.09625 88.7704 4.17546 89.0379 4.25459C89.3594 4.22471 89.6808 4.19471 90.002 4.1646C89.854 4.12823 89.7061 4.09184 89.5581 4.05541C90.3434 4.00963 90.1734 4.18241 90.8237 4.24382C91.0456 4.17691 91.2676 4.10994 91.4893 4.04291C91.8116 4.10635 92.1338 4.16967 92.4559 4.23288C92.9959 4.19784 93.0428 4.14731 92.6787 4.07533C92.9466 3.9875 93.2416 4.11978 93.5645 4.08205C93.5911 4.079 93.5402 3.99876 93.5638 3.99758C95.2414 3.92813 95.1543 4.14007 95.4223 4.14657C95.6115 4.15091 96.3643 3.99996 96.3755 3.95104C96.3891 3.88508 94.8194 3.64337 97.2733 3.60948C96.0037 3.445 94.56 3.64121 95.4969 3.89483C95.0952 3.87279 93.3188 3.95464 93.2088 3.94741C93.0444 3.93689 93.1012 3.83667 92.8954 3.83577C92.7737 3.83531 92.4535 4.0662 91.4881 3.87398C91.3652 3.9123 91.2423 3.9506 91.1194 3.98888C91.0037 3.95892 90.8879 3.92895 90.7722 3.89896C91.0093 3.78768 91.2463 3.67634 91.4832 3.56493C90.5426 3.69089 89.759 3.47162 89.1857 3.66347C88.6889 3.64421 88.4473 3.62362 88.6603 3.52611C88.5111 3.52686 88.3619 3.5276 88.2126 3.52831C88.1151 3.58036 88.0176 3.63241 87.92 3.68444ZM125.792 3.36532C125.297 3.27165 125.127 3.51335 125.204 3.5243C125.639 3.5841 126.05 3.41402 125.792 3.36532ZM84.3576 4.03219C84.9019 4.09206 85.446 4.1516 85.9897 4.2108C85.9895 4.1361 85.9893 4.06139 85.9891 3.98669C85.4456 4.00219 84.9017 4.01736 84.3576 4.03219ZM130.839 3.08206C130.891 3.13622 130.943 3.19039 130.995 3.24455C131.582 3.01885 132.182 3.29045 132.472 3.21906C132.535 3.20348 132.403 3.10944 132.281 3.09272C132.206 3.08239 130.944 3.05955 130.839 3.08206ZM155.618 1.99703C155.398 2.04661 155.178 2.09615 154.957 2.14565C154.966 2.08209 154.975 2.01853 154.984 1.95497C155.093 1.93737 155.202 1.91975 155.312 1.90212C155.414 1.93377 155.516 1.9654 155.618 1.99703ZM153.1 2.2312C152.706 2.24671 152.311 2.26209 151.916 2.27732C153.418 2.14197 152.182 2.17766 153.09 2.04835C153.093 2.1093 153.097 2.17025 153.1 2.2312ZM149.086 2.3071C149.133 2.26714 149.18 2.22718 149.227 2.18722C149.625 2.1676 150.022 2.14783 150.419 2.12792C150.162 2.01014 149.904 1.89231 149.646 1.77441C149.501 1.78132 149.355 1.7882 149.209 1.79506C149.168 1.96574 149.127 2.13642 149.086 2.3071ZM72.7709 3.59563C72.5317 3.59175 71.6979 3.69941 71.7332 3.74163C72.0789 3.79596 72.4245 3.85016 72.7701 3.90422C72.7722 3.82936 72.7743 3.75451 72.7764 3.67965C72.8251 3.71727 72.8737 3.75489 72.9223 3.7925C73.1192 3.76588 73.3161 3.73922 73.5129 3.71251C73.6116 3.77859 73.7103 3.84465 73.8089 3.9107C73.909 3.83662 74.009 3.76254 74.109 3.68844C73.1607 3.5501 73.1923 3.68243 72.9947 3.67972C72.8945 3.67839 72.8314 3.63159 72.7961 3.60802C72.7877 3.60389 72.7793 3.59976 72.7709 3.59563ZM84.7326 3.5549C83.5986 3.53861 82.9497 3.73615 82.1277 3.5715C82.6562 3.92361 86.0551 3.55538 87.2502 3.84209C87.3742 3.78527 87.498 3.72844 87.6219 3.6716C86.9713 3.72453 86.5195 3.61007 86.2018 3.59443C85.9494 3.58199 85.976 3.6409 85.9566 3.64012C85.9557 3.64012 85.9548 3.64012 85.9539 3.64012C85.3629 3.61764 85.1798 3.56125 84.7326 3.5549ZM131.669 2.77653C131.362 2.6987 130.831 2.72668 130.829 2.85667C131.127 2.88365 131.424 2.91054 131.721 2.93734C131.659 2.90632 131.722 2.78985 131.669 2.77653ZM148.61 1.96722C148.372 1.93655 147.815 2.00058 148.061 2.10095C148.106 2.11875 148.658 2.01296 148.341 2.23107C148.883 2.20156 148.745 1.98492 148.61 1.96722ZM104.108 3.63986C104.307 3.63282 104.507 3.62575 104.706 3.61863C104.752 3.56544 104.797 3.51225 104.843 3.45906C104.598 3.51939 104.353 3.57966 104.108 3.63986ZM134.235 2.59085C134.512 2.83694 134.958 2.57002 135.465 2.7612C135.649 2.75561 135.834 2.74998 136.018 2.74433C136.018 2.74431 136.019 2.74429 136.019 2.74427C136.021 2.67415 136.024 2.60402 136.026 2.53389C135.43 2.55322 134.833 2.5722 134.235 2.59085ZM91.6325 3.66199C91.7558 3.69365 91.8792 3.72528 92.0025 3.7569C92.2214 3.71732 92.4402 3.67768 92.6589 3.63799C92.5402 3.61177 92.4215 3.58553 92.3028 3.55928C92.0794 3.59357 91.856 3.62781 91.6325 3.66199ZM137.472 2.44123C136.829 2.43513 136.596 2.66762 137.417 2.63501C137.763 2.62096 138.145 2.44738 137.472 2.44123ZM60.4516 3.53028C60.6723 3.55309 60.8929 3.57584 61.1135 3.59852C61.1896 3.5529 61.2656 3.50726 61.3416 3.46162C61.045 3.48462 60.7483 3.50751 60.4516 3.53028ZM151.673 1.83952C151.649 1.88765 151.626 1.93579 151.602 1.98392C151.405 1.98455 151.207 1.98514 151.01 1.9857C151.057 1.9367 151.104 1.8877 151.151 1.8387C151.325 1.839 151.499 1.83927 151.673 1.83952ZM61.9377 3.58352C62.1142 3.59526 62.2906 3.60697 62.467 3.61863C62.586 3.59767 62.7049 3.5767 62.8239 3.55571C62.659 3.53059 62.4942 3.50545 62.3294 3.48026C62.1988 3.5147 62.0683 3.54912 61.9377 3.58352ZM143.576 2.20116C143.328 2.15602 142.35 2.37542 143.24 2.38053C143.806 2.38356 143.614 2.20805 143.576 2.20116ZM144.915 2.0839C143.962 2.0201 144.7 2.53224 145.812 2.12684C144.678 2.22812 144.971 2.08775 144.915 2.0839ZM153.2 1.3948C153.223 1.39385 153.247 1.47109 153.435 1.46409C154.109 1.43896 155.024 1.42102 155.513 1.39935C156.696 1.3484 160.26 1.00477 160.706 1.20485C160.796 1.24729 160.603 1.4011 160.639 1.40634C160.745 1.42068 161.343 1.31656 161.238 1.42765C160.647 1.46142 160.054 1.49489 159.46 1.52804C159.602 1.44593 159.743 1.36381 159.885 1.28166C158.408 1.40568 158.904 1.37249 158.49 1.55716C158.239 1.50887 157.988 1.46052 157.737 1.41212C157.2 1.5048 156.663 1.59722 156.124 1.68939C156.244 1.63603 156.364 1.58267 156.485 1.52929C155.663 1.48758 155.893 1.53178 155.451 1.66917C155.448 1.62257 155.444 1.57598 155.441 1.52939C154.656 1.68575 154.493 1.55404 154.32 1.5616C153.963 1.57772 153.551 2.15346 152.178 1.67375C151.624 1.96706 151.609 1.42899 151.289 1.71923C150.312 1.47061 152.148 1.4856 153.009 1.45024C153.009 1.45022 153.01 1.4502 153.01 1.45017C153.075 1.44762 152.969 1.40293 153.2 1.3948ZM148.275 1.91755C148.843 1.64713 146.551 1.73478 147.326 2.04836C147.439 2.05433 147.553 2.06029 147.666 2.06623C147.87 2.01669 148.073 1.9671 148.276 1.91748C148.275 1.91751 148.275 1.91753 148.275 1.91755ZM126.657 2.63476C124.535 2.80332 125.748 2.90389 126.463 2.74418C126.606 2.71245 126.683 2.6728 126.657 2.63476ZM83.1114 3.37081C83.0802 3.39997 83.0491 3.42913 83.0179 3.45829C83.7341 3.43067 85.1172 3.54014 85.0976 3.34363C84.4361 3.35319 83.774 3.36225 83.1114 3.37081ZM88.766 3.22528C88.6122 3.21427 87.9834 3.1893 88.0596 3.26243C88.3323 3.31325 88.605 3.36398 88.8776 3.41463C89.0043 3.38142 89.1309 3.34819 89.2575 3.31493C89.0804 3.30485 88.8076 3.22817 88.766 3.22528Z" fill="var(--stroke-0, #0061FE)"/>
</svg>
