<svg preserveAspectRatio="none" width="100%" height="100%" overflow="visible" style="display: block;" viewBox="0 0 8 8" fill="none" xmlns="http://www.w3.org/2000/svg">
<g id="Chevron Down">
<path id="Vector" d="M3.47486 5.99855C3.60901 6.08276 3.65025 6.17255 3.59857 6.26793C3.55003 6.35612 3.50513 6.35513 3.46389 6.26493C3.21646 5.72559 2.95101 5.20779 2.72941 4.6427C2.5206 4.10874 2.28596 3.58137 2.02547 3.06058C2.01555 3.04142 1.9978 3.02925 1.97222 3.02406C1.84485 2.99692 1.72765 3.00331 1.62064 3.04321C1.60763 3.04808 1.5932 3.0503 1.57874 3.04963C1.56428 3.04896 1.5503 3.04544 1.53815 3.03941C1.52601 3.03338 1.51611 3.02505 1.50944 3.01522C1.50276 3.0054 1.49953 2.99442 1.50006 2.98335C1.50632 2.86922 1.50815 2.75109 1.50554 2.62898C1.5024 2.51045 1.54547 2.41826 1.58071 2.30573C1.58645 2.28657 1.60107 2.273 1.62456 2.26502C1.75141 2.22152 1.88348 2.20217 2.02077 2.20696C2.23532 2.21414 2.35982 2.21674 2.39427 2.21474C3.20862 2.16446 4.03942 2.18062 4.85925 2.13273C4.96888 2.12635 5.06545 2.09941 5.14897 2.05192C5.24763 1.99565 5.30636 1.98487 5.41442 2.02079C5.62323 2.08943 5.83491 2.15268 6.04946 2.21055C6.07556 2.21733 6.09644 2.2295 6.1121 2.24706C6.17631 2.3185 6.24391 2.39312 6.3149 2.47094C6.35667 2.51604 6.41356 2.52821 6.4856 2.50746C6.52475 2.49628 6.55295 2.50526 6.57017 2.5344C6.63125 2.63656 6.63751 2.73314 6.58896 2.82412C6.37441 3.2236 6.16169 3.56441 5.9508 3.84655C5.53422 4.40326 5.0952 4.96675 4.63374 5.53703C4.54447 5.64717 4.4466 5.70104 4.32601 5.78605C4.225 5.85728 4.17645 5.95545 4.0958 6.04165C4.08066 6.05762 4.07283 6.07518 4.07231 6.09433C4.07178 6.12067 4.06161 6.14282 4.04177 6.16078C4.02402 6.17634 4.00235 6.18073 3.97678 6.17394C3.85097 6.14002 3.74239 6.08795 3.65104 6.01771C3.63381 6.00454 3.61319 5.99616 3.58918 5.99257L3.48738 5.9782C3.44771 5.97222 3.44353 5.979 3.47486 5.99855ZM4.75981 3.88845C4.76058 3.8872 4.76094 3.88583 4.76086 3.88445C4.76077 3.88307 4.76024 3.88173 4.75931 3.88054C4.75838 3.87936 4.75708 3.87836 4.75553 3.87765C4.75397 3.87695 4.75222 3.87655 4.75041 3.87648L4.73005 3.87588C4.71126 3.87508 4.6956 3.87987 4.68307 3.89025L4.15844 4.30688C4.1458 4.31688 4.13718 4.32946 4.13357 4.34313C4.12996 4.35681 4.13153 4.37102 4.13808 4.3841C4.15792 4.42321 4.19942 4.43758 4.26258 4.4272C4.34611 4.41403 4.41867 4.36534 4.48027 4.28114C4.56901 4.16102 4.66219 4.03012 4.75981 3.88845ZM3.87951 3.84824C3.8657 3.84208 3.83606 3.85762 3.79711 3.89144C3.75816 3.92527 3.71308 3.97461 3.6718 4.02862C3.65136 4.05536 3.63247 4.08244 3.6162 4.10832C3.59993 4.13419 3.5866 4.15835 3.57698 4.17942C3.56736 4.20049 3.56164 4.21806 3.56013 4.23111C3.55863 4.24416 3.56137 4.25246 3.56821 4.25551C3.58202 4.26167 3.61166 4.24613 3.65061 4.21231C3.68956 4.17848 3.73463 4.12913 3.77591 4.07513C3.79636 4.04839 3.81525 4.02131 3.83152 3.99543C3.84779 3.96955 3.86111 3.94539 3.87073 3.92432C3.88035 3.90325 3.88608 3.88569 3.88759 3.87263C3.88909 3.85958 3.88635 3.85129 3.87951 3.84824Z" fill="var(--fill-0, #0061FE)"/>
</g>
</svg>
