<svg xmlns="http://www.w3.org/2000/svg" viewBox="0 0 112 112" role="img" aria-label="Bankrate">
  <rect width="112" height="112" rx="16" fill="#0061fe"/>
  <g transform="translate(20.009 19.998)">
    <path d="M0.00103191 14.5507C0.00103262 6.51485 6.51541 0.00047935 14.5513 0.000480052C22.5872 0.000480755 29.1016 6.51486 29.1016 14.5507C29.1016 22.5866 22.5872 29.101 14.5513 29.101C6.51541 29.101 0.00103121 22.5866 0.00103191 14.5507Z" fill="white"/>
    <path d="M43.4503 58.3728C43.4503 50.3369 49.9646 43.8226 58.0005 43.8226C66.0364 43.8226 72.5508 50.3369 72.5508 58.3728C72.5508 66.4087 66.0364 72.9231 58.0005 72.9231C49.9646 72.9231 43.4503 66.4087 43.4503 58.3728Z" fill="white"/>
    <path d="M72.548 24.9067C72.548 31.2871 67.3757 36.4595 60.9953 36.4595V36.4616C60.9137 36.4616 60.8323 36.4601 60.7509 36.4595L36.3359 36.4685L41.0539 18.861C43.66 9.13605 46.8947 0.000876045 59.9953 0H72.548V24.9067Z" fill="white"/>
    <path d="M11.8593 36.4647L36.3334 36.4736L31.6158 54.0801L31.4868 54.533C28.6691 63.8146 25.7793 72.6715 13.1647 72.9179L12.5528 72.9231H0V48.0175C0 41.6371 5.17235 36.4647 11.5528 36.4647V36.4615C11.6551 36.4616 11.7573 36.4637 11.8593 36.4647Z" fill="white"/>
  </g>
</svg>
