<svg preserveAspectRatio="none" width="100%" height="100%" overflow="visible" style="display: block;" viewBox="0 0 168.166 9.92103" fill="none" xmlns="http://www.w3.org/2000/svg">
<g id="Group 44157">
<path id="Vector 45" d="M164.149 8.54907C160.619 8.90368 158.277 8.09677 155.038 7.79511C147.911 7.12624 138.469 6.91618 131.154 6.70226C125.617 6.53343 119.99 6.39157 114.478 6.31466C114.196 6.31078 114.028 6.24253 113.9 6.24079C112.697 6.22399 110.67 6.2759 109.473 6.26536C106.961 6.23969 102.575 6.26625 100.27 6.22518C99.2882 6.20672 98.2838 6.20615 97.9016 6.05072C97.5438 6.04652 97.3504 6.19306 97.2571 6.20198C97.2561 6.20185 97.255 6.20172 97.2539 6.20159C96.9536 6.22936 96.1939 6.13764 96.0268 6.14617C96.0017 6.14749 96.1576 6.24992 95.7505 6.2237C95.7142 6.22148 95.7467 6.14995 95.4032 6.15358C95.3135 6.1544 94.1669 6.27962 93.8395 6.29146C92.7475 6.32891 90.1522 6.2889 88.843 6.3178C88.6434 6.32185 88.5294 6.36576 88.3189 6.37087C88.2101 6.37356 88.0461 6.33188 88.0127 6.33284C87.866 6.33748 87.2303 6.55612 87.4513 6.14698C86.7835 6.18717 86.9835 6.31657 86.9702 6.40366C86.2455 6.43227 85.8922 6.25018 85.7078 6.4563C82.1335 6.51541 78.5622 6.59307 74.9977 6.68732C74.9977 6.72024 74.9978 6.75315 74.9978 6.78606C73.9417 6.68988 73.5855 6.9248 72.978 6.75503C72.6088 6.81001 72.2397 6.86516 71.871 6.92047C62.3564 7.1332 52.8565 7.74628 43.4544 8.27716C43.0564 8.29968 42.9528 8.23538 42.2971 8.27232C41.5731 8.31317 40.5613 8.45309 39.6109 8.50787C38.7799 8.55579 37.5338 8.56343 36.6025 8.60917C36.392 8.61962 36.2426 8.67306 36.2189 8.67424C36.0795 8.68092 36.0683 8.61129 35.9332 8.61747C35.7716 8.62503 35.5797 8.68875 35.3931 8.69688C34.6955 8.72766 33.9404 8.79204 33.8498 8.79641C33.4225 8.81605 33.3242 8.75339 33.289 8.75479C32.814 8.77577 32.9958 8.82662 32.8774 8.83034C32.2636 8.84939 31.821 8.72196 30.9934 8.92265C31.0126 8.86394 31.0318 8.80523 31.051 8.74652C30.4087 8.75453 30.8412 8.88015 30.7121 8.91594C30.6591 8.92943 29.2815 8.99789 29.1757 9.002C28.8037 9.01579 28.7886 8.94035 28.7565 8.94136C28.6779 8.94387 27.7488 9.08998 27.2663 9.05437C26.6953 9.01208 27.3515 8.81436 27.2091 8.79433C27.185 8.79092 26.5937 8.84499 26.5112 8.80167C26.42 8.7552 26.9322 8.72324 26.9229 8.70188C26.9162 8.68721 26.0593 8.63467 26.2176 8.5518C26.3436 8.47072 27.5036 8.48934 27.7465 8.43957C27.7866 8.43133 27.7046 8.34667 27.7401 8.34109C27.885 8.31933 30.5415 8.14781 30.6629 8.15534C30.5273 8.20483 30.3917 8.25433 30.2561 8.30384C30.44 8.29637 30.6241 8.28891 30.8082 8.28148C30.5488 8.3306 30.2897 8.37976 30.0307 8.42895C30.4396 8.74023 31.5884 8.32631 31.6264 8.15569C31.6425 8.07685 30.9141 7.92221 31.5731 7.76435C31.4705 7.75078 31.3679 7.73723 31.2654 7.72367C31.0587 7.76944 30.8522 7.81523 30.6457 7.86105C30.7859 7.87292 30.9261 7.8848 31.0663 7.89668C31.0167 7.9232 30.967 7.94973 30.9173 7.97625C30.5297 8.03813 30.1425 8.10008 29.7556 8.1621C29.5544 8.15755 29.5917 8.0861 29.4533 8.08152C27.7221 8.02342 28.8574 8.16519 27.7277 8.2066C27.5642 8.17998 27.4009 8.15338 27.2375 8.12678C27.3041 8.27595 26.7985 8.21209 26.1999 8.31705C26.2687 8.26293 26.3375 8.20881 26.4064 8.1547C25.5337 8.23739 23.7518 8.10361 24.2462 8.34533C24.0445 8.33512 23.8414 8.32502 23.6392 8.3149C23.4725 8.37065 23.3059 8.42642 23.1394 8.4822C22.9048 8.4925 22.6703 8.50282 22.436 8.51317C22.4333 8.48908 22.4307 8.46499 22.428 8.44091C22.6146 8.42844 22.8013 8.41598 22.988 8.40354C22.843 8.33916 22.698 8.27479 22.5531 8.21043C22.4161 8.23175 22.2792 8.25307 22.1424 8.27439C22.7245 8.30583 21.9706 8.46987 21.7929 8.57927C21.3089 8.64742 20.9902 8.54194 20.8269 8.5471C20.75 8.54947 19.8637 8.83214 20.2007 8.56401C19.7389 8.62467 19.2788 8.68531 18.8134 8.7464C18.6299 8.73988 18.4464 8.73338 18.2631 8.72688C18.6506 8.58637 17.4961 8.52623 18.3366 8.42219C18.9643 8.34438 19.1282 8.4404 19.4259 8.41971C19.6939 8.40124 19.8309 8.32002 20.1226 8.29732C22.082 8.14628 23.7036 8.0526 25.5646 7.96351C25.9338 7.94593 26.2673 7.88902 26.5157 7.87792C26.7961 7.8655 26.451 7.97814 26.8065 7.93321C27.1799 7.88589 27.2564 7.80725 27.3554 7.7994C27.417 7.7946 27.6166 7.84811 27.7966 7.83657C28.537 7.78902 29.6152 7.65646 29.7187 7.65031C29.8361 7.64338 31.9258 7.57195 32.0273 7.57675C32.0807 7.57936 31.9857 7.83018 32.4302 7.5414C32.5737 7.52764 32.7171 7.51388 32.8607 7.50014C32.8404 7.55034 32.8201 7.60053 32.7998 7.65073C33.6403 7.4132 33.3553 7.53458 34.1742 7.46968C36.1256 7.31456 39.0381 7.18168 41.176 7.04136C41.6551 7.00976 41.8344 6.94086 42.4022 6.90422C42.9293 6.87028 44.32 6.96687 44.0056 6.74245C45.1863 6.88597 45.3551 6.51536 45.954 6.70781C46.0232 6.6712 46.0924 6.6346 46.1616 6.598C46.8065 6.70345 46.9965 6.56938 47.6925 6.51477C47.9925 6.49122 47.6541 6.65908 48.2518 6.46033C48.3684 6.46649 48.485 6.47267 48.6016 6.47886C48.5766 6.51642 48.5516 6.55397 48.5265 6.59154C49.2 6.52601 49.2414 6.54281 49.1584 6.41162C49.4832 6.41908 49.8082 6.42664 50.1335 6.43428C50.1714 6.3878 50.2093 6.34133 50.2473 6.29485C50.0937 6.21405 42.7279 6.74398 41.7004 6.84811C40.4908 6.81644 38.0853 7.08393 37.1079 7.11891C36.718 7.13265 36.54 7.04265 35.9734 7.06477C35.407 7.08689 34.7019 7.22134 34.4018 7.243C33.3969 7.31468 28.6383 7.59329 31.8652 7.26581C31.769 7.22273 31.6729 7.17964 31.5769 7.13656C30.3022 7.38393 30.7609 7.25202 29.6954 7.30204C29.2491 7.32284 28.1843 7.5004 28.2301 7.27455C29.0663 7.17957 29.9502 7.19482 30.6751 7.14602C30.7468 7.14113 31.5984 6.98589 32.0425 6.98593C32.4432 6.98626 32.1812 7.21498 33.0355 6.92343C33.6955 7.11572 34.0566 6.88215 34.2239 6.8494C34.5147 6.79261 34.5539 6.90526 34.8479 6.9007C35.1683 6.89596 35.3839 6.80652 35.4275 6.80337C35.8648 6.77472 38.1537 6.62724 38.2625 6.66749C38.1714 6.69328 38.0805 6.71908 37.9895 6.74489C38.5868 6.74226 38.4556 6.63248 38.6114 6.60917C38.728 6.60271 38.8451 6.59622 38.9612 6.58981C38.9168 6.61682 38.8718 6.64387 38.827 6.6709C39.5274 6.6245 38.9861 6.57145 39.9799 6.51552C40.611 6.48015 41.2694 6.5353 41.3304 6.5249C41.3484 6.52189 41.1458 6.47079 41.403 6.44754C41.8289 6.40914 42.5678 6.36858 42.6553 6.44903C42.864 6.42508 42.8415 6.34279 42.8692 6.33931C42.9921 6.32388 45.0768 6.17845 45.4494 6.15327C46.4837 6.08252 47.6395 6.03753 48.7654 5.96357C48.8812 5.95601 48.8101 6.0134 48.9262 6.00551C49.1113 5.99286 50.0579 5.85884 50.2001 5.84554C50.5541 5.81239 51.4909 5.79734 51.637 5.76553C51.6578 5.76101 51.3461 5.70455 51.705 5.66365C52.1035 5.61837 51.8933 5.72661 51.915 5.72647C52.7307 5.71811 53.242 5.62471 53.7983 5.58384C53.9795 5.5706 54.3133 5.62737 54.5657 5.59325C54.5947 5.58936 54.5336 5.5246 54.5621 5.51986C54.9431 5.4655 55.3076 5.57348 55.4738 5.57353C55.8806 5.57366 55.6551 5.4918 55.6762 5.49011C55.9464 5.47402 56.3121 5.48983 56.7235 5.46572C58.5608 5.35828 60.0556 5.28372 62.0065 5.204C62.2516 5.19396 62.5456 5.24662 62.5831 5.24508C62.6991 5.23956 62.6626 5.16419 62.9981 5.15141C63.7056 5.12484 64.3631 5.09328 65.0593 5.06583C65.1998 5.0603 65.2627 5.12897 65.3698 5.12608C65.729 5.11551 66.9488 4.87958 66.9785 5.11071C67.6851 4.87693 68.1676 5.03522 68.7438 5.011C70.1091 4.95353 72.2323 4.83407 73.5962 4.81412C73.8829 4.80997 74.0195 4.86481 74.179 4.86259C74.4685 4.85835 76.0913 4.77169 76.178 4.77855C76.3459 4.79122 76.2536 5.05585 77.1073 4.80075C77.6117 4.76873 77.5555 4.87805 77.6601 4.88059C78.4755 4.89855 79.2622 4.63562 79.1203 4.85959C80.0705 4.77189 80.6759 4.6336 81.0685 4.82818C81.0607 4.72812 81.5039 4.65561 82.0418 4.67941C81.4969 4.86267 81.5672 4.96788 80.2397 4.97457C80.2188 4.97468 80.2566 4.90107 80.2357 4.90118C80.0467 4.90165 79.651 4.94965 79.3262 4.95526C79.0016 4.96086 79.1803 4.90602 79.0505 4.91081C78.9316 4.91532 78.9377 4.98454 78.7657 4.99065C78.2079 5.01001 77.7155 5.0443 77.3987 5.05539C77.1992 5.06231 76.9739 5.00839 76.8191 5.01329C76.2194 5.03259 74.9588 5.12134 74.1936 5.14081C74.0344 5.14467 74.0989 5.07401 73.7506 5.08027C73.7099 5.08101 73.5641 5.15735 73.2601 5.18271C72.956 5.20807 72.7187 5.18099 72.5235 5.19528C72.3604 5.20723 72.4309 5.2681 72.0962 5.28401C71.8156 5.29616 68.6609 5.36832 68.4843 5.36607C68.2363 5.36111 68.1153 5.2768 67.9648 5.29355C67.9384 5.29692 67.8968 5.38455 67.805 5.39432C66.2923 5.55438 62.9363 5.57744 61.2033 5.65649C57.5888 5.81901 54.251 6.03164 50.5996 6.24139C50.5354 6.25971 50.4711 6.27803 50.4069 6.29635C50.7754 6.2777 51.1441 6.25917 51.5131 6.24076C51.5175 6.28103 51.5219 6.3213 51.5264 6.36157C52.0255 6.34235 51.9547 6.25025 51.9376 6.19332C52.1236 6.20833 52.3096 6.22338 52.4957 6.23845C52.6467 6.08955 53.8898 6.12076 54.5204 6.08954C54.932 6.06919 55.4198 5.99157 55.6375 5.98518C56.0973 5.97148 56.0896 6.05899 56.1257 6.05862C56.1871 6.05761 56.8252 5.95009 57.289 5.93109C57.9748 5.90289 58.0549 6.03269 58.9897 5.87583C60.1917 5.88962 61.5178 5.79517 62.8142 5.72769C62.5726 5.86166 63.7295 5.69471 64.2548 5.67464C67.4399 5.5516 71.3658 5.45452 74.6086 5.39526C75.0238 5.38749 75.339 5.44987 75.5701 5.43989C75.6954 5.43456 75.7473 5.34709 75.9218 5.35278C75.9525 5.35397 75.9763 5.43337 76.3009 5.43502C77.1079 5.43894 79.1186 5.2441 79.6344 5.3835C82.3877 5.27967 85.1606 5.18584 87.9156 5.10376C87.9857 5.13504 88.0558 5.16632 88.1259 5.19761C88.646 5.01879 90.7302 5.07622 91.7363 5.05152C93.5114 5.00622 95.795 4.92177 97.3475 4.89864C97.6861 4.89352 97.9643 4.93795 98.285 4.9336C98.4231 4.93165 98.5941 4.86832 98.7379 4.86656C100.354 4.84523 102.536 4.89303 104.162 4.88523C107.858 4.86706 111.334 4.88272 115.068 4.91074C127.665 5.00595 140.187 5.30172 152.653 6.0499C152.82 6.05993 152.807 6.13013 152.937 6.13806C153.7 6.18489 155.412 6.22859 156.277 6.28618C156.966 6.33128 158.046 6.50919 158.29 6.41602C155.867 6.09282 153.269 5.94969 150.735 5.76586C150.553 5.75276 150.534 5.68436 150.512 5.68192C150.1 5.63633 150.356 5.74277 149.757 5.71509C149.557 5.70523 147.721 5.39587 147.93 5.62098C147.492 5.51148 144.384 5.32004 143.777 5.32303C143.594 5.32347 143.72 5.39255 143.684 5.39413C143.526 5.40108 143.458 5.31065 143.318 5.30217C142.942 5.27997 141.985 5.30983 141.804 5.30186C141.387 5.28326 140.143 5.16126 139.592 5.15675C139.085 5.15228 139.177 5.24715 138.739 5.23881C138.394 5.23216 138.772 5.16944 138.004 5.11757C137.623 5.09177 136.289 5.09916 135.966 5.08836C135.643 5.07725 135.285 5.01049 134.839 5.00001C134.2 4.98457 132.795 4.97116 132.14 4.96974C132.101 4.96958 132.004 5.03774 131.907 5.03346C131.708 5.02469 131.77 4.93879 131.62 4.92556C131.469 4.91128 128.863 4.85167 128.421 4.84098C128.114 4.83293 127.902 4.88008 127.733 4.87559C127.6 4.87194 127.587 4.7986 127.452 4.7946C127.41 4.79361 127.052 4.84867 126.696 4.83919C126.359 4.82984 125.084 4.74248 124.937 4.73916C124.84 4.73697 124.945 4.79096 124.66 4.78403C124.401 4.77759 124.232 4.70693 124.085 4.7031C123.742 4.69431 123.359 4.74464 122.996 4.73842C121.946 4.72064 122.002 4.63862 121.939 4.63474C121.765 4.62432 121.694 4.69963 121.636 4.70028C121.395 4.70271 120.802 4.70762 120.587 4.70743C120.319 4.70714 120.207 4.63282 119.922 4.62853C119.71 4.62558 119.281 4.69046 118.797 4.68774C117.71 4.68187 116.407 4.68135 115.335 4.66948C115.015 4.66599 114.967 4.59932 114.869 4.59679C114.356 4.58355 114.068 4.65574 113.922 4.65373C112.879 4.63931 111.014 4.51435 110.042 4.50254C109.646 4.49725 107.917 4.5486 106.944 4.54049C106.833 4.53961 106.937 4.48749 106.813 4.49577C106.517 4.51566 106.544 4.62153 106.393 4.61856C106.32 4.61681 106.153 4.5574 105.941 4.55192C104.84 4.52353 104.085 4.57336 103.584 4.57251C98.7739 4.56421 93.8589 4.60087 89.3676 4.68051C88.8655 4.68943 88.2447 4.76502 87.4871 4.7202C87.4631 4.68781 87.4391 4.65543 87.4151 4.62304C87.3894 4.65593 87.3636 4.68883 87.3378 4.72172C86.4818 4.75797 86.1595 4.8069 85.2858 4.78631C85.211 4.78463 84.9765 4.64001 84.8382 4.82994C83.966 4.71603 84.446 4.84052 83.8017 4.86917C83.1577 4.89794 82.5312 4.87262 81.9075 4.88004C81.5638 4.82233 82.9943 4.63005 83.0883 4.62836C83.2391 4.62506 83.3982 4.71376 83.5436 4.715C83.9743 4.7188 84.3891 4.63499 84.4877 4.71538C85.0424 4.61431 84.3503 4.67492 84.4179 4.59444C84.7901 4.61792 85.164 4.64156 85.5336 4.66551C85.7151 4.39253 87.7696 4.69655 87.6232 4.49591C87.7871 4.53328 87.9509 4.57069 88.1148 4.60813C88.8245 4.33719 89.2492 4.50887 90.2064 4.56689C90.1368 4.53545 90.0672 4.50401 89.9976 4.47257C90.0174 4.45844 90.8583 4.39039 90.5601 4.53549C91.4171 4.33593 91.3863 4.64238 92.1547 4.40811C92.6132 4.3721 92.3391 4.5049 93.1613 4.48946C93.6485 4.48047 94.2529 4.40419 94.7985 4.39178C94.9242 4.38914 94.9798 4.46271 95.0917 4.46116C95.2035 4.45958 95.2571 4.38593 95.3926 4.38226C95.673 4.37449 96.0351 4.42096 96.209 4.41383C96.3649 4.40764 96.5871 4.34052 96.9633 4.32592C98.2776 4.27491 97.8818 4.37162 98.0898 4.40032C98.3134 4.43098 98.4726 4.30826 98.9183 4.31788C98.963 4.31892 98.8482 4.39544 98.9934 4.39106C99.1107 4.38761 99.1687 4.30504 99.557 4.28617C99.712 4.27783 102.113 4.24164 102.475 4.23883C103.034 4.23304 104.282 4.29652 104.862 4.29429C105.086 4.29353 105.324 4.22702 105.562 4.22684C106.352 4.22613 107.606 4.23022 108.603 4.23441C109.5 4.23775 111.077 4.38772 111.571 4.25902C112.833 4.24761 113.135 4.36226 113.23 4.36422C113.487 4.37001 113.606 4.29654 113.93 4.29533C118.134 4.27862 123.647 4.41266 127.624 4.50377C136.843 4.70737 146.098 5.04716 155.332 5.63905C155.359 5.60772 155.385 5.57639 155.412 5.54506C154.32 5.45718 153.041 5.32517 151.966 5.25194C150.534 5.15366 148.382 5.17848 147.341 4.90231C147.769 4.90375 148.463 5.02541 148.456 4.90934C147.691 4.86191 146.926 4.81574 146.162 4.7708C146.183 4.82524 146.203 4.87968 146.223 4.93412C145.426 4.91133 144.606 4.86157 143.803 4.83323C143.663 4.82824 143.76 4.88109 143.638 4.87592C143.502 4.87004 143.597 4.82485 143.571 4.82332C143.228 4.80756 143.122 4.85295 143.08 4.85038C142.973 4.84372 143.058 4.79986 142.749 4.77308C142.175 4.7233 141.759 4.83227 141.903 4.62781C141.717 4.61998 141.532 4.61222 141.347 4.60453C141.296 4.65974 141.246 4.71495 141.196 4.77017C140.066 4.49236 139.525 4.87737 138.905 4.53156C138.694 4.57269 138.484 4.61391 138.274 4.65522C138.159 4.59362 138.044 4.53204 137.928 4.4705C137.904 4.51875 137.879 4.56701 137.854 4.61526C136.734 4.53767 135.54 4.55546 134.471 4.5152C133.727 4.48727 133.545 4.46223 132.883 4.4457C131.41 4.41009 132.875 4.35591 131.655 4.21491C131.717 4.27696 131.778 4.33901 131.84 4.40108C131.637 4.41726 131.434 4.43353 131.231 4.44988C131.091 4.39679 130.952 4.34374 130.812 4.29072C130.18 4.52817 129.782 4.31202 129.697 4.30977C129.628 4.30846 129.388 4.45537 128.653 4.30698C128.955 4.52428 128.088 4.2942 128.018 4.29139C127.951 4.28883 127.1 4.31553 126.755 4.30593C126.484 4.29828 125.907 4.24044 125.504 4.23423C125.147 4.22875 125.182 4.30075 125.156 4.30094C124.718 4.29792 124.994 4.24818 124.677 4.2391C124.36 4.23007 124.114 4.28604 124.046 4.2793C124.011 4.27576 124.128 4.21164 123.97 4.20223C123.548 4.17662 122.784 4.22084 122.297 4.21091C122.125 4.20744 121.91 4.14756 121.718 4.14271C121.424 4.13548 121.286 4.20806 121.116 4.20318C121.056 4.20129 120.679 4.07992 120.209 4.09086C120.12 4.09312 119.853 4.3336 119.509 3.98275C119.482 4.03108 119.454 4.07942 119.427 4.12776C117.85 4.22744 117.419 3.8279 116.711 4.1715C115.565 4.12087 116.353 3.99193 116.228 3.96971C116.146 3.95565 115.772 3.98975 115.731 3.98726C115.659 3.9824 115.671 3.93861 115.592 3.93814C114.131 3.93381 114.779 4.0224 114.316 4.07125C113.217 4.18843 112.363 3.90545 114.272 4.00171C114.272 3.97722 114.272 3.95272 114.273 3.92823C113.802 3.94791 112.609 3.92973 113.008 3.80789C113.321 3.71074 116.157 3.79714 114.552 3.64707C114.187 3.61324 113.998 3.70367 113.368 3.52726C112.951 3.51533 112.89 3.7382 112.326 3.64562C112.418 3.724 112.511 3.80238 112.603 3.88078C111.836 3.97806 110.878 3.83818 110.286 3.88027C110.085 3.8945 109.359 4.26442 109.529 3.89346C109.19 3.91558 107.598 3.84626 107.303 3.88011C107.231 3.8883 107.142 4.08556 106.109 4.01838C106.037 3.99375 105.965 3.96912 105.894 3.9445C106.838 3.87051 105.17 3.80092 105.622 3.61232C105.776 3.69617 106.526 3.74616 106.646 3.78849C106.851 3.86122 106.241 3.95601 107.019 3.92947C107.509 3.61538 106.106 3.76133 106.319 3.46344C105.293 3.6044 105.191 3.47257 104.959 3.4677C103.967 3.44862 103.344 3.48316 102.41 3.45396C102.183 3.51622 103.874 3.59523 104.084 3.56838C103.313 3.78852 104.641 3.79232 105.202 3.66219C105.249 3.72756 105.296 3.79293 105.343 3.8583C104.613 3.82487 103.901 3.80951 103.18 3.86702C103.133 3.84277 103.085 3.81853 103.038 3.79429C103.2 3.75653 103.362 3.71882 103.524 3.68115C102.923 3.6238 103.284 3.81281 102.483 3.65004C102.459 3.72396 102.435 3.79788 102.411 3.87179C101.645 3.85195 100.878 3.83306 100.108 3.81516C99.7089 3.96616 98.2315 3.92575 98.5001 3.73162C97.9039 3.72433 98.6407 3.81851 98.0828 3.87102C97.84 3.89381 97.3655 3.90486 97.2478 3.85472C97.296 3.67171 98.0062 3.64109 98.2201 3.51365C98.088 3.47321 94.7886 3.6448 95.0774 3.42864C94.8123 3.40671 94.9355 3.51479 94.4588 3.5498C93.1219 3.64714 91.0576 3.46534 89.9866 3.75875C91.2528 3.88654 91.6186 3.71973 92.5856 3.69717C93.201 3.6808 96.9741 3.60351 96.1328 3.80808C96.2705 3.78182 96.4081 3.75559 96.5458 3.7294C96.6861 3.78506 96.8263 3.84075 96.9665 3.89648C96.5733 3.90942 96.1805 3.92261 95.7878 3.93603C95.6928 3.88003 95.5977 3.82404 95.5026 3.76806C95.4596 3.80952 95.4167 3.85097 95.3737 3.89243C95.2076 3.9028 95.0414 3.91322 94.8754 3.92368C94.9214 3.8739 94.9674 3.82412 95.0134 3.77434C94.7571 3.76951 94.5008 3.76479 94.2447 3.76016C94.3146 3.82479 94.3845 3.88942 94.4544 3.95407C93.2494 3.98846 93.6571 3.94136 92.9872 3.82909C92.4887 3.82464 93.3323 3.93697 92.2789 3.98642C91.0546 4.04471 91.8553 3.82962 90.2697 3.90166C90.2474 3.93484 90.2251 3.96802 90.2028 4.0012C89.852 3.97506 89.5014 3.9491 89.1509 3.92332C89.198 3.96312 89.245 4.00293 89.2921 4.04274C88.5695 4.04112 87.5781 4.13995 87.3359 3.98547C88.0679 4.04663 88.0551 3.76804 87.8639 3.72073C87.4717 3.61986 81.6737 3.85809 80.5561 3.90095C79.124 3.9503 78.0279 3.89394 76.7227 4.07254C77.6131 4.15576 80.743 3.97158 81.3329 4.03448C81.3917 4.04053 81.3821 4.29659 81.7511 3.99872C82.9648 4.01465 84.4241 3.89585 85.9386 3.86933C85.894 3.944 85.8494 4.01868 85.8049 4.09336C84.873 3.95831 84.0104 4.32398 84.1265 4.03495C83.9404 4.03957 83.7544 4.04424 83.5684 4.04895C83.5697 4.09821 83.5709 4.14747 83.5722 4.19673C83.2919 4.20383 83.0118 4.21105 82.7318 4.21837C82.7305 4.16911 82.7292 4.11985 82.7279 4.0706C82.496 4.07666 82.2641 4.0828 82.0324 4.08901C82.0096 4.13877 81.9867 4.18854 81.964 4.2383C81.2671 4.15421 78.9125 4.49505 79.9436 4.17183C79.6175 4.1812 79.2899 4.19077 78.9633 4.20046C78.9654 4.23644 78.9675 4.27242 78.9697 4.3084C78.8294 4.31741 78.6891 4.32644 78.5489 4.33549C78.5941 4.30151 78.6394 4.26752 78.6846 4.23354C78.043 4.31118 77.4284 4.15842 77.0103 4.28446C77.2892 4.30034 77.5682 4.31633 77.8474 4.33242C77.3118 4.30189 76.3327 4.43001 76.245 4.43315C75.9772 4.44225 75.8338 4.37402 75.5438 4.3798C75.282 4.38521 75.3199 4.43999 75.2711 4.43962C73.8585 4.4296 74.3833 4.10908 73.7348 4.49003C73.6627 4.44348 73.5906 4.39695 73.5185 4.35041C73.4261 4.3945 73.3338 4.43859 73.2415 4.48269C72.8231 4.49338 72.405 4.50429 71.9872 4.51541C72.1287 4.57161 72.2702 4.62785 72.4117 4.6841C71.7865 4.73365 71.4905 4.62165 71.4298 4.62101C71.258 4.6201 71.1825 4.69998 71.1295 4.70206C68.5822 4.78988 70.1306 4.66441 68.8415 4.42364C68.3902 4.55472 68.8556 4.65074 68.9247 4.76376C68.3168 4.73291 68.1291 4.77224 67.4903 4.79105C67.3241 4.79588 67.1431 4.74069 67.0383 4.74403C66.9475 4.74691 66.6665 4.82448 66.4489 4.83356C66.0861 4.84871 65.6019 4.82895 65.1061 4.85051C64.6956 4.86841 63.4299 4.96854 62.5465 5.00763C62.1696 5.02404 62.2547 4.96488 62.1574 4.96902C62.1169 4.97079 61.8262 5.04998 61.5848 5.06093C59.6197 5.14932 57.5938 5.20145 55.6169 5.2988C54.2278 5.36706 52.8079 5.49162 51.4112 5.55811C51.114 5.57219 51.2688 5.51541 51.139 5.52038C51.0944 5.52226 51.045 5.60991 50.5842 5.59962C50.4177 5.59595 50.6053 5.52662 50.4421 5.53216C50.3627 5.53489 50.3328 5.61105 49.8701 5.65234C49.0304 5.72754 48.5705 5.65271 48.4948 5.65968C48.3526 5.673 48.3976 5.73238 48.2089 5.7447C47.2866 5.80498 46.5181 5.85729 45.6976 5.90767C45.3153 5.93064 42.6722 6.09154 42.5242 6.08934C42.1974 6.08328 42.4929 5.93736 42.0759 5.96558C41.9609 6.00482 41.8459 6.04408 41.731 6.08334C41.918 6.09743 42.105 6.11154 42.2921 6.12568C41.7785 6.11349 41.203 6.20534 40.8251 6.22501C40.7553 6.22852 40.1099 6.20747 39.7832 6.23299C39.9209 6.20069 40.0586 6.16841 40.1963 6.13614C40.1459 6.11839 40.0955 6.10064 40.045 6.0829C39.3927 6.1523 38.7013 6.19219 38.0257 6.22787C37.7827 6.2408 37.8618 6.18584 37.6158 6.19876C36.1838 6.27381 36.5577 6.4603 35.1602 6.15276C35.6253 6.15982 37.3171 6.00817 37.5651 6.00662C37.7375 6.00545 38.4242 6.29613 38.1593 5.97171C39.5358 5.89182 38.3535 6.14911 39.6305 6.03308C39.6025 5.99321 39.5746 5.95333 39.5466 5.91346C39.9916 5.86123 40.3205 5.82112 40.5964 5.87836C40.6757 5.67227 42.2029 5.70191 43.0388 5.64117C44.2499 5.55326 45.5983 5.42924 46.7951 5.35551C47.2068 5.33019 47.4446 5.39629 47.4962 5.39325C47.5718 5.3886 47.7805 5.30825 47.9314 5.29965C48.4978 5.267 50.21 5.29345 50.6258 5.08024C47.2813 5.25409 43.9347 5.43903 40.5854 5.63335C41.0113 5.7024 37.6311 5.90989 37.4561 5.9164C37.2967 5.92169 37.4267 5.8477 37.3792 5.84652C37.0254 5.83924 36.7309 5.95296 36.6192 5.95967C36.5341 5.96478 36.3594 5.93021 36.0569 5.94946C36.0014 5.95295 35.9889 6.00136 35.9292 6.00511C35.5347 6.02896 35.1455 6.05193 34.7502 6.07629C34.7261 6.0773 34.6222 6.01403 34.5224 6.02001C34.4223 6.02613 34.3277 6.10147 34.3025 6.10323C33.988 6.12198 33.4397 6.11047 33.1377 6.12865C33.0329 6.13514 33.1087 6.18144 32.9913 6.18821C32.6306 6.20931 32.7431 6.10252 32.299 6.1558C32.1502 6.17371 32.1646 6.24912 31.8781 6.25692C31.6753 6.2624 31.6886 6.12557 31.6562 6.12265C31.6115 6.11945 30.9202 6.27013 30.6866 6.19582C31.1704 5.93039 30.1407 6.2179 30.1972 6.31355C29.9196 6.30609 29.6421 6.29868 29.3647 6.2913C29.2723 6.32228 29.1798 6.35326 29.0874 6.38425C27.962 6.34268 27.2832 6.45419 26.1838 6.49042C26.1305 6.49209 25.2031 6.49644 25.2442 6.45847C25.7928 6.362 26.3448 6.32352 26.7065 6.41255C27.2762 6.16163 27.2969 6.33093 28.2388 6.24225C28.5543 6.21247 28.5732 6.15316 28.6095 6.1501C29.8333 6.04298 31.7912 5.89517 32.6307 6.01321C32.8599 5.95303 32.0249 5.98665 32.347 5.9328C32.5262 5.90209 36.7666 5.58913 35.4226 5.86673C35.563 5.85279 35.7034 5.83886 35.8439 5.82494C35.9734 5.63229 36.6768 5.6322 36.6083 5.82037C36.6724 5.77885 36.7366 5.73733 36.8008 5.69582C36.9301 5.65619 37.0844 5.62987 37.3018 5.60676C38.1411 5.51629 43.0919 5.29363 43.3609 5.25367C43.3645 5.20982 43.368 5.16597 43.3715 5.12212C41.1689 5.19713 39.0638 5.42815 36.6585 5.44756C36.7304 5.48419 36.8023 5.52082 36.8742 5.55745C35.9168 5.55751 34.9613 5.55814 34.0077 5.55929C35.0083 5.42366 36.6086 5.26457 37.674 5.26228C37.8633 5.26189 37.7284 5.32702 37.7721 5.33133C37.8865 5.3425 38.0023 5.23652 38.409 5.20282C38.8185 5.16888 39.8368 5.17942 39.931 5.17201C40.1106 5.15744 40.5899 5.01622 40.8968 4.99992C41.3002 4.9786 41.0339 5.06413 41.1149 5.06093C41.4501 5.04848 41.7486 4.99659 42.0115 4.98673C42.4018 4.97207 43.2197 5.04902 43.4827 4.85312C43.2031 4.8606 42.9237 4.86815 42.6444 4.87575C44.1579 4.72486 45.3387 4.89069 46.8188 4.63157C47.145 4.39452 45.9172 4.49099 46.9516 4.34111C46.7629 4.35448 46.5744 4.36789 46.3859 4.38132C46.3441 4.42953 46.3024 4.47773 46.2607 4.52594C45.934 4.51101 45.6076 4.49617 45.2813 4.4814C45.3761 4.51709 45.471 4.55279 45.5658 4.5885C44.4177 4.6826 43.2584 4.79006 42.8416 4.59368C42.8208 4.64806 42.8001 4.70244 42.7794 4.75683C41.7035 4.753 40.1135 5.07093 40.396 4.75849C40.3463 4.77706 40.2967 4.79564 40.247 4.81422C39.5983 4.7915 39.881 4.89748 39.6394 4.92542C39.5707 4.93324 38.3131 4.94407 38.8642 4.82372C37.6314 4.82934 38.0267 5.08283 37.6891 5.11501C36.8945 5.02507 35.4968 5.31524 36.0767 5.06357C35.9594 5.06251 35.8422 5.06147 35.725 5.06043C35.3518 5.25346 34.9624 5.08427 34.5436 5.04537C34.4028 5.05012 34.262 5.05489 34.1213 5.05966C34.0307 5.12257 33.9402 5.18548 33.8496 5.2484C32.5027 5.05834 32.9702 5.77622 32.3246 5.18894C32.4167 5.14569 32.509 5.10244 32.6012 5.0592C32.8243 5.02753 33.0476 4.99589 33.2709 4.96428C32.3646 5.00363 31.4602 5.04344 30.5576 5.08366C29.4027 4.98056 28.7653 5.21179 27.4797 5.15509C27.3615 5.17938 27.2432 5.20367 27.125 5.22797C27.2375 5.07867 27.7016 5.06968 26.8356 5.06165C26.7557 4.96634 27.3368 4.91592 27.6074 4.97566C27.6726 4.99028 27.1328 5.10184 27.7452 5.06529C28.1619 5.04059 27.3975 4.96865 28.6487 4.93351C28.6009 4.91201 28.5531 4.89052 28.5053 4.86902C28.6406 4.86111 28.7764 4.85317 28.9114 4.8453C29.0346 4.89426 29.1578 4.94324 29.281 4.99221C29.5835 4.89102 29.7486 4.76554 30.4541 4.74557C30.2654 4.79302 30.5315 4.89029 30.88 4.86649C30.8775 4.82555 30.8749 4.78462 30.8723 4.74369C31.715 4.66445 31.4309 4.8028 32.1278 4.66525C32.2002 4.69342 32.2726 4.7216 32.3449 4.74978C32.719 4.59176 34.1272 4.41351 33.8809 4.63053C34.2625 4.41091 35.0959 4.44858 35.4136 4.58622C35.4349 4.54413 35.456 4.50204 35.4773 4.45994C35.6408 4.44175 35.8045 4.42358 35.9682 4.40542C36.0613 4.42448 36.1544 4.44355 36.2475 4.46262C36.3624 4.43101 36.4774 4.39942 36.5924 4.36783C36.6651 4.4044 36.7379 4.44098 36.8107 4.47756C36.9951 4.41743 37.1794 4.35732 37.364 4.29723C37.4806 4.32294 37.5972 4.34866 37.7139 4.37439C37.7198 4.28857 38.8594 4.20203 39.176 4.2396C39.2687 4.20933 39.3614 4.17907 39.4541 4.14881C39.5025 4.18663 39.551 4.22446 39.5994 4.26228C39.6676 4.22576 39.7358 4.18925 39.8041 4.15274C39.9676 4.17572 40.1312 4.19871 40.2948 4.22172C40.943 3.98477 40.9746 4.1579 41.1253 4.14796C41.4045 4.1295 42.3505 3.95055 42.5105 3.94793C42.6701 3.94532 42.7511 4.01225 42.8801 4.01166C45.007 4.00406 44.1216 3.8623 44.545 3.80812C44.7726 3.7789 44.9381 3.83644 45.1399 3.81787C45.4845 3.78619 47.2278 3.60274 47.3296 3.60611C47.4769 3.61063 47.1486 3.94297 47.6209 3.83641C47.6275 3.66704 48.657 3.78246 48.1674 3.57304C48.5892 3.57116 49.0098 3.5695 49.4284 3.56812C49.3705 3.37092 49.8928 3.47214 50.4547 3.4318C51.2502 3.3745 53.043 3.15192 52.9879 3.36028C53.1771 3.30355 53.3663 3.24686 53.5557 3.1902C54.8668 3.18937 56.1417 3.05962 57.4427 2.9957C61.2988 2.80556 65.4753 2.67087 69.3238 2.56547C69.508 2.56048 69.484 2.62845 69.6165 2.62493C70.3122 2.60573 72.1226 2.49212 73.1028 2.47318C73.4167 2.46695 73.5717 2.52705 73.6713 2.52663C74.0095 2.52566 73.9269 2.44233 74.0826 2.43949C74.3308 2.43484 75.6237 2.47185 76.0702 2.46607C76.2909 2.46312 76.5499 2.38638 76.8091 2.39935C76.8314 2.40036 76.7925 2.47216 76.8114 2.4728C77.2829 2.4666 76.9976 2.41458 77.1571 2.41279C78.2932 2.40023 79.5194 2.36515 80.7469 2.3454C81.0528 2.34053 81.5225 2.37739 81.7854 2.37499C81.8858 2.37395 81.7044 2.32528 82.0511 2.32042C82.1699 2.31876 82.2124 2.38724 82.3465 2.3882C82.9247 2.39195 83.1126 2.16343 83.6143 2.33062C84.576 2.29417 86.2398 2.19762 87.1136 2.17756C87.3204 2.17283 87.422 2.21175 87.6191 2.20679C87.759 2.2033 88.0039 2.13442 88.2223 2.12911C88.4407 2.12382 88.7869 2.17734 89.2073 2.16678C89.65 2.15574 90.2005 2.10931 90.3005 2.10767C90.4213 2.10541 90.4785 2.18095 90.5985 2.17777C90.9611 2.1685 91.9321 2.07608 92.4007 2.06029C92.904 2.04332 93.2071 2.07573 93.3793 2.07229C93.5388 2.06877 93.7239 2.00131 93.7968 1.99963C93.9101 1.99693 93.9381 2.07204 94.0821 2.06926C94.3174 2.06453 94.5595 2.01348 94.9127 2.00725C101.26 1.89481 107.487 1.91127 113.666 2.00735C114.354 2.01823 114.743 1.96797 115.759 2.00122C116.171 2.01489 115.996 2.0912 116.317 2.07956C116.46 2.07431 116.425 2.01265 116.606 2.0115C117.407 2.00669 118.333 2.07476 118.678 2.0782C118.815 2.07963 118.973 2.012 119.254 2.01471C121.348 2.03434 123.831 2.09643 126.084 2.13346C127.279 2.15257 129.091 2.16079 130.458 2.19361C134.247 2.28264 138.321 2.44136 141.769 2.57992C146.991 2.78891 152.166 2.99575 157.365 3.40214C154.939 3.07829 151.639 2.90095 148.922 2.74339C141.1 2.28534 132.76 2.08826 124.736 1.92592C121.947 1.86814 118.429 1.82053 115.366 1.75591C115.227 1.75298 114.939 1.80408 114.64 1.79607C114.576 1.79417 113.788 1.69071 113.522 1.68811C113.773 1.86328 112.733 1.70199 112.412 1.7047C112.009 1.70804 111.156 1.79073 110.205 1.73918C109.342 1.69268 109.581 1.62664 109.533 1.6223C109.228 1.59467 109.121 1.70215 108.887 1.71274C107.937 1.75151 103.016 1.70138 101.651 1.71059C101.298 1.71206 101.288 1.64378 101.208 1.64411C100.997 1.64521 100.695 1.71507 100.356 1.71742C99.7438 1.72145 99.0393 1.6636 98.7032 1.66677C97.898 1.67388 96.3795 1.76757 95.3335 1.78353C95.0391 1.788 95.0561 1.7166 94.9229 1.7187C94.3359 1.72788 92.8116 1.83516 92.0864 1.8485C90.9092 1.86964 89.6931 1.84639 88.4921 1.89449C88.4153 1.8643 88.3386 1.83412 88.2618 1.80395C88.1425 1.83975 88.0232 1.87558 87.904 1.91143C85.8777 1.92878 83.8123 2.05016 81.796 2.0999C81.5636 2.1055 80.4138 2.07661 80.2227 2.08195C80.0633 2.08648 79.9102 2.16955 79.6724 2.16484C79.3397 2.15842 79.6479 1.99952 79.1066 2.05827C78.9611 2.07416 79.1043 2.13406 78.812 2.16273C78.7149 2.17188 76.8405 2.25536 76.7403 2.25448C76.5723 2.25231 76.4183 2.11976 76.3749 2.11819C76.1494 2.10988 76.1624 2.21496 76.0118 2.22943C75.5676 2.27252 74.9842 2.22086 74.9121 2.22483C74.0381 2.27308 72.398 2.41418 71.4788 2.39787C71.3516 2.39553 71.364 2.31652 71.3415 2.31478C71.197 2.30375 71.1109 2.39635 70.9742 2.40342C70.2381 2.44038 69.0854 2.42363 68.3398 2.43738C68.2541 2.43903 68.0753 2.48902 67.9225 2.49084C67.059 2.5006 67.3362 2.42074 67.287 2.41968C67.1705 2.41698 66.9693 2.50113 66.6606 2.51824C65.8636 2.56263 64.3464 2.61451 63.4879 2.64545C62.8472 2.66817 62.8533 2.58081 62.8112 2.58087C62.7213 2.58163 62.4749 2.6619 62.0543 2.68821C61.2451 2.7393 61.3346 2.66696 61.0021 2.68468C60.9742 2.68594 61.0257 2.75067 60.6573 2.77409C59.9462 2.81906 58.3429 2.82682 57.577 2.86661C57.283 2.88171 57.2173 2.94951 56.9166 2.96504C56.4397 2.98984 55.3618 2.97208 55.2773 2.97646C55.2536 2.97762 55.204 3.05446 55.0644 3.06128C54.911 3.06878 54.7582 3.03798 54.6439 3.04385C53.9951 3.07668 52.8722 3.26299 53.1726 2.98225C52.9662 3.05821 52.7599 3.1342 52.5538 3.21023C51.1834 3.26656 49.8615 3.3616 48.509 3.44699C48.2037 3.46622 47.9462 3.42969 47.6888 3.44598C47.4312 3.4622 46.3011 3.60684 46.1121 3.61886C45.7731 3.63984 43.858 3.75504 43.6181 3.76288C43.1493 3.77788 42.6896 3.69416 42.5005 3.72641C42.3489 3.75232 42.4934 3.80597 42.2035 3.84004C41.7015 3.89896 40.8427 3.869 40.6893 3.87915C40.6238 3.88347 40.7491 3.92438 40.1359 3.96349C39.8056 3.9847 39.6251 3.94212 39.5053 3.94938C39.4682 3.95185 39.5288 4.0344 38.875 4.06128C38.422 4.07982 38.2236 4.02511 38.1762 4.02766C38.1048 4.03146 37.9364 4.11239 37.6496 4.12699C36.9787 4.16064 35.7507 4.1532 35.1163 4.18567C34.9936 4.1919 35.0404 4.27475 34.5511 4.29672C34.2013 4.31242 34.2582 4.24074 34.1272 4.24603C33.9201 4.25452 33.6146 4.35678 33.1537 4.38252C32.5682 4.4141 28.286 4.59719 28.0546 4.59041C27.9039 4.58497 27.7302 4.59515 27.6538 4.56299C27.715 4.52353 27.7764 4.48407 27.8376 4.44461C28.5044 4.52667 28.2295 4.40175 28.4038 4.38146C28.6584 4.35208 29.6079 4.30999 29.8361 4.26399C29.9173 4.24744 29.725 4.18373 30.1627 4.1171C30.6326 4.04577 30.8515 4.16708 31.0284 3.9715C31.7125 4.13345 32.345 3.87676 31.563 3.86743C31.127 3.86131 26.8638 4.05882 25.9927 4.10484C25.2858 4.1414 23.9783 4.28151 23.1043 4.32496C22.5926 4.35012 21.3367 4.42373 21.3834 4.32257C20.9305 4.34026 21.4154 4.40576 21.3214 4.42558C21.1245 4.46695 19.7108 4.49365 19.4452 4.51419C18.1285 4.61507 16.4678 4.83691 15.184 4.80046C15.2417 4.77027 15.2994 4.74009 15.357 4.7099C15.6402 4.64239 16.9784 4.62065 17.1211 4.48502C15.1711 4.61673 13.2198 4.75001 11.2687 4.8843C11.3109 4.98855 8.8998 5.15354 8.77746 5.11367C8.81648 5.05901 8.85551 5.00434 8.89453 4.94968C10.2781 5.05119 10.1326 4.80063 11.0598 4.87513C11.4332 4.85137 11.3147 4.77368 11.4976 4.74479C13.3199 4.4575 11.5383 4.91808 12.9379 4.74526C12.5062 4.65032 13.6543 4.52614 14.1705 4.47512C14.2872 4.46363 15.8246 4.39057 16.0077 4.37625C17.0305 4.29567 18.8024 4.10814 19.8204 4.10845C20.623 4.06303 21.0594 3.94535 21.7884 3.87656C22.3418 3.8244 22.1871 3.89697 22.4483 3.88049C22.9966 3.84607 23.1649 3.64528 23.5337 3.88574C23.905 3.82842 24.271 3.77152 24.6393 3.71454C24.642 3.75546 24.6446 3.79639 24.6473 3.83732C24.8797 3.82216 25.1123 3.80703 25.345 3.79191C25.4108 3.74668 25.4767 3.70145 25.5425 3.65622C26.2852 3.66419 25.9831 3.78275 26.1287 3.88969C26.289 3.88732 26.4493 3.88496 26.6096 3.88261C26.7276 3.78567 26.8457 3.68874 26.9638 3.5918C27.6777 3.55315 28.397 3.51446 29.1092 3.47654C29.1578 3.51441 29.2064 3.55228 29.255 3.59015C29.2539 3.54927 29.2528 3.50838 29.2517 3.4675C30.4562 3.3827 31.664 3.2986 32.8752 3.21531C33.193 3.12983 31.2501 3.20067 31.104 3.20609C30.2862 3.23525 28.1305 3.4381 28.115 3.29326C27.613 3.43414 26.0838 3.50554 25.6015 3.40622C26.3219 3.36735 27.0435 3.32871 27.7663 3.29029C27.7399 3.24303 27.7134 3.19578 27.687 3.14853C28.5996 3.28758 28.7319 3.26828 29.6403 3.02422C29.6452 3.08955 29.6502 3.15487 29.6552 3.2202C30.2829 2.95217 31.4449 3.26659 31.4602 2.9839C31.8045 2.98523 32.1492 2.98662 32.4941 2.98807C33.2317 2.90833 32.0754 2.76194 34.9734 2.66974C35.1733 2.66352 35.136 2.73755 35.4357 2.71444C35.5223 2.70774 36.0112 2.57357 36.9618 2.52754C37.1102 2.5204 37.1251 2.58177 37.2796 2.58045C37.636 2.57792 38.3377 2.41322 38.0277 2.63225C39.4411 2.60723 38.8447 2.47788 39.2771 2.38698C39.5645 2.32671 39.513 2.44844 39.7625 2.40695C40.0715 2.35561 39.8357 2.24936 41.0849 2.23225C40.9455 2.24841 40.8062 2.26459 40.6669 2.28078C40.7391 2.30913 40.8113 2.33748 40.8835 2.36583C41.5904 2.24703 41.5298 2.36461 41.8552 2.1632C42.3777 2.21483 42.8263 2.19578 43.5352 2.14106C44.906 2.03542 44.1904 1.87817 45.7723 2.05607C46.0243 2.005 46.2764 1.95399 46.5287 1.90302C46.9511 1.95834 46.6181 2.07431 47.2435 2.06021C46.7442 1.8938 48.0659 1.89297 48.2801 1.70933C48.3057 1.74904 48.3313 1.78875 48.3569 1.82845C48.4965 1.82101 48.6367 1.81355 48.7758 1.80617C48.7745 1.7733 48.7732 1.74042 48.7719 1.70755C48.9581 1.72234 49.1444 1.73716 49.3308 1.75201C49.4682 1.71211 49.6057 1.67222 49.7433 1.63235C49.9759 1.68903 50.2085 1.74576 50.4413 1.80254C50.5854 1.79975 50.7295 1.79698 50.8738 1.79423C50.8257 1.74766 50.7776 1.7011 50.7295 1.65453C50.9153 1.66131 51.1013 1.66811 51.2873 1.67494C51.0677 1.60577 51.1981 1.50458 51.775 1.47754C52.2513 1.45526 51.7231 1.64998 52.744 1.52843C52.8152 1.51992 52.9362 1.39374 53.9038 1.32707C55.059 1.24772 54.5016 1.36213 54.7079 1.35495C54.7484 1.35345 55.0989 1.27595 55.4298 1.25124C55.6176 1.23719 55.8011 1.27699 55.826 1.27567C55.9419 1.26784 55.9725 1.19751 56.1332 1.18728C56.5414 1.16171 57.0919 1.16923 57.4927 1.14692C57.6748 1.13686 57.8444 1.08811 57.9258 1.08381C58.052 1.07743 58.215 1.13213 58.3427 1.12594C58.8156 1.10259 59.5172 0.863738 59.7484 1.1404C60.1874 0.85629 61.1484 1.13259 61.0712 0.959003C62.2819 0.970731 65.5008 0.618347 65.416 0.920063C66.0892 0.638097 66.0358 0.824585 66.3222 0.80915C66.6427 0.792033 66.4746 0.749466 66.7296 0.741452C67.3251 0.722783 67.8953 0.721532 68.4891 0.699574C68.3975 0.743875 68.3058 0.788185 68.2143 0.832506C68.8379 0.82144 68.6196 0.734971 69.2552 0.692452C70.4176 0.615224 69.9302 0.709424 70.106 0.80963C70.0558 0.708189 71.4304 0.673649 71.5712 0.682353C71.655 0.68764 71.2937 0.833437 72.1347 0.760494C72.0872 0.721287 72.0396 0.682085 71.9921 0.642884C72.3778 0.684913 73.4196 0.577628 73.5976 0.58539C73.6792 0.588995 74.1261 0.903505 74.5163 0.629464C74.5655 0.668709 74.6148 0.707955 74.664 0.747207C75.1028 0.683393 75.542 0.61982 75.9817 0.556494C76.0545 0.627811 76.1273 0.699136 76.2001 0.770468C76.3401 0.765981 76.4801 0.76152 76.6203 0.757083C76.5252 0.694695 76.4302 0.632315 76.3351 0.569949C77.2008 0.571791 78.2567 0.436665 78.4421 0.651725C78.6266 0.605294 78.8112 0.558909 78.9959 0.512567C79.119 0.582306 79.2422 0.652064 79.3653 0.721842C80.2258 0.678364 80.2351 0.629197 80.8197 0.534621C80.7984 0.592486 80.7771 0.65035 80.7558 0.708217C81.1856 0.615758 81.9733 0.519401 82.5983 0.492979C82.8954 0.480499 83.4081 0.546307 83.4781 0.537404C83.5487 0.528014 84.2392 0.200735 84.3218 0.467206C85.3495 0.323188 85.7984 0.43452 86.215 0.422018C86.4849 0.413903 86.6067 0.346741 86.9118 0.333341C87.3486 0.314081 87.7894 0.335853 88.0418 0.326141C88.1862 0.320407 88.2119 0.257047 88.3115 0.253012C88.7824 0.233756 88.5076 0.303541 89.0044 0.289345C89.0502 0.287703 89.412 0.203821 89.822 0.205815C90.0516 0.206806 90.6451 0.281981 90.6964 0.28087C90.9272 0.275228 90.7394 0.10609 91.5322 0.29113C91.5088 0.25878 91.4853 0.226432 91.4618 0.194084C92.4376 0.0940122 92.5949 0.237887 92.7926 0.244712C92.8178 0.245131 93.0552 0.184847 93.1979 0.19038C93.4391 0.199882 93.5374 0.275684 93.5909 0.278264C93.779 0.287169 94.4121 0.243677 94.8277 0.312596C94.7375 0.0936811 96.1893 -0.00421394 96.5111 0.241201C96.7666 0.188913 97.0222 0.136725 97.2779 0.0846389C97.3943 0.124312 97.5108 0.164008 97.6272 0.203724C97.6973 0.162067 97.7674 0.120417 97.8375 0.078775C98.2122 0.164682 98.5872 0.250807 98.9622 0.337156C98.9852 0.246782 99.0081 0.156408 99.0311 0.0660354C99.136 0.0752733 99.2409 0.0845293 99.3458 0.0938026C99.4283 0.164668 99.5109 0.235543 99.5934 0.30643C99.7243 0.291568 99.8552 0.276734 99.9862 0.261927C100.018 0.209811 100.05 0.157695 100.082 0.105582C100.786 0.040072 100.432 0.53681 101.766 0.0926961C101.975 0.132164 102.183 0.171701 102.392 0.21131C102.626 0.0109485 103.067 0.1289 103.423 0.104806C103.674 0.0878119 103.66 0.0088316 104.002 0.00557612C104.345 0.00240155 104.333 0.078072 104.359 0.0784496C104.639 0.0820117 104.849 0.0146659 105.054 0.0272976C105.085 0.0291784 105.162 0.11865 105.424 0.123622C105.685 0.128597 105.843 0.0327375 106.232 0.0500025C106.432 0.0587702 106.49 0.134295 106.666 0.140741C107.505 0.172124 108.353 -0.210533 108.983 0.244456C109.125 0.186962 110.158 -0.0125224 110.601 0.00062042C111.289 0.0213819 111.024 0.109637 111.297 0.126959C111.336 0.129608 111.547 0.100192 112.124 0.108365C112.227 0.109847 112.203 0.0594348 112.218 0.0588394C112.888 0.0629265 114.191 0.111033 114.929 0.124426C114.995 0.125722 115.342 -0.0117764 115.926 0.182239C116.797 0.0507166 118.425 0.36805 119.57 0.174009C119.728 0.171727 119.92 0.224571 119.99 0.223858C120.595 0.217158 120.375 0.0609355 121.74 0.305582C121.63 0.226163 121.952 0.161164 122.404 0.174795C123.085 0.195445 122.599 0.331787 123.146 0.329654C123.147 0.288789 123.147 0.247924 123.148 0.207058C124.398 0.339936 124.651 0.170115 125.911 0.195637C126.364 0.205009 127.033 0.310704 127.141 0.313479C127.183 0.314134 127.681 0.227182 127.729 0.227604C127.996 0.230977 128.146 0.280045 128.377 0.285928C129.138 0.305382 130.045 0.201229 129.876 0.42959C130.086 0.385979 130.296 0.342455 130.506 0.299015C131.288 0.568912 131.889 0.243751 132.048 0.489868C132.191 0.444162 132.334 0.398497 132.477 0.352872C135.865 0.478644 139.258 0.626702 142.636 0.797236C142.774 0.725033 144.251 0.817908 144.327 0.833784C144.673 0.904335 144.297 1.05662 145.01 1.05064C145.092 0.980156 145.174 0.90969 145.256 0.839238C146.15 0.856877 145.717 0.910549 146.066 0.977429C146.213 0.97529 146.168 0.9155 146.367 0.920846C147.446 0.94889 149.66 1.05896 150.845 1.11928C151.084 1.13125 151.045 1.18306 151.119 1.18723C151.322 1.19783 151.726 1.15204 152.133 1.17481C154.651 1.31468 158.226 1.5745 160.759 1.80586C160.931 1.82157 160.948 1.88709 161.064 1.89827C161.225 1.91348 161.589 1.88663 161.759 1.90389C161.918 1.91996 162.017 1.97576 162.188 1.99346C162.971 2.07502 164.022 2.06818 164.847 2.27366C164.917 2.29081 165.773 2.6141 165.791 2.63263C165.9 2.74182 165.11 2.84027 166.377 3.08416C165.225 3.12573 165.565 3.37815 167.04 3.60307C166.293 3.57395 165.548 3.54613 164.803 3.51958C164.8 3.54634 164.797 3.5731 164.794 3.59987C165.46 3.78313 166.127 3.87772 167.156 3.9699C167.122 3.99225 167.088 4.01461 167.054 4.03696C166.135 4.09046 165.038 4.03112 164.335 4.14988C165.338 4.34981 166.343 4.55204 167.348 4.75662C167.296 4.77225 167.243 4.7879 167.191 4.80355C166.701 4.81635 165.637 4.76529 165.23 4.78275C163.677 4.84856 166.568 5.01944 166.085 5.09459C164.457 4.96647 162.844 4.84531 161.211 4.72837C161.155 4.79968 167.38 5.48352 167.3 5.73081C166.787 5.70735 166.275 5.6845 165.763 5.66225C165.986 5.74185 166.209 5.82156 166.432 5.90139C166.368 5.9163 166.303 5.93123 166.239 5.94617C165.374 5.92863 164.51 5.91283 163.647 5.89873C166.264 6.04104 167.482 6.17551 168.071 6.71543C167.999 6.72229 167.927 6.72915 167.855 6.73603C167.311 6.38294 164.625 6.27659 163.203 6.23709C163.486 6.3476 164.741 6.36998 165.001 6.44417C165.075 6.46528 164.809 6.5082 164.98 6.55313C165.427 6.66932 167.354 6.92544 167.065 7.00576C166.877 7.05526 163.761 6.91025 163.158 6.86179C164.568 7.08167 166.03 7.22592 167.446 7.48085C166.53 7.60954 165.714 7.7909 164.074 7.68072C163.566 7.74685 167.027 8.153 167.105 8.2186C166.498 8.2328 165.892 8.24786 165.287 8.26376C165.796 8.28575 166.306 8.30833 166.816 8.33153C166.816 8.35209 166.816 8.37265 166.815 8.39321C165.49 8.38588 164.274 8.46967 162.772 8.3499C162.813 8.46148 163.713 8.51568 164.149 8.54907ZM19.1944 3.90111C19.1579 3.81338 19.7124 3.79105 20.0246 3.77197C19.9766 3.75876 19.9287 3.74554 19.8807 3.73233C20.5471 3.70482 21.7917 3.65692 21.8265 3.4797C22.3016 3.42654 22.1009 3.59197 22.2557 3.59905C22.3162 3.60197 22.9328 3.47275 23.4385 3.54732C23.557 3.53912 23.6755 3.53092 23.794 3.52273C23.8133 3.4641 23.8324 3.40547 23.8516 3.34684C24.0205 3.40544 24.189 3.46406 24.3578 3.52268C22.6368 3.64733 20.9102 3.77394 19.197 3.90094C19.1961 3.90099 19.1953 3.90105 19.1944 3.90111ZM36.3511 2.73151C36.9805 2.72596 37.9468 2.71963 37.743 2.57469C37.3461 2.60655 36.9497 2.6385 36.5536 2.67056C36.486 2.69088 36.4186 2.71119 36.3511 2.73151ZM98.8903 0.484409C99.4178 0.633635 99.9011 0.495553 100.717 0.516934C100.715 0.484331 100.714 0.451729 100.713 0.419126C100.38 0.499979 99.4986 0.455396 98.8903 0.484409ZM3.68731 5.55707C3.57097 5.55305 3.45465 5.54903 3.3384 5.54501C3.79571 5.33736 3.88838 5.45474 4.41895 5.4007C4.45093 5.3974 4.43703 5.35814 4.44819 5.35712C4.5781 5.34535 4.70231 5.38512 4.81858 5.37627C5.0436 5.35911 5.22375 5.29749 5.62317 5.27142C5.93212 5.25142 5.94042 5.32798 6.04886 5.31846C6.14118 5.31013 7.04398 5.03515 7.64232 5.08528C8.7752 5.18101 4.03974 5.54854 3.68731 5.55707ZM0.347375 5.64513C0.458121 5.63668 0.568836 5.62823 0.679642 5.61977C0.354617 5.76105 1.02579 5.69613 1.51999 5.65913C1.51239 5.77336 0.463996 5.79798 4.44631e-06 5.86427C0.115764 5.79123 0.231524 5.71818 0.347375 5.64513ZM14.4258 4.91334C13.9926 4.95448 14.0538 4.80841 14.0696 4.76507C14.209 4.75555 14.3468 4.74615 14.4849 4.73674C14.4652 4.79561 14.4454 4.85448 14.4258 4.91334ZM11.1526 5.18693C11.281 5.08167 12.2225 4.97477 12.6706 4.93616C12.6902 4.9348 12.5706 4.9959 12.8875 4.96926C12.9824 4.96118 13.9074 4.70542 13.7159 4.93697C12.8601 5.02016 12.006 5.10347 11.1539 5.18684C11.1534 5.18687 11.153 5.1869 11.1526 5.18693ZM10.1964 5.19588C10.3718 5.15351 10.5474 5.11114 10.723 5.06877C10.818 5.10748 10.9129 5.14619 11.0079 5.1849C10.8064 5.2102 10.6049 5.2355 10.4037 5.26081C10.3346 5.23916 10.2655 5.21752 10.1964 5.19588ZM144.524 2.00986C144.485 1.95974 144.445 1.90961 144.406 1.85949C144.246 1.82248 143.452 1.9975 143.699 2.04922C143.974 2.03595 144.249 2.02283 144.524 2.00986ZM147.823 2.26912C147.985 2.3016 148.146 2.33413 148.308 2.36672C148.499 2.29444 148.691 2.22224 148.882 2.15012C148.071 2.0529 147.21 1.94682 147.337 2.19487C147.151 2.18568 146.965 2.17656 146.779 2.16751C146.941 2.07544 146.921 2.04144 146.438 1.95464C146.324 2.08826 145.827 1.9934 145.248 1.99704C145.668 2.02474 146.084 2.05262 146.503 2.08097C146.502 2.10544 146.501 2.12991 146.5 2.15437C145.567 2.10079 146.719 2.31124 147.332 2.24425C147.378 2.27919 147.425 2.31413 147.471 2.34909C147.588 2.3224 147.706 2.29575 147.823 2.26912ZM80.2202 1.65675C80.3365 1.67809 80.4527 1.69945 80.5691 1.72083C81.0075 1.38755 80.1066 1.71714 79.4462 1.48242C79.6673 1.6689 78.6724 1.69005 78.6161 1.70482C78.7324 1.76631 78.8487 1.82782 78.965 1.88934C79.3836 1.81156 79.8042 1.73397 80.2202 1.65675ZM83.5086 1.78968C83.1005 1.63973 85.0834 1.58026 85.7412 1.60084C85.9021 1.60576 86.1906 1.68705 86.3063 1.67334C86.3759 1.63929 86.4456 1.60524 86.5152 1.57119C86.6009 1.68135 87.8903 1.5269 88.3994 1.45625C88.4483 1.49612 88.4972 1.536 88.546 1.57588C88.7316 1.55584 88.9172 1.53585 89.103 1.51592C89.0804 1.5571 89.0578 1.59829 89.0352 1.63948C89.175 1.58769 89.3148 1.53592 89.4547 1.48419C90.0066 1.41896 89.6699 1.64756 90.0841 1.57035C90.5446 1.48471 89.7851 1.3668 89.7975 1.28055C89.4229 1.30986 88.5722 1.37657 88.1927 1.38703C87.9748 1.39297 88.2182 1.23337 87.283 1.43073C87.0763 1.39391 86.8697 1.35715 86.6631 1.32045C86.2871 1.39451 85.9113 1.46877 85.5359 1.54323C85.4643 1.48778 85.3926 1.43235 85.321 1.37692C85.2819 1.3688 84.4082 1.51956 84.4563 1.56137C84.0987 1.4609 83.3699 1.45952 82.6041 1.47409C82.5311 1.50706 82.4583 1.54003 82.3854 1.57301C83.1242 1.48655 82.6219 1.59966 82.8442 1.65331C82.9725 1.68424 83.3643 1.74152 83.5086 1.78968ZM139.36 1.91752C140.611 1.82715 139.835 1.91115 141.177 1.96566C141.086 1.8881 140.996 1.81056 140.905 1.73303C140.24 1.84062 139.156 1.70891 139.359 1.91747C139.359 1.91749 139.36 1.9175 139.36 1.91752ZM152.522 2.29814C151.809 2.30276 152.159 2.43703 151.258 2.42412C151.257 2.42409 151.257 2.42407 151.257 2.42405C151.721 2.45779 152.185 2.49199 152.65 2.52666C152.607 2.45048 152.565 2.37431 152.522 2.29814ZM110.92 1.17358C110.237 1.13929 110.371 1.1971 109.751 1.081C108.829 1.21833 109.61 1.20011 109.609 1.32637C109.82 1.28976 110.031 1.25323 110.242 1.21677C110.753 1.33628 110.268 1.39433 110.268 1.40568C110.269 1.40568 110.269 1.40568 110.269 1.40568C110.269 1.44358 110.253 1.4515 110.449 1.47498C110.606 1.37447 110.763 1.274 110.92 1.17358ZM107.999 1.32423C108.232 1.24047 108.338 1.13276 107.723 1.079C107.723 1.079 107.722 1.079 107.722 1.079C107.673 1.26634 107.084 1.11537 106.816 1.12832C106.746 1.14876 106.675 1.16922 106.605 1.18968C107.069 1.23417 107.534 1.27902 107.999 1.32423ZM97.7123 1.55334C97.7073 1.34641 98.223 1.32098 97.495 1.13835C97.3542 1.14364 97.2133 1.14897 97.0725 1.15433C96.9806 1.20085 96.8887 1.24737 96.7968 1.29391C95.0072 0.942189 94.4831 1.58546 97.4969 1.31051C97.4974 1.31036 97.4978 1.31022 97.4982 1.31007C97.5696 1.39115 97.6409 1.47224 97.7123 1.55334ZM100.865 1.50613C100.887 1.3973 100.909 1.28847 100.931 1.17964C101.329 1.43874 101.835 1.18488 102.61 1.36527C102.68 1.33182 102.749 1.29838 102.819 1.26495C103.108 1.33486 105.954 1.34561 105.337 1.18084C105.067 1.10856 104.481 1.20977 104.431 1.20779C104.26 1.20024 104.036 1.10779 103.748 1.11453C103.581 1.11855 103.23 1.22997 102.89 1.23166C102.131 1.23517 100.742 0.950188 99.7409 1.23821C99.6685 1.20611 99.5961 1.17401 99.5237 1.14191C98.7808 1.16888 99.0298 1.27025 98.3378 1.15353C97.865 1.67358 101.117 1.10209 100.442 1.52701C100.443 1.52701 100.443 1.52701 100.444 1.527C100.584 1.52001 100.724 1.51306 100.865 1.50613ZM121.299 1.4287C121.342 1.52196 122.207 1.39309 122.001 1.61183C122.284 1.53918 122.567 1.46669 122.85 1.39434C122.848 1.37366 122.846 1.35297 122.844 1.33229C122.564 1.34358 122.284 1.35502 122.004 1.36661C122.003 1.33384 122.003 1.30107 122.002 1.2683C121.583 1.37931 119.846 1.30184 119.901 1.18696C119.807 1.23464 119.714 1.28233 119.62 1.33005C118.791 1.18531 118.078 1.31833 117.173 1.1783C117.103 1.21813 117.032 1.25797 116.961 1.29781C116.916 1.26458 116.87 1.23135 116.825 1.19812C116.494 1.19056 116.164 1.1832 115.834 1.17603C114.757 1.29812 116.845 1.48792 117.1 1.4719C117.134 1.46955 117.129 1.38468 117.34 1.37367C117.714 1.35375 119.797 1.46433 120.445 1.41868C120.45 1.47501 120.455 1.53134 120.459 1.58767C120.739 1.53454 121.019 1.48155 121.299 1.4287ZM93.7186 1.38468C93.6705 1.32816 93.6224 1.27164 93.5744 1.21512C92.7611 1.28486 92.2487 1.24369 92.4602 1.42947C92.4607 1.42947 92.4611 1.42946 92.4615 1.42945C92.8802 1.41426 93.2992 1.39934 93.7186 1.38468ZM33.3362 3.82679C33.3643 3.93908 33.7573 3.95746 34.2509 3.84553C34.2248 3.81402 34.1987 3.78252 34.1726 3.75101C33.9188 3.86366 33.5817 3.71502 32.7751 3.78738C32.7786 3.84452 32.7822 3.90166 32.7857 3.9588C32.9691 3.91478 33.1526 3.87077 33.3362 3.82679ZM94.4217 1.39899C94.671 1.46281 95.3657 1.24837 94.9065 1.24466C94.5555 1.24194 94.288 1.3647 94.4217 1.39899ZM155.312 2.57236C155.128 2.54928 154.945 2.52628 154.762 2.50335C154.663 2.54625 154.565 2.58916 154.466 2.6321C154.467 2.63213 154.467 2.63215 154.467 2.63218C154.749 2.61206 155.03 2.59212 155.312 2.57236ZM113.253 1.17543C112.629 1.1787 112.009 1.18266 111.382 1.18727C111.376 1.219 111.369 1.25073 111.363 1.28247C111.99 1.16912 112.24 1.29545 112.385 1.30381C112.385 1.3038 112.384 1.3038 112.384 1.3038C112.85 1.33136 113.295 1.35252 113.737 1.39345C113.575 1.32073 113.414 1.24806 113.253 1.17543ZM115.389 1.39166C115.285 1.16646 115.148 1.13871 114.189 1.28938C114.226 1.31728 114.264 1.34519 114.302 1.3731C114.798 1.36027 115.089 1.31098 115 1.42726C115.13 1.41536 115.259 1.40349 115.389 1.39166ZM105.622 1.29031C105.737 1.36132 106.652 1.28791 106.602 1.25206C106.583 1.2376 105.397 1.15069 105.622 1.29031ZM26.4307 4.31243C26.6414 4.31524 26.852 4.31808 27.0628 4.32094C26.7854 4.36318 26.5081 4.40546 26.231 4.44777C26.2976 4.40266 26.3642 4.35754 26.4307 4.31243ZM24.1552 4.78011C24.0037 4.76137 24.478 4.52811 23.5795 4.53481C24.2319 4.48774 24.8759 4.44143 25.5256 4.39499C25.2233 4.44729 24.9213 4.49962 24.6194 4.55199C24.6763 4.60637 24.7331 4.66075 24.7899 4.71513C24.5782 4.73677 24.3666 4.75844 24.1552 4.78011ZM23.4469 4.67838C23.8075 4.80829 21.9617 4.94129 21.7895 4.93407C21.7509 4.93215 21.5614 4.8282 21.4928 4.80771C21.771 4.78913 22.0494 4.77057 22.328 4.75203C22.2324 4.72167 22.1367 4.69131 22.0411 4.66095C22.3662 4.62689 22.6916 4.59288 23.0172 4.5589C22.88 4.60474 22.7429 4.6506 22.6059 4.69645C22.8861 4.6904 23.1664 4.68437 23.4469 4.67838ZM30.8361 4.16635C30.6029 4.17713 30.3699 4.18793 30.137 4.19876C30.1871 4.25297 30.2372 4.30717 30.2873 4.36138C30.4266 4.35261 30.5659 4.34385 30.7053 4.33509C30.7489 4.27884 30.7925 4.2226 30.8361 4.16635ZM26.0925 4.54278C26.4137 4.24577 27.3773 4.78751 26.2824 4.63454C26.172 4.61894 26.0621 4.57143 26.0925 4.54278ZM21.0969 4.94702C20.3866 5.19565 20.5203 4.74205 21.2123 4.82632C21.2471 4.83093 21.1502 4.9286 21.0969 4.94702ZM15.6681 5.31825C15.6095 5.32074 15.4971 5.18435 14.948 5.35865C14.8547 5.34859 14.7614 5.33853 14.6682 5.32846C14.8785 5.24712 16.724 5.08208 16.4785 5.24145C16.1955 5.26284 15.9609 5.30281 15.6681 5.31825ZM17.4954 5.72724C17.7732 5.70451 18.0512 5.68179 18.3293 5.65909C18.2344 5.62036 18.1397 5.58164 18.0449 5.54291C18.181 5.52148 18.3171 5.50005 18.4533 5.47862C18.6925 5.54033 18.9324 5.60202 19.1715 5.66379C18.5669 5.71672 17.9622 5.76981 17.3589 5.82295C17.4044 5.79105 17.4499 5.75915 17.4954 5.72724ZM24.8882 5.34793C24.3521 5.32628 23.7012 5.42904 22.83 5.47677C22.8296 5.47666 22.8291 5.47655 22.8287 5.47643C22.7853 5.47863 22.7043 5.42201 22.5646 5.42876C22.4444 5.43449 20.1063 5.65775 20.2826 5.54114C21.1816 5.38708 21.5303 5.50718 21.7325 5.26025C21.78 5.30634 21.8275 5.35244 21.8749 5.39854C22.7532 5.42571 22.9918 5.23962 23.4788 5.14511C23.4793 5.18218 23.4798 5.21925 23.4803 5.25633C23.809 5.23847 24.1365 5.22073 24.4624 5.20316C24.4148 5.18187 24.3673 5.16057 24.3197 5.13927C24.4351 5.13173 24.5504 5.1242 24.6659 5.11667C24.9542 5.20782 25.3125 5.21013 24.8882 5.34793ZM16.2314 5.75149C15.9942 6.04891 13.4829 6.02704 12.3408 6.1647C12.9288 5.95481 13.8706 6.00717 14.5244 5.96434C15.7855 5.88162 14.9068 5.83774 15.1177 5.77789C15.2219 5.7483 15.9501 5.87929 16.2314 5.75149ZM26.8357 5.17253C26.2031 5.19056 25.8544 5.27795 25.3029 5.21049C25.3472 5.18706 25.3915 5.16363 25.4358 5.1402C25.6232 5.14673 27.1508 5.10746 26.8357 5.17253ZM10.6627 6.2065C11.8855 6.22335 11.2683 6.01097 11.9144 6.15759C11.4984 6.19832 11.0829 6.23905 10.6678 6.27981C10.6661 6.25537 10.6644 6.23093 10.6627 6.2065ZM95.838 2.43609C96.3513 2.43577 96.9256 2.48009 97.2318 2.37059C96.8823 2.35828 96.533 2.34615 96.1838 2.33421C96.0685 2.36815 95.9532 2.40211 95.838 2.43609ZM81.1872 3.77137C81.3051 3.7935 81.7667 3.70594 81.8156 3.70464C81.9064 3.70219 81.8826 3.73977 81.8841 3.74938C82.4784 3.72676 81.9268 3.62694 82.3662 3.59034C82.4412 3.58414 83.477 3.61379 83.8983 3.59874C84.5459 3.57535 85.1958 3.56729 85.4353 3.5597C85.8421 3.54685 86.5963 3.44359 87.2667 3.4246C87.543 3.41692 87.641 3.48361 87.9191 3.47599C89.7086 3.42501 93.2127 3.26925 94.8022 3.29192C95.1944 3.29721 95.5698 3.38224 95.7772 3.37218C95.9396 3.33714 96.1018 3.30215 96.2642 3.2672C96.7685 3.55703 96.9328 3.29163 97.4728 3.25781C97.816 3.23646 97.9776 3.3225 98.0237 3.32178C98.3296 3.31676 98.4802 3.27344 98.7205 3.2641C98.9903 3.25373 99.3787 3.28963 99.4752 3.28161C99.5345 3.27636 99.3436 3.16106 100.393 3.15438C101.465 3.14784 102.51 3.15333 103.596 3.15359C103.233 2.80325 102.922 3.04584 102.48 3.06133C102.361 3.06549 102.436 3.00914 102.333 3.01223C102.041 3.02065 101.483 3.07937 101.242 3.06786C100.981 3.05544 101.069 2.92519 100.737 2.97557C100.72 2.97817 100.774 3.03126 100.696 3.04084C99.9119 3.13575 99.6543 3.0448 98.6638 3.0519C98.0077 3.05426 94.0279 3.15929 93.8884 3.12841C93.1721 2.95034 97.3729 2.89075 97.8613 2.90269C98.0331 2.90602 97.8537 2.96705 98.0103 2.9767C98.0767 2.9805 98.672 2.86143 99.2623 2.84652C99.9756 2.82815 101.415 2.89362 102.091 2.88686C107.94 2.82616 113.691 2.91216 119.531 2.99306C119.656 2.99477 119.82 2.92947 120.226 2.93531C127.795 3.04529 135.636 3.32049 143.296 3.62699C144.971 3.69385 146.625 3.70875 148.307 3.84469C148.519 3.80611 148.731 3.76764 148.942 3.72926C148.405 3.74049 147.431 3.58014 147.342 3.57421C147.31 3.57213 147.105 3.61755 146.778 3.59868C146.32 3.57237 146.121 3.51473 146.083 3.51291C145.966 3.50718 146.04 3.56201 145.929 3.55646C145.1 3.51483 144.449 3.49947 143.684 3.46585C142.82 3.42792 142.386 3.31391 141.753 3.39213C141.684 3.34831 141.614 3.3045 141.545 3.2607C141.07 3.41659 138.271 3.28629 137.136 3.23778C136.779 3.22202 136.844 3.15256 136.724 3.1483C136.647 3.14578 136.674 3.24031 135.739 3.18985C135.269 3.16453 135.148 3.09208 134.912 3.0865C134.784 3.0836 134.802 3.15214 134.618 3.14614C133.554 3.11158 132.678 3.06277 131.634 3.02015C131.341 3.00829 131.339 2.95159 131.273 2.95046C131.031 2.94618 130.608 3.03028 129.994 3.01368C128.986 2.98568 126.962 2.93696 126.135 2.87301C126.014 2.86346 125.914 2.79331 125.825 2.79239C125.689 2.79123 125.635 2.86104 125.611 2.86092C125.158 2.85267 125.432 2.7924 125.128 2.80217C124.964 2.80747 124.792 2.88485 124.412 2.88653C123.911 2.88886 124.011 2.79481 123.802 2.80044C123.779 2.80153 123.772 2.86816 123.566 2.86654C122.788 2.85984 121.646 2.85602 120.907 2.84462C120.695 2.84138 120.537 2.79404 120.241 2.78897C119.643 2.77692 116.252 2.76618 115.971 2.73933C115.941 2.73635 116.245 2.64065 115.763 2.63914C115.622 2.67887 115.482 2.71865 115.342 2.75845C115.109 2.69078 114.875 2.62321 114.642 2.55574C114.649 2.78237 113.275 2.80777 113.29 2.57616C113.14 2.56582 112.99 2.55553 112.84 2.54527C112.526 2.70378 112.32 2.64341 111.712 2.73483C111.618 2.68528 111.524 2.63575 111.429 2.58623C111.405 2.61889 111.381 2.65155 111.357 2.68421C111.034 2.50537 110.503 2.68191 110.438 2.68274C110.19 2.68595 110.004 2.64038 109.888 2.64157C109.454 2.64513 108.516 2.70607 108.01 2.67728C107.986 2.6758 108.01 2.59992 107.866 2.59054C107.606 2.57364 107.581 2.68472 107.235 2.55445C107.165 2.58725 107.096 2.62007 107.026 2.65289C106.952 2.63601 106.878 2.61914 106.804 2.60228C106.367 2.61149 105.925 2.62103 105.487 2.63089C105.886 2.50142 105.426 2.43072 104.992 2.53323C104.845 2.56799 104.976 2.64577 104.927 2.65777C104.859 2.6735 102.892 2.64241 102.762 2.59314C102.669 2.6183 102.576 2.64348 102.483 2.66867C102.436 2.61968 102.389 2.57069 102.341 2.52171C102.29 2.53925 102.239 2.5568 102.188 2.57436C101.678 2.4905 100.349 2.69981 100.107 2.68638C99.978 2.67914 100.092 2.46797 99.4744 2.49504C99.4535 2.55292 99.4326 2.61079 99.4117 2.66866C99.2704 2.67824 99.1291 2.68784 98.9878 2.69748C98.7226 2.6949 98.3357 2.59895 98.3227 2.53074C98.2402 2.57262 98.1579 2.61451 98.0756 2.65641C97.8516 2.52499 96.6672 2.58595 96.1927 2.67676C96.053 2.63823 95.9133 2.59973 95.7736 2.56126C95.5862 2.61272 95.3989 2.66423 95.2116 2.7158C94.7766 2.73657 95.2353 2.64877 95.1424 2.64326C94.9457 2.63177 93.9484 2.78392 94.0117 2.61168C93.8755 2.61329 93.7392 2.61493 93.603 2.6166C93.5338 2.66666 93.4645 2.71673 93.3953 2.76681C93.159 2.60161 92.7554 2.66742 91.9263 2.61992C91.8575 2.65998 91.7887 2.70005 91.7199 2.74013C91.463 2.68931 91.2061 2.6386 90.9494 2.58798C90.898 2.65329 90.8467 2.7186 90.7954 2.78392C90.6843 2.7952 90.5733 2.80651 90.4624 2.81783C90.2329 2.67786 89.8277 2.84141 89.6192 2.786C89.3148 2.70515 89.5467 2.59703 90.1087 2.56637C90.0643 2.46186 88.3911 2.54308 88.0063 2.55924C88.0322 2.57921 88.0581 2.59918 88.0841 2.61915C88.4779 2.59466 88.8719 2.57039 89.2663 2.54635C89.6022 2.80383 88.5291 2.75421 88.039 2.79871C87.9942 2.80293 87.7417 2.90823 87.2471 2.90966C87.0555 2.91006 86.3059 2.78054 86.1633 2.77572C85.0115 2.7356 85.8647 2.92456 84.7317 2.76837C84.9708 2.90297 84.3184 2.80194 83.6441 2.84613C83.5291 2.85355 82.5585 2.9924 82.493 2.9972C82.0839 3.02629 82.5264 2.89044 81.9348 2.93854C81.8645 2.97306 81.7942 3.00758 81.7239 3.0421C81.586 3.04583 81.4482 3.04959 81.3104 3.05337C80.4663 2.7859 80.2783 3.00559 79.9822 3.04151C79.8624 3.05605 80.0157 2.97576 79.7036 3.00081C79.586 3.01018 79.4573 3.077 79.1408 3.09076C78.151 3.13387 77.8068 2.87426 76.907 3.18362C76.7663 3.14729 76.6257 3.111 76.485 3.07473C76.3925 3.12655 76.3001 3.17838 76.2077 3.23021C75.4843 3.11173 75.7486 3.2485 75.489 3.25523C74.8064 3.27287 73.3958 3.29327 73.269 3.18089C72.6848 3.46974 71.9656 3.19235 71.7324 3.21125C71.5948 3.24884 71.4573 3.28645 71.3198 3.32408C71.1555 3.29728 70.9914 3.2705 70.8272 3.24376C70.916 3.50426 70.0629 3.27641 69.982 3.27557C69.8899 3.27492 68.5913 3.40232 68.1063 3.42001C67.6222 3.43734 66.7773 3.39958 66.7032 3.40246C66.6179 3.40586 65.7988 3.51061 65.1574 3.53651C64.6014 3.55753 61.2538 3.60059 61.4717 3.70943C61.6911 3.73229 62.0027 3.74681 62.2718 3.75037C63.113 3.75814 67.9922 3.61697 69.2507 3.59051C71.7481 3.53252 74.3756 3.4338 76.885 3.38051C77.033 3.37733 77.0577 3.44492 77.1848 3.44248C77.3777 3.4384 77.8653 3.35494 78.0557 3.35065C78.7662 3.33486 79.6344 3.32067 80.0137 3.31158C80.8611 3.2908 81.4443 3.31599 82.0871 3.30543C82.2882 3.30195 83.3037 3.19047 84.0037 3.20892C84.1308 3.22498 84.258 3.24107 84.3851 3.25718C84.0254 3.28835 83.0831 3.37028 82.6459 3.38851C81.9949 3.41521 81.6543 3.36912 81.4142 3.37663C81.2128 3.38277 80.1892 3.4745 79.721 3.48969C79.5752 3.49441 79.5432 3.42365 79.4185 3.42754C78.7417 3.44897 77.8515 3.47786 77.2683 3.5664C77.5063 3.53587 76.0134 3.53904 75.9355 3.54205C75.8016 3.54641 75.6585 3.61813 75.3852 3.6271C74.8592 3.64442 74.924 3.50188 74.2684 3.66433C74.1037 3.62901 73.939 3.59372 73.7743 3.55847C73.7702 3.74518 71.7003 3.56333 71.1245 3.81215C71.1091 3.83768 73.7876 3.81553 74.0102 3.81246C75.3377 3.78937 77.2889 3.68106 78.5792 3.67549C78.9669 3.67353 80.19 3.75172 80.2796 3.74721C80.4271 3.73982 80.292 3.67865 80.3557 3.67453C81.6604 3.58957 81.0125 3.73849 81.1872 3.77137ZM23.5062 5.56162C23.9058 5.54309 24.3019 5.52488 24.6984 5.50673C24.6723 5.54953 24.6462 5.59234 24.6202 5.63514C24.4378 5.63106 24.2554 5.62699 24.0731 5.62293C23.9354 5.6565 23.796 5.69017 23.6575 5.72381C23.607 5.66974 23.5566 5.61568 23.5062 5.56162ZM22.5367 5.79753C22.1933 5.84089 22.1709 5.75571 22.0911 5.75675C21.8529 5.75965 21.65 5.80813 21.4199 5.82217C21.6712 5.59959 22.2425 5.65615 22.5367 5.79753ZM29.6552 5.41115C29.5762 5.4063 29.0492 5.21802 28.4688 5.46127C28.0223 5.42425 27.5761 5.38733 27.1304 5.35049C27.8857 5.40193 28.9236 5.23179 29.2867 5.21275C29.4258 5.20543 29.4566 5.2715 29.5677 5.26557C30.2083 5.23043 30.8224 5.03775 30.902 5.25808C30.2912 5.23093 29.7548 5.41695 29.6552 5.41115ZM25.7746 5.57974C25.669 5.5395 25.5634 5.49926 25.4578 5.45902C25.8283 5.43496 26.1991 5.41095 26.5702 5.387C26.4729 5.44095 26.3757 5.49489 26.2784 5.54884C26.1104 5.55913 25.9425 5.56943 25.7746 5.57974ZM54.3449 4.08135C54.1165 4.09208 53.8882 4.10285 53.658 4.11378C53.672 4.14736 53.9359 4.13408 54.0326 4.15244C54.0321 4.15246 54.0317 4.15248 54.0313 4.15251C54.1398 4.17329 54.0961 4.21961 54.292 4.22941C54.3096 4.18006 54.3273 4.1307 54.3449 4.08135ZM149.213 3.89046C149.599 3.91074 153.143 4.107 152.847 3.96674C152.699 3.8955 151.485 3.88173 151.128 3.86152C150.646 3.83347 149.348 3.62937 149.213 3.89046ZM155.491 4.26965C155.56 4.14837 153.344 3.99662 153.127 4.00672C153.171 4.02709 153.24 4.07062 153.301 4.08311C153.597 4.14284 155.015 4.20612 155.491 4.26965ZM67.1889 3.8662C67.0076 3.81042 66.8263 3.75468 66.6451 3.69897C66.6954 3.7789 66.7457 3.85883 66.796 3.93877C66.9269 3.91456 67.0579 3.89037 67.1889 3.8662ZM84.5282 3.21564C87.5017 3.147 90.4894 3.09083 93.4633 3.04861C93.2016 3.08672 92.9401 3.12493 92.6788 3.16324C90.1208 3.19275 87.3683 3.21456 84.8998 3.32672C84.7759 3.28967 84.6521 3.25264 84.5282 3.21564ZM30.5146 5.72634C31.2754 5.6797 31.9082 5.57989 32.7444 5.62391C31.959 5.7655 31.5588 5.64675 30.8005 5.83122C30.8001 5.83125 30.7997 5.83128 30.7992 5.8313C30.7044 5.79631 30.6094 5.76133 30.5146 5.72634ZM47.5286 4.75229C47.2995 4.82198 47.0706 4.8917 46.8419 4.96148C47.1208 4.94631 47.3998 4.93121 47.679 4.91618C47.6289 4.86154 47.5787 4.80691 47.5286 4.75229ZM110.515 3.24521C111.317 3.12201 113.355 3.35877 114.004 3.21365C114.046 3.2041 113.661 3.13787 114.285 3.01957C113.814 3.04124 113.482 3.06483 113.446 3.16118C113.307 3.12753 113.167 3.09391 113.028 3.06033C112.796 3.08374 112.564 3.10724 112.333 3.13083C112.358 3.03481 112.34 3.03978 111.984 3.10391C111.821 3.07879 111.658 3.05372 111.495 3.02869C111.426 3.06913 111.356 3.10958 111.287 3.15004C111.146 3.09253 111.006 3.03505 110.865 2.9776C110.315 3.0376 110.649 3.14908 110.515 3.24521ZM107.721 3.21773C107.849 3.23709 111.552 3.17587 109.869 2.98032C109.432 2.98545 108.995 2.9909 108.558 2.99668C108.919 3.31449 107.729 3.02979 107.631 3.02336C107.163 2.99242 106.57 3.06868 106.228 3.06543C105.935 3.06252 105.761 3.00596 105.555 3.00796C104.854 3.01451 103.747 3.02134 103.596 3.15359C104.14 3.15374 104.693 3.153 105.26 3.14805C105.858 3.14296 106.389 3.26549 107.509 3.09475C107.787 3.11294 107.688 3.21232 107.721 3.21773ZM46.1433 4.98635C46.1636 4.85289 44.7565 4.96218 44.7507 5.01489C44.7496 5.04556 45.208 5.01939 45.2743 5.02735C45.2747 5.02732 45.2751 5.0273 45.2755 5.02728C45.3031 5.03082 45.1673 5.08894 45.3837 5.09104C45.6367 5.0561 45.8899 5.02119 46.1433 4.98635ZM143.683 3.91867C143.874 3.99817 148.227 4.17971 148.358 4.15401C148.394 4.14596 148.347 4.11103 148.362 4.093C147.339 4.14524 145.905 3.95183 144.939 3.89918C144.669 3.88452 144.747 3.94068 144.732 3.94097C144.731 3.94094 144.731 3.94091 144.73 3.94088C144.577 3.93388 143.892 3.77448 143.683 3.91867ZM115.401 3.16443C115.216 3.14216 115.031 3.11996 114.845 3.09781C114.798 3.13831 114.751 3.1788 114.703 3.2193C114.704 3.2193 114.704 3.21931 114.704 3.21931C114.937 3.20092 115.169 3.18262 115.401 3.16443ZM121.826 3.37962C121.781 3.35012 121.736 3.32062 121.691 3.29112C121.224 3.27953 120.757 3.26834 120.29 3.25755C120.337 3.24201 120.384 3.22646 120.432 3.21092C119.726 3.1572 119.433 3.25448 119.057 3.23497C119.058 3.23498 119.058 3.23498 119.059 3.23499C119.018 3.23277 118.97 3.17219 118.82 3.16824C118.475 3.15897 117.489 3.12516 117.368 3.18427C117.115 3.30977 119.101 3.27206 119.473 3.28366C119.64 3.28864 119.841 3.3439 119.943 3.34658C120.055 3.34932 120.208 3.28064 120.481 3.28685C120.56 3.28866 121.443 3.38549 121.826 3.37962ZM130.067 3.47122C129.925 3.40253 129.623 3.45725 129.513 3.4438C129.487 3.44061 129.693 3.39167 129.445 3.36896C129.374 3.40415 129.303 3.43936 129.232 3.47457C129.51 3.4733 129.788 3.47218 130.067 3.47122ZM43.7809 5.17994C43.8231 5.19147 44.577 5.14418 44.6131 5.13337C45.0587 4.98992 43.4962 5.09012 43.7809 5.17994ZM24.6857 6.48201C25.0504 6.63002 20.8981 6.73375 20.5031 6.76988C20.5157 6.66065 21.5044 6.70386 20.9804 6.58996C21.476 6.63873 22.8317 6.50569 23.1538 6.5083C23.3491 6.5098 23.4042 6.59977 23.4338 6.60079C23.5506 6.60361 24.5603 6.42937 24.6857 6.48201ZM17.0852 6.92566C17.4792 6.91958 17.8735 6.91354 18.2682 6.90754C17.8049 6.95099 17.3421 6.99448 16.8799 7.03803C16.9483 7.00057 17.0167 6.96311 17.0852 6.92566ZM16.5949 7.00807C16.6143 7.11176 15.2785 7.12238 14.9316 7.17029C15.3129 6.96563 15.9813 7.08864 16.5949 7.00807ZM38.7747 5.73929C39.3919 5.77234 39.6355 5.43807 38.8996 5.62065C38.8775 5.62656 38.7487 5.73715 38.7747 5.73929ZM110.704 3.69525C110.808 3.69731 112.116 3.80627 112.19 3.75559C112.429 3.59313 111.573 3.65458 111.286 3.5918C110.823 3.49002 111.504 3.4097 110.373 3.46652C110.419 3.4339 110.466 3.40128 110.512 3.36867C109.85 3.35594 110.066 3.58352 109.948 3.61238C109.911 3.62114 109.498 3.60119 109.423 3.61557C108.492 3.79668 110.606 3.69281 110.704 3.69525ZM53.9779 4.93411C55.202 4.96982 54.67 4.85463 55.9239 4.80229C55.9618 4.72811 54.1328 4.8629 53.9779 4.93411ZM98.783 3.60699C100.048 3.56609 101.097 3.65191 102.272 3.51803C102.198 3.32184 98.4525 3.55846 98.783 3.60699ZM158.222 5.32886C153.328 4.66194 147.651 4.46857 142.407 4.25073C141.836 4.22681 141.785 4.14751 141.578 4.14721C141.442 4.147 141.463 4.21013 141.284 4.20297C134.779 3.94437 128.548 3.85047 122.319 3.70664C121.925 3.69686 120.015 3.53385 119.605 3.73026C119.295 3.87867 120.668 3.77886 120.897 3.78405C121.069 3.78768 121.075 3.85961 121.19 3.86165C121.311 3.86381 121.211 3.81317 121.353 3.81466C121.951 3.82068 122.606 3.85103 123.146 3.85662C128.442 3.91236 133.605 4.06736 138.874 4.27515C139.513 4.30041 139.38 4.353 139.412 4.35445C139.412 4.35432 139.413 4.3542 139.413 4.35407C142.827 4.49161 146.74 4.54151 150.362 4.78644C152.905 4.96287 155.458 5.15344 157.999 5.35718C158.073 5.34773 158.148 5.33829 158.222 5.32886ZM108 3.48774C108.319 3.70492 108.389 3.48561 109.532 3.57604C109.626 3.53919 109.719 3.50235 109.812 3.46553C109.207 3.47231 108.602 3.47971 107.998 3.48774C107.999 3.48774 108 3.48774 108 3.48774ZM115.55 3.60067C115.741 3.89466 118.301 3.7136 119.448 3.78623C119.661 3.64164 117.989 3.68608 117.596 3.66663C117.4 3.65667 116.342 3.4938 115.539 3.57067C115.543 3.58067 115.546 3.59067 115.55 3.60067ZM29.036 6.63324C29.2204 6.61296 29.405 6.59268 29.5896 6.57243C29.1252 6.56931 28.6571 6.56656 28.1892 6.56394C28.9356 6.5372 29.6736 6.51134 30.4154 6.48558C30.2813 6.55496 30.1473 6.62434 30.0134 6.69373C29.6873 6.67352 29.3615 6.65336 29.036 6.63324ZM31.4343 6.45072C30.1385 6.5549 31.4823 6.30747 31.8112 6.35954C32.0079 6.39075 31.5667 6.43996 31.4343 6.45072ZM34.8186 6.34649C34.2231 6.48966 32.9969 6.57267 33.4197 6.33297C34.0842 6.3921 34.495 6.2837 35.4466 6.28345C35.3108 6.33264 35.175 6.38184 35.0392 6.43106C35.0386 6.4311 35.038 6.43113 35.0373 6.43117C34.9644 6.40294 34.8915 6.37471 34.8186 6.34649ZM30.8499 6.61664C29.9925 6.54765 32.4554 6.43533 31.687 6.5642C31.6509 6.57014 30.8835 6.61919 30.8499 6.61664ZM152.776 5.21734C152.882 5.15359 152.229 5.11768 152.012 5.10092C151.075 5.02746 149.859 4.99216 148.879 4.93195C148.952 4.95867 149.024 4.9854 149.097 5.01215C150.326 5.07754 151.552 5.14595 152.776 5.21734ZM145.814 4.77938C145.144 4.74752 144.464 4.71615 143.79 4.68597C143.727 4.68314 143.43 4.72975 143.648 4.75405C144.369 4.76139 145.096 4.77007 145.814 4.77938ZM103.74 3.91511C104.257 3.95165 102.769 4.15886 102.835 3.94451C103.137 3.93456 103.438 3.92476 103.74 3.91511ZM98.9271 4.03538C99.2515 4.01182 99.576 3.98843 99.9008 3.96521C99.9014 3.98985 99.9021 4.01448 99.9027 4.03911C99.5773 4.0377 99.2521 4.03645 98.9271 4.03538ZM155.421 5.42275C155.082 5.31756 154.263 5.28138 153.753 5.2499C154.1 5.34268 154.94 5.35702 155.421 5.42275ZM111.493 3.99937C111.454 3.9412 113.507 3.96659 112.796 4.06386C112.363 4.04204 111.93 4.02055 111.493 3.99937ZM115.67 4.11188C115.228 4.12046 114.886 4.09801 114.978 4.0085C115.212 4.01427 115.446 4.02013 115.68 4.0261C115.677 4.05469 115.673 4.08329 115.67 4.11188ZM37.1318 6.37876C37.8736 6.32622 38.6225 6.27368 39.3609 6.22221C39.335 6.24842 39.3089 6.27463 39.2829 6.30083C38.5702 6.35069 37.8489 6.40145 37.1336 6.45226C37.133 6.42776 37.1324 6.40326 37.1318 6.37876ZM155.828 5.66938C156.34 5.68475 156.851 5.70061 157.359 5.7169C156.852 5.66804 156.343 5.6196 155.832 5.57165C155.83 5.60434 155.828 5.63703 155.826 5.66973C155.827 5.66961 155.827 5.66949 155.828 5.66938ZM26.9792 7.33042C29.2576 7.29922 26.3668 7.60637 25.7596 7.47691C25.7589 7.47709 25.7583 7.47728 25.7577 7.47746C25.7044 7.46597 25.8104 7.38677 25.7214 7.36336C25.954 7.38095 26.1868 7.39855 26.4197 7.41618C26.6276 7.36207 26.8356 7.30798 27.0437 7.25391C27.1141 7.26536 27.1845 7.27681 27.255 7.28826C27.163 7.30231 27.0711 7.31636 26.9792 7.33042ZM17.8308 7.99851C15.7722 8.12424 17.8641 7.80179 18.8954 7.8755C18.8902 7.90889 18.0205 7.98692 17.8308 7.99851ZM23.2185 7.60055C23.5421 7.56285 23.8668 7.52514 24.19 7.48757C24.2326 7.50547 24.2752 7.52338 24.3178 7.54129C24.0722 7.5779 23.8221 7.61485 23.5744 7.65166C23.4558 7.63462 23.3371 7.61758 23.2185 7.60055ZM33.8984 7.23921C34.4193 7.23 35.0729 6.9597 33.4002 7.12307C33.4025 7.1476 33.4049 7.17214 33.4073 7.19668C33.474 7.18862 33.669 7.15345 33.6798 7.15463C33.711 7.15889 33.6797 7.24323 33.8984 7.23921ZM14.0696 8.90432C14.0116 8.91769 13.9971 9.17913 13.3685 8.95272C13.1851 8.98169 13.0019 9.01066 12.8187 9.03964C12.7672 8.98579 12.7157 8.93194 12.6641 8.8781C13.3804 8.87345 13.4485 8.75273 13.5 8.74673C13.7366 8.71967 13.565 8.79113 13.7183 8.78147C14.1148 8.75629 15.0081 8.65527 14.6137 8.85262C14.4725 8.92329 14.1274 8.89098 14.0696 8.90432ZM15.4713 8.95692C15.3836 8.94115 15.6562 8.84641 15.5896 8.8294C15.5312 8.81457 14.6698 8.79551 14.8928 8.6516C15.0337 8.64742 15.1746 8.64324 15.3156 8.63907C15.3656 8.67092 15.4157 8.70277 15.4658 8.73462C15.5998 8.69296 15.7338 8.65131 15.8679 8.60966C16.1034 8.68066 16.6 8.75967 16.0242 8.86968C16.2371 8.8478 16.4501 8.82593 16.6632 8.80408C16.7711 8.75509 16.8789 8.70611 16.9868 8.65713C16.9331 8.72429 16.8794 8.79144 16.8256 8.8586C16.3737 8.89133 15.9222 8.92411 15.4713 8.95692ZM8.84448 9.38773C8.86832 9.35325 8.89216 9.31877 8.91597 9.28428C8.13291 9.39953 6.91238 9.50753 7.59248 9.25443C8.65416 9.16359 9.72422 9.07238 10.7804 8.98242C10.8525 9.00214 10.9247 9.02186 10.9968 9.04159C10.1987 9.00148 10.4711 9.38757 9.77542 9.31947C9.65772 9.30791 9.98658 9.14357 9.25902 9.28452C9.28743 9.31553 9.31578 9.34654 9.34417 9.37755C9.17756 9.38095 9.01097 9.38434 8.84448 9.38773ZM2.09123 9.8086C3.43814 9.76199 1.9662 9.98461 1.71176 9.90278C1.7122 9.90275 1.71263 9.90272 1.71304 9.90269C1.01495 9.67887 2.48456 9.7079 2.57408 9.69993C2.69256 9.68925 2.95499 9.47576 3.62092 9.71379C3.11038 9.74542 2.60045 9.77703 2.09123 9.8086ZM6.48327 9.5512C6.37095 9.56544 6.42993 9.51178 6.38129 9.51589C6.38088 9.51592 6.38043 9.51595 6.38002 9.51598C5.66445 9.57634 3.95451 9.73993 3.75686 9.59381C4.29306 9.543 6.66787 9.34307 6.81987 9.44128C6.70766 9.47792 6.59542 9.51456 6.48327 9.5512ZM11.537 9.08232C11.9854 9.155 10.993 9.23709 10.7298 9.20731C10.68 9.20037 11.0726 9.00703 11.537 9.08232ZM45.4294 7.20569C46.3965 7.09009 45.1179 7.09854 45.5539 6.97717C45.369 6.99565 45.1842 7.01416 44.9994 7.03269C45.1427 7.09034 45.286 7.14801 45.4294 7.20569ZM89.7479 5.68197C89.9753 5.68906 89.8665 5.63184 89.8862 5.63059C90.0354 5.62937 90.1771 5.67501 90.2343 5.66882C91.2885 5.55165 90.5853 5.51491 90.5749 5.5035C90.5514 5.44525 90.8273 5.37146 90.4421 5.31154C90.2083 5.3367 89.9746 5.36194 89.741 5.38726C89.6242 5.3569 89.5074 5.32656 89.3907 5.29624C88.9274 5.3754 89.5358 5.38253 89.6066 5.47405C89.6338 5.51002 89.1976 5.56222 89.7479 5.68197ZM47.1806 7.30659C47.3327 7.19511 47.7124 7.04438 47.3271 6.9615C47.3266 6.96153 47.3262 6.96155 47.3258 6.96157C47.2545 6.94645 46.9681 6.95156 46.8789 6.92978C46.2606 7.10103 46.5079 7.22956 47.1806 7.30659ZM85.5664 5.95619C85.1916 5.94092 84.8124 5.92595 84.4349 5.91115C84.4398 5.84921 84.4446 5.78726 84.4496 5.72532C84.6518 5.73702 84.8542 5.74878 85.0566 5.76059C85.1267 5.7307 85.197 5.70082 85.2666 5.67096C85.0151 5.60643 84.7619 5.54202 84.5096 5.47768C84.2082 5.50971 83.9069 5.54186 83.6058 5.57414C83.7453 5.60323 83.8848 5.63234 84.0244 5.66148C83.2878 5.71601 83.4445 5.56172 82.8331 5.52008C82.6258 5.58276 82.4186 5.64549 82.2115 5.70829C81.908 5.65883 81.6045 5.6095 81.3012 5.5603C80.795 5.60117 80.7518 5.64628 81.0947 5.70234C80.8448 5.78425 80.5657 5.67414 80.2633 5.71332C80.2383 5.71649 80.2875 5.78571 80.2654 5.7872C78.6947 5.88 78.7709 5.69313 78.5197 5.69259C78.342 5.69245 77.6379 5.83918 77.6282 5.88221C77.6166 5.9402 79.094 6.12091 76.7913 6.19863C77.9857 6.31751 79.3375 6.11802 78.4538 5.91427C78.832 5.92566 80.4954 5.82004 80.5994 5.82432C80.7538 5.8304 80.7022 5.91915 80.8954 5.91603C81.0096 5.91413 81.3062 5.70601 82.2155 5.85606C82.3302 5.82023 82.445 5.78442 82.5597 5.74863C82.6688 5.77268 82.778 5.79675 82.8871 5.82083C82.6663 5.9226 82.4457 6.02443 82.2253 6.12633C83.106 5.99851 83.8453 6.17588 84.3805 5.99754C84.8473 6.00528 85.0746 6.01891 84.8762 6.1081C85.016 6.10472 85.1571 6.10134 85.2959 6.09805C85.386 6.05075 85.4762 6.00346 85.5664 5.95619ZM50.029 7.00704C50.4955 7.07856 50.6509 6.86351 50.5784 6.85555C50.1699 6.81239 49.7862 6.96987 50.029 7.00704ZM88.9045 5.58883C88.3924 5.5459 87.8806 5.50335 87.3693 5.46118C87.3707 5.52653 87.3721 5.59188 87.3735 5.65724C87.8834 5.63406 88.3937 5.61125 88.9045 5.58883ZM45.2957 7.36029C45.2461 7.31397 45.1966 7.26765 45.147 7.22133C44.5986 7.43096 44.0335 7.20551 43.7583 7.27412C43.6988 7.28906 43.825 7.3686 43.9407 7.38067C44.0125 7.38815 45.1975 7.38217 45.2957 7.36029ZM22.0333 8.7633C22.2393 8.71669 22.4455 8.6701 22.6517 8.62352C22.6438 8.67927 22.636 8.73503 22.628 8.79078C22.5258 8.8078 22.4236 8.82483 22.3214 8.84187C22.2253 8.81567 22.1293 8.78949 22.0333 8.7633ZM24.3998 8.51981C24.7701 8.50002 25.1407 8.48028 25.5116 8.46059C24.1019 8.60305 25.2629 8.55211 24.4102 8.67968C24.4067 8.62639 24.4032 8.5731 24.3998 8.51981ZM28.1628 8.38807C28.1192 8.42383 28.0755 8.45958 28.0319 8.49534C27.6599 8.51916 27.2882 8.54305 26.9168 8.56699C27.159 8.66583 27.4013 8.76469 27.6437 8.86358C27.78 8.85511 27.9163 8.84666 28.0526 8.83822C28.0893 8.68817 28.1261 8.53812 28.1628 8.38807ZM99.7828 5.78506C100.008 5.78493 100.789 5.67871 100.756 5.6423C100.43 5.59972 100.105 5.55731 99.7791 5.51507C99.7782 5.58059 99.7773 5.64611 99.7764 5.71163C99.7302 5.67943 99.684 5.64724 99.6377 5.61504C99.4532 5.64122 99.2687 5.66744 99.0843 5.69372C98.9907 5.63738 98.8971 5.58105 98.8034 5.52473C98.7106 5.59103 98.6178 5.65734 98.525 5.72366C99.4173 5.83054 99.3858 5.71533 99.5714 5.71477C99.6655 5.71446 99.7254 5.75449 99.759 5.77459C99.767 5.77808 99.7749 5.78157 99.7828 5.78506ZM88.56 6.01291C89.6239 6.00743 90.235 5.82347 91.0033 5.95372C90.5073 5.65419 87.3168 6.03527 86.1923 5.80622C86.0769 5.85814 85.9616 5.91008 85.8463 5.96205C86.4559 5.90402 86.8817 5.99613 87.1801 6.00418C87.4172 6.01058 87.3914 5.95952 87.4095 5.95986C87.4104 5.95984 87.4112 5.95982 87.4121 5.95981C87.9672 5.96903 88.14 6.01517 88.56 6.01291ZM44.5207 7.64472C44.8099 7.70652 45.3085 7.67106 45.3079 7.5573C45.0282 7.53984 44.7487 7.52244 44.4693 7.5051C44.528 7.53097 44.4713 7.63415 44.5207 7.64472ZM28.616 8.6772C28.8423 8.6998 29.3675 8.63394 29.1342 8.55043C29.0924 8.53563 28.5701 8.63803 28.8677 8.44154C28.355 8.47696 28.4875 8.6641 28.616 8.6772ZM70.377 6.30953C70.1898 6.31978 70.0026 6.33007 69.8156 6.3404C69.7737 6.38787 69.7318 6.43534 69.69 6.48282C69.9189 6.42499 70.1479 6.36723 70.377 6.30953ZM42.111 7.85974C41.8485 7.64998 41.4347 7.89248 40.9562 7.73535C40.7833 7.74393 40.6105 7.75253 40.4377 7.76116C40.4373 7.76118 40.4368 7.76121 40.4364 7.76123C40.4353 7.82264 40.4342 7.88404 40.4331 7.94545C40.9917 7.91666 41.551 7.88808 42.111 7.85974ZM82.0835 6.04422C81.9672 6.01884 81.8509 5.99349 81.7346 5.96815C81.5299 6.0069 81.3252 6.04571 81.1206 6.08457C81.2324 6.10526 81.3442 6.12597 81.4561 6.1467C81.6651 6.11248 81.8743 6.07832 82.0835 6.04422ZM39.0763 8.05526C39.6809 8.04786 39.8964 7.8398 39.1251 7.88462C38.7996 7.90379 38.4395 8.0634 39.0763 8.05526ZM111.343 5.68292C111.135 5.66543 110.927 5.64802 110.72 5.63068C110.649 5.67146 110.578 5.71225 110.507 5.75305C110.786 5.72954 111.064 5.70616 111.343 5.68292ZM25.7441 8.8398C25.7657 8.7973 25.7873 8.7548 25.8089 8.71229C25.9941 8.70855 26.1793 8.70483 26.3647 8.70112C26.3208 8.74477 26.277 8.78842 26.2332 8.83207C26.0701 8.83463 25.907 8.83722 25.7441 8.8398ZM109.946 5.65327C109.78 5.64505 109.614 5.63687 109.449 5.62874C109.337 5.64848 109.226 5.66823 109.114 5.68801C109.269 5.70803 109.424 5.72808 109.58 5.74818C109.702 5.71652 109.824 5.68489 109.946 5.65327ZM33.3401 8.38266C33.5763 8.41744 34.4998 8.20674 33.6571 8.21928C33.1204 8.22743 33.3046 8.37734 33.3401 8.38266ZM32.0867 8.50965C32.98 8.54824 32.2842 8.11352 31.2459 8.48815C32.308 8.37922 32.0343 8.50726 32.0867 8.50965ZM24.3127 9.25336C24.2904 9.25457 24.2679 9.18732 24.0889 9.19651C23.4449 9.22978 22.5955 9.25863 22.1366 9.28482C21.0342 9.34714 17.6672 9.69733 17.2571 9.52653C17.1721 9.49052 17.353 9.35348 17.3191 9.34935C17.2196 9.33814 16.6589 9.43664 16.7572 9.33811C17.3114 9.3013 17.8661 9.26456 18.4217 9.2279C18.2897 9.30158 18.1577 9.37527 18.0258 9.44896C19.4074 9.32138 18.9499 9.35623 19.3389 9.189C19.5759 9.22778 19.8122 9.26664 20.0489 9.30548C20.5526 9.21687 21.057 9.12833 21.562 9.03988C21.4494 9.08831 21.3368 9.13675 21.2243 9.18519C21.9953 9.20986 21.7793 9.17447 22.1923 9.04779C22.1958 9.08851 22.1994 9.12924 22.2029 9.16997C22.937 9.0216 23.0898 9.13436 23.2519 9.12516C23.5835 9.1058 23.98 8.59492 25.2712 8.99299C25.7885 8.72742 25.807 9.19804 26.1047 8.93886C27.0237 9.14052 25.3014 9.15739 24.4917 9.20183C24.4913 9.20185 24.4909 9.20188 24.4904 9.20191C24.4293 9.20517 24.5291 9.24261 24.3127 9.25336ZM28.934 8.71472C28.4022 8.96132 30.5583 8.84442 29.8259 8.58361C29.7191 8.58037 29.6124 8.57715 29.5057 8.57393C29.3149 8.62085 29.1253 8.66772 28.9328 8.7148C28.9332 8.71477 28.9336 8.71474 28.934 8.71472ZM49.2286 7.66444C51.2189 7.47225 50.078 7.40983 49.4087 7.56464C49.2752 7.5954 49.2032 7.63172 49.2286 7.66444ZM90.0854 6.14596C90.1142 6.11991 90.143 6.09387 90.1718 6.06783C89.4994 6.10417 88.199 6.03252 88.2206 6.20412C88.8415 6.18417 89.4631 6.16478 90.0854 6.14596ZM84.7818 6.37321C84.927 6.38001 85.5158 6.39049 85.443 6.3279C85.1884 6.28833 84.9305 6.24893 84.6739 6.20959C84.5555 6.24096 84.4371 6.27236 84.3188 6.30377C84.4852 6.30934 84.7426 6.37144 84.7818 6.37321Z" fill="var(--stroke-0, #0061FE)"/>
</g>
</svg>
